<?xml version="1.0" encoding="UTF-8" standalone="no"?>
<svg
   viewBox="0 0 128 128"
   version="1.1"
   id="svg5"
   sodipodi:docname="Angular.svg"
   width="64"
   height="64"
   inkscape:version="1.3.2 (091e20ef0f, 2023-11-25, custom)"
   xmlns:inkscape="http://www.inkscape.org/namespaces/inkscape"
   xmlns:sodipodi="http://sodipodi.sourceforge.net/DTD/sodipodi-0.dtd"
   xmlns="http://www.w3.org/2000/svg"
   xmlns:svg="http://www.w3.org/2000/svg">
  <defs
     id="defs5" />
  <sodipodi:namedview
     id="namedview5"
     pagecolor="#ffffff"
     bordercolor="#000000"
     borderopacity="0.25"
     inkscape:showpageshadow="2"
     inkscape:pageopacity="0.0"
     inkscape:pagecheckerboard="0"
     inkscape:deskcolor="#d1d1d1"
     inkscape:zoom="6.25"
     inkscape:cx="64"
     inkscape:cy="64"
     inkscape:window-width="1920"
     inkscape:window-height="1004"
     inkscape:window-x="0"
     inkscape:window-y="0"
     inkscape:window-maximized="1"
     inkscape:current-layer="svg5" />
  <path
     fill="#b3b3b3"
     d="M 63.81,1.026 4.553,21.88 l 9.363,77.637 49.957,27.457 50.214,-27.828 9.36,-77.635 z"
     id="path1" />
  <path
     fill="#a6120d"
     d="M 117.536,25.998 63.672,7.629 v 112.785 l 45.141,-24.983 z"
     id="path2" />
  <path
     fill="#dd1b16"
     d="m 11.201,26.329 8.026,69.434 44.444,24.651 V 7.627 Z"
     id="path3" />
  <path
     fill="#f2f2f2"
     d="M 78.499,67.67 63.672,74.604 H 48.044 L 40.697,92.978 27.034,93.232 63.672,11.724 Z M 77.065,64.179 63.77,37.858 52.864,63.726 h 10.807 z"
     id="path4" />
  <path
     fill="#b3b3b3"
     d="m 63.671,11.724 0.098,26.134 12.375,25.888 H 63.698 l -0.027,10.841 17.209,0.017 8.042,18.63 13.074,0.242 z"
     id="path5" />
</svg>
