<?xml version="1.0" encoding="UTF-8"?>
<svg version="1.1" xmlns="http://www.w3.org/2000/svg" width="128" height="128">
<path d="M0 0 C14.66593153 10.19568513 25.60840641 23.74932626 29.74780273 41.46484375 C31.86603529 54.29763126 31.44584138 68.79991362 26.125 80.75 C25.76277344 81.62269531 25.40054688 82.49539062 25.02734375 83.39453125 C17.33536706 100.36902897 3.07751411 111.05081733 -13.734375 117.91796875 C-30.02500275 122.93228047 -49.3872321 120.84818754 -64.375 113.25 C-80.79373216 104.34772371 -91.48385123 89.95575147 -96.98828125 72.1484375 C-100.09059644 59.05712927 -99.35177869 43.05030624 -93.875 30.75 C-93.51277344 29.87730469 -93.15054688 29.00460938 -92.77734375 28.10546875 C-85.8549626 12.82929883 -73.23462165 1.78063924 -57.87109375 -4.47265625 C-38.93392049 -11.50790437 -17.48941603 -10.43527048 0 0 Z " fill="#F2780C" transform="translate(97.875,8.25)"/>
<path d="M0 0 C2.11386458 -0.00436098 4.22561717 -0.04068319 6.33911133 -0.07861328 C15.15790348 -0.15410291 21.3510404 0.31007224 28.0949707 6.44091797 C28.64282227 7.11896484 29.19067383 7.79701172 29.75512695 8.49560547 C30.32102539 9.17880859 30.88692383 9.86201172 31.4699707 10.56591797 C34.41615765 14.51124657 33.93009847 18.25984339 33.88012695 22.99560547 C33.87561523 23.79740234 33.87110352 24.59919922 33.86645508 25.42529297 C33.85465863 27.40709553 33.836723 29.3888598 33.81762695 31.37060547 C34.70514648 31.40927734 34.70514648 31.40927734 35.6105957 31.44873047 C40.85355325 31.82506021 44.05712689 32.38219631 47.81762695 36.37060547 C52.30602247 43.85390218 50.75585772 56.48843457 49.1652832 64.76513672 C46.67974112 71.70971996 42.24308314 75.60615349 35.81030273 78.91967773 C31.21423074 80.85331117 26.78899137 80.83824629 21.8605957 80.83935547 C20.44608879 80.85077576 20.44608879 80.85077576 19.00300598 80.86242676 C17.01537714 80.87319041 15.02769192 80.87609613 13.04003906 80.87158203 C10.02416958 80.8706116 7.010863 80.91223717 3.99536133 80.95654297 C-15.62265501 81.07837251 -15.62265501 81.07837251 -23.75952148 73.99829102 C-29.80013903 67.60317205 -30.64403053 59.82645015 -30.6159668 51.49951172 C-30.62120865 50.57774643 -30.6264505 49.65598114 -30.6318512 48.70628357 C-30.63824069 46.76749676 -30.63697449 44.82867103 -30.62841797 42.88989258 C-30.61990627 39.94460178 -30.64871518 37.00125223 -30.68041992 34.05615234 C-30.68203233 32.16227271 -30.68145364 30.26838968 -30.6784668 28.37451172 C-30.68970078 27.50548721 -30.70093475 26.63646271 -30.71250916 25.74110413 C-30.63247299 18.62226716 -28.85012641 12.54751256 -24.2175293 7.03076172 C-23.24106445 6.23992188 -23.24106445 6.23992188 -22.24487305 5.43310547 C-21.59647461 4.88783203 -20.94807617 4.34255859 -20.2800293 3.78076172 C-13.95925213 -0.46840133 -7.324292 -0.00169172 0 0 Z " fill="#FEFDFD" transform="translate(54.182373046875,23.62939453125)"/>
<path d="M0 0 C1.1149585 -0.00430527 1.1149585 -0.00430527 2.25244141 -0.00869751 C3.8225989 -0.01073726 5.39278186 -0.0052135 6.96289062 0.00732422 C9.36646332 0.02338047 11.76835461 0.00747398 14.171875 -0.01171875 C15.69792038 -0.0097363 17.22396471 -0.00589259 18.75 0 C19.46881348 -0.00607269 20.18762695 -0.01214539 20.92822266 -0.0184021 C23.86392776 0.02298373 25.88243419 0.05327201 28.328125 1.76708984 C29.8397433 4.12264803 29.78591365 5.65901318 29.375 8.3984375 C28.328125 10.02978516 28.328125 10.02978516 26.375 11.3984375 C23.75246542 11.69662328 21.37206034 11.81902674 18.75 11.796875 C17.6350415 11.80118027 17.6350415 11.80118027 16.49755859 11.80557251 C14.9274011 11.80761226 13.35721814 11.8020885 11.78710938 11.78955078 C9.38353668 11.77349453 6.98164539 11.78940102 4.578125 11.80859375 C3.05207962 11.8066113 1.52603529 11.80276759 0 11.796875 C-0.71881348 11.80294769 -1.43762695 11.80902039 -2.17822266 11.8152771 C-5.11392776 11.77389127 -7.13243419 11.74360299 -9.578125 10.02978516 C-11.0897433 7.67422697 -11.03591365 6.13786182 -10.625 3.3984375 C-8.07702002 -0.5720854 -4.26110197 -0.03599872 0 0 Z " fill="#F2790E" transform="translate(54.625,72.6015625)"/>
<path d="M0 0 C1.44729492 -0.00580078 1.44729492 -0.00580078 2.92382812 -0.01171875 C4.43299805 0.00568359 4.43299805 0.00568359 5.97265625 0.0234375 C6.97490234 0.01183594 7.97714844 0.00023437 9.00976562 -0.01171875 C9.97591797 -0.00785156 10.94207031 -0.00398438 11.9375 0 C13.25995728 0.00507568 13.25995728 0.00507568 14.60913086 0.01025391 C17.52472809 0.47677294 18.91236436 1.3717915 21.03515625 3.3984375 C21.47265625 5.8984375 21.47265625 5.8984375 21.03515625 8.3984375 C19.35301848 10.6829994 18.46082667 11.32971126 15.63085938 11.78662109 C14.70208984 11.79000488 13.77332031 11.79338867 12.81640625 11.796875 C11.80191406 11.80074219 10.78742187 11.80460937 9.7421875 11.80859375 C8.68386719 11.79699219 7.62554687 11.78539062 6.53515625 11.7734375 C5.47683594 11.78503906 4.41851562 11.79664063 3.328125 11.80859375 C1.80638672 11.80279297 1.80638672 11.80279297 0.25390625 11.796875 C-0.67486328 11.79349121 -1.60363281 11.79010742 -2.56054688 11.78662109 C-5.38955073 11.32986682 -6.28640753 10.68540952 -7.96484375 8.3984375 C-8.33984375 5.8984375 -8.33984375 5.8984375 -7.96484375 3.3984375 C-5.63031181 0.25910516 -3.81411285 0.01465758 0 0 Z " fill="#F27A0F" transform="translate(51.96484375,43.6015625)"/>
</svg>
