<?xml version="1.0" encoding="UTF-8" standalone="no"?>
<svg
   version="1.1"
   width="64"
   height="64"
   id="svg4"
   sodipodi:docname="Blogging.svg"
   viewBox="0 0 128 128"
   inkscape:version="1.3.2 (091e20ef0f, 2023-11-25, custom)"
   xmlns:inkscape="http://www.inkscape.org/namespaces/inkscape"
   xmlns:sodipodi="http://sodipodi.sourceforge.net/DTD/sodipodi-0.dtd"
   xmlns="http://www.w3.org/2000/svg"
   xmlns:svg="http://www.w3.org/2000/svg">
  <defs
     id="defs4" />
  <sodipodi:namedview
     id="namedview4"
     pagecolor="#ffffff"
     bordercolor="#000000"
     borderopacity="0.25"
     inkscape:showpageshadow="2"
     inkscape:pageopacity="0.0"
     inkscape:pagecheckerboard="0"
     inkscape:deskcolor="#d1d1d1"
     inkscape:zoom="6.25"
     inkscape:cx="64"
     inkscape:cy="64"
     inkscape:window-width="1920"
     inkscape:window-height="1004"
     inkscape:window-x="0"
     inkscape:window-y="0"
     inkscape:window-maximized="1"
     inkscape:current-layer="svg4" />
  <path
     d="m 97.875,8.25 c 14.66593,10.195685 25.60841,23.749326 29.7478,41.464844 C 129.74103,62.547631 129.32084,77.049914 124,89 c -0.36223,0.872695 -0.72445,1.745391 -1.09766,2.644531 C 115.21037,108.61903 100.95251,119.30082 84.140625,126.16797 67.849997,131.18228 48.487768,129.09819 33.5,121.5 17.081268,112.59772 6.391149,98.205751 0.886719,80.398437 -2.2156,67.307129 -1.476779,51.300306 4,39 4.362227,38.127305 4.724453,37.254609 5.097656,36.355469 12.020037,21.079299 24.640378,10.030639 40.003906,3.7773438 58.94108,-3.257904 80.385584,-2.18527 97.875,8.25 Z"
     fill="#f2780c"
     id="path1" />
  <path
     d="m 54.182373,23.629395 c 2.113865,-0.0044 4.225617,-0.04068 6.339111,-0.07861 8.818792,-0.07549 15.011929,0.388685 21.75586,6.519531 0.547851,0.678047 1.095703,1.356094 1.660156,2.054687 0.565898,0.683204 1.131797,1.366407 1.714844,2.070313 2.946187,3.945329 2.460127,7.693925 2.410156,12.429687 -0.0045,0.801797 -0.009,1.603594 -0.01367,2.429688 C 88.03703,51.036491 88.0191,53.018255 88,55 c 0.887519,0.03867 0.887519,0.03867 1.792969,0.07813 5.242957,0.37633 8.446531,0.933466 12.207031,4.921875 4.48839,7.483297 2.93823,20.11783 1.34766,28.394532 -2.48555,6.944583 -6.922204,10.841016 -13.354984,14.154543 -4.596072,1.93363 -9.021312,1.91857 -13.949707,1.91968 -1.414507,0.0114 -1.414507,0.0114 -2.85759,0.0231 -1.987629,0.0108 -3.975314,0.0137 -5.962967,0.009 -3.015869,-9.7e-4 -6.029176,0.0407 -9.044678,0.085 -19.618016,0.12183 -19.618016,0.12183 -27.754882,-6.958257 -6.040618,-6.395119 -6.88451,-14.171841 -6.856446,-22.498779 -0.0052,-0.921766 -0.01048,-1.843531 -0.01588,-2.793228 -0.0064,-1.938787 -0.0051,-3.877613 0.0034,-5.816391 0.0085,-2.945291 -0.0203,-5.888641 -0.052,-8.833741 -0.0016,-1.893879 -0.001,-3.787762 0.002,-5.68164 -0.01123,-0.869025 -0.02247,-1.738049 -0.03404,-2.633408 0.08004,-7.118837 1.862383,-13.193591 6.49498,-18.710342 0.976465,-0.79084 0.976465,-0.79084 1.972656,-1.597656 0.648398,-0.545274 1.296797,-1.090547 1.964844,-1.652344 6.320755,-4.24921 12.955715,-3.782501 20.280007,-3.780809 z"
     fill="#fefdfd"
     id="path2" />
  <path
     d="m 54.625,72.601562 c 1.114958,-0.0043 1.114958,-0.0043 2.252441,-0.0087 1.570158,-0.002 3.140341,0.0035 4.71045,0.01602 2.403572,0.01606 4.805464,1.5e-4 7.208984,-0.01904 1.526045,0.002 3.05209,0.0058 4.578125,0.01172 0.718813,-0.0061 1.437627,-0.01215 2.178223,-0.0184 2.935705,0.04139 4.954211,0.07167 7.399902,1.785492 C 84.464743,76.72421 84.410914,78.260575 84,81 c -1.046875,1.631347 -1.046875,1.631347 -3,3 -2.622535,0.298185 -5.00294,0.420589 -7.625,0.398437 -1.114959,0.0043 -1.114959,0.0043 -2.252441,0.0087 -1.570158,0.002 -3.140341,-0.0035 -4.71045,-0.01602 -2.403572,-0.01606 -4.805464,-1.5e-4 -7.208984,0.01904 -1.526045,-0.002 -3.05209,-0.0058 -4.578125,-0.01172 -0.718813,0.0061 -1.437627,0.01215 -2.178223,0.0184 -2.935705,-0.04139 -4.954211,-0.07167 -7.399902,-1.785492 C 43.535257,80.275789 43.589086,78.739424 44,76 c 2.54798,-3.970523 6.363898,-3.434437 10.625,-3.398438 z"
     fill="#f2790e"
     id="path3" />
  <path
     d="m 51.964844,43.601562 c 1.447295,-0.0058 1.447295,-0.0058 2.923828,-0.01172 1.50917,0.0174 1.50917,0.0174 3.048828,0.03516 1.002246,-0.0116 2.004492,-0.0232 3.03711,-0.03516 0.966152,0.0039 1.932304,0.0077 2.927734,0.01172 1.322457,0.0051 1.322457,0.0051 2.671631,0.01025 C 69.489572,44.078335 70.877208,44.973354 73,47 c 0.4375,2.5 0.4375,2.5 0,5 -1.682138,2.284561 -2.574329,2.931273 -5.404297,3.388183 -0.928769,0.0034 -1.857539,0.0068 -2.814453,0.01025 -1.014492,0.0039 -2.028984,0.0077 -3.074219,0.01172 -1.05832,-0.0116 -2.11664,-0.0232 -3.207031,-0.03516 -1.05832,0.0116 -2.11664,0.0232 -3.207031,0.03516 -1.521738,-0.0058 -1.521738,-0.0058 -3.074219,-0.01172 -0.928769,-0.0034 -1.857539,-0.0068 -2.814453,-0.01025 C 46.575293,54.931429 45.678436,54.286972 44,52 c -0.375,-2.5 -0.375,-2.5 0,-5 2.334532,-3.139333 4.150731,-3.38378 7.964844,-3.398438 z"
     fill="#f27a0f"
     id="path4" />
</svg>
