<?xml version="1.0" encoding="UTF-8" standalone="no"?>
<svg
   version="1.1"
   width="64"
   height="64"
   id="svg4"
   sodipodi:docname="Continuous Integration.svg"
   viewBox="0 0 128 128"
   inkscape:version="1.3.2 (091e20ef0f, 2023-11-25, custom)"
   xmlns:inkscape="http://www.inkscape.org/namespaces/inkscape"
   xmlns:sodipodi="http://sodipodi.sourceforge.net/DTD/sodipodi-0.dtd"
   xmlns="http://www.w3.org/2000/svg"
   xmlns:svg="http://www.w3.org/2000/svg">
  <defs
     id="defs4" />
  <sodipodi:namedview
     id="namedview4"
     pagecolor="#ffffff"
     bordercolor="#000000"
     borderopacity="0.25"
     inkscape:showpageshadow="2"
     inkscape:pageopacity="0.0"
     inkscape:pagecheckerboard="0"
     inkscape:deskcolor="#d1d1d1"
     inkscape:zoom="6.25"
     inkscape:cx="64"
     inkscape:cy="64"
     inkscape:window-width="1920"
     inkscape:window-height="1004"
     inkscape:window-x="0"
     inkscape:window-y="0"
     inkscape:window-maximized="1"
     inkscape:current-layer="svg4" />
  <path
     d="m 111,41 c 2.31,0.33 4.62,0.66 7,1 5.36838,16.7804 5.4886,31.998235 -2.125,48.25 -3.45048,6.493314 -7.61191,11.64754 -12.875,16.75 -0.56332,0.57234 -1.12664,1.14469 -1.70703,1.73438 C 90.355674,119.05961 75.137877,122.64756 60.488281,122.28906 51.415534,121.53723 43.098977,119.12274 35,115 c -0.2475,0.96938 -0.495,1.93875 -0.75,2.9375 C 33,121 33,121 31.125,122.0625 28.144953,121.97485 27.146831,121.04925 25,119 c -2.312427,-6.38506 -3.473124,-13.21855 -3,-20 6.91177,-3.235297 14.259622,-5.755159 22,-5 2,2 2,2 2.125,4.625 -0.04125,0.78375 -0.0825,1.5675 -0.125,2.375 -3.96,1.98 -3.96,1.98 -8,4 13.332447,6.52916 25.739341,9.51291 40.347656,4.96484 C 91.774537,105.08054 101.39052,96.758691 108,84 113.17027,71.847009 112.73126,60.707664 109.46094,48.101562 108.97428,44.826919 109.16382,43.681608 111,41 Z"
     fill="#0a4e6b"
     id="path1" />
  <path
     d="M 94,14 C 93.979375,13.030625 93.95875,12.06125 93.9375,11.0625 94,8 94,8 95,7 c 1.999584,-0.040808 4.000452,-0.042544 6,0 3.29934,7.198556 5.64351,13.956192 5,22 -4.34613,4.346126 -13.154299,5.146331 -19.1875,5.3125 C 84,34 84,34 82,32 81.875,29.375 81.875,29.375 82,27 84.31,26.01 86.62,25.02 89,24 84.467576,18.694487 75.74523,16.574062 69,16 55.178538,15.000256 42.379776,19.199397 31.8125,28.125 22.389236,37.044505 16.590526,48.259814 15.875,61.273437 c -0.126087,5.122298 0.43221,9.59023 1.675781,14.546875 C 18.263634,79.279199 18.188657,82.47841 18,86 17.505,86.495 17.505,86.495 17,87 14.660553,86.712699 12.326086,86.380632 10,86 4.599785,67.002814 4.653095,51.373255 14.308594,33.589844 22.962106,19.690293 35.575531,11.667347 51,7 66.448624,3.910275 80.127479,7.063739 94,14 Z"
     fill="#0a4e6b"
     id="path2" />
  <path
     d="m 76.230469,45.957031 c 4.248999,1.600116 6.925011,4.540936 10.082031,7.730469 0.645176,0.612949 1.290352,1.225898 1.955078,1.857422 2.735355,2.729565 4.503265,4.669101 5.595703,8.416015 C 92.503452,68.748029 89.382141,71.52559 85.875,74.9375 85.209844,75.634238 84.544688,76.330976 83.859375,77.048828 81.977369,78.917919 80.229184,80.561392 78,82 c -3.492187,-0.05859 -3.492187,-0.05859 -6,-1 -0.808594,-2.664063 -0.808594,-2.664063 -1,-6 2.089844,-2.773438 2.089844,-2.773438 4.9375,-5.375 1.405723,-1.310977 1.405723,-1.310977 2.839844,-2.648438 C 79.510821,66.324297 80.244297,65.672031 81,65 79.163526,60.66012 76.135567,58.19073 72.679688,55.097656 71,53 71,53 70.570313,50.371093 70.783008,49.197402 70.783008,49.197402 71,48 c 3,-2 3,-2 5.230469,-2.042969 z"
     fill="#2574e2"
     id="path3" />
  <path
     d="M 53.492187,46.058594 C 54.319765,46.369258 55.147343,46.679922 56,47 c 0.808593,2.664063 0.808593,2.664063 1,6 -2.089844,2.773438 -2.089844,2.773438 -4.9375,5.375 -0.937149,0.873985 -1.874297,1.747969 -2.839844,2.648438 C 48.489179,61.675703 47.755703,62.327969 47,63 c 1.461285,3.479251 3.376012,5.39691 6.1875,7.875 2.167968,2.085938 2.167968,2.085938 3.8125,4.125 0,3.5 0,3.5 -1,6 -2.507813,0.941406 -2.507813,0.941406 -6,1 C 46.972253,80.046038 44.604405,77.534629 42.124999,74.9375 41.43664,74.267832 40.748281,73.598164 40.039062,72.908203 37.217571,70.033529 35.265675,67.894907 34.109375,64 c 1.408612,-4.744801 4.524959,-7.541618 8.015624,-10.9375 0.665157,-0.696738 1.330313,-1.393476 2.015626,-2.111328 4.999905,-4.965592 4.999905,-4.965592 9.351562,-4.892578 z"
     fill="#2574e2"
     id="path4" />
</svg>
