<?xml version="1.0" encoding="UTF-8"?>
<svg version="1.1" xmlns="http://www.w3.org/2000/svg" width="128" height="128">
<path d="M0 0 C2.31 0.33 4.62 0.66 7 1 C12.36837762 17.78040048 12.48859863 32.99823493 4.875 49.25 C1.42451719 55.74331364 -2.73690897 60.89754191 -8 66 C-8.56332031 66.57234375 -9.12664062 67.1446875 -9.70703125 67.734375 C-20.64432572 78.05960676 -35.86212308 81.64756206 -50.51171875 81.2890625 C-59.58446582 80.53723352 -67.90102298 78.12273507 -76 74 C-76.2475 74.969375 -76.495 75.93875 -76.75 76.9375 C-78 80 -78 80 -79.875 81.0625 C-82.85504749 80.97485154 -83.85316864 80.04924811 -86 78 C-88.31242741 71.61493925 -89.47312441 64.78144982 -89 58 C-82.08822963 54.76470323 -74.74037826 52.24484115 -67 53 C-65 55 -65 55 -64.875 57.625 C-64.91625 58.40875 -64.9575 59.1925 -65 60 C-68.96 61.98 -68.96 61.98 -73 64 C-59.66755303 70.52916095 -47.26065883 73.51291315 -32.65234375 68.96484375 C-19.22546256 64.08054382 -9.60948076 55.75869127 -3 43 C2.17026768 30.84700917 1.73125661 19.70766437 -1.5390625 7.1015625 C-2.02572238 3.82691892 -1.83617519 2.68160838 0 0 Z " fill="#0A4E6B" transform="translate(111,41)"/>
<path d="M0 0 C-0.020625 -0.969375 -0.04125 -1.93875 -0.0625 -2.9375 C0 -6 0 -6 1 -7 C2.99958364 -7.04080783 5.00045254 -7.04254356 7 -7 C10.2993382 0.19855607 12.64350463 6.95619208 12 15 C7.65387376 19.34612624 -1.15429873 20.14633132 -7.1875 20.3125 C-10 20 -10 20 -12 18 C-12.125 15.375 -12.125 15.375 -12 13 C-9.69 12.01 -7.38 11.02 -5 10 C-9.53242407 4.69448688 -18.25476988 2.57406214 -25 2 C-38.82146239 1.00025589 -51.62022359 5.199397 -62.1875 14.125 C-71.61076447 23.04450505 -77.40947433 34.25981444 -78.125 47.2734375 C-78.25108733 52.39573538 -77.69278989 56.86366725 -76.44921875 61.8203125 C-75.73636588 65.27919862 -75.81134337 68.47840953 -76 72 C-76.495 72.495 -76.495 72.495 -77 73 C-79.33944736 72.71269945 -81.6739143 72.38063221 -84 72 C-89.40021525 53.00281421 -89.34690528 37.3732554 -79.69140625 19.58984375 C-71.03789415 5.69029315 -58.4244688 -2.33265353 -43 -7 C-27.55137627 -10.08972475 -13.87252108 -6.93626054 0 0 Z " fill="#0A4E6B" transform="translate(94,14)"/>
<path d="M0 0 C4.24899858 1.60011653 6.92501141 4.54093583 10.08203125 7.73046875 C10.72720703 8.34341797 11.37238281 8.95636719 12.03710938 9.58789062 C14.77246365 12.31745579 16.54037432 14.25699158 17.6328125 18.00390625 C16.27298298 22.7909984 13.15167246 25.5685589 9.64453125 28.98046875 C8.979375 29.67720703 8.31421875 30.37394531 7.62890625 31.09179688 C5.74689986 32.96088753 3.99871463 34.60436119 1.76953125 36.04296875 C-1.72265625 35.984375 -1.72265625 35.984375 -4.23046875 35.04296875 C-5.0390625 32.37890625 -5.0390625 32.37890625 -5.23046875 29.04296875 C-3.140625 26.26953125 -3.140625 26.26953125 -0.29296875 23.66796875 C1.11275391 22.35699219 1.11275391 22.35699219 2.546875 21.01953125 C3.28035156 20.36726563 4.01382813 19.715 4.76953125 19.04296875 C2.93305646 14.70308884 -0.09490187 12.23369854 -3.55078125 9.140625 C-5.23046875 7.04296875 -5.23046875 7.04296875 -5.66015625 4.4140625 C-5.44746094 3.24037109 -5.44746094 3.24037109 -5.23046875 2.04296875 C-2.23046875 0.04296875 -2.23046875 0.04296875 0 0 Z " fill="#2574E2" transform="translate(76.23046875,45.95703125)"/>
<path d="M0 0 C0.82757813 0.31066406 1.65515625 0.62132812 2.5078125 0.94140625 C3.31640625 3.60546875 3.31640625 3.60546875 3.5078125 6.94140625 C1.41796875 9.71484375 1.41796875 9.71484375 -1.4296875 12.31640625 C-2.36683594 13.19039062 -3.30398437 14.064375 -4.26953125 14.96484375 C-5.00300781 15.61710937 -5.73648438 16.269375 -6.4921875 16.94140625 C-5.03090215 20.4206571 -3.1161749 22.33831647 -0.3046875 24.81640625 C1.86328125 26.90234375 1.86328125 26.90234375 3.5078125 28.94140625 C3.5078125 32.44140625 3.5078125 32.44140625 2.5078125 34.94140625 C0 35.8828125 0 35.8828125 -3.4921875 35.94140625 C-6.51993442 33.98744426 -8.88778216 31.47603529 -11.3671875 28.87890625 C-12.05554687 28.20923828 -12.74390625 27.53957031 -13.453125 26.84960938 C-16.27461623 23.97493528 -18.22651208 21.83631293 -19.3828125 17.94140625 C-17.97419977 13.19660548 -14.85785299 10.39978775 -11.3671875 7.00390625 C-10.70203125 6.30716797 -10.036875 5.61042969 -9.3515625 4.89257812 C-4.35165692 -0.07301438 -4.35165692 -0.07301438 0 0 Z " fill="#2574E2" transform="translate(53.4921875,46.05859375)"/>
</svg>
