<?xml version="1.0" encoding="UTF-8" standalone="no"?>
<svg
   viewBox="0 0 128 128"
   version="1.1"
   id="svg2"
   sodipodi:docname="Design.svg"
   width="64"
   height="64"
   inkscape:version="1.3.2 (091e20ef0f, 2023-11-25, custom)"
   xmlns:inkscape="http://www.inkscape.org/namespaces/inkscape"
   xmlns:sodipodi="http://sodipodi.sourceforge.net/DTD/sodipodi-0.dtd"
   xmlns="http://www.w3.org/2000/svg"
   xmlns:svg="http://www.w3.org/2000/svg">
  <defs
     id="defs2" />
  <sodipodi:namedview
     id="namedview2"
     pagecolor="#ffffff"
     bordercolor="#000000"
     borderopacity="0.25"
     inkscape:showpageshadow="2"
     inkscape:pageopacity="0.0"
     inkscape:pagecheckerboard="0"
     inkscape:deskcolor="#d1d1d1"
     inkscape:zoom="6.25"
     inkscape:cx="64"
     inkscape:cy="64"
     inkscape:window-width="1920"
     inkscape:window-height="1004"
     inkscape:window-x="0"
     inkscape:window-y="0"
     inkscape:window-maximized="1"
     inkscape:current-layer="svg2" />
  <path
     fill="#001e36"
     d="m 22.667,1.6 h 82.666 C 117.867,1.6 128,11.733 128,24.267 v 79.466 c 0,12.534 -10.133,22.667 -22.667,22.667 H 22.667 C 10.133,126.4 0,116.267 0,103.733 V 24.267 C 0,11.733 10.133,1.6 22.667,1.6 Z"
     id="path1" />
  <path
     fill="#31a8ff"
     d="m 45.867,33.333 c -1.6,0 -3.2,0 -4.853,0.054 -1.654,0.053 -3.201,0.053 -4.641,0.107 -1.44,0.053 -2.773,0.053 -4.053,0.106 -1.227,0.053 -2.08,0.053 -2.987,0.053 -0.373,0 -0.533,0.213 -0.533,0.587 v 54.88 c 0,0.48 0.213,0.694 0.64,0.694 h 10.347 c 0.373,-0.054 0.64,-0.374 0.586,-0.747 v -17.12 c 1.013,0 1.76,0 2.294,0.053 0.533,0.053 1.386,0.053 2.666,0.053 4.374,0 8.374,-0.48 12,-1.813 3.467,-1.28 6.454,-3.52 8.587,-6.507 2.133,-2.986 3.2,-6.773 3.2,-11.36 0,-2.4 -0.426,-4.693 -1.226,-6.933 A 16.98,16.98 0 0 0 64,39.36 19.049,19.049 0 0 0 56.853,34.986 C 53.866,33.866 50.24,33.333 45.867,33.333 Z m 1.19,10.505 c 1.9,0.036 3.75,0.368 5.476,1.068 1.547,0.587 2.827,1.654 3.734,3.04 a 8.779,8.779 0 0 1 1.227,4.748 c 0,2.346 -0.534,4.16 -1.654,5.493 -1.174,1.333 -2.667,2.347 -4.373,2.827 -1.974,0.64 -4.054,0.959 -6.134,0.959 h -2.827 c -0.64,0 -1.332,-0.053 -2.079,-0.106 v -17.92 c 0.373,-0.054 1.12,-0.107 2.187,-0.053 1.013,-0.054 2.239,-0.054 3.626,-0.054 0.273,-0.007 0.546,-0.008 0.817,-0.002 z m 44.73,2.723 c -3.787,0 -6.934,0.586 -9.44,1.866 -2.293,1.067 -4.267,2.773 -5.6,4.906 -1.173,1.974 -1.814,4.16 -1.814,6.454 a 11.447,11.447 0 0 0 1.227,5.44 13.809,13.809 0 0 0 4.054,4.533 32.629,32.629 0 0 0 7.573,3.84 c 2.613,1.013 4.373,1.813 5.227,2.506 0.853,0.694 1.28,1.387 1.28,2.134 0,0.96 -0.587,1.867 -1.44,2.24 -0.96,0.48 -2.4,0.747 -4.427,0.747 -2.133,0 -4.267,-0.267 -6.294,-0.8 A 22.834,22.834 0 0 1 75.52,77.814 c -0.16,-0.107 -0.32,-0.16 -0.48,-0.053 -0.16,0.106 -0.213,0.319 -0.213,0.479 v 9.28 c -0.053,0.427 0.213,0.8 0.587,1.013 a 21.49,21.49 0 0 0 5.44,1.707 c 2.4,0.48 4.799,0.693 7.252,0.693 3.84,0 7.041,-0.586 9.654,-1.706 2.4,-0.96 4.48,-2.613 5.973,-4.747 a 12.41,12.41 0 0 0 2.08,-7.093 11.512,11.512 0 0 0 -1.226,-5.493 c -1.014,-1.814 -2.454,-3.307 -4.214,-4.427 A 38.625,38.625 0 0 0 92.16,63.573 48.784,48.784 0 0 1 88.373,61.813 C 87.68,61.44 87.04,60.96 86.56,60.373 c -0.32,-0.427 -0.533,-0.906 -0.533,-1.386 0,-0.48 0.16,-1.013 0.426,-1.44 0.374,-0.533 0.96,-0.907 1.653,-1.067 1.014,-0.266 2.134,-0.427 3.2,-0.374 2.027,0 4,0.267 5.974,0.694 1.814,0.373 3.52,0.96 5.12,1.814 0.213,0.106 0.48,0.106 0.96,0 a 0.656,0.656 0 0 0 0.267,-0.534 v -8.693 c 0,-0.214 -0.054,-0.427 -0.107,-0.64 -0.107,-0.213 -0.32,-0.427 -0.533,-0.48 A 18.762,18.762 0 0 0 98.4,47.04 45.98,45.98 0 0 0 91.787,46.56 Z"
     id="path2" />
</svg>
