<?xml version="1.0" encoding="UTF-8" standalone="no"?>
<svg
   viewBox="0 0 128 128"
   version="1.1"
   id="svg1"
   sodipodi:docname="Documentation.svg"
   width="64"
   height="64"
   inkscape:version="1.3.2 (091e20ef0f, 2023-11-25, custom)"
   xmlns:inkscape="http://www.inkscape.org/namespaces/inkscape"
   xmlns:sodipodi="http://sodipodi.sourceforge.net/DTD/sodipodi-0.dtd"
   xmlns="http://www.w3.org/2000/svg"
   xmlns:svg="http://www.w3.org/2000/svg">
  <defs
     id="defs1" />
  <sodipodi:namedview
     id="namedview1"
     pagecolor="#ffffff"
     bordercolor="#000000"
     borderopacity="0.25"
     inkscape:showpageshadow="2"
     inkscape:pageopacity="0.0"
     inkscape:pagecheckerboard="0"
     inkscape:deskcolor="#d1d1d1"
     inkscape:zoom="6.25"
     inkscape:cx="64"
     inkscape:cy="64"
     inkscape:window-width="1920"
     inkscape:window-height="1004"
     inkscape:window-x="0"
     inkscape:window-y="0"
     inkscape:window-maximized="1"
     inkscape:current-layer="svg1" />
  <path
     fill="#32322a"
     d="m 57.62,61.68 c -1.7,0.24 -2.87,1.78 -2.62,3.43 a 3.07,3.07 0 0 0 2.22,2.54 c 0,0 7.47,2.46 20.18,3.51 10.21,0.85 21.8,-0.73 21.8,-0.73 1.7,-0.04 3.03,-1.45 2.99,-3.15 a 3.065,3.065 0 0 0 -3.15,-2.99 c -0.2,0 -0.4,0.04 -0.61,0.08 0,0 -11.34,1.41 -20.55,0.65 C 65.73,64.05 59.11,61.83 59.11,61.83 58.63,61.67 58.1,61.59 57.62,61.67 Z m 0,-15.22 c -1.7,0.24 -2.87,1.78 -2.62,3.43 a 3.07,3.07 0 0 0 2.22,2.54 c 0,0 7.47,2.46 20.18,3.51 10.21,0.85 21.8,-0.73 21.8,-0.73 1.7,-0.04 3.03,-1.45 2.99,-3.15 a 3.065,3.065 0 0 0 -3.15,-2.99 c -0.2,0 -0.4,0.04 -0.61,0.08 0,0 -11.34,1.41 -20.55,0.65 C 65.73,48.83 59.11,46.61 59.11,46.61 58.63,46.45 58.1,46.37 57.62,46.45 Z m 0,-15.22 c -1.7,0.24 -2.87,1.78 -2.62,3.43 a 3.07,3.07 0 0 0 2.22,2.54 c 0,0 7.47,2.46 20.18,3.51 10.21,0.85 21.8,-0.73 21.8,-0.73 1.7,-0.04 3.03,-1.45 2.99,-3.15 a 3.065,3.065 0 0 0 -3.15,-2.99 c -0.2,0 -0.4,0.04 -0.61,0.08 0,0 -11.34,1.41 -20.55,0.65 C 65.73,33.61 59.11,31.39 59.11,31.39 58.63,31.23 58.1,31.19 57.62,31.23 Z m 0,-15.18 c -1.7,0.24 -2.87,1.78 -2.62,3.43 a 3.07,3.07 0 0 0 2.22,2.54 c 0,0 7.47,2.46 20.18,3.51 10.21,0.85 21.8,-0.73 21.8,-0.73 1.7,-0.04 3.03,-1.45 2.99,-3.15 a 3.065,3.065 0 0 0 -3.15,-2.99 c -0.2,0 -0.4,0.04 -0.61,0.08 0,0 -11.34,1.41 -20.55,0.65 C 65.73,18.43 59.11,16.21 59.11,16.21 A 2.74,2.74 0 0 0 57.62,16.05 Z M 36.31,0 C 20.32,0.12 14.39,5.05 14.39,5.05 v 119.37 c 0,0 5.81,-5.01 24.54,-4.24 18.73,0.77 22.57,7.35 45.58,7.79 23.01,0.44 28.78,-3.55 28.78,-3.55 L 113.61,2.75 c 0,0 -10.33,2.95 -30.52,3.11 C 62.95,6.01 58.11,0.73 39.62,0.12 38.49,0.04 37.4,0 36.31,0 Z m 13.36,7.79 c 0,0 9.69,3.19 27.57,4.08 15.14,0.77 30.28,-1.49 30.28,-1.49 v 108.15 c 0,0 -7.67,4.04 -26.84,2.66 -14.86,-1.05 -31.2,-6.7 -31.2,-6.7 L 49.68,7.8 Z m -9.32,2.83 c 1.7,0 3.11,1.37 3.11,3.11 0,1.74 -1.37,3.11 -3.11,3.11 0,0 -5.01,0.04 -8.07,0.32 -5.13,0.52 -8.64,2.38 -8.64,2.38 -1.49,0.81 -3.39,0.2 -4.16,-1.29 -0.81,-1.49 -0.2,-3.39 1.29,-4.16 1.49,-0.77 4.56,-2.42 10.9,-3.03 3.67,-0.4 8.68,-0.44 8.68,-0.44 z m -2.99,15.26 c 1.7,-0.04 2.99,0 2.99,0 1.7,0.2 2.91,1.74 2.7,3.43 a 3.08,3.08 0 0 1 -2.7,2.7 c 0,0 -5.01,0.04 -8.07,0.32 -5.13,0.52 -8.64,2.38 -8.64,2.38 -1.49,0.81 -3.39,0.2 -4.16,-1.29 -0.81,-1.49 -0.2,-3.39 1.29,-4.16 0,0 4.56,-2.42 10.9,-3.03 1.86,-0.24 4,-0.32 5.69,-0.36 z m 2.99,15.18 c 1.7,0 3.11,1.37 3.11,3.11 0,1.74 -1.37,3.11 -3.11,3.11 0,0 -5.01,-0.04 -8.07,0.28 -5.13,0.52 -8.64,2.38 -8.64,2.38 -1.49,0.81 -3.39,0.2 -4.16,-1.29 -0.81,-1.49 -0.2,-3.39 1.29,-4.16 0,0 4.56,-2.42 10.9,-3.03 3.67,-0.44 8.68,-0.4 8.68,-0.4 z"
     id="path1" />
</svg>
