<?xml version="1.0" encoding="UTF-8" standalone="no"?>
<svg
   viewBox="0 0 128 128"
   version="1.1"
   id="svg1"
   sodipodi:docname="Git.svg"
   width="64"
   height="64"
   inkscape:version="1.3.2 (091e20ef0f, 2023-11-25, custom)"
   xmlns:inkscape="http://www.inkscape.org/namespaces/inkscape"
   xmlns:sodipodi="http://sodipodi.sourceforge.net/DTD/sodipodi-0.dtd"
   xmlns="http://www.w3.org/2000/svg"
   xmlns:svg="http://www.w3.org/2000/svg">
  <defs
     id="defs1" />
  <sodipodi:namedview
     id="namedview1"
     pagecolor="#ffffff"
     bordercolor="#000000"
     borderopacity="0.25"
     inkscape:showpageshadow="2"
     inkscape:pageopacity="0.0"
     inkscape:pagecheckerboard="0"
     inkscape:deskcolor="#d1d1d1"
     inkscape:zoom="6.25"
     inkscape:cx="64"
     inkscape:cy="64"
     inkscape:window-width="1920"
     inkscape:window-height="1004"
     inkscape:window-x="0"
     inkscape:window-y="0"
     inkscape:window-maximized="1"
     inkscape:current-layer="svg1" />
  <path
     fill="#f34f29"
     d="M 124.737,58.378 69.621,3.264 C 66.449,0.09 61.301,0.09 58.124,3.264 L 46.68,14.71 61.198,29.228 c 3.375,-1.139 7.243,-0.375 9.932,2.314 2.703,2.706 3.461,6.607 2.294,9.993 l 13.992,13.993 c 3.385,-1.167 7.292,-0.413 9.994,2.295 3.78,3.777 3.78,9.9 0,13.679 a 9.673,9.673 0 0 1 -13.683,0 9.677,9.677 0 0 1 -2.105,-10.521 L 68.574,47.933 68.572,82.274 a 9.708,9.708 0 0 1 2.559,1.828 c 3.778,3.777 3.778,9.898 0,13.683 -3.779,3.777 -9.904,3.777 -13.679,0 -3.778,-3.784 -3.778,-9.905 0,-13.683 a 9.65,9.65 0 0 1 3.167,-2.11 V 47.333 A 9.581,9.581 0 0 1 57.452,45.222 C 54.59,42.362 53.901,38.162 55.369,34.646 L 41.056,20.333 3.264,58.123 a 8.133,8.133 0 0 0 0,11.5 l 55.117,55.114 c 3.174,3.174 8.32,3.174 11.499,0 l 54.858,-54.858 a 8.135,8.135 0 0 0 -0.001,-11.501 z"
     id="path1" />
</svg>
