<?xml version="1.0" encoding="UTF-8" standalone="no"?>
<svg
   viewBox="0 0 128 128"
   version="1.1"
   id="svg17"
   sodipodi:docname="Node.js.svg"
   width="64"
   height="64"
   inkscape:version="1.3.2 (091e20ef0f, 2023-11-25, custom)"
   xmlns:inkscape="http://www.inkscape.org/namespaces/inkscape"
   xmlns:sodipodi="http://sodipodi.sourceforge.net/DTD/sodipodi-0.dtd"
   xmlns="http://www.w3.org/2000/svg"
   xmlns:svg="http://www.w3.org/2000/svg">
  <sodipodi:namedview
     id="namedview17"
     pagecolor="#ffffff"
     bordercolor="#000000"
     borderopacity="0.25"
     inkscape:showpageshadow="2"
     inkscape:pageopacity="0.0"
     inkscape:pagecheckerboard="0"
     inkscape:deskcolor="#d1d1d1"
     inkscape:zoom="10.168797"
     inkscape:cx="64.019374"
     inkscape:cy="64.019374"
     inkscape:window-width="1920"
     inkscape:window-height="1004"
     inkscape:window-x="0"
     inkscape:window-y="0"
     inkscape:window-maximized="1"
     inkscape:current-layer="svg17" />
  <path
     fill="#5fa04e"
     d="m 114.313,55.254 a 0.26,0.26 0 0 0 -0.145,0.044 l -2.346,1.37 a 0.3,0.3 0 0 0 -0.142,0.26 v 2.74 c 0,0.116 0.055,0.204 0.142,0.262 l 2.346,1.368 a 0.262,0.262 0 0 0 0.29,0 L 116.8,59.93 a 0.308,0.308 0 0 0 0.145,-0.263 V 56.93 A 0.303,0.303 0 0 0 116.8,56.67 l -2.343,-1.371 a 0.26,0.26 0 0 0 -0.144,-0.044 z M 63.22,71.638 c -0.427,0 -0.852,0.104 -1.214,0.308 l -11.549,6.727 a 2.457,2.457 0 0 0 -1.214,2.124 V 94.22 c 0,0.874 0.462,1.69 1.214,2.128 l 3.04,1.746 c 1.476,0.728 1.997,0.726 2.662,0.726 2.17,0 3.415,-1.339 3.415,-3.64 V 81.935 a 0.356,0.356 0 0 0 -0.348,-0.351 h -1.474 a 0.356,0.356 0 0 0 -0.35,0.351 v 13.248 c 0,1.019 -1.069,2.04 -2.776,1.167 L 51.471,94.515 C 51.355,94.457 51.296,94.309 51.296,94.193 V 80.767 c 0,-0.116 0.059,-0.26 0.175,-0.319 l 11.545,-6.697 c 0.087,-0.058 0.233,-0.058 0.349,0 l 11.548,6.697 c 0.115,0.059 0.172,0.174 0.172,0.32 v 13.424 c 0,0.145 -0.057,0.264 -0.172,0.322 l -11.548,6.727 c -0.087,0.058 -0.233,0.058 -0.349,0 l -2.951,-1.779 c -0.087,-0.058 -0.203,-0.087 -0.29,-0.029 -0.81,0.466 -0.952,0.527 -1.734,0.789 -0.174,0.058 -0.463,0.173 0.115,0.493 l 3.85,2.302 c 0.376,0.203 0.78,0.319 1.214,0.319 0.434,0 0.867,-0.115 1.214,-0.26 l 11.549,-6.727 a 2.463,2.463 0 0 0 1.214,-2.128 V 80.797 c 0,-0.874 -0.462,-1.687 -1.214,-2.124 L 64.434,71.946 A 2.488,2.488 0 0 0 63.22,71.638 Z m 18.03,6.13 a 2.236,2.236 0 0 0 -2.227,2.243 2.236,2.236 0 0 0 2.227,2.242 c 1.217,0 2.228,-1.019 2.228,-2.242 A 2.254,2.254 0 0 0 81.25,77.769 Z m -0.03,0.379 a 1.86,1.86 0 0 1 1.883,1.864 c 0,1.02 -0.84,1.894 -1.882,1.894 -1.012,0 -1.852,-0.846 -1.852,-1.894 0,-1.048 0.869,-1.864 1.852,-1.864 z m -0.809,0.611 v 2.562 h 0.494 v -1.016 h 0.434 c 0.174,0 0.231,0.058 0.26,0.203 0,0.03 0.086,0.67 0.086,0.786 h 0.52 c -0.058,-0.116 -0.087,-0.466 -0.116,-0.67 -0.028,-0.32 -0.056,-0.553 -0.404,-0.582 0.174,-0.059 0.463,-0.146 0.463,-0.612 0,-0.67 -0.58,-0.67 -0.868,-0.67 z m 0.435,0.408 h 0.404 c 0.146,0 0.376,0 0.376,0.349 0,0.116 -0.056,0.351 -0.376,0.351 h -0.405 z m -14.47,2.01 c -3.3,0 -5.268,1.398 -5.268,3.757 0,2.534 1.968,3.23 5.123,3.551 3.79,0.379 4.08,0.933 4.08,1.69 0,1.31 -1.044,1.864 -3.475,1.864 -3.068,0 -3.733,-0.758 -3.965,-2.301 0,-0.175 -0.142,-0.29 -0.316,-0.29 H 61.05 a 0.35,0.35 0 0 0 -0.346,0.349 c 0,1.98 1.041,4.31 6.107,4.31 3.645,0 5.758,-1.458 5.758,-4.02 0,-2.505 -1.68,-3.174 -5.238,-3.64 -3.59,-0.466 -3.965,-0.728 -3.965,-1.572 0,-0.699 0.318,-1.63 2.98,-1.63 2.373,0 3.269,0.525 3.617,2.126 a 0.34,0.34 0 0 0 0.319,0.26 h 1.533 c 0.088,0 0.175,-0.057 0.234,-0.115 a 0.476,0.476 0 0 0 0.085,-0.263 c -0.231,-2.795 -2.053,-4.077 -5.758,-4.077 z"
     id="path1" />
  <path
     fill="#333333"
     d="m 86.072,24.664 a 0.71,0.71 0 0 0 -0.352,0.089 0.755,0.755 0 0 0 -0.375,0.638 V 44.32 c 0,0.174 -0.09,0.35 -0.263,0.466 a 0.549,0.549 0 0 1 -0.52,0 l -3.066,-1.775 a 1.486,1.486 0 0 0 -1.478,0 L 67.75,50.146 a 1.48,1.48 0 0 0 -0.753,1.279 v 14.24 c 0,0.524 0.29,1.02 0.753,1.282 l 12.27,7.135 a 1.486,1.486 0 0 0 1.477,0 l 12.269,-7.135 c 0.463,-0.262 0.753,-0.758 0.753,-1.282 V 30.168 c 0,-0.553 -0.29,-1.05 -0.753,-1.311 l -7.32,-4.104 A 0.836,0.836 0 0 0 86.073,24.664 Z M 13.687,42.43 c -0.231,0 -0.462,0.084 -0.664,0.2 L 0.753,49.739 A 1.493,1.493 0 0 0 0,51.047 l 0.03,19.102 c 0,0.263 0.143,0.525 0.375,0.642 a 0.656,0.656 0 0 0 0.724,0 l 7.294,-4.193 c 0.463,-0.262 0.75,-0.758 0.75,-1.282 v -8.94 c 0,-0.524 0.29,-1.02 0.754,-1.282 l 3.096,-1.805 c 0.231,-0.146 0.493,-0.204 0.753,-0.204 0.26,0 0.521,0.058 0.724,0.204 l 3.096,1.805 c 0.463,0.262 0.753,0.758 0.753,1.282 v 8.94 c 0,0.524 0.288,1.02 0.75,1.282 l 7.236,4.193 a 0.704,0.704 0 0 0 0.753,0 0.724,0.724 0 0 0 0.376,-0.642 V 51.047 c 0,-0.524 -0.29,-1.02 -0.754,-1.283 L 14.47,42.63 a 1.763,1.763 0 0 0 -0.664,-0.201 z m 100.667,0.21 c -0.253,0 -0.504,0.066 -0.736,0.198 l -12.272,7.131 c -0.463,0.262 -0.75,0.758 -0.75,1.283 v 14.24 c 0,0.524 0.287,1.02 0.75,1.282 l 12.184,6.987 a 1.43,1.43 0 0 0 1.447,0 l 7.38,-4.133 a 0.724,0.724 0 0 0 0.375,-0.642 0.724,0.724 0 0 0 -0.375,-0.64 L 110.03,61.21 a 0.76,0.76 0 0 1 -0.375,-0.641 v -4.456 a 0.72,0.72 0 0 1 0.375,-0.64 l 3.85,-2.214 a 0.705,0.705 0 0 1 0.753,0 l 3.846,2.213 a 0.762,0.762 0 0 1 0.378,0.641 v 3.495 c 0,0.263 0.144,0.525 0.375,0.641 a 0.704,0.704 0 0 0 0.754,0 l 7.291,-4.28 a 1.46,1.46 0 0 0 0.724,-1.283 v -3.465 c 0,-0.524 -0.29,-1.017 -0.724,-1.28 l -12.184,-7.104 a 1.499,1.499 0 0 0 -0.738,-0.198 z M 80.757,53.274 c 0.065,0 0.131,0.015 0.19,0.045 l 4.194,2.446 c 0.116,0.058 0.175,0.202 0.175,0.319 v 4.892 c 0,0.146 -0.059,0.264 -0.175,0.322 l -4.195,2.446 a 0.431,0.431 0 0 1 -0.378,0 L 76.373,61.298 C 76.257,61.24 76.198,61.093 76.198,60.976 v -4.892 c 0,-0.146 0.06,-0.261 0.175,-0.32 l 4.195,-2.445 a 0.425,0.425 0 0 1 0.19,-0.045 z"
     id="path2" />
  <path
     fill="url(#a)"
     d="m 47.982,42.893 a 1.484,1.484 0 0 0 -1.476,0 L 34.322,49.97 a 1.456,1.456 0 0 0 -0.724,1.281 v 14.181 c 0,0.525 0.29,1.02 0.724,1.282 l 12.184,7.076 a 1.484,1.484 0 0 0 1.476,0 l 12.183,-7.076 c 0.463,-0.262 0.724,-0.757 0.724,-1.282 V 51.251 c 0,-0.524 -0.29,-1.02 -0.724,-1.281 z"
     id="path3"
     style="fill:url(#a)" />
  <path
     fill="url(#b)"
     d="M 60.194,49.97 47.953,42.893 A 1.996,1.996 0 0 0 47.577,42.748 L 33.859,66.364 c 0.116,0.146 0.26,0.262 0.405,0.35 l 12.242,7.076 c 0.347,0.204 0.752,0.262 1.128,0.145 L 60.513,50.232 A 0.905,0.905 0 0 0 60.194,49.97 Z"
     id="path4"
     style="fill:url(#b)" />
  <path
     fill="url(#c)"
     d="m 60.194,66.713 c 0.348,-0.204 0.608,-0.553 0.724,-0.932 l -13.4,-23.063 c -0.346,-0.058 -0.723,-0.029 -1.041,0.175 l -12.155,7.047 13.11,24.053 c 0.173,-0.029 0.376,-0.087 0.55,-0.175 z"
     id="path5"
     style="fill:url(#c)" />
  <defs
     id="defs17">
    <linearGradient
       id="a"
       x1="34.513"
       x2="27.157"
       y1="15.535"
       y2="30.448"
       gradientTransform="matrix(1.51263,0,0,1.51263,0,24.664)"
       gradientUnits="userSpaceOnUse">
      <stop
         stop-color="#3F873F"
         id="stop5" />
      <stop
         offset=".33"
         stop-color="#3F8B3D"
         id="stop6" />
      <stop
         offset=".637"
         stop-color="#3E9638"
         id="stop7" />
      <stop
         offset=".934"
         stop-color="#3DA92E"
         id="stop8" />
      <stop
         offset="1"
         stop-color="#3DAE2B"
         id="stop9" />
    </linearGradient>
    <linearGradient
       id="b"
       x1="30.009001"
       x2="50.533001"
       y1="23.358999"
       y2="8.2880001"
       gradientTransform="matrix(1.51263,0,0,1.51263,0,24.664)"
       gradientUnits="userSpaceOnUse">
      <stop
         offset=".138"
         stop-color="#3F873F"
         id="stop10" />
      <stop
         offset=".402"
         stop-color="#52A044"
         id="stop11" />
      <stop
         offset=".713"
         stop-color="#64B749"
         id="stop12" />
      <stop
         offset=".908"
         stop-color="#6ABF4B"
         id="stop13" />
    </linearGradient>
    <linearGradient
       id="c"
       x1="21.917"
       x2="40.555"
       y1="22.261"
       y2="22.261"
       gradientTransform="matrix(1.51263,0,0,1.51263,0,24.664)"
       gradientUnits="userSpaceOnUse">
      <stop
         offset=".092"
         stop-color="#6ABF4B"
         id="stop14" />
      <stop
         offset=".287"
         stop-color="#64B749"
         id="stop15" />
      <stop
         offset=".598"
         stop-color="#52A044"
         id="stop16" />
      <stop
         offset=".862"
         stop-color="#3F873F"
         id="stop17" />
    </linearGradient>
  </defs>
</svg>
