<?xml version="1.0" encoding="UTF-8" standalone="no"?>
<svg
   viewBox="0 0 128 128"
   version="1.1"
   id="svg11"
   sodipodi:docname="PHP.svg"
   width="64"
   height="64"
   inkscape:version="1.3.2 (091e20ef0f, 2023-11-25, custom)"
   xmlns:inkscape="http://www.inkscape.org/namespaces/inkscape"
   xmlns:sodipodi="http://sodipodi.sourceforge.net/DTD/sodipodi-0.dtd"
   xmlns="http://www.w3.org/2000/svg"
   xmlns:svg="http://www.w3.org/2000/svg">
  <sodipodi:namedview
     id="namedview11"
     pagecolor="#ffffff"
     bordercolor="#000000"
     borderopacity="0.25"
     inkscape:showpageshadow="2"
     inkscape:pageopacity="0.0"
     inkscape:pagecheckerboard="0"
     inkscape:deskcolor="#d1d1d1"
     inkscape:zoom="6.25"
     inkscape:cx="64"
     inkscape:cy="64"
     inkscape:window-width="1920"
     inkscape:window-height="1004"
     inkscape:window-x="0"
     inkscape:window-y="0"
     inkscape:window-maximized="1"
     inkscape:current-layer="svg11" />
  <path
     fill="url(#a)"
     d="M 0,64 C 0,82.593 28.654,97.667 64,97.667 99.346,97.667 128,82.593 128,64 128,45.407 99.345,30.333 64,30.333 28.654,30.333 0,45.407 0,64 Z"
     id="path1"
     style="fill:url(#a)" />
  <path
     fill="#777bb3"
     d="M 64,95.167 C 97.965,95.167 125.5,81.212 125.5,64 125.5,46.786 97.965,32.833 64,32.833 30.035,32.833 2.5,46.786 2.5,64 2.5,81.212 30.035,95.167 64,95.167 Z"
     id="path2" />
  <path
     d="m 34.772,67.864 c 2.793,0 4.877,-0.515 6.196,-1.53 1.306,-1.006 2.207,-2.747 2.68,-5.175 0.44,-2.27 0.272,-3.854 -0.5,-4.71 -0.788,-0.874 -2.493,-1.317 -5.067,-1.317 H 33.617 L 31.144,67.864 Z M 20.173,83.547 a 0.694,0.694 0 0 1 -0.68,-0.828 L 26.05,48.981 a 0.695,0.695 0 0 1 0.68,-0.561 h 14.134 c 4.442,0 7.748,1.206 9.827,3.585 2.088,2.39 2.734,5.734 1.917,9.935 -0.333,1.711 -0.905,3.3 -1.7,4.724 a 15.818,15.818 0 0 1 -3.128,3.92 c -1.531,1.432 -3.264,2.472 -5.147,3.083 -1.852,0.604 -4.232,0.91 -7.07,0.91 h -5.724 l -1.634,8.408 a 0.695,0.695 0 0 1 -0.682,0.562 z"
     id="path3" />
  <path
     fill="#ffffff"
     d="m 34.19,55.826 h 3.891 c 3.107,0 4.186,0.682 4.553,1.089 0.607,0.674 0.723,2.097 0.331,4.112 -0.439,2.257 -1.253,3.858 -2.42,4.756 -1.194,0.92 -3.138,1.386 -5.773,1.386 h -2.786 l 2.205,-11.342 z m 6.674,-8.1 H 26.731 a 1.39,1.39 0 0 0 -1.364,1.123 L 18.81,82.588 a 1.39,1.39 0 0 0 1.363,1.653 h 7.35 a 1.39,1.39 0 0 0 1.363,-1.124 l 1.525,-7.846 h 5.151 c 2.912,0 5.364,-0.318 7.287,-0.944 1.977,-0.642 3.796,-1.731 5.406,-3.237 a 16.522,16.522 0 0 0 3.259,-4.087 c 0.831,-1.487 1.429,-3.147 1.775,-4.931 0.86,-4.423 0.161,-7.964 -2.076,-10.524 -2.216,-2.537 -5.698,-3.823 -10.349,-3.823 z M 30.301,68.557 h 4.471 c 2.963,0 5.17,-0.557 6.62,-1.675 1.451,-1.116 2.428,-2.98 2.938,-5.591 0.485,-2.508 0.264,-4.277 -0.665,-5.308 -0.931,-1.03 -2.791,-1.546 -5.584,-1.546 h -5.036 l -2.743,14.12 M 40.865,49.112 c 4.252,0 7.353,1.117 9.303,3.348 1.95,2.232 2.536,5.347 1.76,9.346 -0.322,1.648 -0.863,3.154 -1.625,4.518 -0.764,1.366 -1.76,2.614 -2.991,3.747 -1.468,1.373 -3.097,2.352 -4.892,2.935 -1.794,0.584 -4.08,0.875 -6.857,0.875 h -6.296 l -1.743,8.97 h -7.35 l 6.558,-33.739 h 14.133"
     id="path4" />
  <path
     d="M 69.459,74.577 A 0.694,0.694 0 0 1 68.777,73.75 l 2.9,-14.928 c 0.277,-1.42 0.209,-2.438 -0.19,-2.87 -0.245,-0.263 -0.979,-0.704 -3.15,-0.704 h -5.256 l -3.646,18.768 a 0.695,0.695 0 0 1 -0.683,0.56 h -7.29 A 0.695,0.695 0 0 1 50.779,73.75 l 6.558,-33.739 a 0.695,0.695 0 0 1 0.682,-0.561 h 7.29 a 0.695,0.695 0 0 1 0.683,0.826 L 64.41,48.42 h 5.653 c 4.307,0 7.227,0.758 8.928,2.321 1.733,1.593 2.275,4.14 1.608,7.573 l -3.051,15.702 a 0.695,0.695 0 0 1 -0.682,0.56 h -7.407 z"
     id="path5" />
  <path
     fill="#ffffff"
     d="m 65.31,38.755 h -7.291 a 1.39,1.39 0 0 0 -1.364,1.124 l -6.557,33.738 a 1.39,1.39 0 0 0 1.363,1.654 h 7.291 a 1.39,1.39 0 0 0 1.364,-1.124 l 3.537,-18.205 h 4.682 c 2.168,0 2.624,0.463 2.641,0.484 0.132,0.14 0.305,0.795 0.019,2.264 l -2.9,14.927 a 1.39,1.39 0 0 0 1.364,1.654 h 7.408 a 1.39,1.39 0 0 0 1.363,-1.124 l 3.051,-15.7 c 0.715,-3.686 0.103,-6.45 -1.82,-8.217 -1.836,-1.686 -4.91,-2.505 -9.398,-2.505 h -4.81 L 66.674,40.41 A 1.39,1.39 0 0 0 65.31,38.755 Z m 0,1.39 -1.743,8.968 h 6.496 c 4.087,0 6.907,0.714 8.457,2.14 1.553,1.426 2.017,3.735 1.398,6.93 L 76.866,73.882 H 69.459 L 72.36,58.954 c 0.33,-1.698 0.208,-2.856 -0.365,-3.474 -0.573,-0.617 -1.793,-0.926 -3.658,-0.926 H 62.508 L 58.752,73.881 H 51.46 l 6.558,-33.739 h 7.292 z"
     id="path6" />
  <path
     d="m 92.136,67.864 c 2.793,0 4.878,-0.515 6.198,-1.53 1.304,-1.006 2.206,-2.747 2.679,-5.175 0.44,-2.27 0.273,-3.854 -0.5,-4.71 -0.788,-0.874 -2.493,-1.317 -5.067,-1.317 H 90.983 L 88.508,67.864 Z M 77.54,83.547 A 0.694,0.694 0 0 1 76.858,82.719 L 83.415,48.981 A 0.695,0.695 0 0 1 84.097,48.42 H 98.23 c 4.442,0 7.748,1.206 9.826,3.585 2.089,2.39 2.734,5.734 1.917,9.935 a 15.878,15.878 0 0 1 -1.699,4.724 15.838,15.838 0 0 1 -3.128,3.92 c -1.53,1.432 -3.265,2.472 -5.147,3.083 -1.852,0.604 -4.232,0.91 -7.071,0.91 h -5.723 l -1.633,8.408 a 0.695,0.695 0 0 1 -0.683,0.562 z"
     id="path7" />
  <path
     fill="#ffffff"
     d="m 91.555,55.826 h 3.891 c 3.107,0 4.186,0.682 4.552,1.089 0.61,0.674 0.724,2.097 0.333,4.112 -0.44,2.257 -1.254,3.858 -2.421,4.756 -1.195,0.92 -3.139,1.386 -5.773,1.386 h -2.786 l 2.204,-11.342 z m 6.674,-8.1 H 84.096 a 1.39,1.39 0 0 0 -1.363,1.123 l -6.558,33.739 a 1.39,1.39 0 0 0 1.364,1.653 h 7.35 a 1.39,1.39 0 0 0 1.363,-1.124 l 1.525,-7.846 h 5.15 c 2.911,0 5.364,-0.318 7.286,-0.944 1.978,-0.642 3.797,-1.731 5.408,-3.238 a 16.52,16.52 0 0 0 3.258,-4.086 c 0.832,-1.487 1.428,-3.147 1.775,-4.931 0.86,-4.423 0.162,-7.964 -2.076,-10.524 -2.216,-2.537 -5.697,-3.823 -10.35,-3.823 z M 87.666,68.557 h 4.47 c 2.964,0 5.17,-0.557 6.622,-1.675 1.45,-1.116 2.428,-2.98 2.936,-5.591 0.487,-2.508 0.266,-4.277 -0.665,-5.308 -0.93,-1.03 -2.791,-1.546 -5.583,-1.546 H 90.411 Z M 98.229,49.112 c 4.251,0 7.354,1.117 9.303,3.348 1.95,2.232 2.537,5.347 1.759,9.346 -0.32,1.648 -0.862,3.154 -1.624,4.518 -0.763,1.366 -1.76,2.614 -2.992,3.747 -1.467,1.373 -3.097,2.352 -4.892,2.935 -1.793,0.584 -4.078,0.875 -6.856,0.875 h -6.295 l -1.745,8.97 h -7.35 l 6.558,-33.739 h 14.133"
     id="path8" />
  <defs
     id="defs11">
    <radialGradient
       id="a"
       cx="0"
       cy="0"
       r="1"
       gradientTransform="matrix(84.04136,0,0,84.04136,38.426,42.169)"
       gradientUnits="userSpaceOnUse">
      <stop
         stop-color="#AEB2D5"
         id="stop8" />
      <stop
         offset=".3"
         stop-color="#AEB2D5"
         id="stop9" />
      <stop
         offset=".75"
         stop-color="#484C89"
         id="stop10" />
      <stop
         offset="1"
         stop-color="#484C89"
         id="stop11" />
    </radialGradient>
  </defs>
</svg>
