<?xml version="1.0" encoding="UTF-8" standalone="no"?>
<svg
   viewBox="0 0 128 128"
   version="1.1"
   id="svg1"
   sodipodi:docname="React.svg"
   width="64"
   height="64"
   inkscape:version="1.3.2 (091e20ef0f, 2023-11-25, custom)"
   xmlns:inkscape="http://www.inkscape.org/namespaces/inkscape"
   xmlns:sodipodi="http://sodipodi.sourceforge.net/DTD/sodipodi-0.dtd"
   xmlns="http://www.w3.org/2000/svg"
   xmlns:svg="http://www.w3.org/2000/svg">
  <defs
     id="defs1" />
  <sodipodi:namedview
     id="namedview1"
     pagecolor="#ffffff"
     bordercolor="#000000"
     borderopacity="0.25"
     inkscape:showpageshadow="2"
     inkscape:pageopacity="0.0"
     inkscape:pagecheckerboard="0"
     inkscape:deskcolor="#d1d1d1"
     inkscape:zoom="6.25"
     inkscape:cx="64"
     inkscape:cy="64"
     inkscape:window-width="1920"
     inkscape:window-height="1004"
     inkscape:window-x="0"
     inkscape:window-y="0"
     inkscape:window-maximized="1"
     inkscape:current-layer="svg1" />
  <g
     fill="#61dafb"
     id="g1">
    <circle
       cx="64"
       cy="64"
       r="11.4"
       id="circle1" />
    <path
       d="m 107.3,45.2 c -2.2,-0.8 -4.5,-1.6 -6.9,-2.3 0.6,-2.4 1.1,-4.8 1.5,-7.1 C 104,22.6 101.7,13.3 95.3,9.7 93.4,8.6 91.3,8.1 88.9,8.1 81.9,8.1 73,13.3 64,22 55,13.3 46.1,8.1 39.1,8.1 c -2.4,0 -4.5,0.5 -6.4,1.6 -6.4,3.7 -8.7,13 -6.6,26.1 0.4,2.3 0.9,4.7 1.5,7.1 -2.4,0.7 -4.7,1.4 -6.9,2.3 C 8.2,50 1.4,56.6 1.4,64 c 0,7.4 6.9,14 19.3,18.8 2.2,0.8 4.5,1.6 6.9,2.3 -0.6,2.4 -1.1,4.8 -1.5,7.1 -2.1,13.2 0.2,22.5 6.6,26.1 1.9,1.1 4,1.6 6.4,1.6 7.1,0 16,-5.2 24.9,-13.9 9,8.7 17.9,13.9 24.9,13.9 2.4,0 4.5,-0.5 6.4,-1.6 6.4,-3.7 8.7,-13 6.6,-26.1 -0.4,-2.3 -0.9,-4.7 -1.5,-7.1 2.4,-0.7 4.7,-1.4 6.9,-2.3 12.5,-4.8 19.3,-11.4 19.3,-18.8 0,-7.4 -6.8,-14 -19.3,-18.8 z M 92.5,14.7 C 96.6,17.1 98,24.5 96.3,35 96,37.1 95.5,39.3 94.9,41.6 89.7,40.4 84.2,39.6 78.4,39.1 75,34.3 71.5,30 68,26.1 75.4,18.8 82.9,13.8 89,13.8 c 1.3,0 2.5,0.3 3.5,0.9 z M 81.3,74 c -1.8,3.2 -3.9,6.4 -6.1,9.6 C 71.5,83.9 67.8,84 64,84 60.1,84 56.4,83.9 52.8,83.6 50.6,80.4 48.6,77.2 46.8,74 44.9,70.7 43.1,67.3 41.5,64 c 1.6,-3.3 3.4,-6.7 5.3,-10 1.8,-3.2 3.9,-6.4 6.1,-9.6 3.7,-0.3 7.4,-0.4 11.2,-0.4 3.9,0 7.6,0.1 11.2,0.4 2.2,3.2 4.2,6.4 6,9.6 1.9,3.3 3.7,6.7 5.3,10 -1.7,3.3 -3.4,6.6 -5.3,10 z m 8.3,-3.3 c 1.5,3.5 2.7,6.9 3.8,10.3 -3.4,0.8 -7,1.4 -10.8,1.9 1.2,-1.9 2.5,-3.9 3.6,-6 1.2,-2.1 2.3,-4.2 3.4,-6.2 z M 64,97.8 c -2.4,-2.6 -4.7,-5.4 -6.9,-8.3 2.3,0.1 4.6,0.2 6.9,0.2 2.3,0 4.6,-0.1 6.9,-0.2 -2.2,2.9 -4.5,5.7 -6.9,8.3 z M 45.4,82.8 C 41.6,82.3 38,81.7 34.6,80.9 c 1.1,-3.3 2.3,-6.8 3.8,-10.3 1.1,2 2.2,4.1 3.4,6.1 1.2,2.2 2.4,4.1 3.6,6.1 z m -7,-25.5 C 36.9,53.8 35.7,50.4 34.6,47 c 3.4,-0.8 7,-1.4 10.8,-1.9 -1.2,1.9 -2.5,3.9 -3.6,6 -1.2,2.1 -2.3,4.2 -3.4,6.2 z M 64,30.2 c 2.4,2.6 4.7,5.4 6.9,8.3 -2.3,-0.1 -4.6,-0.2 -6.9,-0.2 -2.3,0 -4.6,0.1 -6.9,0.2 2.2,-2.9 4.5,-5.7 6.9,-8.3 z m 22.2,21 -3.6,-6 c 3.8,0.5 7.4,1.1 10.8,1.9 -1.1,3.3 -2.3,6.8 -3.8,10.3 -1.1,-2.1 -2.2,-4.2 -3.4,-6.2 z M 31.7,35 C 30,24.5 31.4,17.1 35.5,14.7 c 1,-0.6 2.2,-0.9 3.5,-0.9 6,0 13.5,4.9 21,12.3 -3.5,3.8 -7,8.2 -10.4,13 -5.8,0.5 -11.3,1.4 -16.5,2.5 -0.6,-2.3 -1,-4.5 -1.4,-6.6 z M 7,64 c 0,-4.7 5.7,-9.7 15.7,-13.4 2,-0.8 4.2,-1.5 6.4,-2.1 1.6,5 3.6,10.3 6,15.6 -2.4,5.3 -4.5,10.5 -6,15.5 C 15.3,75.6 7,69.6 7,64 Z m 28.5,49.3 C 31.4,110.9 30,103.5 31.7,93 c 0.3,-2.1 0.8,-4.3 1.4,-6.6 5.2,1.2 10.7,2 16.5,2.5 3.4,4.8 6.9,9.1 10.4,13 -7.4,7.3 -14.9,12.3 -21,12.3 -1.3,0 -2.5,-0.3 -3.5,-0.9 z M 96.3,93 c 1.7,10.5 0.3,17.9 -3.8,20.3 -1,0.6 -2.2,0.9 -3.5,0.9 -6,0 -13.5,-4.9 -21,-12.3 3.5,-3.8 7,-8.2 10.4,-13 5.8,-0.5 11.3,-1.4 16.5,-2.5 0.6,2.3 1,4.5 1.4,6.6 z m 9,-15.6 c -2,0.8 -4.2,1.5 -6.4,2.1 -1.6,-5 -3.6,-10.3 -6,-15.6 2.4,-5.3 4.5,-10.5 6,-15.5 13.8,4 22.1,10 22.1,15.6 0,4.7 -5.8,9.7 -15.7,13.4 z"
       id="path1" />
  </g>
</svg>
