<?xml version="1.0" encoding="UTF-8" standalone="no"?>
<svg
   viewBox="0 0 128 128"
   version="1.1"
   id="svg7"
   sodipodi:docname="Wordpress.svg"
   width="64"
   height="64"
   inkscape:version="1.3.2 (091e20ef0f, 2023-11-25, custom)"
   xmlns:inkscape="http://www.inkscape.org/namespaces/inkscape"
   xmlns:sodipodi="http://sodipodi.sourceforge.net/DTD/sodipodi-0.dtd"
   xmlns="http://www.w3.org/2000/svg"
   xmlns:svg="http://www.w3.org/2000/svg">
  <defs
     id="defs7" />
  <sodipodi:namedview
     id="namedview7"
     pagecolor="#ffffff"
     bordercolor="#000000"
     borderopacity="0.25"
     inkscape:showpageshadow="2"
     inkscape:pageopacity="0.0"
     inkscape:pagecheckerboard="0"
     inkscape:deskcolor="#d1d1d1"
     inkscape:zoom="6.25"
     inkscape:cx="64"
     inkscape:cy="64"
     inkscape:window-width="1920"
     inkscape:window-height="1004"
     inkscape:window-x="0"
     inkscape:window-y="0"
     inkscape:window-maximized="1"
     inkscape:current-layer="svg7" />
  <path
     fill-rule="evenodd"
     clip-rule="evenodd"
     fill="#337ba2"
     d="m 43.257,121.233 c 0.079,1.018 0.029,2.071 0.299,3.037 0.115,0.408 0.9,0.629 1.381,0.935 l 0.625,0.401 c -0.235,0.137 -0.469,0.389 -0.707,0.392 A 165.82,165.82 0 0 1 39.257,126 c -0.248,-0.004 -0.491,-0.237 -0.735,-0.364 0.198,-0.143 0.388,-0.391 0.597,-0.408 1.251,-0.105 1.632,-0.865 1.626,-1.989 -0.011,-2.066 -0.006,-4.134 0.003,-6.202 0.005,-1.152 -0.322,-1.993 -1.679,-2.045 -0.188,-0.008 -0.366,-0.296 -0.548,-0.453 0.182,-0.111 0.366,-0.321 0.546,-0.318 2.39,0.029 4.79,-0.024 7.167,0.177 1.873,0.159 3.107,1.455 3.234,2.949 0.138,1.639 -0.703,2.764 -2.605,3.486 l -0.729,0.272 c 1.225,1.158 2.31,2.29 3.516,3.272 0.535,0.437 1.293,0.697 1.989,0.817 1.393,0.238 2.149,-0.361 2.187,-1.742 0.061,-2.229 0.032,-4.461 0.011,-6.691 -0.01,-1.022 -0.449,-1.697 -1.589,-1.753 -0.215,-0.01 -0.42,-0.253 -0.629,-0.388 0.239,-0.14 0.478,-0.4 0.715,-0.399 2.432,0.02 4.875,-0.055 7.291,0.161 4.123,0.366 6.42,3.797 5.214,7.588 -0.735,2.312 -2.495,3.619 -4.759,3.773 -3.958,0.27 -7.938,0.215 -11.909,0.243 -0.316,0.002 -0.706,-0.341 -0.944,-0.623 -0.914,-1.085 -1.776,-2.213 -2.668,-3.316 -0.27,-0.334 -0.571,-0.641 -0.858,-0.961 z m 13.119,-5.869 c 0,2.785 -0.034,5.484 0.036,8.18 0.011,0.414 0.41,1.039 0.78,1.187 1.457,0.581 3.812,-0.368 4.47,-1.842 0.881,-1.973 0.988,-4.05 -0.203,-5.922 -1.175,-1.847 -3.132,-1.663 -5.083,-1.603 z m -13.021,4.561 c 1.262,0.032 2.653,0.313 3.192,-1.073 0.302,-0.777 0.234,-1.982 -0.183,-2.69 -0.633,-1.076 -1.906,-0.888 -3.01,-0.752 z"
     id="path1" />
  <path
     fill-rule="evenodd"
     clip-rule="evenodd"
     fill="#515151"
     d="m 96.77,119.35 c 0.834,-0.18 1.661,-0.154 2.198,-0.537 0.451,-0.32 0.563,-1.116 0.908,-1.886 0.199,0.357 0.386,0.539 0.39,0.724 0.025,1.38 0.03,2.761 0,4.141 -0.005,0.216 -0.226,0.427 -0.347,0.641 -0.136,-0.114 -0.339,-0.2 -0.399,-0.346 -0.733,-1.771 -0.729,-1.772 -2.843,-1.583 0.309,1.382 -0.763,3.149 0.89,4.058 0.843,0.463 2.203,0.371 3.189,0.068 0.841,-0.256 1.48,-1.171 2.212,-1.798 v 3.096 c -0.405,0.036 -0.712,0.086 -1.021,0.086 -4.141,0.006 -8.282,-0.012 -12.422,0.019 -0.714,0.006 -1.197,-0.174 -1.633,-0.773 -0.857,-1.182 -1.799,-2.302 -2.725,-3.432 -0.232,-0.283 -0.534,-0.508 -1.021,-0.962 0,1.154 -0.042,1.981 0.012,2.802 0.056,0.858 0.469,1.427 1.418,1.534 0.279,0.032 0.529,0.325 0.792,0.5 -0.271,0.105 -0.54,0.298 -0.812,0.303 -1.827,0.026 -3.653,0.025 -5.48,0.001 -0.28,-0.004 -0.558,-0.173 -0.866,-0.275 l 0.156,-0.303 c 2.244,-0.906 2.25,-0.906 2.248,-3.508 a 343.88,343.88 0 0 0 -0.039,-4.87 c -0.017,-1.121 -0.321,-2.01 -1.689,-2.058 -0.197,-0.007 -0.384,-0.287 -0.577,-0.441 0.226,-0.113 0.453,-0.325 0.678,-0.323 2.311,0.022 4.635,-0.054 6.93,0.16 2.512,0.234 4.065,2.329 3.132,4.257 -0.51,1.053 -1.688,1.783 -2.725,2.818 0.984,0.9 2.117,2.194 3.491,3.135 1.941,1.33 3.268,0.571 3.317,-1.748 0.041,-1.947 -0.007,-3.896 -0.015,-5.845 -0.004,-1.155 -0.361,-1.994 -1.717,-2.013 -0.185,-0.003 -0.367,-0.2 -0.586,-0.33 0.705,-0.52 7.499,-0.709 10.448,-0.332 l 0.19,3.214 -0.333,0.136 c -0.686,-0.717 -0.601,-2.199 -2.02,-2.204 -1.084,-0.005 -2.168,-0.119 -3.332,-0.189 0.003,1.356 0.003,2.59 0.003,4.063 z m -12.647,0.566 c 2.61,0.105 3.646,-0.603 3.584,-2.364 -0.061,-1.698 -1.195,-2.383 -3.584,-2.121 z"
     id="path2" />
  <path
     fill-rule="evenodd"
     clip-rule="evenodd"
     fill="#3179a1"
     d="m 11.555,120.682 c 0.996,-2.947 1.979,-5.897 3.003,-8.834 0.141,-0.404 0.486,-0.737 0.737,-1.104 0.248,0.378 0.587,0.725 0.729,1.14 0.931,2.719 1.817,5.451 2.722,8.179 0.072,0.219 0.165,0.43 0.375,0.969 0.928,-2.813 1.787,-5.308 2.564,-7.829 0.27,-0.873 -0.081,-1.504 -1.097,-1.618 -0.335,-0.039 -0.66,-0.17 -1.051,-0.274 0.676,-0.749 5.957,-0.804 6.827,-0.108 -0.236,0.112 -0.424,0.271 -0.618,0.279 -1.65,0.064 -2.414,1.097 -2.884,2.521 -1.258,3.81 -2.54,7.611 -3.817,11.415 -0.133,0.395 -0.3,0.778 -0.452,1.166 l -0.421,0.03 -3.579,-10.821 -3.619,10.788 -0.354,0.022 c -0.185,-0.401 -0.412,-0.79 -0.547,-1.207 -1.167,-3.581 -2.319,-7.167 -3.474,-10.751 -0.495,-1.539 -0.99,-3.069 -3.012,-3.167 -0.132,-0.006 -0.253,-0.229 -0.38,-0.35 0.158,-0.13 0.316,-0.373 0.476,-0.375 2.272,-0.024 4.546,-0.024 6.818,0.001 0.158,10e-4 0.313,0.247 0.47,0.379 -0.169,0.126 -0.319,0.309 -0.508,0.367 -1.82,0.55 -1.951,0.761 -1.378,2.526 0.723,2.233 1.468,4.457 2.204,6.686 z"
     id="path3" />
  <path
     fill-rule="evenodd"
     clip-rule="evenodd"
     fill="#4d4d4d"
     d="m 65.484,111.25 c 0.279,-0.241 0.435,-0.494 0.587,-0.491 2.957,0.044 5.938,-0.093 8.864,0.247 2.768,0.321 4.301,2.919 3.466,5.359 -0.748,2.189 -2.593,2.874 -4.68,3.064 -0.881,0.081 -1.776,0.013 -2.824,0.013 0.093,1.453 0.14,2.78 0.275,4.098 0.113,1.114 0.863,1.56 1.923,1.65 0.239,0.021 0.457,0.288 0.684,0.442 -0.25,0.126 -0.498,0.36 -0.75,0.363 -2.191,0.029 -4.384,0.028 -6.575,0.002 -0.263,-0.003 -0.523,-0.219 -0.784,-0.336 0.218,-0.165 0.432,-0.463 0.656,-0.472 1.463,-0.056 2.012,-0.964 2.03,-2.235 0.044,-3.081 0.04,-6.162 0.002,-9.243 -0.016,-1.31 -0.649,-2.148 -2.072,-2.206 -0.212,-0.008 -0.422,-0.13 -0.802,-0.255 z m 5.523,6.706 c 2.682,0.278 3.703,0.022 4.349,-1.167 0.648,-1.192 0.65,-2.439 -0.116,-3.566 -1.059,-1.559 -2.679,-1.098 -4.233,-1.154 z"
     id="path4" />
  <path
     fill-rule="evenodd"
     clip-rule="evenodd"
     fill="#3279a1"
     d="m 31.076,126.463 c -2.396,-0.104 -4.348,-0.856 -5.794,-2.647 -2.053,-2.542 -1.741,-5.994 0.711,-8.192 2.645,-2.37 7.018,-2.472 9.733,-0.171 1.838,1.559 2.709,3.533 2.111,5.953 -0.675,2.73 -2.601,4.192 -5.218,4.856 -0.546,0.137 -1.122,0.149 -1.543,0.201 z m 4.544,-6.249 -0.224,-0.147 c -0.149,-0.709 -0.236,-1.439 -0.458,-2.125 -0.642,-1.971 -1.986,-2.945 -3.963,-2.949 -1.97,-0.004 -3.295,0.975 -3.939,2.967 -0.572,1.771 -0.498,3.526 0.383,5.18 1.315,2.468 4.829,2.931 6.549,0.736 0.802,-1.023 1.116,-2.43 1.652,-3.662 z"
     id="path5" />
  <path
     fill-rule="evenodd"
     clip-rule="evenodd"
     fill="#505050"
     d="m 122.748,114.317 0.893,-0.782 v 4.376 l -0.259,0.195 c -0.209,-0.295 -0.498,-0.562 -0.615,-0.891 -0.591,-1.655 -1.865,-2.553 -3.319,-2.117 -0.499,0.149 -1.099,0.649 -1.232,1.11 -0.109,0.376 0.285,1.12 0.671,1.374 1.008,0.664 2.131,1.156 3.214,1.703 2.356,1.192 3.198,2.845 2.401,4.736 -0.809,1.921 -3.263,2.915 -5.462,2.173 -0.606,-0.206 -1.167,-0.544 -1.728,-0.811 l -0.857,1.126 -0.379,-0.116 c 0,-1.477 -0.009,-2.954 0.015,-4.431 0.002,-0.143 0.215,-0.282 0.33,-0.423 0.18,0.218 0.448,0.41 0.527,0.66 0.523,1.656 1.53,2.756 3.325,2.94 1.023,0.105 2.023,-0.021 2.378,-1.187 0.324,-1.067 -0.42,-1.669 -1.219,-2.124 -0.879,-0.5 -1.808,-0.909 -2.708,-1.37 -0.395,-0.203 -0.798,-0.404 -1.153,-0.665 -1.257,-0.927 -1.753,-2.263 -1.381,-3.618 0.332,-1.211 1.523,-2.237 2.997,-2.28 1.091,-0.031 2.195,0.25 3.561,0.422 z m -16.269,11.027 c -0.166,0.33 -0.258,0.607 -0.429,0.821 -0.103,0.128 -0.356,0.25 -0.49,0.208 -0.127,-0.04 -0.262,-0.294 -0.265,-0.456 -0.021,-1.299 -0.021,-2.599 0.001,-3.896 0.002,-0.159 0.178,-0.314 0.274,-0.471 0.184,0.117 0.446,0.193 0.537,0.362 0.169,0.314 0.208,0.696 0.356,1.024 0.668,1.482 2.021,2.409 3.573,2.184 0.649,-0.093 1.45,-0.586 1.772,-1.138 0.434,-0.741 -0.086,-1.504 -0.814,-1.925 -0.979,-0.566 -1.993,-1.075 -3.009,-1.571 -2.297,-1.121 -3.266,-2.972 -2.443,-4.719 0.818,-1.737 3.33,-2.46 5.429,-1.556 0.256,0.11 0.499,0.25 0.7,0.354 l 1.078,-0.886 c 0.113,0.317 0.185,0.426 0.186,0.535 0.008,1.216 0.005,2.431 0.005,3.646 l -0.317,0.212 c -0.211,-0.27 -0.504,-0.509 -0.619,-0.814 -0.573,-1.532 -1.48,-2.381 -2.81,-2.219 -0.624,0.075 -1.419,0.504 -1.726,1.018 -0.45,0.755 0.2,1.361 0.885,1.729 0.963,0.519 1.949,0.992 2.926,1.483 2.418,1.213 3.269,2.898 2.434,4.824 -0.813,1.876 -3.346,2.847 -5.517,2.077 -0.564,-0.199 -1.087,-0.52 -1.717,-0.826 z"
     id="path6" />
  <path
     fill-rule="evenodd"
     clip-rule="evenodd"
     fill="#494949"
     d="M 65.261,1.395 C 38.48,0.917 16.103,22.648 16.096,49 16.088,76.11 37.434,97.739 64.173,97.699 90.663,97.66 112.105,76.112 112.105,49.532 112.104,23.384 90.76,1.85 65.261,1.395 Z M 64.113,95.282 C 38.787,95.288 18.419,74.753 18.42,49.215 18.421,24.335 39.105,3.735 64.094,3.726 89.526,3.718 109.789,24.38 109.781,50.313 109.773,74.796 88.974,95.277 64.113,95.282 Z M 88.508,35.935 C 87.514,34.297 86.292,32.708 85.73,30.922 85.09,28.89 84.559,26.577 84.898,24.54 85.474,21.086 88.123,19.371 91.71,19.043 72.086,0.83 41.248,7.349 29.885,27.138 c 4.374,-0.203 8.55,-0.468 12.729,-0.524 0.791,-0.011 2.1,0.657 2.286,1.277 0.416,1.385 -0.748,1.868 -1.986,1.963 -1.301,0.102 -2.604,0.199 -4.115,0.314 l 14.935,44.494 c 0.359,-0.587 0.507,-0.752 0.572,-0.945 2.762,-8.255 5.54,-16.505 8.232,-24.784 0.246,-0.755 0.124,-1.755 -0.146,-2.531 -1.424,-4.111 -3.13,-8.133 -4.379,-12.294 -0.855,-2.849 -1.988,-4.692 -5.355,-4.362 -0.574,0.056 -1.273,-1.178 -1.916,-1.816 0.777,-0.463 1.548,-1.316 2.332,-1.328 a 659.24,659.24 0 0 1 20.572,0.006 c 0.786,0.013 1.557,0.889 2.335,1.364 -0.681,0.622 -1.267,1.554 -2.063,1.794 -1.276,0.385 -2.691,0.312 -4.218,0.448 l 14.953,44.484 c 2.266,-7.524 4.374,-14.434 6.422,-21.36 1.83,-6.182 0.74,-11.957 -2.567,-17.403 z M 52.719,88.149 c -0.092,0.267 -0.097,0.563 -0.168,1.007 8.458,2.344 16.75,2.175 25.24,-0.685 L 64.823,52.951 C 60.672,65.015 56.692,76.581 52.719,88.149 Z M 46.184,86.543 26.646,32.947 C 17.832,50.164 24.537,76.433 46.184,86.543 Z M 100.636,31.14 c -0.27,2.994 -0.082,6.327 -0.941,9.362 -2.023,7.152 -4.496,14.181 -6.877,21.229 -2.588,7.66 -5.28,15.286 -7.927,22.927 12.437,-7.372 19.271,-18.253 20.359,-32.555 0.62,-8.14 -2.188,-19.412 -4.614,-20.963 z"
     id="path7" />
</svg>
