<?xml version="1.0" encoding="UTF-8"?>
<svg version="1.1" xmlns="http://www.w3.org/2000/svg" width="128" height="128">
<path d="M0 0 C0.98601196 -0.03898911 0.98601196 -0.03898911 1.99194336 -0.07876587 C8.91851603 -0.3338838 15.85005294 -0.44606299 22.78027344 -0.54882812 C26.05521802 -0.60197288 29.3241958 -0.69882961 32.59667969 -0.8359375 C62.35689654 -2.0499734 62.35689654 -2.0499734 71.69906616 4.98843384 C78.7760018 11.78456294 80.8665617 19.13649185 81.38232422 28.76220703 C81.43432087 33.1778617 81.27748307 37.5694527 81.10107422 41.98095703 C81.06896317 44.26862586 81.04417018 46.55640962 81.02685547 48.84423828 C80.96916352 54.39395746 80.82162781 59.93544408 80.60107422 65.48095703 C81.06892334 64.96597656 81.53677246 64.45099609 82.01879883 63.92041016 C84.16775747 61.58349363 86.35205688 59.28274684 88.53857422 56.98095703 C89.27398437 56.17013672 90.00939453 55.35931641 90.76708984 54.52392578 C97.09531054 47.94699772 97.09531054 47.94699772 102.47607422 47.82861328 C105.72106053 48.07366218 106.78062837 48.59455252 109.66357422 50.41845703 C112.25125611 54.5086639 112.58690511 57.74467574 111.60107422 62.48095703 C109.77269562 65.25102823 107.41021108 67.17145118 104.85498047 69.26220703 C103.44179205 70.51413366 102.03198924 71.76989031 100.62524414 73.02905273 C99.89276459 73.67427887 99.16028503 74.319505 98.40560913 74.98428345 C83.97275946 87.25865174 83.97275946 87.25865174 78.16137695 104.48486328 C78.31710592 108.5356099 78.64175665 112.47170578 79.42797852 116.45092773 C79.4851001 117.1208374 79.54222168 117.79074707 79.60107422 118.48095703 C77.07298459 121.00904666 75.49237507 120.72449082 72.04370117 120.75201416 C71.26857178 120.7479657 70.49344238 120.74391724 69.69482422 120.73974609 C68.87844482 120.74325073 68.06206543 120.74675537 67.22094727 120.75036621 C64.51423719 120.75919051 61.8077871 120.75333196 59.10107422 120.74658203 C57.22542266 120.74792848 55.34977145 120.74986884 53.47412109 120.75238037 C49.53984256 120.75533258 45.60565473 120.75103089 41.67138672 120.74169922 C36.62032858 120.73030463 31.56948296 120.73686359 26.51843262 120.74884415 C22.64435211 120.75606014 18.77032224 120.75377602 14.89624023 120.74858856 C13.03344701 120.74725134 11.17064924 120.7489023 9.30786133 120.75354767 C6.7075578 120.75860864 4.10760177 120.75090884 1.50732422 120.73974609 C0.73219482 120.74379456 -0.04293457 120.74784302 -0.84155273 120.75201416 C-6.17039734 120.70948547 -6.17039734 120.70948547 -8.39892578 118.48095703 C-8.65060806 116.42883301 -8.65060806 116.42883301 -8.65289307 113.85009766 C-8.65853271 112.87419678 -8.66417236 111.8982959 -8.66998291 110.89282227 C-8.66593445 109.81846924 -8.66188599 108.74411621 -8.65771484 107.63720703 C-8.66121948 106.50871338 -8.66472412 105.38021973 -8.66833496 104.2175293 C-8.67716709 100.47194339 -8.67129782 96.726545 -8.66455078 92.98095703 C-8.665897 90.3878577 -8.66783717 87.79475862 -8.67034912 85.20166016 C-8.6733024 79.76087821 -8.66918578 74.32016728 -8.65966797 68.87939453 C-8.64878309 62.58435976 -8.65230857 56.28945454 -8.66332078 49.99442291 C-8.67348092 43.94491277 -8.67241751 37.89546614 -8.66655731 31.84594727 C-8.66521929 29.26863588 -8.66687384 26.69132122 -8.67151642 24.11401367 C-8.67657254 20.51748791 -8.66888412 16.92121395 -8.65771484 13.32470703 C-8.66176331 12.250354 -8.66581177 11.17600098 -8.66998291 10.0690918 C-8.66434326 9.09319092 -8.65870361 8.11729004 -8.65289307 7.11181641 C-8.65176199 5.83534241 -8.65176199 5.83534241 -8.65060806 4.53308105 C-8.03749834 -0.46598837 -4.12474571 0.15177356 0 0 Z " fill="#DAE8EC" transform="translate(12.39892578125,3.51904296875)"/>
<path d="M0 0 C3.03592 0.4857472 4.44144088 1.30223811 7.125 3 C9.35159723 6.51946013 9.78776133 8.46412407 9.68115234 12.55612183 C8.36990361 17.86845152 3.94172754 21.26148693 0.09375 24.91015625 C-0.81628784 25.80745956 -1.72632568 26.70476288 -2.66394043 27.6292572 C-5.07512852 29.99870246 -7.50381689 32.34670708 -9.94354248 34.68652344 C-12.43308887 37.08361578 -14.8970127 39.50673966 -17.36328125 41.92773438 C-22.19819773 46.66355983 -27.05789621 51.37275531 -31.9375 56.0625 C-38.01759338 53.23454959 -41.7498695 48.12400999 -45.9375 43.0625 C-45.3077124 42.43794922 -44.6779248 41.81339844 -44.02905273 41.16992188 C-41.65814355 38.81621686 -39.289626 36.46015427 -36.92260742 34.10253906 C-35.90432708 33.08923848 -34.88514526 32.07684288 -33.86499023 31.06542969 C-27.9971106 25.24652107 -22.30032396 19.35653101 -16.9375 13.0625 C-5.84405897 0.30244713 -5.84405897 0.30244713 0 0 Z " fill="#FEBB42" transform="translate(114.9375,50.9375)"/>
<path d="M0 0 C3.66240092 1.56960039 4.93903646 2.93903646 8 6 C-3.88 17.88 -15.76 29.76 -28 42 C-31.23475448 40.38262276 -32.70572021 39.52370777 -35 37 C-33.63886987 33.95418514 -32.10669904 31.86160974 -29.74365234 29.51660156 C-29.08311859 28.85621887 -28.42258484 28.19583618 -27.74203491 27.51544189 C-27.03052277 26.81425232 -26.31901062 26.11306274 -25.5859375 25.390625 C-24.49147812 24.30041046 -24.49147812 24.30041046 -23.37490845 23.18817139 C-21.0462612 20.87070802 -18.71075174 18.5603005 -16.375 16.25 C-14.79381347 14.67884556 -13.21307875 13.10723629 -11.6328125 11.53515625 C-7.7604331 7.68481347 -3.88239829 3.84023883 0 0 Z " fill="#E8AB3D" transform="translate(111,65)"/>
<path d="M0 0 C20.46 0 40.92 0 62 0 C62 1.32 62 2.64 62 4 C41.54 4 21.08 4 0 4 C0 2.68 0 1.36 0 0 Z " fill="#33658A" transform="translate(17,68)"/>
<path d="M0 0 C20.46 0 40.92 0 62 0 C62 1.32 62 2.64 62 4 C41.54 4 21.08 4 0 4 C0 2.68 0 1.36 0 0 Z " fill="#33658A" transform="translate(17,44)"/>
<path d="M0 0 C3.0625 1.9375 3.0625 1.9375 5 5 C5.89084018 9.47010875 5.80313388 12.79529918 3.25 16.625 C1 18 1 18 -1 18 C-3.55742617 16.72128691 -5.1561923 15.17305907 -7 13 C-7 12.34 -7 11.68 -7 11 C-7.99 10.67 -8.98 10.34 -10 10 C-10 9.34 -10 8.68 -10 8 C-10.66 8 -11.32 8 -12 8 C-12.75 6.25 -12.75 6.25 -13 4 C-9.94790186 -0.99434241 -5.30405792 -1.05703645 0 0 Z " fill="#FE6C68" transform="translate(119,52)"/>
<path d="M0 0 C15.18 0 30.36 0 46 0 C46 1.32 46 2.64 46 4 C30.82 4 15.64 4 0 4 C0 2.68 0 1.36 0 0 Z " fill="#33658A" transform="translate(33,56)"/>
<path d="M0 0 C15.18 0 30.36 0 46 0 C46 1.32 46 2.64 46 4 C30.82 4 15.64 4 0 4 C0 2.68 0 1.36 0 0 Z " fill="#33658A" transform="translate(17,32)"/>
<path d="M0 0 C13.86 0 27.72 0 42 0 C42 1.32 42 2.64 42 4 C28.14 4 14.28 4 0 4 C0 2.68 0 1.36 0 0 Z " fill="#33658A" transform="translate(17,92)"/>
<path d="M0 0 C2.84223197 1.36239218 4.96027641 2.55233169 7 5 C7 5.66 7 6.32 7 7 C7.598125 7.2475 8.19625 7.495 8.8125 7.75 C11.29482087 9.16846907 12.36328035 10.69264738 14 13 C11.75376301 13.69969682 9.50283586 14.38435043 7.25 15.0625 C5.99703125 15.44535156 4.7440625 15.82820313 3.453125 16.22265625 C0.3261992 16.92656828 -1.09466046 17.16653785 -4 16 C-3.27275406 10.47293087 -1.66554027 5.30039859 0 0 Z " fill="#FAD3A4" transform="translate(68,95)"/>
<path d="M0 0 C12.54 0 25.08 0 38 0 C38 1.32 38 2.64 38 4 C25.46 4 12.92 4 0 4 C0 2.68 0 1.36 0 0 Z " fill="#33658A" transform="translate(17,80)"/>
<path d="M0 0 C10.56 0 21.12 0 32 0 C32 1.32 32 2.64 32 4 C21.44 4 10.88 4 0 4 C0 2.68 0 1.36 0 0 Z " fill="#34658A" transform="translate(31,20)"/>
<path d="M0 0 C7.26 0 14.52 0 22 0 C22 1.32 22 2.64 22 4 C14.74 4 7.48 4 0 4 C0 2.68 0 1.36 0 0 Z " fill="#34658A" transform="translate(33,104)"/>
<path d="M0 0 C3.3 0 6.6 0 10 0 C10 1.32 10 2.64 10 4 C6.7 4 3.4 4 0 4 C0 2.68 0 1.36 0 0 Z " fill="#35668B" transform="translate(17,104)"/>
<path d="M0 0 C3.3 0 6.6 0 10 0 C10 1.32 10 2.64 10 4 C6.7 4 3.4 4 0 4 C0 2.68 0 1.36 0 0 Z " fill="#36678B" transform="translate(61,80)"/>
<path d="M0 0 C3.3 0 6.6 0 10 0 C10 1.32 10 2.64 10 4 C6.7 4 3.4 4 0 4 C0 2.68 0 1.36 0 0 Z " fill="#35678B" transform="translate(17,56)"/>
<path d="M0 0 C3.3 0 6.6 0 10 0 C10 1.32 10 2.64 10 4 C6.7 4 3.4 4 0 4 C0 2.68 0 1.36 0 0 Z " fill="#35668B" transform="translate(69,32)"/>
<path d="M0 0 C1.9375 0.8125 1.9375 0.8125 4 2 C4.33 2.99 4.66 3.98 5 5 C3.35 5.33 1.7 5.66 0 6 C-0.38218767 4.34385343 -0.71395102 2.67542976 -1 1 C-0.67 0.67 -0.34 0.34 0 0 Z " fill="#4E758F" transform="translate(65,106)"/>
</svg>
