<?xml version="1.0" standalone="no"?>
<!DOCTYPE svg PUBLIC "-//W3C//DTD SVG 1.1//EN" "http://www.w3.org/Graphics/SVG/1.1/DTD/svg11.dtd" >
<svg>
<metadata>
Created by FontForge 20090622 at Tue Apr 11 17:34:48 2017
 By deploy user
&#194;&#169; 2013 Jayde Garrow Fonts. All Rights Reserved
</metadata>
<defs>
<font id="PaybAck" horiz-adv-x="1216" >
  <font-face 
    font-family="PaybAck"
    font-weight="400"
    font-stretch="normal"
    units-per-em="2048"
    panose-1="2 0 5 0 0 0 0 0 0 0"
    ascent="1638"
    descent="-410"
    x-height="1432"
    cap-height="1408"
    bbox="0 -390 1700 1714"
    underline-thickness="150"
    underline-position="-142"
    unicode-range="U+0020-U+007D"
  />
<missing-glyph horiz-adv-x="0" 
 />
    <glyph glyph-name=".notdef" horiz-adv-x="0" 
 />
    <glyph glyph-name="nonmarkingreturn" horiz-adv-x="508" 
 />
    <glyph glyph-name="space" unicode=" " horiz-adv-x="1202" 
 />
    <glyph glyph-name="space" unicode="&#xa0;" horiz-adv-x="1202" 
 />
    <glyph glyph-name="exclam" unicode="!" horiz-adv-x="545" 
d="M160 1428h372l8 -4q-36 -374 -88 -564q-84 -402 -96 -428h-248q-8 0 -8 8v184l4 24q0 4 -4 4l4 20v284q41 472 56 472zM48 392h356q8 -1 8 -8q-30 -336 -44 -336q-249 -48 -272 -48h-96v4q33 388 48 388z" />
    <glyph glyph-name="quotedbl" unicode="&#x22;" horiz-adv-x="990" 
d="M396 1708q10 0 76 -212q-140 -68 -172 -136q-16 -26 -16 -40h152q8 -1 8 -8q-16 -184 -28 -184q-32 -8 -392 -76l-4 8q0 115 52 336q70 176 228 264q79 48 96 48zM984 1704v-4q-40 -480 -72 -480q-11 0 -260 -48l-4 8q51 46 56 88h-152q-8 0 -8 8q40 398 48 428h392z
M896 1164v-8q0 -42 -116 -164q-131 -98 -192 -112q-40 103 -72 212q29 8 380 72zM412 1076l4 -8q-15 -184 -24 -184h-384l-8 4q10 116 20 116q231 40 392 72z" />
    <glyph glyph-name="numbersign" unicode="#" horiz-adv-x="1110" 
d="M428 1476h264l8 -4q-92 -319 -92 -332h124q86 317 100 336h260q8 0 8 -12q-88 -307 -88 -320v-4h92q8 0 8 -12q-27 -300 -40 -300h-144q-13 0 -56 -184h180l8 -4q0 -92 -28 -92q-804 -156 -1028 -196l-4 8q24 244 32 284h152q10 9 56 180l-8 4h-172q-8 0 -8 8
q28 304 40 304h232q10 0 92 320q8 16 12 16zM468 644h124l52 180l-8 4h-112q-11 0 -56 -184zM1036 484l4 -8q-9 -148 -24 -148h-236q-88 -328 -96 -328h-264q-8 0 -8 8l92 320h-128q-84 -310 -96 -328h-268v4q78 308 92 308z" />
    <glyph glyph-name="dollar" unicode="$" horiz-adv-x="1082" 
d="M572 1652h152l8 -4q-8 -68 -8 -80q131 -14 228 -80q132 -126 132 -304q-11 -4 -348 -64q-32 119 -48 120q-20 -157 -20 -196q195 -56 312 -176v-4q0 -13 -560 -112q0 -4 -68 -16q-240 95 -240 316v48q0 262 248 416q131 52 196 52q8 84 16 84zM472 1168v-4q0 -38 32 -60
h4v4q0 31 16 148h-4q-48 -28 -48 -88zM1020 788q32 -67 32 -152q0 -275 -248 -456q-116 -72 -228 -72q0 -3 -16 -8q-5 -100 -16 -100h-152l-8 4q4 15 12 104h-4q-128 0 -260 104q-132 130 -132 356q9 8 376 56l4 -8q0 -139 48 -180h4q25 252 36 252q521 100 552 100z
M620 632l-24 -216q46 0 88 84q8 18 8 40q0 57 -64 92h-8z" />
    <glyph glyph-name="percent" unicode="%" horiz-adv-x="1464" 
d="M380 1524h20q209 0 276 -212q12 -30 16 -116q-18 -228 -72 -228l-564 -104q-56 85 -56 216q0 243 180 384q94 60 200 60zM1056 1524h208q8 -1 8 -8q-259 -455 -276 -476q-11 0 -240 -44q0 14 220 396q74 132 80 132zM272 1060q0 -100 48 -100h12q71 0 84 236v20
q0 92 -48 92h-8q-76 0 -88 -248zM940 948q0 -4 4 -4q-523 -917 -540 -944h-216q26 64 408 724q95 180 112 180q29 8 232 44zM584 880v-4q-113 -132 -280 -132q-109 0 -176 52q415 84 456 84zM1152 784q212 0 288 -204q16 -79 16 -120q0 -300 -232 -424q-64 -32 -136 -32h-40
q-192 0 -264 192q-20 73 -20 136q0 238 168 380q103 72 220 72zM1036 324q0 -108 56 -108h4q66 0 84 208v52q0 88 -44 88h-16q-61 0 -80 -196q-4 -27 -4 -44z" />
    <glyph glyph-name="ampersand" unicode="&#x26;" horiz-adv-x="1315" 
d="M692 1480h16v-8q-85 -12 -232 -44v4q75 48 216 48zM960 1416q116 -90 116 -212v-32q0 -215 -264 -384v-8q34 -51 112 -132h4l44 108q282 -72 292 -84q-51 -144 -116 -260l164 -136v-4q-31 -43 -232 -272h-4q-68 44 -176 136q-186 -132 -464 -132q-305 0 -408 220
q-28 87 -28 148q0 290 320 464q-68 122 -68 240q0 129 72 224q426 80 636 116zM592 1124q0 -37 52 -124q120 81 120 148v12q0 48 -72 60q-100 -14 -100 -96zM376 436q20 -128 124 -128q0 -4 20 -4q53 0 156 52v4l-200 232q-100 -73 -100 -156z" />
    <glyph glyph-name="quotesingle" unicode="'" horiz-adv-x="467" 
d="M396 1714q9 0 72 -208q-1 -5 -108 -68q0 -19 -244 -56q0 -4 -48 -12l-4 8q58 181 224 284q95 52 108 52zM284 1350l4 -8l-8 -16h156l8 -4q-44 -406 -52 -432h-384q-8 0 -8 8q37 376 52 408z" />
    <glyph glyph-name="parenleft" unicode="(" horiz-adv-x="644" 
d="M392 1532h244l8 -4q-92 -184 -184 -428l-348 -68l-4 8q77 194 204 388q73 104 80 104zM424 1004q0 -4 4 -4q-88 -315 -88 -580v-44q0 -241 64 -492l-8 -4h-272q-40 57 -96 288q-28 152 -28 288q0 247 76 484z" />
    <glyph glyph-name="parenright" unicode=")" horiz-adv-x="566" 
d="M128 1532h244q37 -41 120 -260q8 -32 8 -40q-27 -8 -300 -60q-28 164 -80 356zM528 1140q40 -167 40 -328q0 -496 -288 -932h-272l-8 4q224 482 224 944v64q0 87 -12 188q8 8 316 60z" />
    <glyph glyph-name="asterisk" unicode="*" horiz-adv-x="686" 
d="M272 1712h216l8 -4q-30 -160 -44 -160q-167 -32 -184 -32l-4 8v180q1 8 8 8zM104 1580q107 -60 120 -72q-13 -8 -160 -32l-4 8q33 85 44 96zM644 1536q8 -26 36 -208q-29 -16 -196 -48q10 -10 108 -156v-4q-84 -72 -200 -160q-11 0 -72 196q-113 -194 -120 -196
q-105 93 -168 160v4q95 103 152 160v4q-184 30 -184 40q27 104 68 104l376 68q3 -16 8 -16q32 30 192 52z" />
    <glyph glyph-name="plus" unicode="+" horiz-adv-x="962" 
d="M684 1080q8 -1 8 -8l-36 -352h304v-4q-16 -220 -28 -220q-688 -136 -744 -136h-180l-8 4q36 335 44 356h304q12 140 40 360h296zM924 428q4 -8 4 -12q0 -56 -12 -56h-300q-36 -328 -44 -356l-8 -4h-284l-12 8q32 308 40 308q132 20 616 112z" />
    <glyph glyph-name="comma" unicode="," horiz-adv-x="474" 
d="M312 432h152l8 -4q-44 -523 -120 -604q-99 -143 -256 -204h-24q-8 0 -72 200q188 98 188 180h-152q-8 0 -8 8q36 333 44 380q202 44 240 44z" />
    <glyph glyph-name="hyphen" unicode="-" horiz-adv-x="566" 
d="M544 882q8 -1 8 -8q-12 -172 -24 -172l-524 -100q0 4 -4 4q28 263 36 276h508zM520 614l4 -8q-5 -76 -16 -76h-404v8q140 24 416 76z" />
    <glyph glyph-name="hyphen" unicode="&#xad;" horiz-adv-x="566" 
d="M544 882q8 -1 8 -8q-12 -172 -24 -172l-524 -100q0 4 -4 4q28 263 36 276h508zM520 614l4 -8q-5 -76 -16 -76h-404v8q140 24 416 76z" />
    <glyph glyph-name="period" unicode="." horiz-adv-x="453" 
d="M436 436q8 -1 8 -8q-40 -388 -48 -428h-388l-8 4q44 400 52 432h384z" />
    <glyph glyph-name="slash" unicode="/" horiz-adv-x="677" 
d="M672 1476q8 -1 8 -8q-240 -759 -248 -776l-220 -44q-4 8 -4 12q240 765 260 816h204zM408 620q-20 -82 -196 -620h-204l-8 4q176 562 188 580q202 36 220 36z" />
    <glyph glyph-name="zero" unicode="0" horiz-adv-x="1047" 
d="M588 1476h32q290 0 380 -272q32 -121 32 -280q0 -375 -144 -672q-744 -140 -760 -140q-128 119 -128 432q0 374 136 676q156 256 452 256zM372 544v-44q0 -184 104 -184q153 0 184 592v88q0 172 -100 172q-143 0 -176 -452q-12 -61 -12 -172zM844 192l4 -8
q-143 -184 -400 -184h-24q-163 0 -244 68q0 8 664 124z" />
    <glyph glyph-name="one" unicode="1" horiz-adv-x="799" 
d="M496 1452h304v-4q0 -51 -112 -1024l-380 -72l-4 8q56 497 56 524q-154 -110 -304 -160l-52 -16q0 4 -4 4q37 368 48 368q285 96 404 300zM680 360q0 -4 4 -4q-36 -318 -44 -356h-368l-8 4q29 278 40 292z" />
    <glyph glyph-name="two" unicode="2" horiz-adv-x="1146" 
d="M668 1452h28q320 0 404 -200q36 -79 36 -164v-8q0 -240 -196 -424q-13 0 -632 -120l-4 8l356 304q100 100 100 180q-13 108 -108 108q-113 0 -152 -208q-4 0 -4 -4q-336 32 -368 40q61 273 180 372q132 116 360 116zM840 568v-4q-205 -159 -240 -196h456q6 0 12 -12
q-38 -356 -44 -356h-1016q-8 0 -8 8q60 271 216 444q32 12 624 116z" />
    <glyph glyph-name="three" unicode="3" horiz-adv-x="1054" 
d="M616 1476h16q320 0 392 -220q16 -52 16 -100v-20q0 -128 -72 -220q-355 -72 -524 -100l-4 8q18 124 28 124q46 -8 64 -8q88 0 132 116l4 40q0 88 -88 88q-103 0 -140 -180q0 -8 -8 -8q-333 69 -340 80v4q75 233 240 332q123 64 284 64zM876 816q160 -77 160 -272
q0 -263 -228 -456q-135 -88 -312 -88h-32q-314 0 -412 228q-52 147 -52 204q8 8 380 64q17 -200 84 -200q0 -8 40 -8q95 0 136 124q12 29 12 80v32q0 100 -108 116h-4q-29 0 -132 -32q0 4 -4 4q15 128 36 128q423 76 436 76z" />
    <glyph glyph-name="four" unicode="4" horiz-adv-x="1131" 
d="M740 1452h316v-4q-31 -336 -40 -336l-656 -128q0 4 -4 4q62 82 384 464zM1008 1020q0 -4 4 -4q-36 -293 -44 -408h136q8 -1 8 -8q-32 -304 -40 -344h-144q-26 -256 -36 -256h-316q-8 0 -8 8l24 248h-584l-8 4q38 356 44 356q211 257 236 272zM396 608h236l36 324
q-4 0 -272 -324z" />
    <glyph glyph-name="five" unicode="5" horiz-adv-x="1096" 
d="M1080 1452l8 -4q0 -84 -28 -84q-16 0 -848 -160l-4 8q56 232 64 240h808zM1064 1268q0 -4 4 -4q-18 -172 -28 -172h-520l-32 -128h4q112 40 184 40q264 0 356 -276q12 -46 16 -124q0 -275 -212 -484q-139 -120 -348 -120h-20q-325 0 -428 244q-28 88 -40 184q23 8 384 52
l4 -8v-20q0 -164 120 -164q128 0 156 228v64q-15 128 -100 128h-36q-62 0 -148 -96h-4q-304 47 -304 56q104 421 112 440q824 152 880 160z" />
    <glyph glyph-name="six" unicode="6" horiz-adv-x="1054" 
d="M832 1444q98 -38 160 -144q56 -121 56 -204q0 -8 -376 -56q0 96 -48 140q-32 3 -32 8q-126 0 -172 -276v-4h4q104 88 244 88q235 0 328 -292q12 -68 12 -124q0 -360 -300 -536q-114 -44 -220 -44h-28q-290 0 -396 224q-64 149 -64 324q0 357 144 652q94 144 144 144
q488 88 544 100zM376 448q0 -110 84 -148q9 -4 36 -8q115 0 148 192q4 47 4 68q-16 144 -80 144q0 8 -32 8q-133 0 -160 -220v-36z" />
    <glyph glyph-name="seven" unicode="7" horiz-adv-x="1040" 
d="M48 1428h984q8 -1 8 -8q-28 -304 -44 -304q-73 -62 -160 -172q-117 -160 -184 -296q0 -32 -88 -32q-59 -16 -308 -60l-4 8q61 141 200 352l100 136h-544q-8 0 -8 8q36 368 48 368zM604 552q0 -4 4 -4q-84 -196 -128 -408q-25 -140 -32 -140h-360q-8 0 -8 8
q64 294 140 476z" />
    <glyph glyph-name="eight" unicode="8" horiz-adv-x="1047" 
d="M592 1476h20q303 0 400 -196q32 -76 32 -156q-18 -208 -80 -208l-784 -148v4l28 24q-104 82 -104 240q0 274 292 408q94 32 196 32zM460 1040v-8q10 -104 100 -104q120 19 120 148v4q0 108 -100 108q-104 0 -120 -148zM908 828l4 -8q-21 -20 -28 -20v-8
q128 -111 128 -264v-40q0 -211 -184 -384q-139 -104 -348 -104h-32q-327 0 -412 204q-36 87 -36 172v24q0 167 84 276zM376 432q0 -118 112 -144q89 0 140 140q8 30 8 56v32q0 90 -84 128q-15 4 -32 4q-105 0 -140 -172q-4 -14 -4 -44z" />
    <glyph glyph-name="nine" unicode="9" horiz-adv-x="1061" 
d="M568 1476h24q300 0 400 -240q24 -44 24 -92l-344 -64q-41 104 -116 104q-91 0 -136 -128q0 -36 -60 -36l-308 -60q-4 8 -4 12q0 132 124 320q149 184 396 184zM1036 1060q12 -15 12 -112v-40q0 -431 -196 -712q-174 -196 -412 -196h-32q-264 0 -356 192q-52 129 -52 188
q11 8 380 56l4 -8v-20q0 -88 52 -116q24 0 24 -4q126 0 172 280h-4q-102 -88 -244 -88q-230 0 -324 276q-16 61 -16 116q0 10 240 48q6 3 116 24l4 -8v-4q0 -129 84 -156q16 -4 28 -4q131 0 160 220q52 12 360 68z" />
    <glyph glyph-name="colon" unicode=":" horiz-adv-x="523" 
d="M504 1052q8 -1 8 -8l-36 -312q0 -9 -400 -80l-4 8q40 385 48 392h384zM468 676q0 -4 4 -4q-5 -60 -16 -60h-296v8q17 0 308 56zM436 436l8 -4q-44 -432 -52 -432h-384q-8 0 -8 8q44 415 52 428h384z" />
    <glyph glyph-name="semicolon" unicode=";" horiz-adv-x="552" 
d="M148 1054h380q8 -1 8 -8q0 -88 -20 -88q-364 -72 -392 -72v4q12 164 24 164zM516 898l4 -8q-28 -265 -32 -276h-388l-8 4q20 193 28 208q7 0 396 72zM460 434q8 -1 8 -8q-40 -519 -120 -600q-90 -140 -276 -216q-52 130 -72 212v4q141 61 184 156q0 9 4 16l-8 4h-148
l-8 4q44 395 52 428h384z" />
    <glyph glyph-name="semicolon" unicode="&#x37e;" horiz-adv-x="552" 
d="M148 1054h380q8 -1 8 -8q0 -88 -20 -88q-364 -72 -392 -72v4q12 164 24 164zM516 898l4 -8q-28 -265 -32 -276h-388l-8 4q20 193 28 208q7 0 396 72zM460 434q8 -1 8 -8q-40 -519 -120 -600q-90 -140 -276 -216q-52 130 -72 212v4q141 61 184 156q0 9 4 16l-8 4h-148
l-8 4q44 395 52 428h384z" />
    <glyph glyph-name="less" unicode="&#x3c;" horiz-adv-x="1047" 
d="M1036 1236h8q-13 -152 -24 -152q-317 -64 -524 -100v8zM1016 1012v-4q-9 -168 -28 -168q-8 0 -520 -220q52 -32 480 -232v-8q-35 -380 -48 -380h-4q-812 415 -896 464q29 316 40 316q216 104 272 104q585 108 704 128z" />
    <glyph glyph-name="equal" unicode="=" horiz-adv-x="1018" 
d="M1004 820q8 -1 8 -8q-36 -345 -40 -352h-912q-8 0 -8 8q32 313 40 352h912zM952 360q8 0 8 -12q-16 -204 -28 -204q-694 -136 -768 -144h-156l-8 4q36 344 44 356h908zM928 84q0 -4 4 -4q-6 -80 -16 -80h-412v8z" />
    <glyph glyph-name="greater" unicode="&#x3e;" horiz-adv-x="1054" 
d="M140 1240l160 -80v-4q0 -10 -172 -36l-4 8q8 97 16 112zM412 1100q545 -277 632 -328q-32 -300 -36 -312q-957 -444 -1004 -460q0 4 -4 4q40 372 44 384q528 224 532 232q-407 188 -480 232v4q12 192 28 192q33 4 288 52z" />
    <glyph glyph-name="question" unicode="?" horiz-adv-x="962" 
d="M540 1456q284 0 384 -236q20 -62 20 -112v-36q-8 -136 -40 -136q-441 -84 -500 -92v4q160 136 160 176v28q0 56 -72 56q-100 0 -132 -168q-8 -32 -16 -32q-344 44 -344 56q45 227 148 336q138 156 392 156zM868 852v-8q-86 -107 -244 -236q-64 -85 -64 -176h-344l-8 4
q16 159 48 232q45 88 72 88q498 92 540 96zM200 392h360l8 -4q-41 -388 -48 -388h-360q-8 0 -8 8q37 384 48 384z" />
    <glyph glyph-name="at" unicode="@" horiz-adv-x="1301" 
d="M764 1652h24q349 0 480 -368q32 -117 32 -216q0 -339 -200 -580l-760 -140q-120 94 -120 288q0 350 236 632q104 96 208 96q101 0 156 -92h8q9 60 24 60h188q-101 124 -272 124h-16q-362 0 -532 -444q-52 -179 -52 -332q0 -198 100 -344q0 -8 -188 -40q-80 169 -80 356
v52q0 432 320 772q204 176 444 176zM1044 1320q-192 -779 -192 -800q101 0 212 212q64 147 64 316q0 148 -76 272h-8zM436 628q0 -115 72 -132h4q146 0 228 512v52q0 85 -72 96q-159 0 -232 -496v-32zM1024 420v-4q-131 -112 -244 -112q-63 0 -100 48q0 9 300 60q34 8 44 8z
M1044 352h196q8 -1 8 -8q-117 -147 -208 -204q-217 -140 -420 -140h-68q-246 0 -432 228l-12 20q0 9 204 40q111 -112 276 -112h20q209 0 420 172q7 4 16 4zM568 336v-8q-57 -24 -116 -24h-12v12h4z" />
    <glyph glyph-name="A" unicode="A" 
d="M716 1432h320q9 0 68 -304l-748 -188q0 4 -4 4l196 484q107 4 168 4zM1068 1016l196 -1012l-8 -4h-336q-15 0 -28 148q-14 80 -20 80h-372q-76 -228 -88 -228h-404q-8 0 -8 12q348 806 372 852q681 152 696 152zM768 948q-8 -29 -136 -368h196q-12 55 -56 368h-4z" />
    <glyph glyph-name="B" unicode="B" horiz-adv-x="1089" 
d="M804 1432q269 0 340 -136q52 -77 52 -200v-4q0 -4 -4 -4q0 -4 4 -4q0 -135 -176 -232q-43 -24 -660 -172q-7 -4 -292 -76q0 4 -4 4q88 814 96 824h644zM532 1096l-24 -204h148q128 0 128 128q0 76 -92 76h-160zM912 736q74 0 188 -88q80 -80 80 -168q0 -285 -244 -428
q-160 -52 -340 -52h-588q-8 0 -8 8q52 520 60 520q837 208 852 208zM472 576v-4q0 -41 -24 -220h180q144 0 144 136q0 88 -144 88h-156z" />
    <glyph glyph-name="C" unicode="C" 
d="M776 1548h88q155 0 284 -76v-4l-1000 -252h-4v4q209 328 632 328zM1084 1340q73 -53 100 -80q96 -112 96 -280q-4 -89 -4 -96l-8 -4h-416q-9 0 -20 100q-47 124 -160 124q-194 0 -248 -308q-12 -114 -12 -152v-60q0 -212 168 -212q136 0 200 144l8 4h380l8 -4
q-18 -90 -120 -264q-168 -252 -500 -252q-345 0 -464 228q-92 155 -92 344v48q0 257 108 488q10 0 976 232z" />
    <glyph glyph-name="D" unicode="D" horiz-adv-x="1202" 
d="M164 1432h524q322 0 424 -176q96 -153 96 -300q0 -7 -404 -104q-7 9 -16 96q-43 108 -128 108q0 7 -68 8h-68q-28 -292 -36 -292l-412 -104l-4 8q80 736 84 752zM1208 868l4 -8v-12q0 -232 -84 -468q-167 -380 -592 -380h-528q-8 0 -8 8q59 588 68 588l412 100q0 -4 4 -4
l-36 -324h36q194 0 228 68q51 45 80 280q0 60 24 60q347 84 392 92z" />
    <glyph glyph-name="E" unicode="E" horiz-adv-x="1068" 
d="M164 1432h212v-8q-208 -52 -228 -52q4 60 16 60zM844 1432h320q8 0 8 -12q-30 -340 -44 -340h-600q-16 -143 -20 -160h556q8 -1 8 -8q-24 -251 -36 -328h-564q-8 -95 -24 -216h620l8 -4q-36 -336 -44 -364h-1024q-8 0 -8 8q112 1059 140 1260q656 160 704 164z" />
    <glyph glyph-name="F" unicode="F" horiz-adv-x="1089" 
d="M160 1432h924q8 -1 8 -8q-32 -344 -44 -344h-524q-20 -162 -20 -184h444q8 -1 8 -8q0 -35 -36 -324h-448q-10 0 -28 -224q-18 -168 -32 -168l-408 -100q0 4 -4 4l152 1352zM472 116q-6 -116 -20 -116h-400v16q0 12 416 104q4 0 4 -4z" />
    <glyph glyph-name="G" unicode="G" horiz-adv-x="1273" 
d="M688 1432h124q274 0 372 -168q0 -8 -1104 -276v4q198 440 608 440zM1232 1216q40 -120 40 -180l-400 -84l-24 72q0 28 -68 80q0 10 220 56q46 16 232 56zM524 1048l4 -8q-59 -47 -96 -204q-20 -115 -20 -200v-20q0 -207 136 -252q36 -8 52 -8h44q80 0 208 76q0 16 8 88
h-240v4q29 336 40 336h596l8 -4l-72 -628q-302 -228 -572 -228h-100q-353 0 -480 336q-40 134 -40 240v36q0 168 44 316q7 8 480 120z" />
    <glyph glyph-name="H" unicode="H" horiz-adv-x="1322" 
d="M556 1432q8 -1 8 -8q-40 -385 -52 -472h352v4q32 324 52 472l8 4h392q8 -1 8 -8q-37 -388 -48 -388l-1192 -296l-4 8q72 675 80 684h396zM1268 948l4 -8q-68 -630 -104 -936l-8 -4h-392q-8 0 -8 8q4 74 60 548h-352q-56 -556 -64 -556h-396q-8 0 -8 8q48 467 72 652
q193 52 1196 288z" />
    <glyph glyph-name="I" unicode="I" horiz-adv-x="516" 
d="M112 1408h392q8 -1 8 -8q-88 -815 -92 -824q-6 -4 -416 -104q0 4 -4 4q96 880 104 928zM488 528l4 -8q-52 -507 -60 -520h-404v4q38 428 52 428z" />
    <glyph glyph-name="J" unicode="J" horiz-adv-x="1096" 
d="M696 1432h392q8 -1 8 -8q-92 -919 -136 -1068q-12 -60 -56 -60q-11 -4 -796 -200q-67 55 -104 252q0 38 -4 52q0 4 4 4l-4 24q0 92 12 92l392 60q-4 -80 -4 -120v-16q0 -81 68 -92h4q101 0 120 212q88 826 96 864zM960 260q0 -4 4 -4q-75 -150 -268 -232
q-84 -24 -144 -24h-84q-164 0 -256 76q29 12 748 184z" />
    <glyph glyph-name="K" unicode="K" horiz-adv-x="1421" 
d="M168 1432h392q8 -1 8 -8q-48 -446 -52 -460h4q382 454 400 468h480q12 0 20 -48l-472 -504q360 -866 360 -876l-8 -4h-484q-13 0 -48 128q-124 364 -136 416h-4q-179 -187 -180 -200q-32 -344 -44 -344h-396l-8 4q152 1376 160 1424z" />
    <glyph glyph-name="L" unicode="L" horiz-adv-x="1018" 
d="M628 1432q8 -1 8 -8q-19 -220 -28 -220l-412 -104l-4 8q32 314 40 324h396zM528 1108q0 -4 4 -4q-4 -16 -80 -708h564v-4q-34 -392 -48 -392h-960q-8 0 -8 8q104 972 112 1004z" />
    <glyph glyph-name="M" unicode="M" horiz-adv-x="1474" 
d="M616 1432q15 0 40 -308q4 0 36 -316q0 -7 -292 -76q-4 8 -12 100h-4q-6 -112 -28 -112l-336 -84q0 4 -4 4q84 767 92 792h508zM1464 1432q8 -1 8 -8q-44 -428 -52 -440q-12 0 -664 -164v4q184 579 200 608h508zM1412 892q-92 -892 -100 -892h-332q-8 0 -8 8
q84 808 92 808q334 80 348 80v-4zM1048 808v-4q-244 -747 -264 -800l-8 -4h-292q-11 0 -24 180q-4 8 -48 428h-4q-60 -596 -68 -596h-332q-8 0 -8 8q56 538 64 556q95 20 636 152l4 -8v-28h8q0 56 80 56q227 60 256 60z" />
    <glyph glyph-name="N" unicode="N" horiz-adv-x="1395" 
d="M596 1432q9 -3 128 -256l124 -272q-14 -8 -692 -176l-4 8q72 696 80 696h364zM1388 1432q8 -1 8 -8q-41 -400 -48 -400q-12 0 -392 -96q0 4 -4 4q52 484 60 500h376zM1272 936v-4q-4 -13 -104 -928l-8 -4h-364q-18 13 -184 384q-7 3 -144 300q-10 0 -32 -256
q-44 -382 -52 -428h-376q-8 0 -8 8q64 619 72 644q729 176 740 176q24 -39 44 -92h4q0 112 28 112q358 88 384 88z" />
    <glyph glyph-name="O" unicode="O" horiz-adv-x="1280" 
d="M692 1432h84q342 0 456 -288q48 -119 48 -288v-4q0 -168 -28 -168l-408 -104l-4 8q28 140 28 240v12q0 184 -128 228q-28 8 -48 8h-24q-199 0 -248 -336q-8 -72 -8 -124v-20q0 -51 12 -116q-7 -8 -400 -104q-24 70 -24 184v36q0 394 232 664q162 148 260 148
q91 24 200 24zM1252 612q0 -4 4 -4q-70 -310 -208 -436q-155 -172 -440 -172h-84q-190 0 -348 100q-118 132 -136 220q403 100 416 100q48 -68 136 -68h16q140 0 208 156z" />
    <glyph glyph-name="P" unicode="P" horiz-adv-x="905" 
d="M712 1432q248 0 324 -72q120 -97 120 -288v-32q0 -290 -216 -452q-120 -76 -288 -76h-184q-52 -502 -56 -508l-8 -4h-396l-8 4q152 1380 160 1428h552zM532 1096q0 -36 -28 -252h64q184 0 184 144q0 108 -132 108h-88z" />
    <glyph glyph-name="Q" unicode="Q" horiz-adv-x="1280" 
d="M716 1426q185 0 408 -124v-4q-17 -8 -1024 -260l-4 8q34 99 180 244q128 96 308 124q38 8 132 12zM1192 1214q88 -138 88 -344v-28q0 -361 -176 -612v-8q99 -79 152 -100v-4q-12 -45 -152 -288q-84 43 -248 196q-91 -36 -300 -36q-293 0 -452 188q-104 162 -104 388v8
q21 376 80 376zM412 594q0 -252 192 -252q-15 20 -100 64v8q87 188 100 188q74 0 204 -120q60 153 60 344q0 244 -192 244q-210 0 -256 -348z" />
    <glyph glyph-name="R" unicode="R" 
d="M740 1432q351 0 408 -136q60 -87 60 -208q0 -275 -216 -424q-53 -32 -64 -32q67 -53 120 -168q12 -37 12 -44q-7 -8 -428 -108q-73 204 -100 224q-34 24 -76 24v-4q-28 -300 -40 -300q-392 -100 -416 -100q136 1241 144 1276h596zM516 1096l-24 -220h128q168 0 168 136v4
q0 80 -112 80h-160zM1080 360q116 -332 116 -352v-8h-452q-20 21 -92 256v4zM480 212q0 -4 4 -4q-19 -196 -28 -196h-400l-8 4q6 100 28 100q391 96 404 96z" />
    <glyph glyph-name="S" unicode="S" horiz-adv-x="1131" 
d="M716 1432h28q251 0 332 -152q56 -99 56 -240v-68q0 -8 -8 -8h-376q-8 0 -8 8v4q0 168 -136 168q-112 -11 -112 -80v-12q0 -52 212 -96q254 -73 348 -196q64 -105 64 -232q0 -245 -216 -440q-124 -88 -280 -88h-148q-289 0 -364 108q-108 134 -108 332v88q1 8 8 8h344
l40 4l4 -8v-16q0 -212 156 -212h8q108 0 144 100v40q0 82 -284 148q-320 110 -320 384q0 204 164 352q418 104 452 104z" />
    <glyph glyph-name="T" unicode="T" horiz-adv-x="1188" 
d="M48 1432h1132q8 -1 8 -8q0 -64 -16 -64l-1168 -292q0 4 -4 4q37 360 48 360zM1168 1260q0 -4 4 -4q-22 -220 -32 -220h-364q-109 -1036 -116 -1036h-396q-8 0 -8 12q0 25 112 1024h-108v8z" />
    <glyph glyph-name="U" unicode="U" horiz-adv-x="1273" 
d="M500 1432q8 -1 8 -8q-96 -861 -96 -908v-24l4 -20q-7 -4 -400 -100q-8 0 -16 132q94 928 104 928h396zM872 1432h392q8 -1 8 -8q-80 -744 -88 -760l-412 -104l-4 8q92 848 96 860zM1176 588h4q-30 -209 -100 -324q-99 -169 -272 -244q-51 -20 -68 -20h-404
q-110 0 -228 132q-84 118 -84 184l416 96q41 -56 108 -56h40q106 0 168 136q406 96 420 96z" />
    <glyph glyph-name="V" unicode="V" horiz-adv-x="1337" 
d="M8 1432h416q7 0 40 -200q12 -107 112 -716h4q44 133 340 912l8 4h408v-4q0 -11 -376 -888q0 -9 -732 -184l-228 1072zM920 460q0 -4 4 -4q-168 -397 -196 -452l-8 -4h-408q-16 0 -56 228q-4 0 -16 64q58 20 680 168z" />
    <glyph glyph-name="W" unicode="W" horiz-adv-x="1697" 
d="M8 1432h188v-8q-9 0 -188 -44q-8 15 -8 32v12q1 8 8 8zM1032 1432q17 0 28 -160q4 0 64 -500h8q144 553 180 660h380q8 -1 8 -8q-420 -1414 -428 -1424h-384q-12 0 -52 372l-56 408h-4q-20 -70 -268 -776l-8 -4h-376q-20 0 -20 148q-8 60 -92 1128q17 8 380 96
q8 -10 8 -16q0 -41 28 -588h4q224 654 232 664h368z" />
    <glyph glyph-name="X" unicode="X" horiz-adv-x="1478" 
d="M200 1432h440q12 0 100 -252q52 -131 60 -140q205 357 228 388l8 4h440q0 -19 -452 -692q208 -455 224 -500v-4l-408 -100q-20 36 -116 276h-8q-194 -318 -236 -368q-169 -44 -216 -44h-264q0 18 244 368l252 380q-284 626 -304 680zM1272 188q20 -30 84 -184l-8 -4h-448
q-11 0 -40 88z" />
    <glyph glyph-name="Y" unicode="Y" horiz-adv-x="1139" 
d="M0 1432h448q12 0 180 -436q17 17 272 432l8 4h440q8 -1 8 -8q-519 -759 -564 -832q-8 -88 -16 -88q-282 -72 -412 -100q0 4 -4 4l20 188q-380 823 -380 832v4zM768 428l4 -8q-40 -383 -48 -420h-400q-8 0 -8 8q32 328 44 328q11 0 408 92z" />
    <glyph glyph-name="Z" unicode="Z" horiz-adv-x="1294" 
d="M228 1432h148v-8q-148 -36 -156 -36q-4 8 -4 12q3 32 12 32zM844 1432h440q8 0 8 -12q-28 -312 -40 -312q-665 -713 -700 -756h640l8 -4q-36 -348 -44 -348h-1148l-8 4q33 314 44 332q53 53 692 744h-544q-8 0 -8 8q14 200 32 200q604 144 628 144z" />
    <glyph glyph-name="bracketleft" unicode="[" horiz-adv-x="729" 
d="M188 1652h524q8 -1 8 -8q-6 -128 -24 -128l-536 -104l-4 8q21 232 32 232zM692 1412q0 -4 4 -4q-10 -108 -20 -108h-188l-120 -1108h184q8 -1 8 -8q-15 -184 -28 -184h-524l-8 4q140 1302 148 1312z" />
    <glyph glyph-name="bracketright" unicode="]" horiz-adv-x="729" 
d="M188 1652h524q8 -1 8 -8q0 -13 -244 -52q-64 -16 -304 -60l-4 8q9 112 20 112zM704 1528l4 -8q-164 -1503 -172 -1520h-528q-8 0 -8 8q16 184 28 184h180q12 0 44 356q4 2 84 752h-184q-8 0 -8 8q0 124 32 124z" />
    <glyph glyph-name="asciicircum" unicode="^" horiz-adv-x="955" 
d="M688 1706q7 -3 72 -208q0 -7 -480 -96q15 46 160 304h248zM788 1402l164 -508l-8 -4h-324q-9 0 -60 240q-36 156 -36 164q-16 -20 -184 -400l-8 -4h-324q-8 0 -8 8q6 2 216 396q0 11 572 108z" />
    <glyph glyph-name="underscore" unicode="_" horiz-adv-x="920" 
d="M236 -198h660q8 -1 8 -8q-12 -144 -24 -144h-872l-8 4q10 116 20 116q175 32 216 32z" />
    <glyph glyph-name="a" unicode="a" horiz-adv-x="1117" 
d="M1000 1432q10 0 72 -324q120 -548 156 -744q-385 -108 -532 -136h-232q-12 -84 -76 -84q-213 -60 -244 -60h-144q13 43 432 1012q132 307 148 336h420zM732 948q-8 -29 -136 -368h196q-12 55 -56 368h-4zM1176 284q8 0 64 -280l-8 -4h-444q-11 0 -24 180q19 8 412 104z
" />
    <glyph glyph-name="b" unicode="b" horiz-adv-x="1089" 
d="M804 1432q269 0 340 -136q52 -77 52 -200v-4q0 -4 -4 -4q0 -4 4 -4q0 -135 -176 -232q-43 -24 -660 -172q-7 -4 -292 -76q0 4 -4 4q88 814 96 824h644zM532 1096l-24 -204h148q128 0 128 128q0 76 -92 76h-160zM912 736q74 0 188 -88q80 -80 80 -168q0 -285 -244 -428
q-160 -52 -340 -52h-588q-8 0 -8 8q52 520 60 520q837 208 852 208zM472 576v-4q0 -41 -24 -220h180q144 0 144 136q0 88 -144 88h-156z" />
    <glyph glyph-name="c" unicode="c" 
d="M776 1548h88q155 0 284 -76v-4l-1000 -252h-4v4q209 328 632 328zM1084 1340q73 -53 100 -80q96 -112 96 -280q-4 -89 -4 -96l-8 -4h-416q-9 0 -20 100q-47 124 -160 124q-194 0 -248 -308q-12 -114 -12 -152v-60q0 -212 168 -212q136 0 200 144l8 4h380l8 -4
q-18 -90 -120 -264q-168 -252 -500 -252q-345 0 -464 228q-92 155 -92 344v48q0 257 108 488q10 0 976 232z" />
    <glyph glyph-name="d" unicode="d" horiz-adv-x="1202" 
d="M164 1432h524q322 0 424 -176q96 -153 96 -300q0 -7 -404 -104q-7 9 -16 96q-43 108 -128 108q0 7 -68 8h-68q-28 -292 -36 -292l-412 -104l-4 8q80 736 84 752zM1208 868l4 -8v-12q0 -232 -84 -468q-167 -380 -592 -380h-528q-8 0 -8 8q59 588 68 588l412 100q0 -4 4 -4
l-36 -324h36q194 0 228 68q51 45 80 280q0 60 24 60q347 84 392 92z" />
    <glyph glyph-name="e" unicode="e" horiz-adv-x="1068" 
d="M164 1432h212v-8q-208 -52 -228 -52q4 60 16 60zM844 1432h320q8 0 8 -12q-30 -340 -44 -340h-600q-16 -143 -20 -160h556q8 -1 8 -8q-24 -251 -36 -328h-564q-8 -95 -24 -216h620l8 -4q-36 -336 -44 -364h-1024q-8 0 -8 8q112 1059 140 1260q656 160 704 164z" />
    <glyph glyph-name="f" unicode="f" horiz-adv-x="1089" 
d="M160 1432h924q8 -1 8 -8q-32 -344 -44 -344h-524q-20 -162 -20 -184h444q8 -1 8 -8q0 -35 -36 -324h-448q-10 0 -28 -224q-18 -168 -32 -168l-408 -100q0 4 -4 4l152 1352zM472 116q-6 -116 -20 -116h-400v16q0 12 416 104q4 0 4 -4z" />
    <glyph glyph-name="g" unicode="g" horiz-adv-x="1273" 
d="M688 1432h124q274 0 372 -168q0 -8 -1104 -276v4q198 440 608 440zM1232 1216q40 -120 40 -180l-400 -84l-24 72q0 28 -68 80q0 10 220 56q46 16 232 56zM524 1048l4 -8q-59 -47 -96 -204q-20 -115 -20 -200v-20q0 -207 136 -252q36 -8 52 -8h44q80 0 208 76q0 16 8 88
h-240v4q29 336 40 336h596l8 -4l-72 -628q-302 -228 -572 -228h-100q-353 0 -480 336q-40 134 -40 240v36q0 168 44 316q7 8 480 120z" />
    <glyph glyph-name="h" unicode="h" horiz-adv-x="1322" 
d="M556 1432q8 -1 8 -8q-40 -385 -52 -472h352v4q32 324 52 472l8 4h392q8 -1 8 -8q-37 -388 -48 -388l-1192 -296l-4 8q72 675 80 684h396zM1268 948l4 -8q-68 -630 -104 -936l-8 -4h-392q-8 0 -8 8q4 74 60 548h-352q-56 -556 -64 -556h-396q-8 0 -8 8q48 467 72 652
q193 52 1196 288z" />
    <glyph glyph-name="i" unicode="i" horiz-adv-x="516" 
d="M112 1408h392q8 -1 8 -8q-88 -815 -92 -824q-6 -4 -416 -104q0 4 -4 4q96 880 104 928zM488 528l4 -8q-52 -507 -60 -520h-404v4q38 428 52 428z" />
    <glyph glyph-name="j" unicode="j" horiz-adv-x="1096" 
d="M696 1432h392q8 -1 8 -8q-92 -919 -136 -1068q-12 -60 -56 -60q-11 -4 -796 -200q-67 55 -104 252q0 38 -4 52q0 4 4 4l-4 24q0 92 12 92l392 60q-4 -80 -4 -120v-16q0 -81 68 -92h4q101 0 120 212q88 826 96 864zM960 260q0 -4 4 -4q-75 -150 -268 -232
q-84 -24 -144 -24h-84q-164 0 -256 76q29 12 748 184z" />
    <glyph glyph-name="k" unicode="k" horiz-adv-x="1421" 
d="M168 1432h392q8 -1 8 -8q-48 -446 -52 -460h4q382 454 400 468h480q12 0 20 -48l-472 -504q360 -866 360 -876l-8 -4h-484q-13 0 -48 128q-124 364 -136 416h-4q-179 -187 -180 -200q-32 -344 -44 -344h-396l-8 4q152 1376 160 1424z" />
    <glyph glyph-name="l" unicode="l" horiz-adv-x="1018" 
d="M628 1432q8 -1 8 -8q-19 -220 -28 -220l-412 -104l-4 8q32 314 40 324h396zM528 1108q0 -4 4 -4q-4 -16 -80 -708h564v-4q-34 -392 -48 -392h-960q-8 0 -8 8q104 972 112 1004z" />
    <glyph glyph-name="m" unicode="m" horiz-adv-x="1474" 
d="M616 1432q15 0 40 -308q4 0 36 -316q0 -7 -292 -76q-4 8 -12 100h-4q-6 -112 -28 -112l-336 -84q0 4 -4 4q84 767 92 792h508zM1464 1432q8 -1 8 -8q-44 -428 -52 -440q-12 0 -664 -164v4q184 579 200 608h508zM1412 892q-92 -892 -100 -892h-332q-8 0 -8 8
q84 808 92 808q334 80 348 80v-4zM1048 808v-4q-244 -747 -264 -800l-8 -4h-292q-11 0 -24 180q-4 8 -48 428h-4q-60 -596 -68 -596h-332q-8 0 -8 8q56 538 64 556q95 20 636 152l4 -8v-28h8q0 56 80 56q227 60 256 60z" />
    <glyph glyph-name="n" unicode="n" horiz-adv-x="1395" 
d="M596 1432q9 -3 128 -256l124 -272q-14 -8 -692 -176l-4 8q72 696 80 696h364zM1388 1432q8 -1 8 -8q-41 -400 -48 -400q-12 0 -392 -96q0 4 -4 4q52 484 60 500h376zM1272 936v-4q-4 -13 -104 -928l-8 -4h-364q-18 13 -184 384q-7 3 -144 300q-10 0 -32 -256
q-44 -382 -52 -428h-376q-8 0 -8 8q64 619 72 644q729 176 740 176q24 -39 44 -92h4q0 112 28 112q358 88 384 88z" />
    <glyph glyph-name="o" unicode="o" horiz-adv-x="1280" 
d="M692 1432h84q342 0 456 -288q48 -119 48 -288v-4q0 -168 -28 -168l-408 -104l-4 8q28 140 28 240v12q0 184 -128 228q-28 8 -48 8h-24q-199 0 -248 -336q-8 -72 -8 -124v-20q0 -51 12 -116q-7 -8 -400 -104q-24 70 -24 184v36q0 394 232 664q162 148 260 148
q91 24 200 24zM1252 612q0 -4 4 -4q-70 -310 -208 -436q-155 -172 -440 -172h-84q-190 0 -348 100q-118 132 -136 220q403 100 416 100q48 -68 136 -68h16q140 0 208 156z" />
    <glyph glyph-name="p" unicode="p" horiz-adv-x="905" 
d="M712 1432q248 0 324 -72q120 -97 120 -288v-32q0 -290 -216 -452q-120 -76 -288 -76h-184q-52 -502 -56 -508l-8 -4h-396l-8 4q152 1380 160 1428h552zM532 1096q0 -36 -28 -252h64q184 0 184 144q0 108 -132 108h-88z" />
    <glyph glyph-name="q" unicode="q" horiz-adv-x="1280" 
d="M716 1426q185 0 408 -124v-4q-17 -8 -1024 -260l-4 8q34 99 180 244q128 96 308 124q38 8 132 12zM1192 1214q88 -138 88 -344v-28q0 -361 -176 -612v-8q99 -79 152 -100v-4q-12 -45 -152 -288q-84 43 -248 196q-91 -36 -300 -36q-293 0 -452 188q-104 162 -104 388v8
q21 376 80 376zM412 594q0 -252 192 -252q-15 20 -100 64v8q87 188 100 188q74 0 204 -120q60 153 60 344q0 244 -192 244q-210 0 -256 -348z" />
    <glyph glyph-name="r" unicode="r" 
d="M740 1432q351 0 408 -136q60 -87 60 -208q0 -275 -216 -424q-53 -32 -64 -32q67 -53 120 -168q12 -37 12 -44q-7 -8 -428 -108q-73 204 -100 224q-34 24 -76 24v-4q-28 -300 -40 -300q-392 -100 -416 -100q136 1241 144 1276h596zM516 1096l-24 -220h128q168 0 168 136v4
q0 80 -112 80h-160zM1080 360q116 -332 116 -352v-8h-452q-20 21 -92 256v4zM480 212q0 -4 4 -4q-19 -196 -28 -196h-400l-8 4q6 100 28 100q391 96 404 96z" />
    <glyph glyph-name="s" unicode="s" horiz-adv-x="1131" 
d="M716 1432h28q251 0 332 -152q56 -99 56 -240v-68q0 -8 -8 -8h-376q-8 0 -8 8v4q0 168 -136 168q-112 -11 -112 -80v-12q0 -52 212 -96q254 -73 348 -196q64 -105 64 -232q0 -245 -216 -440q-124 -88 -280 -88h-148q-289 0 -364 108q-108 134 -108 332v88q1 8 8 8h344
l40 4l4 -8v-16q0 -212 156 -212h8q108 0 144 100v40q0 82 -284 148q-320 110 -320 384q0 204 164 352q418 104 452 104z" />
    <glyph glyph-name="t" unicode="t" horiz-adv-x="1188" 
d="M48 1432h1132q8 -1 8 -8q0 -64 -16 -64l-1168 -292q0 4 -4 4q37 360 48 360zM1168 1260q0 -4 4 -4q-22 -220 -32 -220h-364q-109 -1036 -116 -1036h-396q-8 0 -8 12q0 25 112 1024h-108v8z" />
    <glyph glyph-name="u" unicode="u" horiz-adv-x="1273" 
d="M500 1432q8 -1 8 -8q-96 -861 -96 -908v-24l4 -20q-7 -4 -400 -100q-8 0 -16 132q94 928 104 928h396zM872 1432h392q8 -1 8 -8q-80 -744 -88 -760l-412 -104l-4 8q92 848 96 860zM1176 588h4q-30 -209 -100 -324q-99 -169 -272 -244q-51 -20 -68 -20h-404
q-110 0 -228 132q-84 118 -84 184l416 96q41 -56 108 -56h40q106 0 168 136q406 96 420 96z" />
    <glyph glyph-name="v" unicode="v" horiz-adv-x="1337" 
d="M8 1432h416q7 0 40 -200q12 -107 112 -716h4q44 133 340 912l8 4h408v-4q0 -11 -376 -888q0 -9 -732 -184l-228 1072zM920 460q0 -4 4 -4q-168 -397 -196 -452l-8 -4h-408q-16 0 -56 228q-4 0 -16 64q58 20 680 168z" />
    <glyph glyph-name="w" unicode="w" horiz-adv-x="1697" 
d="M8 1432h188v-8q-9 0 -188 -44q-8 15 -8 32v12q1 8 8 8zM1032 1432q17 0 28 -160q4 0 64 -500h8q144 553 180 660h380q8 -1 8 -8q-420 -1414 -428 -1424h-384q-12 0 -52 372l-56 408h-4q-20 -70 -268 -776l-8 -4h-376q-20 0 -20 148q-8 60 -92 1128q17 8 380 96
q8 -10 8 -16q0 -41 28 -588h4q224 654 232 664h368z" />
    <glyph glyph-name="x" unicode="x" horiz-adv-x="1478" 
d="M200 1432h440q12 0 100 -252q52 -131 60 -140q205 357 228 388l8 4h440q0 -19 -452 -692q208 -455 224 -500v-4l-408 -100q-20 36 -116 276h-8q-194 -318 -236 -368q-169 -44 -216 -44h-264q0 18 244 368l252 380q-284 626 -304 680zM1272 188q20 -30 84 -184l-8 -4h-448
q-11 0 -40 88z" />
    <glyph glyph-name="y" unicode="y" horiz-adv-x="1139" 
d="M0 1432h448q12 0 180 -436q17 17 272 432l8 4h440q8 -1 8 -8q-519 -759 -564 -832q-8 -88 -16 -88q-282 -72 -412 -100q0 4 -4 4l20 188q-380 823 -380 832v4zM768 428l4 -8q-40 -383 -48 -420h-400q-8 0 -8 8q32 328 44 328q11 0 408 92z" />
    <glyph glyph-name="z" unicode="z" horiz-adv-x="1294" 
d="M228 1432h148v-8q-148 -36 -156 -36q-4 8 -4 12q3 32 12 32zM844 1432h440q8 0 8 -12q-28 -312 -40 -312q-665 -713 -700 -756h640l8 -4q-36 -348 -44 -348h-1148l-8 4q33 314 44 332q53 53 692 744h-544q-8 0 -8 8q14 200 32 200q604 144 628 144z" />
    <glyph glyph-name="braceleft" unicode="{" horiz-adv-x="757" 
d="M352 1652h400q8 -1 8 -8q-25 -268 -36 -268h-68q-92 0 -104 -232q-21 -176 -72 -256q-24 -38 -76 -80v-4q80 -55 80 -192v-32l-16 -256v-20q0 -60 84 -60h44q8 -1 8 -8q0 -88 -28 -88l-452 -88q-12 24 -12 84v36q0 48 28 320q0 120 -104 120h-24l-12 8q36 323 44 372h32
q99 0 124 100q16 67 48 336q41 166 104 216zM584 88l4 -8q-4 -80 -16 -80h-424v8z" />
    <glyph glyph-name="braceright" unicode="}" horiz-adv-x="757" 
d="M188 1652h400q56 -63 56 -184v-12q0 -53 -24 -332v-20q0 -104 104 -104h24q8 -1 8 -8q-37 -356 -48 -372h-24q-99 0 -124 -84q-20 -62 -32 -168q-333 -64 -344 -64l-4 8q34 262 68 364q16 56 104 136q-80 56 -80 216l16 272q0 76 -64 76h-64q-8 0 -8 8q23 268 36 268z
M520 296l4 -8q-20 -160 -60 -244q-28 -44 -32 -44h-424q-8 0 -8 8q18 200 28 200z" />
  </font>
</defs>
</svg>
