<?xml version="1.0" encoding="UTF-8"?>
<svg width="383px" height="264px" viewBox="0 0 383 264" version="1.1" xmlns="http://www.w3.org/2000/svg" xmlns:xlink="http://www.w3.org/1999/xlink">
    <!-- Generator: Sketch 47.1 (45422) - http://www.bohemiancoding.com/sketch -->
    <title>Books</title>
    <desc>Created with Sketch.</desc>
    <defs>
        <polygon id="path-1" points="0 263.849 462.318 263.849 462.318 0 0 0"></polygon>
    </defs>
    <g id="Icons" stroke="none" stroke-width="1" fill="none" fill-rule="evenodd">
        <g id="Monochrome-Images" transform="translate(-2631.000000, -2201.000000)">
            <g id="Books" transform="translate(2590.000000, 2201.000000)">
                <path d="M207.0439,261.625 L144.9799,261.625 C142.5109,261.625 140.5099,259.624 140.5099,257.155 L140.5099,15.188 C140.5099,12.72 142.5109,10.719 144.9799,10.719 L207.0439,10.719 C209.5129,10.719 211.5139,12.72 211.5139,15.188 L211.5139,257.155 C211.5139,259.624 209.5129,261.625 207.0439,261.625 Z" id="Fill-1" fill="#EFEFEF"></path>
                <path d="M207.0439,261.625 L144.9799,261.625 C142.5109,261.625 140.5099,259.624 140.5099,257.155 L140.5099,15.188 C140.5099,12.72 142.5109,10.719 144.9799,10.719 L207.0439,10.719 C209.5129,10.719 211.5139,12.72 211.5139,15.188 L211.5139,257.155 C211.5139,259.624 209.5129,261.625 207.0439,261.625 Z" id="Stroke-3" stroke="#CECECE" stroke-width="4" stroke-linecap="round" stroke-linejoin="round"></path>
                <path d="M211.5137,29.7852 L211.5137,15.1882 C211.5137,12.7202 209.5127,10.7192 207.0437,10.7192 L144.9797,10.7192 C142.5107,10.7192 140.5097,12.7202 140.5097,15.1882 L140.5097,29.7852 L211.5137,29.7852 Z" id="Fill-5" fill="#FFFFFF"></path>
                <path d="M211.5137,29.7852 L211.5137,15.1882 C211.5137,12.7202 209.5127,10.7192 207.0437,10.7192 L144.9797,10.7192 C142.5107,10.7192 140.5097,12.7202 140.5097,15.1882 L140.5097,29.7852 L211.5137,29.7852 Z" id="Stroke-7" stroke="#CECECE" stroke-width="4" stroke-linecap="round" stroke-linejoin="round"></path>
                <mask id="mask-2" fill="white">
                    <use xlink:href="#path-1"></use>
                </mask>
                <g id="Clip-10"></g>
                <polygon id="Fill-9" fill="#FFFFFF" mask="url(#mask-2)" points="140.51 65.626 211.514 65.626 211.514 38.746 140.51 38.746"></polygon>
                <polygon id="Stroke-11" stroke="#CECECE" stroke-width="4" stroke-linecap="round" stroke-linejoin="round" mask="url(#mask-2)" points="140.51 65.626 211.514 65.626 211.514 38.746 140.51 38.746"></polygon>
                <polygon id="Fill-12" fill="#FFFFFF" mask="url(#mask-2)" points="140.51 197.042 211.514 197.042 211.514 74.587 140.51 74.587"></polygon>
                <polygon id="Stroke-13" stroke="#CECECE" stroke-width="4" stroke-linecap="round" stroke-linejoin="round" mask="url(#mask-2)" points="140.51 197.042 211.514 197.042 211.514 74.587 140.51 74.587"></polygon>
                <polygon id="Fill-14" fill="#FFFFFF" mask="url(#mask-2)" points="140.51 232.386 211.514 232.386 211.514 205.505 140.51 205.505"></polygon>
                <polygon id="Stroke-15" stroke="#CECECE" stroke-width="4" stroke-linecap="round" stroke-linejoin="round" mask="url(#mask-2)" points="140.51 232.386 211.514 232.386 211.514 205.505 140.51 205.505"></polygon>
                <path d="M140.5098,240.8477 L140.5098,257.1557 C140.5098,259.6237 142.5108,261.6247 144.9798,261.6247 L207.0438,261.6247 C209.5128,261.6247 211.5138,259.6237 211.5138,257.1557 L211.5138,240.8477 L140.5098,240.8477 Z" id="Fill-16" fill="#FFFFFF" mask="url(#mask-2)"></path>
                <path d="M140.5098,240.8477 L140.5098,257.1557 C140.5098,259.6237 142.5108,261.6247 144.9798,261.6247 L207.0438,261.6247 C209.5128,261.6247 211.5138,259.6237 211.5138,257.1557 L211.5138,240.8477 L140.5098,240.8477 Z" id="Stroke-17" stroke="#CECECE" stroke-width="4" stroke-linecap="round" stroke-linejoin="round" mask="url(#mask-2)"></path>
                <path d="M109.9024,261.5693 L47.8384,261.5693 C45.3694,261.5693 43.3684,259.5683 43.3684,257.0993 L43.3684,58.1953 C43.3684,55.7263 45.3694,53.7253 47.8384,53.7253 L109.9024,53.7253 C112.3714,53.7253 114.3724,55.7263 114.3724,58.1953 L114.3724,257.0993 C114.3724,259.5683 112.3714,261.5693 109.9024,261.5693" id="Fill-18" fill="#EFEFEF" mask="url(#mask-2)"></path>
                <path d="M109.9024,261.5693 L47.8384,261.5693 C45.3694,261.5693 43.3684,259.5683 43.3684,257.0993 L43.3684,58.1953 C43.3684,55.7263 45.3694,53.7253 47.8384,53.7253 L109.9024,53.7253 C112.3714,53.7253 114.3724,55.7263 114.3724,58.1953 L114.3724,257.0993 C114.3724,259.5683 112.3714,261.5693 109.9024,261.5693 Z" id="Stroke-19" stroke="#CECECE" stroke-width="4" stroke-linecap="round" stroke-linejoin="round" mask="url(#mask-2)"></path>
                <polygon id="Fill-20" fill="#FFFFFF" mask="url(#mask-2)" points="43.368 149.255 114.372 149.255 114.372 95.493 43.368 95.493"></polygon>
                <polygon id="Stroke-21" stroke="#CECECE" stroke-width="4" stroke-linecap="round" stroke-linejoin="round" mask="url(#mask-2)" points="43.368 149.255 114.372 149.255 114.372 95.493 43.368 95.493"></polygon>
                <path d="M136.04,261.8486 L118.842,261.8486 C116.373,261.8486 114.372,259.8476 114.372,257.3786 L114.372,35.6756 C114.372,33.2066 116.373,31.2056 118.842,31.2056 L136.04,31.2056 C138.509,31.2056 140.51,33.2066 140.51,35.6756 L140.51,257.3786 C140.51,259.8476 138.509,261.8486 136.04,261.8486" id="Fill-22" fill="#FFFFFF" mask="url(#mask-2)"></path>
                <path d="M136.04,261.8486 L118.842,261.8486 C116.373,261.8486 114.372,259.8476 114.372,257.3786 L114.372,35.6756 C114.372,33.2066 116.373,31.2056 118.842,31.2056 L136.04,31.2056 C138.509,31.2056 140.51,33.2066 140.51,35.6756 L140.51,257.3786 C140.51,259.8476 138.509,261.8486 136.04,261.8486 Z" id="Stroke-23" stroke="#CECECE" stroke-width="4" stroke-linecap="round" stroke-linejoin="round" mask="url(#mask-2)"></path>
                <path d="M249.7715,261.625 L215.9835,261.625 C213.5145,261.625 211.5135,259.624 211.5135,257.155 L211.5135,57.692 C211.5135,55.224 213.5145,53.223 215.9835,53.223 L249.7715,53.223 C252.2405,53.223 254.2415,55.224 254.2415,57.692 L254.2415,257.155 C254.2415,259.624 252.2405,261.625 249.7715,261.625" id="Fill-24" fill="#EFEFEF" mask="url(#mask-2)"></path>
                <path d="M249.7715,261.625 L215.9835,261.625 C213.5145,261.625 211.5135,259.624 211.5135,257.155 L211.5135,57.692 C211.5135,55.224 213.5145,53.223 215.9835,53.223 L249.7715,53.223 C252.2405,53.223 254.2415,55.224 254.2415,57.692 L254.2415,257.155 C254.2415,259.624 252.2405,261.625 249.7715,261.625 Z" id="Stroke-25" stroke="#CECECE" stroke-width="4" stroke-linecap="round" stroke-linejoin="round" mask="url(#mask-2)"></path>
                <path d="M232.9473,244.2432 L232.8073,244.2432 C229.0103,244.2432 225.9323,241.1652 225.9323,237.3682 L225.9323,77.4792 C225.9323,73.6822 229.0103,70.6042 232.8073,70.6042 L232.9473,70.6042 C236.7443,70.6042 239.8223,73.6822 239.8223,77.4792 L239.8223,237.3682 C239.8223,241.1652 236.7443,244.2432 232.9473,244.2432" id="Fill-26" fill="#FFFFFF" mask="url(#mask-2)"></path>
                <path d="M232.9473,244.2432 L232.8073,244.2432 C229.0103,244.2432 225.9323,241.1652 225.9323,237.3682 L225.9323,77.4792 C225.9323,73.6822 229.0103,70.6042 232.8073,70.6042 L232.9473,70.6042 C236.7443,70.6042 239.8223,73.6822 239.8223,77.4792 L239.8223,237.3682 C239.8223,241.1652 236.7443,244.2432 232.9473,244.2432 Z" id="Stroke-27" stroke="#CECECE" stroke-width="4" stroke-linecap="round" stroke-linejoin="round" mask="url(#mask-2)"></path>
                <path d="M284.1172,261.8486 L258.7212,261.8486 C256.2522,261.8486 254.2502,259.8476 254.2502,257.3786 L254.2502,57.9156 C254.2502,55.4476 256.2522,53.4466 258.7212,53.4466 L284.1172,53.4466 C286.5862,53.4466 288.5872,55.4476 288.5872,57.9156 L288.5872,257.3786 C288.5872,259.8476 286.5862,261.8486 284.1172,261.8486" id="Fill-28" fill="#FFFFFF" mask="url(#mask-2)"></path>
                <path d="M284.1172,261.8486 L258.7212,261.8486 C256.2522,261.8486 254.2502,259.8476 254.2502,257.3786 L254.2502,57.9156 C254.2502,55.4476 256.2522,53.4466 258.7212,53.4466 L284.1172,53.4466 C286.5862,53.4466 288.5872,55.4476 288.5872,57.9156 L288.5872,257.3786 C288.5872,259.8476 286.5862,261.8486 284.1172,261.8486 Z" id="Stroke-29" stroke="#CECECE" stroke-width="4" stroke-linecap="round" stroke-linejoin="round" mask="url(#mask-2)"></path>
                <path d="M418.6475,244.8721 L386.8725,258.9231 C384.6145,259.9211 381.9745,258.9001 380.9755,256.6431 L277.3685,22.3301 C276.3705,20.0721 277.3905,17.4331 279.6485,16.4341 L311.4245,2.3831 C313.6825,1.3851 316.3225,2.4061 317.3205,4.6641 L420.9285,238.9761 C421.9265,241.2341 420.9065,243.8741 418.6475,244.8721" id="Fill-30" fill="#EFEFEF" mask="url(#mask-2)"></path>
                <path d="M418.6475,244.8721 L386.8725,258.9231 C384.6145,259.9211 381.9745,258.9001 380.9755,256.6431 L277.3685,22.3301 C276.3705,20.0721 277.3905,17.4331 279.6485,16.4341 L311.4245,2.3831 C313.6825,1.3851 316.3225,2.4061 317.3205,4.6641 L420.9285,238.9761 C421.9265,241.2341 420.9065,243.8741 418.6475,244.8721 Z" id="Stroke-31" stroke="#CECECE" stroke-width="4" stroke-linecap="round" stroke-linejoin="round" mask="url(#mask-2)"></path>
                <g id="Group-34" mask="url(#mask-2)">
                    <g transform="translate(310.000000, 40.849000)">
                        <path d="M0.1152,0.1207 L72.5902,164.0247" id="Fill-32" stroke="none" fill="#FFFFFF" fill-rule="evenodd"></path>
                        <path d="M0.1152,0.1207 L72.5902,164.0247" id="Stroke-33" stroke="#CECECE" stroke-width="4" fill="none" stroke-linecap="round" stroke-linejoin="round"></path>
                    </g>
                </g>
            </g>
        </g>
    </g>
</svg>