<?xml version="1.0" encoding="UTF-8"?>
<svg width="429px" height="352px" viewBox="0 0 429 352" version="1.1" xmlns="http://www.w3.org/2000/svg" xmlns:xlink="http://www.w3.org/1999/xlink">
    <!-- Generator: Sketch 47.1 (45422) - http://www.bohemiancoding.com/sketch -->
    <title>Box</title>
    <desc>Created with Sketch.</desc>
    <defs>
        <polygon id="path-1" points="0 352 429.785 352 429.785 0.774 0 0.774"></polygon>
    </defs>
    <g id="Icons" stroke="none" stroke-width="1" fill="none" fill-rule="evenodd">
        <g id="Monochrome-Images" transform="translate(-3339.000000, -3999.000000)">
            <g id="Box" transform="translate(3339.000000, 3998.000000)">
                <polygon id="Fill-1" fill="#FFFFFF" points="219.9849 212.6842 327.1979 248.5222 362.4979 142.9152 255.2849 107.0792"></polygon>
                <polygon id="Stroke-2" stroke="#CECECE" stroke-width="4" stroke-linecap="round" stroke-linejoin="round" points="219.9849 212.6842 327.1979 248.5222 362.4979 142.9152 255.2849 107.0792"></polygon>
                <polygon id="Fill-3" fill="#FFFFFF" points="140.76 267.547 248.886 267.547 248.886 159.421 140.76 159.421"></polygon>
                <polygon id="Stroke-4" stroke="#CECECE" stroke-width="4" stroke-linecap="round" stroke-linejoin="round" points="140.76 267.547 248.886 267.547 248.886 159.421 140.76 159.421"></polygon>
                <polygon id="Fill-5" fill="#FFFFFF" points="336.608 152.2135 303.381 260.3985 222.209 234.8275 255.436 126.6435"></polygon>
                <polygon id="Stroke-6" stroke="#CECECE" stroke-width="4" stroke-linecap="round" stroke-linejoin="round" points="336.608 152.2135 303.381 260.3985 222.209 234.8275 255.436 126.6435"></polygon>
                <g id="Group-110" transform="translate(0.000000, 0.226000)">
                    <path d="M362.5489,65.5929 C369.8429,71.9539 377.4399,80.8479 369.7989,98.4469 C362.8469,114.4589 341.7649,112.0269 341.7649,112.0269 C341.7649,112.0269 345.3319,118.1509 339.3489,125.4719 C333.2989,132.8749 306.4029,123.5709 306.4029,123.5709 L309.8269,108.1719 L280.2859,102.1149 C268.8769,99.7499 259.1809,92.1009 254.5359,81.4149 C251.9089,75.3709 250.5739,67.7709 252.2499,58.4469 C257.9819,26.5539 290.0259,31.1139 290.0259,31.1139 C292.9639,31.6429 295.4829,32.5309 297.6669,33.6559 C298.0739,32.4109 298.7029,31.3219 299.6059,30.4249 C305.4099,24.6549 311.8199,32.2539 311.8199,32.2539 C311.8199,32.2539 309.6419,9.9229 331.2409,3.7249 C331.2409,3.7249 363.7699,-4.3841 372.7079,26.7629 C378.1939,45.8769 369.3109,58.8969 362.5489,65.5929 Z" id="Fill-7" fill="#EFEFEF"></path>
                    <path d="M362.5489,65.5929 C369.3109,58.8969 378.1939,45.8769 372.7079,26.7629 C363.7699,-4.3841 331.2409,3.7249 331.2409,3.7249 C309.6419,9.9229 311.8199,32.2539 311.8199,32.2539 C311.8199,32.2539 305.4099,24.6549 299.6059,30.4249 C298.7029,31.3219 298.0739,32.4109 297.6669,33.6559 C295.4829,32.5309 292.9639,31.6429 290.0259,31.1139 C290.0259,31.1139 257.9819,26.5539 252.2499,58.4469 C250.5739,67.7709 251.9089,75.3709 254.5359,81.4149 C259.1809,92.1009 268.8769,99.7499 280.2859,102.1149 L309.8269,108.1719 L306.4029,123.5709 C306.4029,123.5709 333.2989,132.8749 339.3489,125.4719 C345.3319,118.1509 341.7649,112.0269 341.7649,112.0269 C341.7649,112.0269 362.8469,114.4589 369.7989,98.4469 C377.4399,80.8479 369.8429,71.9539 362.5489,65.5929 Z" id="Stroke-9" stroke="#CECECE" stroke-width="4" stroke-linecap="round" stroke-linejoin="round"></path>
                    <g id="Group-14" transform="translate(294.000000, 35.000000)">
                        <path d="M0.6446,155.881 L28.5346,0.691" id="Fill-11" fill="#FFFFFF"></path>
                        <path d="M0.6446,155.881 L28.5346,0.691" id="Stroke-13" stroke="#CECECE" stroke-width="4" stroke-linecap="round" stroke-linejoin="round"></path>
                    </g>
                    <g id="Group-18" transform="translate(312.000000, 65.000000)">
                        <path d="M0.8467,24.5988 L35.0417,0.8218" id="Fill-15" fill="#FFFFFF"></path>
                        <path d="M0.8467,24.5988 L35.0417,0.8218" id="Stroke-17" stroke="#CECECE" stroke-width="4" stroke-linecap="round" stroke-linejoin="round"></path>
                    </g>
                    <g id="Group-22" transform="translate(330.000000, 77.000000)">
                        <path d="M0.2667,0.4865 L11.5727,2.5175" id="Fill-19" fill="#FFFFFF"></path>
                        <path d="M0.2667,0.4865 L11.5727,2.5175" id="Stroke-21" stroke="#CECECE" stroke-width="4" stroke-linecap="round" stroke-linejoin="round"></path>
                    </g>
                    <g id="Group-26" transform="translate(268.000000, 81.000000)">
                        <path d="M0.6153,0.6496 L36.7463,52.6126" id="Fill-23" fill="#FFFFFF"></path>
                        <path d="M0.6153,0.6496 L36.7463,52.6126" id="Stroke-25" stroke="#CECECE" stroke-width="4" stroke-linecap="round" stroke-linejoin="round"></path>
                    </g>
                    <g id="Group-30" transform="translate(280.000000, 84.000000)">
                        <path d="M3.0938,0.2511 L0.5568,14.3641" id="Fill-27" fill="#FFFFFF"></path>
                        <path d="M3.0938,0.2511 L0.5568,14.3641" id="Stroke-29" stroke="#CECECE" stroke-width="4" stroke-linecap="round" stroke-linejoin="round"></path>
                    </g>
                    <g id="Group-34" transform="translate(277.000000, 115.000000)">
                        <path d="M17.4224,3.7648 L0.4394,0.7118" id="Fill-31" fill="#FFFFFF"></path>
                        <path d="M17.4224,3.7648 L0.4394,0.7118" id="Stroke-33" stroke="#CECECE" stroke-width="4" stroke-linecap="round" stroke-linejoin="round"></path>
                    </g>
                    <g id="Group-38" transform="translate(306.000000, 49.000000)">
                        <path d="M0.9561,0.0236 L11.4701,15.1436" id="Fill-35" fill="#FFFFFF"></path>
                        <path d="M0.9561,0.0236 L11.4701,15.1436" id="Stroke-37" stroke="#CECECE" stroke-width="4" stroke-linecap="round" stroke-linejoin="round"></path>
                    </g>
                    <g id="Group-42" transform="translate(309.000000, 99.000000)">
                        <path d="M0.358,10.2814 L14.685,0.3204" id="Fill-39" fill="#FFFFFF"></path>
                        <path d="M0.358,10.2814 L14.685,0.3204" id="Stroke-41" stroke="#CECECE" stroke-width="4" stroke-linecap="round" stroke-linejoin="round"></path>
                    </g>
                    <g id="Group-46" transform="translate(303.000000, 129.000000)">
                        <path d="M0.0045,15.6349 L21.7175,0.5369" id="Fill-43" fill="#FFFFFF"></path>
                        <path d="M0.0045,15.6349 L21.7175,0.5369" id="Stroke-45" stroke="#CECECE" stroke-width="4" stroke-linecap="round" stroke-linejoin="round"></path>
                    </g>
                    <polygon id="Fill-47" fill="#FFFFFF" points="314.4498 222.4113 263.6088 213.2743 268.1408 139.9543 335.7298 152.1003"></polygon>
                    <polygon id="Stroke-49" stroke="#CECECE" stroke-width="4" stroke-linecap="round" stroke-linejoin="round" points="314.4498 222.4113 263.6088 213.2743 268.1408 139.9543 335.7298 152.1003"></polygon>
                    <polygon id="Fill-51" fill="#EFEFEF" points="314.4498 222.4113 263.6088 213.2743 268.1408 139.9543 335.7298 152.1003"></polygon>
                    <polygon id="Stroke-53" stroke="#CECECE" stroke-width="4" stroke-linecap="round" stroke-linejoin="round" points="314.4498 222.4113 263.6088 213.2743 268.1408 139.9543 335.7298 152.1003"></polygon>
                    <polygon id="Fill-55" fill="#FFFFFF" points="341.3018 169.1974 256.9658 154.0414 259.7678 138.4494 344.1038 153.6054"></polygon>
                    <polygon id="Stroke-57" stroke="#CECECE" stroke-width="4" stroke-linecap="round" stroke-linejoin="round" points="341.3018 169.1974 256.9658 154.0414 259.7678 138.4494 344.1038 153.6054"></polygon>
                    <polygon id="Fill-59" fill="#EFEFEF" points="341.3018 169.1974 256.9658 154.0414 259.7678 138.4494 344.1038 153.6054"></polygon>
                    <polygon id="Stroke-61" stroke="#CECECE" stroke-width="4" stroke-linecap="round" stroke-linejoin="round" points="341.3018 169.1974 256.9658 154.0414 259.7678 138.4494 344.1038 153.6054"></polygon>
                    <path d="M124.9805,194.5822 C124.9805,221.7622 147.0135,243.7952 174.1925,243.7952 C201.3725,243.7952 223.4055,221.7622 223.4055,194.5822 C223.4055,167.4022 201.3725,145.3692 174.1925,145.3692 C147.0135,145.3692 124.9805,167.4022 124.9805,194.5822" id="Fill-63" fill="#EFEFEF"></path>
                    <path d="M124.9805,194.5822 C124.9805,221.7622 147.0135,243.7952 174.1925,243.7952 C201.3725,243.7952 223.4055,221.7622 223.4055,194.5822 C223.4055,167.4022 201.3725,145.3692 174.1925,145.3692 C147.0135,145.3692 124.9805,167.4022 124.9805,194.5822 Z" id="Stroke-65" stroke="#CECECE" stroke-width="4" stroke-linecap="round" stroke-linejoin="round"></path>
                    <polygon id="Fill-67" fill="#FFFFFF" points="109.3443 265.1769 210.3623 229.6169 168.9263 111.9069 67.9083 147.4669"></polygon>
                    <polygon id="Stroke-69" stroke="#CECECE" stroke-width="4" stroke-linecap="round" stroke-linejoin="round" points="109.3443 265.1769 210.3623 229.6169 168.9263 111.9069 67.9083 147.4669"></polygon>
                    <path d="M174.1929,205.1828 L162.1449,161.7108 C161.8039,160.4818 161.2059,159.3368 160.3899,158.3558 L98.3399,87.5458 C97.5969,86.6528 96.3079,86.4448 95.3209,87.0588 L80.3479,96.3868 C79.3609,97.0008 78.9799,98.2498 79.4539,99.3108 L115.6559,186.2218 C116.1779,187.3878 116.9409,188.4288 117.8949,189.2778 L151.6029,219.2558 L174.1929,205.1828 Z" id="Fill-71" fill="#FFFFFF"></path>
                    <path d="M174.1929,205.1828 L162.1449,161.7108 C161.8039,160.4818 161.2059,159.3368 160.3899,158.3558 L98.3399,87.5458 C97.5969,86.6528 96.3079,86.4448 95.3209,87.0588 L80.3479,96.3868 C79.3609,97.0008 78.9799,98.2498 79.4539,99.3108 L115.6559,186.2218 C116.1779,187.3878 116.9409,188.4288 117.8949,189.2778 L151.6029,219.2558 L174.1929,205.1828 Z" id="Stroke-73" stroke="#CECECE" stroke-width="4" stroke-linecap="round" stroke-linejoin="round"></path>
                    <path d="M128.9444,169.4162 C130.7084,170.8122 131.3814,173.3572 129.3954,175.1992 C126.8184,177.5902 123.9854,174.6162 122.3504,172.2092 C119.5244,168.0482 123.2154,166.8352 128.9444,169.4162" id="Fill-75" fill="#EFEFEF"></path>
                    <path d="M128.9444,169.4162 C130.7084,170.8122 131.3814,173.3572 129.3954,175.1992 C126.8184,177.5902 123.9854,174.6162 122.3504,172.2092 C119.5244,168.0482 123.2154,166.8352 128.9444,169.4162 Z" id="Stroke-77" stroke="#CECECE" stroke-width="4" stroke-linecap="round" stroke-linejoin="round"></path>
                    <path d="M129.4752,194.3439 C129.8182,190.3379 130.6502,186.1419 132.4662,182.5269 C133.9512,179.5699 136.0732,176.4709 136.6182,173.1569 C137.4742,167.9439 133.8602,163.0769 131.2362,158.9499 C128.3042,154.3379 124.6322,147.2199 130.6672,143.1139 C135.6472,139.7259 141.9852,143.5549 145.5792,147.3059 C149.9262,151.8449 150.7502,156.9759 150.5762,163.0829 C150.4152,168.6739 150.2302,174.3289 153.7522,179.0219 C155.4252,181.2489 157.7662,182.8849 160.4532,183.6179 C163.1862,184.3639 166.4412,184.4849 168.8862,186.0349 L174.1932,205.1829 L151.6022,219.2559 L129.4442,199.5489 C129.3252,197.8229 129.3262,196.0859 129.4752,194.3439" id="Fill-79" fill="#EFEFEF"></path>
                    <path d="M129.4752,194.3439 C129.8182,190.3379 130.6502,186.1419 132.4662,182.5269 C133.9512,179.5699 136.0732,176.4709 136.6182,173.1569 C137.4742,167.9439 133.8602,163.0769 131.2362,158.9499 C128.3042,154.3379 124.6322,147.2199 130.6672,143.1139 C135.6472,139.7259 141.9852,143.5549 145.5792,147.3059 C149.9262,151.8449 150.7502,156.9759 150.5762,163.0829 C150.4152,168.6739 150.2302,174.3289 153.7522,179.0219 C155.4252,181.2489 157.7662,182.8849 160.4532,183.6179 C163.1862,184.3639 166.4412,184.4849 168.8862,186.0349 L174.1932,205.1829 L151.6022,219.2559 L129.4442,199.5489 C129.3252,197.8229 129.3262,196.0859 129.4752,194.3439 Z" id="Stroke-81" stroke="#CECECE" stroke-width="4" stroke-linecap="round" stroke-linejoin="round"></path>
                    <path d="M110.1046,134.5158 C109.9086,139.2308 114.0716,141.4198 115.2986,145.5518 C116.3966,149.2458 115.9566,153.5638 112.2996,155.6428 C109.4786,157.2468 106.7616,157.2088 103.4106,156.7008 L79.4546,99.3108 C78.9796,98.2498 79.3606,97.0008 80.3476,96.3868 L95.3216,87.0588 C96.3076,86.4448 97.5966,86.6528 98.3396,87.5458 L125.6296,118.7078 C121.5856,124.3868 110.4206,126.9138 110.1046,134.5158" id="Fill-83" fill="#EFEFEF"></path>
                    <path d="M110.1046,134.5158 C109.9086,139.2308 114.0716,141.4198 115.2986,145.5518 C116.3966,149.2458 115.9566,153.5638 112.2996,155.6428 C109.4786,157.2468 106.7616,157.2088 103.4106,156.7008 L79.4546,99.3108 C78.9796,98.2498 79.3606,97.0008 80.3476,96.3868 L95.3216,87.0588 C96.3076,86.4448 97.5966,86.6528 98.3396,87.5458 L125.6296,118.7078 C121.5856,124.3868 110.4206,126.9138 110.1046,134.5158 Z" id="Stroke-85" stroke="#CECECE" stroke-width="4" stroke-linecap="round" stroke-linejoin="round"></path>
                    <path d="M89.8262,124.1574 L79.4542,99.3104 C78.9792,98.2504 79.3612,97.0014 80.3472,96.3864 L95.3212,87.0584 C96.3072,86.4444 97.5972,86.6524 98.3402,87.5464 L116.0792,107.8034 L89.8262,124.1574 Z" id="Fill-87" fill="#FFFFFF"></path>
                    <path d="M89.8262,124.1574 L79.4542,99.3104 C78.9792,98.2504 79.3612,97.0014 80.3472,96.3864 L95.3212,87.0584 C96.3072,86.4444 97.5972,86.6524 98.3402,87.5464 L116.0792,107.8034 L89.8262,124.1574 Z" id="Stroke-89" stroke="#CECECE" stroke-width="4" stroke-linecap="round" stroke-linejoin="round"></path>
                    <polygon id="Fill-91" fill="#FFFFFF" points="166.6944 178.1261 174.1934 205.1831 151.6024 219.2561 130.6224 200.5971"></polygon>
                    <polygon id="Stroke-93" stroke="#CECECE" stroke-width="4" stroke-linecap="round" stroke-linejoin="round" points="166.6944 178.1261 174.1934 205.1831 151.6024 219.2561 130.6224 200.5971"></polygon>
                    <path d="M202.8243,233.589 L174.1933,205.183 L151.6023,219.256 L164.4763,257.478 C164.8683,258.999 166.6253,259.702 167.9593,258.872 L202.5403,237.329 C203.8743,236.498 204.0173,234.611 202.8243,233.589" id="Fill-95" fill="#FFFFFF"></path>
                    <path d="M202.8243,233.589 L174.1933,205.183 L151.6023,219.256 L164.4763,257.478 C164.8683,258.999 166.6253,259.702 167.9593,258.872 L202.5403,237.329 C203.8743,236.498 204.0173,234.611 202.8243,233.589 Z" id="Stroke-97" stroke="#CECECE" stroke-width="4" stroke-linecap="round" stroke-linejoin="round"></path>
                    <mask id="mask-2" fill="white">
                        <use xlink:href="#path-1"></use>
                    </mask>
                    <g id="Clip-100"></g>
                    <polygon id="Fill-99" fill="#FFFFFF" mask="url(#mask-2)" points="80.131 350 350.635 350 350.635 181.521 80.131 181.521"></polygon>
                    <path d="M330.171,280.0646 L350.635,234.5306 L350.635,181.5206 L80.13,181.5206 L80.13,350.0006 L350.635,350.0006 L350.635,339.7356 L94.056,339.7356 C91.15,339.7356 88.795,337.3796 88.795,334.4746 L88.795,280.0646 L330.171,280.0646 Z" id="Fill-101" fill="#EFEFEF" mask="url(#mask-2)"></path>
                    <polygon id="Stroke-102" stroke="#CECECE" stroke-width="4" stroke-linecap="round" stroke-linejoin="round" mask="url(#mask-2)" points="80.131 350 350.635 350 350.635 181.521 80.131 181.521"></polygon>
                    <path d="M425.2598,245.0627 L357.1608,180.1587 C355.6748,178.7417 353.3208,178.7977 351.9038,180.2847 L351.8518,180.3387 C350.4348,181.8267 350.4908,184.1797 351.9778,185.5967 L420.0768,250.5007 C421.5638,251.9167 423.9178,251.8607 425.3348,250.3747 C425.3518,250.3567 425.3688,250.3377 425.3858,250.3207 C426.8028,248.8337 426.7468,246.4797 425.2598,245.0627" id="Fill-103" fill="#FFFFFF" mask="url(#mask-2)"></path>
                    <path d="M425.2598,245.0627 L357.1608,180.1587 C355.6748,178.7417 353.3208,178.7977 351.9038,180.2847 L351.8518,180.3387 C350.4348,181.8267 350.4908,184.1797 351.9778,185.5967 L420.0768,250.5007 C421.5638,251.9167 423.9178,251.8607 425.3348,250.3747 C425.3518,250.3567 425.3688,250.3377 425.3858,250.3207 C426.8028,248.8337 426.7468,246.4797 425.2598,245.0627 Z" id="Stroke-104" stroke="#CECECE" stroke-width="4" stroke-linecap="round" stroke-linejoin="round" mask="url(#mask-2)"></path>
                    <path d="M3.1529,245.0627 L71.2519,180.1587 C72.7389,178.7417 75.0929,178.7977 76.5089,180.2847 L76.5619,180.3387 C77.9789,181.8267 77.9219,184.1797 76.4349,185.5967 L8.3359,250.5007 C6.8489,251.9167 4.4949,251.8607 3.0789,250.3747 C3.0609,250.3567 3.0439,250.3377 3.0269,250.3207 C1.6099,248.8337 1.6669,246.4797 3.1529,245.0627" id="Fill-105" fill="#FFFFFF" mask="url(#mask-2)"></path>
                    <path d="M3.1529,245.0627 L71.2519,180.1587 C72.7389,178.7417 75.0929,178.7977 76.5089,180.2847 L76.5619,180.3387 C77.9789,181.8267 77.9219,184.1797 76.4349,185.5967 L8.3359,250.5007 C6.8489,251.9167 4.4949,251.8607 3.0789,250.3747 C3.0609,250.3567 3.0439,250.3377 3.0269,250.3207 C1.6099,248.8337 1.6669,246.4797 3.1529,245.0627 Z" id="Stroke-106" stroke="#CECECE" stroke-width="4" stroke-linecap="round" stroke-linejoin="round" mask="url(#mask-2)"></path>
                    <path d="M316.127,256.591 L55.46,256.591 C52.218,256.591 50.023,253.289 51.277,250.301 L80.13,181.521 L350.635,181.521 L320.31,253.81 C319.603,255.495 317.954,256.591 316.127,256.591" id="Fill-107" fill="#FFFFFF" mask="url(#mask-2)"></path>
                    <path d="M316.127,256.591 L55.46,256.591 C52.218,256.591 50.023,253.289 51.277,250.301 L80.13,181.521 L350.635,181.521 L320.31,253.81 C319.603,255.495 317.954,256.591 316.127,256.591 Z" id="Stroke-108" stroke="#CECECE" stroke-width="4" stroke-linecap="round" stroke-linejoin="round" mask="url(#mask-2)"></path>
                </g>
            </g>
        </g>
    </g>
</svg>