<?xml version="1.0" encoding="UTF-8"?>
<svg width="328px" height="294px" viewBox="0 0 328 294" version="1.1" xmlns="http://www.w3.org/2000/svg" xmlns:xlink="http://www.w3.org/1999/xlink">
    <!-- Generator: Sketch 47.1 (45422) - http://www.bohemiancoding.com/sketch -->
    <title>Safe</title>
    <desc>Created with Sketch.</desc>
    <defs></defs>
    <g id="Icons" stroke="none" stroke-width="1" fill="none" fill-rule="evenodd">
        <g id="Monochrome-Images" transform="translate(-543.000000, -1599.000000)">
            <g id="Safe" transform="translate(518.000000, 1600.000000)">
                <path d="M103.4494,290.1996 L69.7464,290.1996 C65.7494,290.1996 62.5084,286.9596 62.5084,282.9616 L62.5084,203.1596 L110.6874,203.1596 L110.6874,282.9616 C110.6874,286.9596 107.4474,290.1996 103.4494,290.1996" id="Fill-1" fill="#FFFFFF"></path>
                <path d="M103.4494,290.1996 L69.7464,290.1996 C65.7494,290.1996 62.5084,286.9596 62.5084,282.9616 L62.5084,203.1596 L110.6874,203.1596 L110.6874,282.9616 C110.6874,286.9596 107.4474,290.1996 103.4494,290.1996 Z" id="Stroke-3" stroke="#CECECE" stroke-width="4" stroke-linecap="round" stroke-linejoin="round"></path>
                <path d="M308.0588,290.1996 L274.3558,290.1996 C270.3588,290.1996 267.1178,286.9596 267.1178,282.9616 L267.1178,203.1596 L315.2968,203.1596 L315.2968,282.9616 C315.2968,286.9596 312.0568,290.1996 308.0588,290.1996" id="Fill-5" fill="#FFFFFF"></path>
                <path d="M308.0588,290.1996 L274.3558,290.1996 C270.3588,290.1996 267.1178,286.9596 267.1178,282.9616 L267.1178,203.1596 L315.2968,203.1596 L315.2968,282.9616 C315.2968,286.9596 312.0568,290.1996 308.0588,290.1996 Z" id="Stroke-7" stroke="#CECECE" stroke-width="4" stroke-linecap="round" stroke-linejoin="round"></path>
                <path d="M342.7751,278.4252 L35.0301,278.4252 C30.7641,278.4252 27.3051,274.8692 27.3051,270.4842 L27.3051,8.9422 C27.3051,4.5552 30.7641,0.9992 35.0301,0.9992 L342.7751,0.9992 C347.0421,0.9992 350.5011,4.5552 350.5011,8.9422 L350.5011,270.4842 C350.5011,274.8692 347.0421,278.4252 342.7751,278.4252" id="Fill-9" fill="#FFFFFF"></path>
                <path d="M342.7751,278.4252 L35.0301,278.4252 C30.7641,278.4252 27.3051,274.8692 27.3051,270.4842 L27.3051,8.9422 C27.3051,4.5552 30.7641,0.9992 35.0301,0.9992 L342.7751,0.9992 C347.0421,0.9992 350.5011,4.5552 350.5011,8.9422 L350.5011,270.4842 C350.5011,274.8692 347.0421,278.4252 342.7751,278.4252 Z" id="Stroke-11" stroke="#CECECE" stroke-width="4" stroke-linecap="round" stroke-linejoin="round"></path>
                <path d="M307.3552,34.1743 L70.4512,34.1743 C66.0642,34.1743 62.5082,37.7313 62.5082,42.1163 L62.5082,237.3083 C62.5082,241.6943 66.0642,245.2503 70.4512,245.2503 L307.3552,245.2503 C311.7412,245.2503 315.2972,241.6943 315.2972,237.3083 L315.2972,42.1163 C315.2972,37.7313 311.7412,34.1743 307.3552,34.1743" id="Fill-13" fill="#EFEFEF"></path>
                <path d="M307.3552,34.1743 L70.4512,34.1743 C66.0642,34.1743 62.5082,37.7313 62.5082,42.1163 L62.5082,237.3083 C62.5082,241.6943 66.0642,245.2503 70.4512,245.2503 L307.3552,245.2503 C311.7412,245.2503 315.2972,241.6943 315.2972,237.3083 L315.2972,42.1163 C315.2972,37.7313 311.7412,34.1743 307.3552,34.1743 Z" id="Stroke-15" stroke="#CECECE" stroke-width="4" stroke-linecap="round" stroke-linejoin="round"></path>
                <path d="M188.9714,224.9204 L188.8344,224.9204 C185.0904,224.9204 182.0554,221.8854 182.0554,218.1414 L182.0554,61.2844 C182.0554,57.5404 185.0904,54.5054 188.8344,54.5054 L188.9714,54.5054 C192.7154,54.5054 195.7504,57.5404 195.7504,61.2844 L195.7504,218.1414 C195.7504,221.8854 192.7154,224.9204 188.9714,224.9204" id="Fill-17" fill="#EFEFEF"></path>
                <path d="M188.9714,224.9204 L188.8344,224.9204 C185.0904,224.9204 182.0554,221.8854 182.0554,218.1414 L182.0554,61.2844 C182.0554,57.5404 185.0904,54.5054 188.8344,54.5054 L188.9714,54.5054 C192.7154,54.5054 195.7504,57.5404 195.7504,61.2844 L195.7504,218.1414 C195.7504,221.8854 192.7154,224.9204 188.9714,224.9204 Z" id="Stroke-19" stroke="#CECECE" stroke-width="4" stroke-linecap="round" stroke-linejoin="round"></path>
                <path d="M274.11,139.644 L274.11,139.781 C274.11,143.525 271.075,146.56 267.331,146.56 L110.474,146.56 C106.731,146.56 103.695,143.525 103.695,139.781 L103.695,139.644 C103.695,135.9 106.731,132.866 110.474,132.866 L267.331,132.866 C271.075,132.866 274.11,135.9 274.11,139.644" id="Fill-21" fill="#EFEFEF"></path>
                <path d="M274.11,139.644 L274.11,139.781 C274.11,143.525 271.075,146.56 267.331,146.56 L110.474,146.56 C106.731,146.56 103.695,143.525 103.695,139.781 L103.695,139.644 C103.695,135.9 106.731,132.866 110.474,132.866 L267.331,132.866 C271.075,132.866 274.11,135.9 274.11,139.644 Z" id="Stroke-23" stroke="#CECECE" stroke-width="4" stroke-linecap="round" stroke-linejoin="round"></path>
                <path d="M249.1052,79.4135 L249.2022,79.5105 C251.8492,82.1575 251.8492,86.4495 249.2022,89.0975 L138.2872,200.0125 C135.6402,202.6585 131.3482,202.6585 128.7002,200.0125 L128.6042,199.9145 C125.9562,197.2675 125.9562,192.9755 128.6042,190.3275 L239.5182,79.4135 C242.1662,76.7665 246.4582,76.7665 249.1052,79.4135" id="Fill-25" fill="#EFEFEF"></path>
                <path d="M249.1052,79.4135 L249.2022,79.5105 C251.8492,82.1575 251.8492,86.4495 249.2022,89.0975 L138.2872,200.0125 C135.6402,202.6585 131.3482,202.6585 128.7002,200.0125 L128.6042,199.9145 C125.9562,197.2675 125.9562,192.9755 128.6042,190.3275 L239.5182,79.4135 C242.1662,76.7665 246.4582,76.7665 249.1052,79.4135 Z" id="Stroke-27" stroke="#CECECE" stroke-width="4" stroke-linecap="round" stroke-linejoin="round"></path>
                <path d="M128.6037,79.5102 L128.7007,79.4132 C131.3477,76.7662 135.6407,76.7662 138.2877,79.4132 L249.2017,190.3272 C251.8497,192.9752 251.8497,197.2682 249.2017,199.9142 L249.1047,200.0122 C246.4577,202.6582 242.1657,202.6582 239.5187,200.0122 L128.6037,89.0972 C125.9567,86.4492 125.9567,82.1572 128.6037,79.5102" id="Fill-29" fill="#EFEFEF"></path>
                <path d="M128.6037,79.5102 L128.7007,79.4132 C131.3477,76.7662 135.6407,76.7662 138.2877,79.4132 L249.2017,190.3272 C251.8497,192.9752 251.8497,197.2682 249.2017,199.9142 L249.1047,200.0122 C246.4577,202.6582 242.1657,202.6582 239.5187,200.0122 L128.6037,89.0972 C125.9567,86.4492 125.9567,82.1572 128.6037,79.5102 Z" id="Stroke-31" stroke="#CECECE" stroke-width="4" stroke-linecap="round" stroke-linejoin="round"></path>
                <path d="M62.4104,162.8325 L62.5084,162.8325 L62.5084,209.0725 L62.4104,209.0725 C57.0534,209.0725 52.7094,204.7295 52.7094,199.3715 L52.7094,172.5335 C52.7094,167.1765 57.0534,162.8325 62.4104,162.8325" id="Fill-33" fill="#EFEFEF"></path>
                <path d="M62.4104,162.8325 L62.5084,162.8325 L62.5084,209.0725 L62.4104,209.0725 C57.0534,209.0725 52.7094,204.7295 52.7094,199.3715 L52.7094,172.5335 C52.7094,167.1765 57.0534,162.8325 62.4104,162.8325 Z" id="Stroke-35" stroke="#CECECE" stroke-width="4" stroke-linecap="round" stroke-linejoin="round"></path>
                <path d="M62.4104,70.353 L62.5084,70.353 L62.5084,116.592 L62.4104,116.592 C57.0534,116.592 52.7094,112.249 52.7094,106.892 L52.7094,80.053 C52.7094,74.696 57.0534,70.353 62.4104,70.353" id="Fill-37" fill="#EFEFEF"></path>
                <path d="M62.4104,70.353 L62.5084,70.353 L62.5084,116.592 L62.4104,116.592 C57.0534,116.592 52.7094,112.249 52.7094,106.892 L52.7094,80.053 C52.7094,74.696 57.0534,70.353 62.4104,70.353 Z" id="Stroke-39" stroke="#CECECE" stroke-width="4" stroke-linecap="round" stroke-linejoin="round"></path>
                <path d="M246.9904,139.7123 C246.9904,171.7933 220.9844,197.8003 188.9034,197.8003 C156.8224,197.8003 130.8154,171.7933 130.8154,139.7123 C130.8154,107.6313 156.8224,81.6243 188.9034,81.6243 C220.9844,81.6243 246.9904,107.6313 246.9904,139.7123" id="Fill-41" fill="#EFEFEF"></path>
                <path d="M246.9904,139.7123 C246.9904,171.7933 220.9844,197.8003 188.9034,197.8003 C156.8224,197.8003 130.8154,171.7933 130.8154,139.7123 C130.8154,107.6313 156.8224,81.6243 188.9034,81.6243 C220.9844,81.6243 246.9904,107.6313 246.9904,139.7123 Z" id="Stroke-43" stroke="#CECECE" stroke-width="4" stroke-linecap="round" stroke-linejoin="round"></path>
                <path d="M227.0441,139.7123 C227.0441,160.7773 209.9671,177.8543 188.9031,177.8543 C167.8381,177.8543 150.7621,160.7773 150.7621,139.7123 C150.7621,118.6483 167.8381,101.5713 188.9031,101.5713 C209.9671,101.5713 227.0441,118.6483 227.0441,139.7123" id="Fill-45" fill="#FFFFFF"></path>
                <path d="M227.0441,139.7123 C227.0441,160.7773 209.9671,177.8543 188.9031,177.8543 C167.8381,177.8543 150.7621,160.7773 150.7621,139.7123 C150.7621,118.6483 167.8381,101.5713 188.9031,101.5713 C209.9671,101.5713 227.0441,118.6483 227.0441,139.7123 Z" id="Stroke-47" stroke="#CECECE" stroke-width="4" stroke-linecap="round" stroke-linejoin="round"></path>
                <path d="M293.3649,139.7123 C293.3649,154.9823 302.3369,168.1543 315.2969,174.2473 L315.2949,105.1783 C302.3369,111.2723 293.3649,124.4443 293.3649,139.7123" id="Fill-49" fill="#FFFFFF"></path>
                <path d="M293.3649,139.7123 C293.3649,154.9823 302.3369,168.1543 315.2969,174.2473 L315.2949,105.1783 C302.3369,111.2723 293.3649,124.4443 293.3649,139.7123 Z" id="Stroke-51" stroke="#CECECE" stroke-width="4" stroke-linecap="round" stroke-linejoin="round"></path>
                <path d="M208.9108,139.7123 C208.9108,150.7623 199.9528,159.7203 188.9028,159.7203 C177.8528,159.7203 168.8948,150.7623 168.8948,139.7123 C168.8948,128.6623 177.8528,119.7043 188.9028,119.7043 C199.9528,119.7043 208.9108,128.6623 208.9108,139.7123" id="Fill-53" fill="#EFEFEF"></path>
                <path d="M208.9108,139.7123 C208.9108,150.7623 199.9528,159.7203 188.9028,159.7203 C177.8528,159.7203 168.8948,150.7623 168.8948,139.7123 C168.8948,128.6623 177.8528,119.7043 188.9028,119.7043 C199.9528,119.7043 208.9108,128.6623 208.9108,139.7123 Z" id="Stroke-55" stroke="#CECECE" stroke-width="4" stroke-linecap="round" stroke-linejoin="round"></path>
            </g>
        </g>
    </g>
</svg>