<svg xmlns="http://www.w3.org/2000/svg" xmlns:xlink="http://www.w3.org/1999/xlink"  viewBox="0 0 1550.002 382.85">
  <defs>
    <clipPath id="clip-path">
      <rect x="-10" y="-14" width="1550.002" height="382.85" fill="none"/>
    </clipPath>
  </defs>
  <filter id="colortransform">
    <feColorMatrix type="hueRotate" in="SourceGraphic" values="280"/>
    <feColorMatrix type="saturate" in="FillPain" values="0.8"/>
  </filter>
  <g id="Scroll_Group_5" data-name="Scroll Group 5" transform="translate(10 14)" clip-path="url(#clip-path)" style="isolation: isolate" filter="url(#colortransform)">
    <g id="Group_505" data-name="Group 505" transform="translate(1387.102 301.95)">
      <g id="Group_501" data-name="Group 501" transform="translate(87.4 6.9)">
        <path id="Path_1177" data-name="Path 1177" d="M930.9,467h0c-1,0-1.7.2-1.7.5l2.9,45c0,.3.8.5,1.7.5s1.7-.2,1.7-.5l-2.9-45C932.6,467.2,931.8,467,930.9,467Z" transform="translate(-929.2 -467)" fill="#fb660a"/>
      </g>
      <g id="Group_502" data-name="Group 502" transform="translate(5.9 6.9)">
        <path id="Path_1178" data-name="Path 1178" d="M852.3,467h0c1,0,1.7.2,1.7.5l-2.9,45c0,.3-.8.5-1.7.5s-1.7-.2-1.7-.5l2.9-45C850.6,467.2,851.4,467,852.3,467Z" transform="translate(-847.7 -467)" fill="#fb660a"/>
      </g>
      <g id="Group_503" data-name="Group 503" transform="translate(15.7 3)">
        <path id="Path_1179" data-name="Path 1179" d="M862.1,463.1h0c1,0,1.7.2,1.7.5l-2.9,37.5c0,.2-.8.4-1.7.4s-1.7-.2-1.7-.5l2.9-37.5C860.4,463.3,861.2,463.1,862.1,463.1Z" transform="translate(-857.5 -463.1)" fill="#fb660a"/>
      </g>
      <g id="Group_504" data-name="Group 504" transform="translate(77.2 3)">
        <path id="Path_1180" data-name="Path 1180" d="M920.7,463.1h0c-1,0-1.7.2-1.7.5l2.9,37.5c0,.2.8.4,1.7.4s1.7-.2,1.7-.5l-2.9-37.5C922.4,463.3,921.6,463.1,920.7,463.1Z" transform="translate(-919 -463.1)" fill="#fb660a"/>
      </g>
      <path id="Path_1181" data-name="Path 1181" d="M935.8,460.1H848.7a6.914,6.914,0,0,0-6.9,6.9v.5a6.914,6.914,0,0,0,6.9,6.9h87.1a6.914,6.914,0,0,0,6.9-6.9V467A7.046,7.046,0,0,0,935.8,460.1Z" transform="translate(-841.8 -460.1)" fill="#101e41"/>
    </g>
    <g id="Group_529" data-name="Group 529" transform="translate(1366.921 60)">
      <path id="Path_1227" data-name="Path 1227" d="M909.3,249.2s-4.5,11.9,3.4,15.4-18.3,2.8-18.3,2.8,4.2-8.6,4.1-13.1S902.2,245.3,909.3,249.2Z" transform="translate(-821.62 -218.15)" fill="#ffc8b7"/>
      <path id="Path_1228" data-name="Path 1228" d="M919.7,427.2V438a8.363,8.363,0,0,1,.7,5.5c-.6,2.9-.4,7.4-2.8,11.1s-8.3,1.4-8.3-1.7.6-8,.8-11.1-.2-14.6-.2-14.6h9.8Z" transform="translate(-821.62 -218.15)" fill="#ffc8b7"/>
      <path id="Path_1229" data-name="Path 1229" d="M877.7,428.5s-3.8,7.1-2.7,10.5c1,3.4,1.7,4.2,1.3,6.6s-5.5,9.2-9.4,11.4-6.8,3.1-8.7,3,.8-2.7.8-2.7l7.9-22,.7-8.2Z" transform="translate(-821.62 -218.15)" fill="#ffc8b7"/>
      <path id="Path_1230" data-name="Path 1230" d="M936.7,291.1c-2.6-8.9-6.4-28.1-16-24.3-5.8,2.3-2,10.9,1.2,15.9,2.3,3.7,3.2,11.7,7.6,19,.8,1.4-13.7,21.8-15.5,22.9-1.8,1.2-8.4,1.6-8.7,3.3a1.909,1.909,0,0,0,2.4,2.4c1.6-.3-.2,4.8-2.7,5.4-2.5.7-4,6.5-.6,6.9s10.5-5.9,12.4-11,20.2-22.3,21.7-25.7C940.1,302.6,937.8,294.8,936.7,291.1Z" transform="translate(-821.62 -218.15)" fill="#ffc8b7"/>
      <path id="Path_1231" data-name="Path 1231" d="M921.3,315.8s5.1,11,4.5,15.5-.1,17.1-3,30-1.8,28.8-1.5,35.8-.4,31.6-.4,31.6-5.1,4.8-12.3,0c0,0-3.1-23.1-3.1-29.9s-3.4-38.7-3.4-44.2c0,0-9.7,27.7-10.1,29.8s-11.3,38.7-12.7,43.8l-.8,2s-8.3,2-11.6-.2l8.3-51.7s4.3-30.1,5.2-37.1a92.3,92.3,0,0,1,5.1-22.2C888.6,310.7,921.3,315.8,921.3,315.8Z" transform="translate(-821.62 -218.15)" fill="#101e41"/>
      <path id="Path_1232" data-name="Path 1232" d="M924.9,279.8s-3.6,16.5-2,27.7c1.6,11.3,2.6,11.7-.4,13.1s-20.7,4.4-32.2,0-1.8-16.6-3.6-34.2c-1.1-10.8-1.7-16.4,6.1-21.2,1.2-.7,7.1-.3,9.1.5s7.2,1.4,10.5-.5c3.2-1.9,12.1-.1,12.5,1.7A69.4,69.4,0,0,1,924.9,279.8Z" transform="translate(-821.62 -218.15)" fill="#fff"/>
      <path id="Path_1233" data-name="Path 1233" d="M919.7,464.2H907.9s-2.8-2.2-1.8-4.1,3-4.6,3.1-7.2,2.1-7.6,5.6-8,4.6,5.8,4.7,7.3C919.8,453.8,922.8,459.9,919.7,464.2Z" transform="translate(-821.62 -218.15)" fill="#23399b"/>
      <path id="Path_1234" data-name="Path 1234" d="M918.9,464.2l-1-10.1-1.3,10.1Z" transform="translate(-821.62 -218.15)" fill="#101e41"/>
      <path id="Path_1235" data-name="Path 1235" d="M914.3,464.2l-1.1-12.1-1.9,12.1Z" transform="translate(-821.62 -218.15)" fill="#101e41"/>
      <path id="Path_1236" data-name="Path 1236" d="M875.7,443.3s3.3,1.9,3.2,3.9-1.6,17.1-1.6,17.1h-2.7V453.2l-8.1,11.1H853s-1.1-5.5,4.5-6.2,6,1.2,9.2-2.8,7.6-10.9,7.6-10.9S875.1,443.3,875.7,443.3Z" transform="translate(-821.62 -218.15)" fill="#23399b"/>
      <ellipse id="Ellipse_47" data-name="Ellipse 47" cx="11.4" cy="14" rx="11.4" ry="14" transform="translate(65.78 9.25)" fill="#ffc8b7"/>
      <path id="Path_1237" data-name="Path 1237" d="M928,227.6c-.5,4.6-4.1,7.9-8.1,7.4-4-.6-6.8-4.8-6.3-9.4s4.1-7.9,8.1-7.4C925.7,218.8,928.5,223,928,227.6Z" transform="translate(-821.62 -218.15)" fill="#fb660a"/>
      <path id="Path_1238" data-name="Path 1238" d="M902.8,221.3c-9.5-1.1-17.2-1.4-18.4,7.7-.7,5.6,3.3,12.8,8.7,17.8.2-.9.1-2,.8-2.8,1.7-1.9,3.2-3.2,5.4-2.5s3,3.1,2.5,5.2a13.342,13.342,0,0,1-2.5,4.4,15.624,15.624,0,0,0,4.9,1.6c9.5,1.1,12.7-4.6,13.8-13.7S912.3,222.4,902.8,221.3Z" transform="translate(-821.62 -218.15)" fill="#fb660a"/>
      <path id="Path_1239" data-name="Path 1239" d="M917,229.5c1.4,2.8,2.6,5.1.7,6s-3-1.4-4.4-4.2-2.6-5.1-.7-6S915.6,226.6,917,229.5Z" transform="translate(-821.62 -218.15)" fill="#3251b4"/>
      <path id="Path_1240" data-name="Path 1240" d="M882.7,297.5c5.9-7.2,19.5-21.2,11-26.9-5.2-3.5-10.1,4.5-12.4,10-1.7,4-7.8,9.3-11.4,17-.7,1.5-25.7,1-27.7.1-2-.8-6.1-6-7.7-5.3a1.856,1.856,0,0,0-.6,3.3c1.2,1.1-4.1,2.5-6,.8s-7.6.4-6,3.4,10.8,5.3,16.1,4c5.2-1.3,29.8,4,33.5,3.4C875.1,306.8,880.2,300.5,882.7,297.5Z" transform="translate(-821.62 -218.15)" fill="#ffc8b7"/>
    </g>
    <g id="Group_530" data-name="Group 530" transform="translate(0 127.268)">
      <path id="Path_1241" data-name="Path 1241" d="M562.1,416.8c5.9,4,16.6,4.4,19.6,1.3s0-8.3-2.2-8.2-3.6-2.6-2.7-4,6.1-3.6,6.1-7-4.9-4.4-4.9-6.6c0-2.3,4.9-3.5,4.9-7.3,0-3.9-4.1-9.3-11.3-8.8,0,0,3.5-6.7.9-10.7s-8-4.5-9.6-2.7c0,0-5.7-7.4-14.6-6.8s-20.2,4-20.4,10,7,12.5,6.5,16.5c-.5,4.1-6.5,8.3-13.6,8s-13.7,3.7-13.7,7.4,2.8,7.6,5.7,8.3c0,0-7.5,2.1-7.4,6.9s3.6,9.7,12.7,8.8,25.1-8.7,30.9-8.7C554.7,413.2,562.1,416.8,562.1,416.8Z" transform="translate(-504.248 -355.965)" fill="#fb660a"/>
      <path id="Path_1242" data-name="Path 1242" d="M546.1,481.2h6.4a24.925,24.925,0,0,0,24.8-24.8V435.3c0-13.6.4-24.8-24.8-24.8h-6.4c-24.2-.9-24.8,11.2-24.8,24.8v21.1A24.8,24.8,0,0,0,546.1,481.2Z" transform="translate(-504.248 -355.965)" fill="#fff"/>
      <path id="Path_1243" data-name="Path 1243" d="M573.2,482.5c2.8-.1,7,1.7,8.2,2,.6.1,8.5,2.8,7.4,7.8-1.2,5.2-2.2,4.4-5.8,4.7s-4.2-.1-8.3-1.1a52.227,52.227,0,0,1-5.4-1.5c-.1,0-.1-.1-.1-.2l1.2-11.8c0-.1.1-.1.2-.1Z" transform="translate(-504.248 -355.965)" fill="#101e41"/>
      <path id="Path_1244" data-name="Path 1244" d="M568.4,480.9s4.1,1.5,5.2,1.7c.6.1,8.5,2.8,7.4,7.8-1.2,5.2-2.2,4.4-5.8,4.7-3.7.2-4.2-.1-8.3-1.1a52.227,52.227,0,0,1-5.4-1.5c-.1,0-.1-.1-.1-.2l1.2-11.8c0-.1.1-.1.2-.1Z" transform="translate(-504.248 -355.965)" fill="#fff"/>
      <path id="Path_1245" data-name="Path 1245" d="M528.1,481c-2.8-.2-7,1.5-8.3,1.7-.6.1-8.6,2.5-7.6,7.5,1,5.2,2,4.5,5.7,4.8,3.7.4,4.2.1,8.3-.8,3.7-.8,4.6-1.1,5.5-1.3.1,0,.1-.1.1-.2L531,481c0-.1-.1-.1-.2-.1Z" transform="translate(-504.248 -355.965)" fill="#101e41"/>
      <path id="Path_1246" data-name="Path 1246" d="M532.9,479.5a42.773,42.773,0,0,1-5.3,1.5c-.6.1-8.6,2.5-7.6,7.5,1,5.2,2,4.5,5.7,4.8,3.7.4,4.2.1,8.3-.8,3.7-.8,4.6-1.1,5.5-1.3.1,0,.1-.1.1-.2l-.8-11.8c0-.1-.1-.1-.2-.1Z" transform="translate(-504.248 -355.965)" fill="#fff"/>
      <path id="Path_1247" data-name="Path 1247" d="M526.5,482.6a2.745,2.745,0,0,1,1.7-2.4,25.588,25.588,0,0,1,5.7-1.5c4.2-.5,8.5,9.8,8.1,10.8s-3.8,1.8-8.1,2c-4.4.2-8-1.5-7.7-4C526.3,486.1,526.5,484,526.5,482.6Z" transform="translate(-504.248 -355.965)" fill="#23399b"/>
      <path id="Path_1248" data-name="Path 1248" d="M594,465.4c2.7,10.1-11.9,14.1-30,19.1-18,5-32.8,9.1-35.4-1-2.6-10.2,11.9-14.1,30-19.1C576.6,459.4,591.3,455.4,594,465.4Z" transform="translate(-504.248 -355.965)" fill="#3251b4"/>
      <path id="Path_1249" data-name="Path 1249" d="M576,470.2c-2.5.7-5.1,1.5-7.6,2.2-7.9,2.4-15.6,5.1-23.3,8.1-3.8,1.5-7.7,3-11.4,4.7a11.27,11.27,0,0,0-3.1,1.9c4.8,5.8,18.1,1.7,33.5-2.6,17.3-4.8,31.7-8.8,30.2-18a11.483,11.483,0,0,0-1.9.1A111.265,111.265,0,0,0,576,470.2Z" transform="translate(-504.248 -355.965)" fill="#23399b"/>
      <path id="Path_1250" data-name="Path 1250" d="M572.1,484.9a2.622,2.622,0,0,0-1.6-2.3,24.148,24.148,0,0,0-5.7-1.5c-4.2-.6-8.8,9.1-8.4,10.1s3.7,1.8,8.1,2.1,8.1-1.2,7.9-3.6C572.2,488.3,572.2,486.3,572.1,484.9Z" transform="translate(-504.248 -355.965)" fill="#23399b"/>
      <path id="Path_1251" data-name="Path 1251" d="M504.7,467.1c-3,9.5,11.6,13.6,29.6,18.8s32.7,9.4,35.6-.1c2.9-9.6-11.6-13.6-29.6-18.8S507.7,457.6,504.7,467.1Z" transform="translate(-504.248 -355.965)" fill="#3251b4"/>
      <path id="Path_1252" data-name="Path 1252" d="M522.7,472c2.5.7,5,1.5,7.5,2.3,7.8,2.5,15.6,5.2,23.2,8.2,3.8,1.5,7.7,3,11.4,4.7a16.543,16.543,0,0,1,3.1,1.8c-5,5.4-18.2,1.2-33.6-3.2-17.3-5-31.7-9.1-29.9-17.7a11.075,11.075,0,0,1,1.9.2A108.647,108.647,0,0,1,522.7,472Z" transform="translate(-504.248 -355.965)" fill="#23399b"/>
      <path id="Path_1253" data-name="Path 1253" d="M521.1,427h55.7a6.019,6.019,0,0,1,6,6.7L580,459.4a5.983,5.983,0,0,1-6,5.4H524a5.983,5.983,0,0,1-6-5.4l-2.9-25.7A6.019,6.019,0,0,1,521.1,427Z" transform="translate(-504.248 -355.965)" fill="#101e41"/>
      <path id="Path_1254" data-name="Path 1254" d="M539.6,385.9c0-2.5,1.4-4.5,3.1-4.5,1.4,0,2.5,1.4,2.9,3.3a37.53,37.53,0,0,1,10.7-6.5c5.8-2.4,8.8,6.5,7.9,15.2-.8,7.8-3.9,12.7-10.2,12.7-6.2,0-12.7-8.4-11.7-16C540.7,389.9,539.6,388.1,539.6,385.9Z" transform="translate(-504.248 -355.965)" fill="#ffc8b7"/>
      <path id="Path_1255" data-name="Path 1255" d="M555.7,396.5a19.077,19.077,0,0,0-1.2,10.6c.9,6.1,1.6,8.8-1.6,9.2s-9.3,3-9.9-1.2c-.6-4.3,3.4-14.9,4.5-18.5C548.5,392.9,555.7,396.5,555.7,396.5Z" transform="translate(-504.248 -355.965)" fill="#ffc8b7"/>
      <path id="Path_1256" data-name="Path 1256" d="M524.2,446.4c0,3.2-2.1,4.4-4.8,4.4-4.9,0-4.9-2.6-4.9-5.7,0-3.2.8-5.7,4.9-5.7C522.1,439.3,524.2,443.2,524.2,446.4Z" transform="translate(-504.248 -355.965)" fill="#ffc8b7"/>
      <path id="Path_1257" data-name="Path 1257" d="M575.1,434.3c3.2,0,4.4-2.1,4.4-4.8,0-4.9-2.6-4.9-5.7-4.9-3.2,0-5.7.8-5.7,4.9C568,432.2,571.9,434.3,575.1,434.3Z" transform="translate(-504.248 -355.965)" fill="#ffc8b7"/>
    </g>
  </g>
</svg>
