<svg xmlns="http://www.w3.org/2000/svg" xmlns:xlink="http://www.w3.org/1999/xlink" width="722" height="421" viewBox="0 0 722 421">
  <defs>
    <clipPath id="clip-path">
      <rect x="359" y="105" width="722" height="421" fill="none"/>
    </clipPath>
    <clipPath id="clip-path-2">
      <rect x="347" y="21" width="710" height="579" fill="none"/>
    </clipPath>
    <clipPath id="clip-path-3">
      <rect x="347" y="87" width="728" height="434" fill="none"/>
    </clipPath>
    <clipPath id="clip-path-4">
      <rect id="Rectangle_12" data-name="Rectangle 12" width="1138" height="600" transform="translate(0)"/>
    </clipPath>
    <clipPath id="clip-path-5">
      <rect id="Rectangle_11" data-name="Rectangle 11" width="795" height="600" transform="translate(0.069)"/>
    </clipPath>
    <clipPath id="clip-path-6">
      <rect id="Rectangle_49" data-name="Rectangle 49" width="1115" height="602"/>
    </clipPath>
  </defs>
  <filter id="colortransform">
    <feColorMatrix type="hueRotate" in="SourceGraphic" values="280"/>
    <feColorMatrix type="saturate" in="FillPain" values="0.8"/>
  </filter>
  <g id="Scroll_Group_1" data-name="Scroll Group 1" transform="translate(-359 -105)" clip-path="url(#clip-path)" style="isolation: isolate" filter="url(#colortransform)">
    <g id="Scroll_Group_2" data-name="Scroll Group 2" clip-path="url(#clip-path-2)" style="isolation: isolate">
      <g id="Scroll_Group_3" data-name="Scroll Group 3" opacity="0.998" clip-path="url(#clip-path-3)" style="isolation: isolate">
        <g id="_21" data-name="21">
          <g id="Group_333" data-name="Group 333" transform="translate(0)" clip-path="url(#clip-path-4)">
            <g id="Mask_Group_332" data-name="Mask Group 332" transform="translate(342.931)" clip-path="url(#clip-path-5)">
              <path id="Path_4" data-name="Path 4" d="M993.059,454.461H477.883c-26.688,0-44.542-21.329-39.848-47.74L480.552,168.84c4.693-26.32,30.185-47.74,56.874-47.74h515.268c26.688,0,44.542,21.329,39.848,47.74l-42.609,237.882C1045.239,433.042,1019.747,454.461,993.059,454.461Z" transform="translate(-370.016 33.939)" fill="#dfeafe"/>
            </g>
          </g>
          <g id="Group_393" data-name="Group 393" clip-path="url(#clip-path-6)">
            <g id="Group_358" data-name="Group 358" transform="translate(754.41 124.563)">
              <path id="Path_225" data-name="Path 225" d="M879.473,379.1s-3.713-.2-9.973-.8A80.221,80.221,0,0,0,879.473,379.1Z" transform="translate(-701.39 -124.563)" fill="#dfeafe"/>
              <path id="Path_226" data-name="Path 226" d="M862.013,406.4s-1.485-4.4-3.713-11.7C859.467,399.1,860.74,403,862.013,406.4Z" transform="translate(-702.073 -124.563)" fill="#dfeafe"/>
              <path id="Path_227" data-name="Path 227" d="M929.8,338.3c-34.8,38.4-72.783,61.3-78.725,57-5.729-4.2,7.639-59.5,40-100.1,32.36-40.5,59.945-51,75.329-36.2C984.863,276.9,964.811,299.7,929.8,338.3Z" transform="translate(-702.592 -124.563)" fill="#3251b4"/>
              <path id="Path_228" data-name="Path 228" d="M934.3,340.8c-34.8,38.4-72.783,61.3-78.725,57-5.729-4.2,7.639-59.5,40-100.1,32.36-40.5,59.945-51,75.329-36.2C989.363,279.3,969.311,302.2,934.3,340.8Z" transform="translate(-702.318 -124.563)" fill="#608fdf"/>
              <path id="Path_229" data-name="Path 229" d="M869.5,400.4s2.546-5.5,6.9-14.3C873.638,391.3,871.3,396.1,869.5,400.4Z" transform="translate(-701.39 -124.563)" fill="#dfeafe"/>
              <path id="Path_230" data-name="Path 230" d="M938.956,312.7c7,.4,12.1,4.5,12.2,2.9s-5.517-6-12.52-6.4a34.4,34.4,0,0,0-11.034.8c3.819-4.2,7.427-8.2,10.716-11.9,1.273.7,6.366.4,11.883.7,6.472.4,11.14,3.5,11.246,2.3s-5.2-4.5-11.671-4.9a38.2,38.2,0,0,0-10.292.5c4.774-5.3,8.912-10,12.307-13.9,1.7.2,4.88.1,8.276.3,5.093.3,8.7,3.1,8.806,2s-4.032-4.2-9.125-4.5a30.4,30.4,0,0,0-6.26.2c8.169-9.7,10.716-14,2.865-9a55.217,55.217,0,0,0-6.9,5.4,39.781,39.781,0,0,0-.955-6.2c-1.167-5-4.987-8.5-6.048-8.2s2.44,3.4,3.607,8.3c.743,3,1.167,5.9,1.591,7.6A173.8,173.8,0,0,0,934.818,292a41.4,41.4,0,0,0-1.379-9.9c-1.591-6.3-5.729-10.9-6.9-10.6s2.758,4.4,4.244,10.7c1.273,5,1.91,9.7,2.652,11.3-3.183,3.5-6.472,7.4-9.761,11.4a37.813,37.813,0,0,0-1.379-9.8c-1.7-6.9-7-11.6-8.594-11.2s3.4,4.6,5.093,11.5c1.273,5.2,1.91,10.1,2.758,12q-4.615,5.55-9.23,11.4a28.973,28.973,0,0,0-1.061-9.4c-1.591-6.7-7.745-11.1-9.655-10.6s3.82,4.4,5.411,11c1.273,5.4,1.7,10.5,2.865,12.1l-10.5,13.5c.531-2.5.212-6.6-.849-11.1-1.7-6.9-8.17-11.4-10.079-10.9-2.016.5,4.032,4.5,5.623,11.4,1.591,6.5,1.91,12.6,3.607,12.9-3.183,4.3-6.366,8.5-9.443,12.6a30.525,30.525,0,0,0-1.061-10.1c-1.7-6.9-8.17-11.4-10.079-10.9-2.016.5,4.032,4.5,5.729,11.4,1.485,5.9,1.8,11.6,3.183,12.7-2.758,3.7-5.411,7.4-7.957,10.8.318-2-.212-6.3-1.379-11.2-1.592-6.5-5.835-11.3-7-11s2.758,4.5,4.35,11.1c1.485,6.1,2.228,11.8,3.183,12.3-3.077,4.2-5.835,8.1-8.382,11.6a25.031,25.031,0,0,0-.318-8.7c-.955-4.9-2.971-8.7-3.5-8.6s1.167,3.9,2.122,8.9c.849,4.6.849,8.5,1.167,9-1.167,1.7-2.334,3.2-3.289,4.7,1.167-1.5,2.334-3,3.5-4.6.849.1,4.456-.8,8.806-1,4.987-.3,9.018.5,9.018,0s-4.138-1.6-9.124-1.3a23.32,23.32,0,0,0-8.17,1.7c2.652-3.4,5.517-7,8.594-10.7,1.7.5,6.684.3,11.989.6,6.684.4,11.565,3.5,11.565,2.3.106-1.2-5.3-4.5-11.989-4.9a43.985,43.985,0,0,0-10.291.4c2.652-3.2,5.411-6.4,8.276-9.7.424,1.7,6.578.8,13.262,1.2,7,.4,11.989,5.6,12.2,3.5.106-2.1-5.411-7.6-12.52-8-4.774-.3-8.912.3-11.246,1.3,3.607-4.2,7.427-8.5,11.246-12.8.849,1.5,6.79.7,13.156,1,7,.4,11.989,5.6,12.2,3.5.106-2.1-5.411-7.6-12.519-8a27.752,27.752,0,0,0-10.822,1.1c3.713-4.1,7.427-8.3,11.034-12.3,1.591.9,6.79.3,12.413.6,6.79.4,11.671,5.3,11.777,3.3s-5.3-7.2-12.1-7.6a33.023,33.023,0,0,0-9.443.7c3.289-3.6,6.578-7.2,9.655-10.7C926.967,312.8,932.7,312.3,938.956,312.7Z" transform="translate(-701.67 -124.563)" fill="#b3cbf9"/>
              <path id="Path_231" data-name="Path 231" d="M916.447,418.9c-36.179,3.3-67.372-4.2-68.645-10.1-1.273-5.6,30.662-30.8,66.523-36.7,35.755-5.9,55.7,3.2,57.611,20.4C974.058,413.2,952.839,415.6,916.447,418.9Z" transform="translate(-702.715 -124.563)" fill="#3251b4"/>
              <path id="Path_232" data-name="Path 232" d="M919.548,417.8c-36.179,3.3-67.266-4.2-68.645-10.1-1.273-5.6,30.662-30.8,66.523-36.7,35.755-5.9,55.7,3.2,57.611,20.4C977.159,412.2,956.045,414.5,919.548,417.8Z" transform="translate(-702.526 -124.563)" fill="#608fdf"/>
              <path id="Path_233" data-name="Path 233" d="M863.5,406.4s3.819-.9,9.973-2.4A89.031,89.031,0,0,0,863.5,406.4Z" transform="translate(-701.756 -124.563)" fill="#dfeafe"/>
              <path id="Path_234" data-name="Path 234" d="M934.2,404.2c3.713,4.1,4.668,9.3,5.411,8.4s-.424-6.6-4.032-10.7a27.117,27.117,0,0,0-6.472-5.6c3.926-.4,7.745-.7,11.246-1,.424,1.1,3.4,3.8,6.26,7,3.4,3.8,4.668,8.2,5.2,7.6s-.849-5.5-4.244-9.3a33.958,33.958,0,0,0-5.835-5.4c4.986-.5,9.337-.9,12.944-1.4.849,1.1,2.652,2.8,4.456,4.7,2.652,3,3.4,6.7,3.926,6.1s-.318-4.7-3.077-7.7a27.99,27.99,0,0,0-3.607-3.4c8.806-1.2,12.1-2.3,5.623-3.7a27.653,27.653,0,0,0-6.154-.6,22.809,22.809,0,0,0,2.228-4.2c1.485-3.6,1.061-7.7.318-8.2-.743-.4-.212,3.3-1.7,6.9-.955,2.2-2.016,4.1-2.44,5.4a124.79,124.79,0,0,0-12.944.7,31.834,31.834,0,0,0,3.607-6.6c1.91-4.6,1.7-9.6.955-10.1s-.424,4.1-2.44,8.7c-1.592,3.6-3.289,6.7-3.607,8.1-3.289.3-6.79.8-10.4,1.3a26.835,26.835,0,0,0,3.607-6.5c2.122-5,1.273-10.7.212-11.4-1.061-.6-.212,4.6-2.334,9.6-1.592,3.8-3.5,7-3.82,8.6-3.289.5-6.684,1-10.079,1.6a25.077,25.077,0,0,0,3.607-6.1c2.016-4.8.636-10.8-.637-11.6s.106,4.7-1.91,9.5c-1.7,3.9-3.713,7.2-3.819,8.7-3.926.7-7.851,1.4-11.777,2.2a20.053,20.053,0,0,0,4.456-7c2.122-5,.637-11.2-.743-12s.212,4.9-1.91,9.8c-2.016,4.7-4.562,8.5-3.82,9.6-3.713.7-7.321,1.4-10.822,2.2a22.028,22.028,0,0,0,3.926-6.5c2.122-5,.637-11.2-.743-12s.212,4.9-1.91,9.8c-1.8,4.3-4.138,7.8-3.926,9.2-3.183.7-6.26,1.3-9.124,2,1.061-1,2.653-3.8,4.244-7.4,2.016-4.7,1.8-9.9,1.061-10.3-.743-.5-.531,4.2-2.546,8.9-1.91,4.4-4.032,8.1-3.713,9-3.5.8-6.79,1.5-9.761,2.2a15.617,15.617,0,0,0,3.714-5.3c1.7-3.4,2.228-6.7,1.91-7-.318-.2-1.061,3-2.759,6.4-1.591,3.2-3.289,5.5-3.289,5.9-1.379.3-2.652.6-3.926.9,1.273-.3,2.653-.5,4.032-.8.424.6,2.758,2,5.3,4.3,2.865,2.6,4.774,5.3,4.987,5s-1.591-3.2-4.456-5.8a20.5,20.5,0,0,0-5.3-3.6c2.971-.5,6.154-1,9.443-1.5.743,1.2,3.5,3.9,6.366,7,3.5,3.9,4.774,8.4,5.411,7.8.53-.7-.955-5.6-4.456-9.5a41.181,41.181,0,0,0-5.835-5.5q4.3-.6,8.912-1.2c-.53,1.2,3.289,4.1,6.79,8.1,3.713,4.1,4.138,9.9,5.093,8.8s.424-7.5-3.289-11.6c-2.546-2.8-5.093-4.8-6.79-5.5,3.926-.5,7.851-.9,11.883-1.3-.212,1.3,3.4,4.1,6.79,7.9,3.714,4.1,4.138,9.9,5.093,8.8s.424-7.5-3.289-11.6c-2.334-2.6-4.774-4.6-6.472-5.3,3.82-.4,7.745-.8,11.565-1.1.425,1.4,3.607,3.9,6.578,7.2,3.607,4,4.032,9.6,4.987,8.5s.318-7.2-3.289-11.2a25.151,25.151,0,0,0-5.517-4.8c3.4-.3,6.79-.6,10.079-.9C927.626,397.7,930.915,400.5,934.2,404.2Z" transform="translate(-701.798 -124.563)" fill="#b3cbf9"/>
              <g id="Group_349" data-name="Group 349" transform="translate(139.653 85.288)">
                <path id="Path_235" data-name="Path 235" d="M874.984,245.6c-21.75,25.6-32.36,52.4-28.54,56.2,3.713,3.6,40.317-8.5,63.977-32.6,23.554-24,27.055-43.2,14.535-52.7C910,205,896.947,219.8,874.984,245.6Z" transform="translate(-842.495 -209.851)" fill="#3251b4"/>
                <path id="Path_236" data-name="Path 236" d="M871.984,242.9c-21.75,25.6-32.36,52.4-28.54,56.2,3.714,3.6,40.317-8.5,63.977-32.6,23.554-24,27.055-43.2,14.536-52.7C906.891,202.3,893.841,217.1,871.984,242.9Z" transform="translate(-842.678 -209.851)" fill="#b3cbf9"/>
                <g id="Group_348" data-name="Group 348" transform="translate(2.994 6.146)">
                  <path id="Path_237" data-name="Path 237" d="M845.5,297.5s2.759-2.4,7.109-6.3A78.392,78.392,0,0,1,845.5,297.5Z" transform="translate(-845.5 -215.997)" fill="#dfeafe"/>
                  <path id="Path_238" data-name="Path 238" d="M890.177,237.7c-1.273-4.7-4.88-7.8-3.713-8,1.061-.2,4.987,3.4,6.26,8.1a21.679,21.679,0,0,1,.955,7.5c2.334-2.8,4.668-5.4,6.79-7.9-.637-.8-1.167-4.3-2.122-8-1.167-4.3-3.926-7.3-3.183-7.4.849-.1,3.819,3.2,4.987,7.6a25.918,25.918,0,0,1,1.061,6.9c2.971-3.5,5.729-6.6,7.957-9.1-.424-1.1-.743-3.3-1.379-5.6-.955-3.4-3.4-5.7-2.652-5.8s3.5,2.5,4.35,5.9a18.077,18.077,0,0,1,.743,4.3c5.623-6.1,8.276-8,5.835-2.5a33.326,33.326,0,0,1-2.758,4.9,40.264,40.264,0,0,1,4.456.3c3.607.5,6.578,2.9,6.578,3.6s-2.652-1.4-6.26-2c-2.228-.3-4.244-.5-5.517-.7-2.016,2.8-4.456,6-7.427,9.4a32.038,32.038,0,0,1,7.109.4c4.668.7,8.382,3.2,8.382,4s-3.4-1.6-8.063-2.3c-3.607-.5-7-.7-8.276-1.2-2.016,2.3-4.244,4.8-6.472,7.2a29.261,29.261,0,0,1,7,.3c4.987.7,9.124,4.1,9.018,5.1s-3.714-2-8.7-2.8c-3.82-.6-7.321-.7-8.806-1.2-2.122,2.3-4.35,4.5-6.578,6.8a22.074,22.074,0,0,1,6.684.2c4.88.7,8.806,4.6,8.7,5.9s-3.607-2.3-8.488-3c-3.926-.6-7.533-.6-8.806-1.2l-7.957,7.8c1.592-.5,4.562-.5,7.851,0,4.987.7,9.018,4.8,9.018,6.2-.106,1.4-3.714-2.4-8.7-3.2-4.774-.7-9.018-.5-9.443-1.7-2.546,2.4-4.987,4.8-7.427,7.1a25.115,25.115,0,0,1,7.215.1c4.987.7,9.018,4.8,9.018,6.2-.106,1.4-3.713-2.4-8.7-3.2-4.35-.6-8.276-.6-9.337-1.4-2.228,2.1-4.35,4.1-6.366,5.9a28.319,28.319,0,0,1,7.957.3c4.774.7,8.7,3.3,8.594,4.1,0,.8-3.5-1.6-8.276-2.3-4.456-.7-8.488-.8-9.018-1.5-2.44,2.3-4.775,4.4-6.9,6.3a17.035,17.035,0,0,1,6.048-.3c3.607.4,6.472,1.5,6.472,1.8,0,.4-2.865-.6-6.472-.9-3.289-.3-6.048-.1-6.366-.3-.955.9-1.91,1.7-2.759,2.5.849-.8,1.8-1.7,2.652-2.6-.212-.6-.106-3.1-.53-6-.531-3.4-1.592-6.1-1.273-6.1.424,0,1.7,2.7,2.228,6a15.79,15.79,0,0,1,0,5.6c2.016-2,4.032-4.1,6.154-6.4-.637-1.1-1.167-4.5-2.122-8.1-1.167-4.5-4.032-7.6-3.183-7.7s3.926,3.3,5.093,7.8a32.668,32.668,0,0,1,1.167,7c1.8-2,3.713-4,5.623-6.1-1.273-.2-1.485-4.4-2.652-8.9-1.273-4.7-5.623-7.8-4.138-8s6.048,3.2,7.321,7.9a18.979,18.979,0,0,1,.743,7.6c2.44-2.7,4.88-5.5,7.321-8.3-1.167-.5-1.379-4.5-2.546-8.8-1.273-4.7-5.623-7.8-4.138-8,1.379-.2,6.048,3.2,7.321,7.9a17.389,17.389,0,0,1,.743,7.3l7-8.1c-.849-1-1.167-4.5-2.228-8.3-1.273-4.6-5.3-7.5-4.032-7.7,1.379-.2,5.729,3.1,7,7.7a22.308,22.308,0,0,1,.849,6.4c2.016-2.4,4.138-4.8,6.048-7.1C891.768,245.8,891.344,241.9,890.177,237.7Z" transform="translate(-845.085 -215.997)" fill="#dfeafe"/>
                </g>
              </g>
              <g id="Group_351" data-name="Group 351" transform="translate(129.52)">
                <path id="Path_239" data-name="Path 239" d="M849.848,186.3c-14.429,40.7-15.6,77.5-9.655,80.1,5.729,2.5,42.651-29.2,59.839-69,17.188-39.7,13.262-64-4.88-69.3C873.3,121.7,864.384,145.4,849.848,186.3Z" transform="translate(-832.902 -124.563)" fill="#3251b4"/>
                <path id="Path_240" data-name="Path 240" d="M846.148,183.8c-14.429,40.6-15.6,77.5-9.655,80.1,5.729,2.5,42.651-29.2,59.839-69,17.188-39.7,13.262-64-4.88-69.3C869.6,119.2,860.684,142.9,846.148,183.8Z" transform="translate(-833.128 -124.563)" fill="#b3cbf9"/>
                <g id="Group_350" data-name="Group 350" transform="translate(5.147 11.272)">
                  <path id="Path_241" data-name="Path 241" d="M838.1,261.1s2.122-4.1,5.623-10.9C841.813,254.3,839.9,257.9,838.1,261.1Z" transform="translate(-837.971 -135.835)" fill="#dfeafe"/>
                  <path id="Path_242" data-name="Path 242" d="M865.268,168.8c-3.4-5-8.7-7-7.533-7.7s7.109,1.6,10.4,6.6a27.526,27.526,0,0,1,4.138,8.4q2.387-6.6,4.456-12.6c-1.061-.7-3.077-4.5-5.729-8.4-3.077-4.6-7.533-6.8-6.684-7.3s5.729,2,8.806,6.6a28.734,28.734,0,0,1,4.032,7.7c2.016-5.5,3.82-10.5,5.411-14.5-.955-1.2-2.228-3.5-3.819-5.9-2.44-3.6-6.26-5.1-5.411-5.6s4.987,1.3,7.427,4.9a36.368,36.368,0,0,1,2.653,4.7c3.926-9.8,6.154-13.4,5.623-5.7a41.917,41.917,0,0,1-1.167,7.1,48.151,48.151,0,0,1,5.2-1.8c4.35-1.1,8.7.3,8.912,1.1.212.9-3.607-.4-8.063.7-2.652.7-5.093,1.5-6.578,1.8-1.061,4.3-2.652,9.3-4.562,14.7a39.745,39.745,0,0,1,8.276-2.9c5.517-1.4,10.928-.2,11.246.8s-4.562-.3-10.185,1.1c-4.35,1.1-8.276,2.5-9.867,2.6q-2.069,5.55-4.456,11.7a36.194,36.194,0,0,1,8.169-2.9c6.048-1.5,12.1.5,12.413,1.8s-5.093-.6-11.034.9c-4.562,1.1-8.594,2.7-10.5,2.8-1.485,3.7-3.077,7.4-4.774,11.2a29.376,29.376,0,0,1,7.745-3c5.835-1.5,11.883,1.3,12.414,2.8s-4.987-1-10.928.4c-4.774,1.2-8.912,2.9-10.5,2.7-1.91,4.3-3.926,8.7-5.836,13a26.83,26.83,0,0,1,8.912-3.8c6.048-1.5,12.307,1.4,12.838,3,.424,1.7-5.2-1.1-11.246.4-5.729,1.4-10.61,3.7-11.565,2.5-1.91,4-3.713,8-5.623,11.9a28.891,28.891,0,0,1,8.276-3.3c6.048-1.5,12.307,1.4,12.838,3s-5.2-1.1-11.246.4c-5.2,1.3-9.761,3.3-11.246,2.8-1.7,3.5-3.289,6.9-4.88,10.1,1.379-1,4.987-2.4,9.231-3.4,5.729-1.4,11.246-.2,11.565.7.318,1-4.668-.2-10.4,1.2-5.3,1.3-10.079,3.1-10.822,2.5-1.91,3.9-3.713,7.5-5.3,10.7a22.126,22.126,0,0,1,6.79-3.2c4.244-1.3,7.957-1.3,8.169-.9s-3.5.7-7.745,2c-3.926,1.2-6.9,2.8-7.427,2.7-.743,1.5-1.485,3-2.122,4.3.637-1.4,1.379-2.9,2.016-4.4-.424-.6-1.379-3.6-3.077-6.8-2.016-3.7-4.35-6.4-3.925-6.6s2.971,2.4,4.987,6.1a19.283,19.283,0,0,1,2.228,6.7q2.228-4.95,4.456-10.5c-1.167-1-3.077-4.7-5.729-8.5-3.183-4.7-7.745-7-6.79-7.6.849-.5,5.835,2.1,9.018,6.8a31.681,31.681,0,0,1,4.138,7.7c1.273-3.2,2.652-6.5,3.926-9.9-1.485.3-3.5-4.5-6.684-9.2-3.4-5-9.549-6.5-8.063-7.5,1.485-.9,8.276,1,11.565,5.9,2.334,3.4,3.713,6.6,3.926,8.7,1.7-4.3,3.289-8.8,4.987-13.3-1.485,0-3.5-4.7-6.578-9.2-3.4-5-9.549-6.5-7.957-7.5s8.276,1,11.565,5.9c2.122,3.2,3.5,6.2,3.82,8.3,1.591-4.3,3.183-8.7,4.668-13-1.379-.8-3.183-4.8-5.835-8.8-3.289-4.8-9.124-6.4-7.745-7.3s7.851,1,11.14,5.8a24.759,24.759,0,0,1,3.607,7.2c1.379-3.8,2.759-7.6,4.032-11.3C870.255,177.6,868.239,173.2,865.268,168.8Z" transform="translate(-837.979 -135.835)" fill="#dfeafe"/>
                </g>
              </g>
              <g id="Group_353" data-name="Group 353" transform="translate(109.143 5.518)">
                <path id="Path_243" data-name="Path 243" d="M832.725,180.9c15.915,23.4,36.073,38.7,40.423,36.7,4.244-1.8,4.244-32.9-9.867-57.4-14-24.4-29.6-32.1-41.378-25.2C807.792,143.5,816.81,157.3,832.725,180.9Z" transform="translate(-813.863 -130.081)" fill="#3251b4"/>
                <path id="Path_244" data-name="Path 244" d="M831.829,178.4c15.915,23.4,36.073,38.7,40.423,36.7,4.244-1.8,4.244-32.9-9.867-57.4-14-24.4-29.6-32.1-41.378-25.2C806.79,141,815.808,154.8,831.829,178.4Z" transform="translate(-813.922 -130.081)" fill="#b3cbf9"/>
                <g id="Group_352" data-name="Group 352" transform="translate(4.315 5.002)">
                  <path id="Path_245" data-name="Path 245" d="M868.4,213s-1.273-2.7-3.4-7.1A78.264,78.264,0,0,1,868.4,213Z" transform="translate(-815.123 -135.083)" fill="#dfeafe"/>
                  <path id="Path_246" data-name="Path 246" d="M832.536,162.7c-4.456-.3-8.169,1.6-7.957.7s4.35-2.9,8.806-2.6a25.119,25.119,0,0,1,6.684,1.2c-1.7-2.5-3.4-5-4.88-7.3-.955.3-4.032-.3-7.533-.5-4.032-.3-7.427,1.1-7.321.4s3.926-2.1,7.957-1.8a28.964,28.964,0,0,1,6.26,1c-2.122-3.2-4.032-6.1-5.623-8.5-1.061,0-3.077-.3-5.2-.5-3.183-.2-5.941,1.1-5.729.5.106-.6,3.077-2,6.366-1.8a20.015,20.015,0,0,1,3.925.6c-3.607-5.9-4.562-8.4-.424-5.1a37.456,37.456,0,0,1,3.5,3.4,25.972,25.972,0,0,1,1.485-3.3c1.485-2.6,4.35-4.2,4.987-4s-2.016,1.7-3.5,4.3c-.955,1.6-1.591,3.1-2.122,4a94.92,94.92,0,0,1,6.048,8.2,29.185,29.185,0,0,1,2.334-5.3c1.91-3.3,5.2-5.5,5.835-5.3s-2.334,2.2-4.244,5.5c-1.485,2.6-2.653,5.1-3.4,6,1.485,2.2,2.865,4.5,4.35,6.9a21.925,21.925,0,0,1,2.334-5.2c2.122-3.6,6.154-5.8,7-5.5.955.3-2.758,2.3-4.88,5.9-1.591,2.7-2.652,5.4-3.5,6.4,1.379,2.2,2.652,4.5,4.032,6.8a16.4,16.4,0,0,1,2.122-5.1c2.016-3.5,6.472-5.5,7.639-5,1.061.4-2.971,2.1-5.093,5.6-1.591,2.8-2.652,5.6-3.607,6.4l4.456,8.1a15.893,15.893,0,0,1,2.228-6c2.122-3.6,6.79-5.6,7.957-5.2s-3.183,2.2-5.2,5.8c-1.91,3.4-3.077,6.7-4.138,6.8,1.379,2.5,2.652,5.1,4.032,7.5a16.662,16.662,0,0,1,2.122-5.4c2.122-3.6,6.79-5.6,7.957-5.2s-3.183,2.2-5.2,5.8c-1.8,3.1-2.865,6.2-3.926,6.7,1.167,2.2,2.228,4.4,3.289,6.5a19.84,19.84,0,0,1,2.546-6c2.016-3.4,5.3-5.7,5.941-5.5s-2.44,2.3-4.35,5.7c-1.8,3.2-3.183,6.2-3.819,6.4q1.91,3.75,3.5,6.9a12.458,12.458,0,0,1,1.485-4.7c1.379-2.6,3.077-4.5,3.4-4.4s-1.273,2-2.653,4.7c-1.273,2.4-1.8,4.6-2.122,4.8.531,1,.955,1.9,1.379,2.8-.424-.9-.955-1.8-1.485-2.8-.531,0-2.652-.8-5.3-1.2-3.077-.5-5.729-.4-5.623-.7s2.759-.6,5.835-.1a19.133,19.133,0,0,1,4.88,1.5c-1.167-2.1-2.44-4.2-3.713-6.4-1.167.2-4.138-.3-7.533-.5-4.244-.3-7.639,1.1-7.533.4s4.032-2.1,8.169-1.8a31.516,31.516,0,0,1,6.366,1c-1.167-1.9-2.44-3.9-3.713-5.9-.53.9-4.244,0-8.382-.3-4.456-.3-8.276,2.2-8.063,1s4.562-3.7,8.912-3.4a18.508,18.508,0,0,1,6.79,1.5q-2.387-3.9-5.093-7.8c-.743.7-4.244-.1-8.382-.4-4.456-.3-8.276,2.2-8.063,1,.212-1.1,4.562-3.7,8.912-3.4a18.616,18.616,0,0,1,6.578,1.4c-1.7-2.5-3.4-5-4.987-7.5-1.061.4-4.244-.3-7.851-.6-4.244-.3-8.063,2-7.851,1,.212-1.1,4.35-3.5,8.7-3.3a22.662,22.662,0,0,1,5.729,1.1c-1.485-2.2-2.971-4.4-4.456-6.5C839.963,163.7,836.462,163,832.536,162.7Z" transform="translate(-817.989 -135.083)" fill="#dfeafe"/>
                </g>
              </g>
              <g id="Group_355" data-name="Group 355" transform="translate(0 39.654)">
                <path id="Path_247" data-name="Path 247" d="M787.281,201.2c35.437,26.9,57.4,57.4,53.9,62.6-3.4,5-52.625-3-89.759-27.8s-47.744-47.2-35.543-60.9C730.625,158.7,751.632,174.1,787.281,201.2Z" transform="translate(-711.052 -164.218)" fill="#3251b4"/>
                <path id="Path_248" data-name="Path 248" d="M789.181,197.1c35.437,26.9,57.4,57.4,53.9,62.6-3.4,5-52.624-3-89.759-27.8s-47.744-47.2-35.543-60.9C732.525,154.5,753.532,170,789.181,197.1Z" transform="translate(-710.936 -164.218)" fill="#b3cbf9"/>
                <g id="Group_354" data-name="Group 354" transform="translate(9.258 6.682)">
                  <path id="Path_249" data-name="Path 249" d="M833.028,258.3s-4.138-2.4-10.928-6.4C826.026,254.4,829.739,256.6,833.028,258.3Z" transform="translate(-713.538 -170.9)" fill="#dfeafe"/>
                  <path id="Path_250" data-name="Path 250" d="M763.726,194.3c0-5.9,3.4-10.3,1.91-10.3-1.379,0-4.987,5-4.987,10.8a28.016,28.016,0,0,0,1.273,9.2c-3.819-2.9-7.533-5.7-10.928-8.3.531-1.1,0-5.4,0-10,0-5.4,2.44-9.5,1.485-9.5s-3.713,4.6-3.713,10a32.584,32.584,0,0,0,.955,8.6c-4.88-3.7-9.23-6.9-12.838-9.5.106-1.4-.212-4.1-.212-6.9,0-4.3,2.334-7.5,1.379-7.5s-3.5,3.6-3.5,7.9a25.029,25.029,0,0,0,.531,5.3c-8.912-6.3-12.838-8.2-8.063-1.9a44.4,44.4,0,0,0,5.093,5.4,36.947,36.947,0,0,0-5.411,1.2c-4.35,1.3-7.215,4.6-6.9,5.5s2.865-2.2,7.108-3.5c2.547-.8,5.093-1.3,6.578-1.8A149.381,149.381,0,0,0,745.8,199a43.692,43.692,0,0,0-8.594,1.7c-5.517,1.7-9.336,5.4-9.018,6.4s3.713-2.5,9.231-4.2c4.35-1.3,8.382-2.1,9.761-2.9,3.289,2.4,6.79,5,10.4,7.5a37.859,37.859,0,0,0-8.488,1.7c-5.942,1.8-9.867,6.5-9.443,7.8s3.926-3.1,9.867-4.9c4.456-1.3,8.806-2.1,10.4-3,3.4,2.3,6.9,4.7,10.4,7.1a32.812,32.812,0,0,0-8.276,1.4c-5.729,1.7-9.337,7.1-8.806,8.7s3.607-3.4,9.443-5.2c4.668-1.4,9.124-2,10.4-3,4.138,2.7,8.276,5.4,12.414,8-2.228-.3-5.835.2-9.761,1.4-5.942,1.8-9.655,7.4-9.018,9.1.531,1.6,3.713-3.6,9.761-5.4,5.623-1.7,11.034-2.3,11.14-3.7q5.888,3.75,11.459,7.2a29.155,29.155,0,0,0-8.806,1.4c-5.941,1.8-9.655,7.4-9.018,9.1.531,1.6,3.714-3.6,9.761-5.4,5.093-1.6,10.079-2.2,11.034-3.4q5.093,3.15,9.867,6a33.926,33.926,0,0,0-9.761,1.8c-5.623,1.7-9.655,5.5-9.336,6.5s3.819-2.6,9.443-4.3c5.3-1.6,10.185-2.5,10.61-3.4,3.82,2.3,7.427,4.4,10.61,6.3a23.481,23.481,0,0,0-7.639.7c-4.244,1.1-7.533,2.9-7.321,3.4.106.4,3.4-1.2,7.639-2.3,3.926-1,7.427-1.1,7.851-1.5,1.485.9,2.971,1.7,4.244,2.5-1.379-.9-2.759-1.8-4.244-2.7.106-.7-.955-3.7-1.273-7.3-.424-4.2,0-7.6-.531-7.6-.424,0-1.167,3.5-.743,7.7a19.049,19.049,0,0,0,1.91,6.8c-3.183-2-6.366-4.3-9.761-6.6.424-1.4-.106-5.6-.106-10.1,0-5.6,2.44-9.8,1.485-9.8-1.061,0-3.713,4.7-3.713,10.3a34.653,34.653,0,0,0,.849,8.6c-2.971-2-5.942-4.2-8.912-6.4,1.485-.5.424-5.5.424-11.2,0-5.9,4.35-10.4,2.44-10.4s-6.366,5-6.366,10.9c0,4,.636,7.5,1.7,9.3-3.926-2.8-7.851-5.7-11.777-8.6,1.273-.8.212-5.7.212-11.1,0-5.9,4.35-10.4,2.44-10.4-1.8,0-6.366,5-6.366,10.9a24.305,24.305,0,0,0,1.485,9c-3.819-2.8-7.639-5.7-11.352-8.5.743-1.4-.106-5.7-.106-10.4,0-5.7,4.138-10,2.334-10-1.7,0-6.048,4.8-6.048,10.5a26.648,26.648,0,0,0,1.061,7.9c-3.4-2.5-6.684-5.1-9.867-7.5C764.469,204.3,763.726,199.5,763.726,194.3Z" transform="translate(-719.777 -170.9)" fill="#dfeafe"/>
                </g>
              </g>
              <g id="Group_357" data-name="Group 357" transform="translate(50.342 16.135)">
                <path id="Path_251" data-name="Path 251" d="M796.871,187.3c0,27.8-8.276,50.9-13.05,51.5-4.562.6-22.387-25.6-24.4-53.3C757.3,157.8,766,143.4,779.9,143.3,796.553,143.1,796.871,159.3,796.871,187.3Z" transform="translate(-758.464 -140.698)" fill="#3251b4"/>
                <path id="Path_252" data-name="Path 252" d="M796.271,184.7c0,27.8-8.276,50.9-13.05,51.5-4.562.6-22.387-25.6-24.4-53.3-2.122-27.7,6.578-42.1,20.477-42.2C795.953,140.5,796.271,156.7,796.271,184.7Z" transform="translate(-758.501 -140.698)" fill="#b3cbf9"/>
                <g id="Group_356" data-name="Group 356" transform="translate(3.243 6.471)">
                  <path id="Path_253" data-name="Path 253" d="M781.167,234s-.531-2.9-1.167-7.8C780.318,229.1,780.743,231.8,781.167,234Z" transform="translate(-760.433 -147.169)" fill="#dfeafe"/>
                  <path id="Path_254" data-name="Path 254" d="M786.323,171.9c3.607-2.5,7.745-2.8,7.109-3.5s-5.3-.2-8.912,2.3a23.607,23.607,0,0,0-4.987,4.5v-8.6c.955-.2,3.289-2.3,6.048-4.2,3.289-2.3,6.9-2.9,6.366-3.4s-4.456.2-7.745,2.5a28.989,28.989,0,0,0-4.775,4.1c0-3.8-.106-7.2-.106-10,.955-.6,2.44-1.8,4.138-3,2.546-1.8,5.623-2.1,5.093-2.5-.424-.5-3.714-.1-6.366,1.7a27.064,27.064,0,0,0-2.971,2.4c-.318-6.8-.955-9.4-2.546-4.5a23.716,23.716,0,0,0-.955,4.6,23.635,23.635,0,0,0-3.183-2c-2.758-1.4-6.047-1.4-6.472-.9s2.652.4,5.411,1.8c1.7.9,3.183,1.8,4.138,2.3a92.666,92.666,0,0,0-.424,9.9,25.808,25.808,0,0,0-4.987-3.3c-3.5-1.8-7.533-2-7.957-1.5s3.183.6,6.79,2.5c2.758,1.4,5.093,3,6.26,3.3,0,2.5.106,5.2.212,8a26.643,26.643,0,0,0-4.88-3.3c-3.819-2-8.488-1.8-9.018-1.1s3.713.5,7.427,2.5c2.865,1.5,5.3,3.2,6.578,3.6.106,2.5.318,5.2.531,7.8a17.677,17.677,0,0,0-4.668-3.2c-3.713-1.9-8.594-1.3-9.23-.4s3.713.2,7.427,2.2c2.971,1.6,5.411,3.4,6.684,3.5.212,3,.531,6.1.849,9.1a16.791,16.791,0,0,0-5.3-3.9c-3.82-2-8.912-1.3-9.655-.4s3.925.2,7.745,2.2c3.607,1.9,6.472,4.1,7.321,3.6q.477,4.2.955,8.4a19.872,19.872,0,0,0-4.88-3.5c-3.82-2-8.912-1.3-9.655-.4s3.926.2,7.745,2.2c3.289,1.7,5.941,3.8,7.109,3.7.318,2.5.637,4.9.955,7.1a23.244,23.244,0,0,0-5.623-3.8c-3.607-1.9-7.745-2.1-8.17-1.6s3.289.7,6.9,2.6c3.4,1.8,6.26,3.7,6.9,3.5.318,2.8.743,5.3,1.061,7.6a13.235,13.235,0,0,0-3.926-3.2c-2.652-1.5-5.2-2.2-5.411-2s2.228,1.1,4.881,2.6c2.44,1.4,4.138,3,4.456,3,.106,1.1.318,2.1.424,3-.106-1-.212-2-.318-3.1.424-.3,1.8-2,3.82-3.7,2.334-2,4.562-3.2,4.35-3.4s-2.652.9-4.987,2.9a14.455,14.455,0,0,0-3.183,3.7c-.212-2.3-.318-4.8-.53-7.3,1.061-.4,3.289-2.4,6.048-4.3,3.4-2.4,7.109-3,6.578-3.5s-4.562.3-7.957,2.7a25.128,25.128,0,0,0-4.774,4c-.106-2.2-.212-4.5-.318-6.8.955.5,3.5-2.2,6.9-4.5,3.607-2.5,8.276-2.4,7.427-3.2s-5.941-.9-9.549,1.6a16.783,16.783,0,0,0-4.88,4.7c-.106-3-.106-6-.212-9.1,1.061.3,3.5-2.3,6.79-4.6,3.607-2.5,8.276-2.4,7.427-3.2s-5.942-.9-9.549,1.6a19.388,19.388,0,0,0-4.774,4.5c0-3,0-5.9-.106-8.9,1.167-.3,3.4-2.4,6.26-4.4,3.5-2.4,7.957-2.4,7.109-3.2-.743-.8-5.729-.8-9.124,1.6a19.181,19.181,0,0,0-4.244,3.8V176C780.594,176.5,783.141,174.2,786.323,171.9Z" transform="translate(-761.558 -147.169)" fill="#dfeafe"/>
                </g>
              </g>
              <path id="Path_255" data-name="Path 255" d="M848.832,404.7a23.534,23.534,0,0,1,1.91-12c-2.122,2.4-4.562,4.8.637-3.5a117.766,117.766,0,0,1,16.657-18.8c-.743-2-.955-6.1,1.592-12.1,3.607-8.4,5.941-10.3,7.109-9.4,1.485,1-1.379,5-3.714,11.5a59.2,59.2,0,0,0-2.228,7.6,111.675,111.675,0,0,1,15.278-11.3c-1.379-2-1.8-8.3,3.819-16.5,6.26-9.2,9.655-10.6,10.928-9.1,1.591,1.9-2.759,5.7-7.109,13.1a87.97,87.97,0,0,0-5.411,11.1,87.158,87.158,0,0,1,17.4-7.8c-.212-2.7,1.061-8.1,6.578-14.6,7.215-8.6,10.5-9.9,11.353-8.4,1.167,1.9-3.5,5.5-8.594,12.4a104.184,104.184,0,0,0-6.26,9.7,76.565,76.565,0,0,1,18.885-2.7s6.047.8,2.758,2.5c-1.91,1-5.093-.5-14.96,1.1a61.292,61.292,0,0,0-7.957,1.9c.318,1.5-.424,5.8.424,13.6.849,7.9,3.183,12.6,1.061,14-1.7,1.1-3.926-1.1-5.835-11.3-1.485-8,.424-13.4,2.122-15.7a97.919,97.919,0,0,0-16.445,7.4c1.273.5-.531,5.9.637,17,.955,9.5,3.926,15.1,1.061,16.9-2.228,1.4-5.3-1.1-7.533-13.3-1.8-9.9,1.061-16.6,3.607-19.3a115.7,115.7,0,0,0-16.551,11.9h0c1.273,0-.318,4.2.849,12.1,1.061,6.7,4.032,12.4,1.273,12-4.456-.8-6.366-1.4-7.321-8.1-.849-5.9.531-10.5,2.228-13.2a92.934,92.934,0,0,0-14,16.6c.743.4-1.061,6.5.636,13.8,1.592,6.6,5.2,8.2,2.334,10.4C853.819,415.9,849.681,413.7,848.832,404.7Z" transform="translate(-702.684 -124.563)" fill="#fea815"/>
            </g>
            <g id="Group_369" data-name="Group 369" transform="translate(473.62 131.363)">
              <path id="Path_256" data-name="Path 256" d="M538.2,385.8s3.713-.2,9.973-.8A53.508,53.508,0,0,1,538.2,385.8Z" transform="translate(-440.802 -131.363)" fill="#dfeafe"/>
              <path id="Path_257" data-name="Path 257" d="M555.4,413.2s1.485-4.4,3.713-11.7C557.84,405.9,556.673,409.8,555.4,413.2Z" transform="translate(-439.753 -131.363)" fill="#dfeafe"/>
              <path id="Path_258" data-name="Path 258" d="M494.4,345.1c34.8,38.4,72.783,61.3,78.725,57,5.729-4.2-7.639-59.5-40-100.1-32.36-40.5-59.945-51-75.329-36.2C439.445,283.6,459.391,306.4,494.4,345.1Z" transform="translate(-446.128 -131.363)" fill="#3251b4"/>
              <path id="Path_259" data-name="Path 259" d="M490.006,347.6c34.8,38.4,72.783,61.3,78.725,57,5.729-4.2-7.639-59.5-40-100.1-32.36-40.5-59.945-51-75.329-36.2C434.941,286.1,454.994,308.9,490.006,347.6Z" transform="translate(-446.399 -131.363)" fill="#608fdf"/>
              <path id="Path_260" data-name="Path 260" d="M548.1,407.1s-2.546-5.5-6.9-14.3C543.959,398,546.293,402.9,548.1,407.1Z" transform="translate(-440.619 -131.363)" fill="#dfeafe"/>
              <path id="Path_261" data-name="Path 261" d="M484.22,319.4c-7,.4-12.1,4.5-12.2,2.9s5.517-6,12.52-6.4a34.4,34.4,0,0,1,11.034.8c-3.82-4.2-7.427-8.2-10.716-11.9-1.273.7-6.366.4-11.883.7-6.472.4-11.14,3.5-11.246,2.3s5.2-4.5,11.671-4.9a38.2,38.2,0,0,1,10.292.5c-4.774-5.3-8.912-10-12.307-13.9-1.7.2-4.88.1-8.276.3-5.093.3-8.7,3.1-8.806,2s4.032-4.2,9.124-4.5a30.4,30.4,0,0,1,6.26.2c-8.17-9.7-10.716-14-2.865-9a55.21,55.21,0,0,1,6.9,5.4,39.787,39.787,0,0,1,.955-6.2c1.167-5,4.987-8.5,6.048-8.2s-2.44,3.4-3.607,8.3c-.743,3-1.167,5.9-1.591,7.6a173.81,173.81,0,0,1,12.838,13.3,41.405,41.405,0,0,1,1.379-9.9c1.591-6.3,5.729-10.9,6.9-10.6s-2.759,4.4-4.244,10.7c-1.273,5-1.91,9.7-2.652,11.3,3.183,3.5,6.472,7.4,9.761,11.4a37.81,37.81,0,0,1,1.379-9.8c1.7-6.9,7-11.6,8.594-11.2s-3.4,4.6-5.093,11.5c-1.273,5.2-1.91,10.1-2.759,12q4.615,5.55,9.231,11.4a28.974,28.974,0,0,1,1.061-9.4c1.591-6.7,7.745-11.1,9.655-10.6s-3.82,4.4-5.411,11c-1.273,5.4-1.7,10.5-2.865,12.1l10.5,13.5c-.53-2.5-.212-6.6.849-11.1,1.7-6.9,8.17-11.4,10.079-10.9,2.016.5-4.032,4.5-5.729,11.4-1.591,6.5-1.91,12.6-3.607,12.9,3.183,4.3,6.366,8.5,9.443,12.6a30.519,30.519,0,0,1,1.061-10.1c1.7-6.9,8.17-11.4,10.079-10.9,2.016.5-4.032,4.5-5.623,11.4-1.485,5.9-1.8,11.6-3.183,12.7,2.758,3.7,5.411,7.4,7.957,10.8-.318-2,.212-6.3,1.379-11.2,1.591-6.5,5.835-11.3,7-11s-2.758,4.5-4.35,11.1c-1.485,6.1-2.228,11.8-3.183,12.3,3.077,4.2,5.835,8.1,8.382,11.6a25.027,25.027,0,0,1,.318-8.7c.955-4.9,2.971-8.7,3.5-8.6s-1.167,3.9-2.122,8.9c-.849,4.6-.849,8.5-1.167,9,1.167,1.7,2.334,3.2,3.289,4.7-1.167-1.5-2.334-3-3.5-4.6-.849.1-4.456-.8-8.806-1-4.987-.3-9.018.5-9.018,0s4.138-1.6,9.124-1.3a23.319,23.319,0,0,1,8.169,1.7c-2.652-3.4-5.517-7-8.594-10.7-1.7.5-6.684.3-11.989.6-6.684.4-11.565,3.5-11.565,2.3-.106-1.2,5.3-4.5,11.989-4.9a43.986,43.986,0,0,1,10.291.4c-2.652-3.2-5.411-6.4-8.276-9.7-.424,1.7-6.578.8-13.262,1.2-7,.4-11.989,5.6-12.2,3.5-.106-2.1,5.411-7.6,12.52-8,4.774-.3,8.912.3,11.246,1.3-3.607-4.2-7.427-8.5-11.246-12.8-.849,1.5-6.79.7-13.156,1-7,.4-11.989,5.6-12.2,3.5-.106-2.1,5.411-7.6,12.519-8a27.751,27.751,0,0,1,10.822,1.1c-3.714-4.1-7.427-8.3-11.034-12.3-1.591.9-6.79.3-12.413.6-6.79.4-11.671,5.3-11.777,3.3s5.3-7.2,12.1-7.6a33.023,33.023,0,0,1,9.443.7c-3.289-3.6-6.578-7.2-9.655-10.7C496.1,319.6,490.48,319.1,484.22,319.4Z" transform="translate(-445.918 -131.363)" fill="#b3cbf9"/>
              <path id="Path_262" data-name="Path 262" d="M507.9,425.7c36.179,3.3,67.266-4.2,68.645-10.1,1.273-5.6-30.662-30.8-66.523-36.7-35.755-5.9-55.7,3.2-57.611,20.4C450.286,420,471.4,422.3,507.9,425.7Z" transform="translate(-446.042 -131.363)" fill="#3251b4"/>
              <path id="Path_263" data-name="Path 263" d="M504.8,424.6c36.179,3.3,67.266-4.2,68.645-10.1,1.273-5.6-30.662-30.8-66.523-36.7-35.755-5.9-55.7,3.2-57.611,20.4C447.186,418.9,468.3,421.3,504.8,424.6Z" transform="translate(-446.231 -131.363)" fill="#608fdf"/>
              <path id="Path_264" data-name="Path 264" d="M554.173,413.1s-3.819-.9-9.973-2.4C548.02,411.5,551.309,412.3,554.173,413.1Z" transform="translate(-440.436 -131.363)" fill="#dfeafe"/>
              <path id="Path_265" data-name="Path 265" d="M488.793,411c-3.713,4.1-4.668,9.3-5.411,8.4s.424-6.6,4.032-10.7a27.118,27.118,0,0,1,6.472-5.6c-3.926-.4-7.745-.7-11.246-1-.424,1.1-3.4,3.8-6.26,7-3.4,3.8-4.668,8.2-5.2,7.6-.53-.7.849-5.5,4.244-9.3a33.957,33.957,0,0,1,5.835-5.4c-4.987-.5-9.337-.9-12.944-1.4-.849,1.1-2.652,2.8-4.456,4.7-2.652,3-3.4,6.7-3.926,6.1s.318-4.7,3.077-7.7a27.982,27.982,0,0,1,3.607-3.4c-8.806-1.2-12.1-2.3-5.623-3.7a27.651,27.651,0,0,1,6.154-.6,22.814,22.814,0,0,1-2.228-4.2c-1.485-3.6-1.061-7.7-.318-8.2.743-.4.212,3.3,1.7,6.9.955,2.2,2.016,4.1,2.44,5.4a124.791,124.791,0,0,1,12.944.7,31.823,31.823,0,0,1-3.607-6.6c-1.91-4.6-1.7-9.6-.955-10.1s.424,4.1,2.44,8.7c1.591,3.6,3.289,6.7,3.607,8.1,3.289.3,6.79.8,10.4,1.3a26.829,26.829,0,0,1-3.607-6.5c-2.122-5-1.273-10.7-.212-11.4,1.061-.6.212,4.6,2.334,9.6,1.591,3.8,3.5,7,3.82,8.6,3.289.5,6.684,1,10.079,1.6a25.075,25.075,0,0,1-3.607-6.1c-2.016-4.8-.636-10.8.637-11.6s-.106,4.7,1.91,9.5c1.7,3.9,3.713,7.2,3.819,8.7,3.926.7,7.851,1.4,11.777,2.2a21.082,21.082,0,0,1-4.456-7c-2.122-5-.637-11.2.743-12s-.212,4.9,1.91,9.8c2.016,4.7,4.562,8.5,3.82,9.6,3.713.7,7.321,1.4,10.822,2.2a22.03,22.03,0,0,1-3.926-6.5c-2.122-5-.637-11.2.743-12s-.212,4.9,1.91,9.8c1.8,4.3,4.138,7.8,3.926,9.2,3.183.7,6.26,1.3,9.124,2-1.061-1-2.652-3.8-4.244-7.4-2.016-4.7-1.8-9.9-1.061-10.3.743-.5.531,4.2,2.546,8.9,1.91,4.4,4.032,8.1,3.713,9,3.5.8,6.79,1.5,9.761,2.2a15.617,15.617,0,0,1-3.714-5.3c-1.7-3.4-2.228-6.7-1.91-7,.318-.2,1.061,3,2.759,6.4,1.591,3.2,3.289,5.5,3.289,5.9,1.379.3,2.652.6,3.926.9-1.273-.3-2.653-.5-4.032-.8-.424.6-2.758,2-5.3,4.3-2.865,2.6-4.774,5.3-4.987,5s1.591-3.2,4.456-5.8a20.5,20.5,0,0,1,5.3-3.6c-2.971-.5-6.154-1-9.443-1.5-.743,1.2-3.5,3.9-6.366,7-3.5,3.9-4.774,8.4-5.411,7.8s.955-5.6,4.456-9.5a41.181,41.181,0,0,1,5.835-5.5q-4.3-.6-8.912-1.2c.53,1.2-3.289,4.1-6.79,8.1-3.713,4.1-4.138,9.9-5.093,8.8s-.424-7.5,3.289-11.6c2.546-2.8,5.093-4.8,6.79-5.5-3.926-.5-7.851-.9-11.883-1.3.212,1.3-3.4,4.1-6.79,7.9-3.713,4.1-4.138,9.9-5.093,8.8s-.424-7.5,3.289-11.6c2.334-2.6,4.774-4.6,6.472-5.3-3.82-.4-7.745-.8-11.565-1.1-.424,1.4-3.607,3.9-6.578,7.2-3.607,4-4.032,9.6-4.987,8.5s-.318-7.2,3.289-11.2a25.154,25.154,0,0,1,5.517-4.8c-3.4-.3-6.79-.6-10.079-.9C495.477,404.4,492.082,407.3,488.793,411Z" transform="translate(-445.716 -131.363)" fill="#b3cbf9"/>
              <g id="Group_360" data-name="Group 360" transform="translate(46.255 85.242)">
                <path id="Path_266" data-name="Path 266" d="M547.081,252.3c21.75,25.6,32.36,52.4,28.54,56.2-3.713,3.6-40.317-8.5-63.977-32.6-23.554-24-27.055-43.2-14.535-52.7C512.175,211.8,525.225,226.6,547.081,252.3Z" transform="translate(-489.996 -216.605)" fill="#3251b4"/>
                <path id="Path_267" data-name="Path 267" d="M550.181,249.6c21.75,25.6,32.36,52.4,28.54,56.2-3.713,3.6-40.317-8.5-63.977-32.6-23.554-24-27.055-43.2-14.535-52.7C515.169,209.1,528.219,223.9,550.181,249.6Z" transform="translate(-489.807 -216.605)" fill="#b3cbf9"/>
                <g id="Group_359" data-name="Group 359" transform="translate(7.431 6.192)">
                  <path id="Path_268" data-name="Path 268" d="M572.009,304.3s-2.759-2.4-7.109-6.3C567.446,300.4,569.887,302.5,572.009,304.3Z" transform="translate(-492.859 -222.797)" fill="#dfeafe"/>
                  <path id="Path_269" data-name="Path 269" d="M531.163,244.5c1.273-4.7,4.881-7.8,3.714-8-1.061-.2-4.987,3.4-6.26,8.1a21.678,21.678,0,0,0-.955,7.5c-2.334-2.8-4.668-5.4-6.79-7.9.637-.8,1.167-4.3,2.122-8,1.167-4.3,3.926-7.3,3.183-7.4s-3.82,3.2-4.987,7.6a25.911,25.911,0,0,0-1.061,6.9c-2.971-3.5-5.729-6.6-7.957-9.1.424-1.1.743-3.3,1.379-5.6.955-3.4,3.4-5.7,2.652-5.8s-3.5,2.5-4.35,5.9a18.079,18.079,0,0,0-.743,4.3c-5.623-6.1-8.276-8-5.835-2.5a33.345,33.345,0,0,0,2.759,4.9,40.254,40.254,0,0,0-4.456.3c-3.607.5-6.578,2.9-6.578,3.6s2.652-1.4,6.26-2c2.228-.3,4.244-.5,5.517-.7,2.016,2.8,4.456,6,7.427,9.4a32.036,32.036,0,0,0-7.109.4c-4.668.7-8.382,3.2-8.382,4s3.4-1.6,8.063-2.3c3.607-.5,7-.7,8.275-1.2,2.016,2.3,4.244,4.8,6.472,7.2a29.265,29.265,0,0,0-7,.3c-4.987.7-9.124,4.1-9.018,5.1.106,1.1,3.713-2,8.7-2.8,3.819-.6,7.321-.7,8.806-1.2,2.122,2.3,4.35,4.5,6.578,6.8a22.116,22.116,0,0,0-6.684.2c-4.881.7-8.806,4.6-8.7,5.9s3.607-2.3,8.488-3c3.926-.6,7.533-.6,8.806-1.2l7.957,7.8c-1.591-.5-4.562-.5-7.851,0-4.987.7-9.018,4.8-9.018,6.2.106,1.4,3.713-2.4,8.7-3.2,4.774-.7,9.018-.5,9.443-1.7,2.546,2.4,4.987,4.8,7.427,7.1a25.117,25.117,0,0,0-7.215.1c-4.987.7-9.018,4.8-9.018,6.2.106,1.4,3.713-2.4,8.7-3.2,4.35-.6,8.276-.6,9.336-1.4,2.228,2.1,4.35,4.1,6.366,5.9a28.319,28.319,0,0,0-7.957.3c-4.774.7-8.7,3.3-8.594,4.1,0,.8,3.5-1.6,8.276-2.3,4.456-.7,8.488-.8,9.018-1.5,2.44,2.3,4.774,4.4,6.9,6.3a17.035,17.035,0,0,0-6.048-.3c-3.607.4-6.472,1.5-6.472,1.8,0,.4,2.865-.6,6.472-.9,3.289-.3,6.048-.1,6.366-.3.955.9,1.91,1.7,2.758,2.5-.849-.8-1.8-1.7-2.653-2.6.212-.6.106-3.1.531-6,.53-3.4,1.591-6.1,1.273-6.1-.424,0-1.7,2.7-2.228,6a15.8,15.8,0,0,0,0,5.6c-2.016-2-4.032-4.1-6.154-6.4.637-1.1,1.167-4.5,2.122-8.1,1.167-4.5,4.032-7.6,3.183-7.7s-3.926,3.3-5.093,7.8a32.674,32.674,0,0,0-1.167,7c-1.8-2-3.713-4-5.623-6.1,1.273-.2,1.485-4.4,2.653-8.9,1.273-4.7,5.623-7.8,4.138-8s-6.047,3.2-7.321,7.9a18.983,18.983,0,0,0-.743,7.6c-2.44-2.7-4.88-5.5-7.321-8.3,1.167-.5,1.379-4.5,2.546-8.8,1.273-4.7,5.623-7.8,4.138-8-1.379-.2-6.048,3.2-7.321,7.9a17.385,17.385,0,0,0-.743,7.3l-7-8.1c.849-1,1.167-4.5,2.228-8.3,1.273-4.6,5.3-7.5,4.032-7.7-1.379-.2-5.729,3.1-7,7.7a22.307,22.307,0,0,0-.849,6.4c-2.016-2.4-4.138-4.8-6.048-7.1C529.572,252.5,530,248.7,531.163,244.5Z" transform="translate(-497 -222.797)" fill="#dfeafe"/>
                </g>
              </g>
              <g id="Group_362" data-name="Group 362" transform="translate(67.818)">
                <path id="Path_270" data-name="Path 270" d="M571.517,193.1c14.429,40.6,15.6,77.5,9.655,80.1-5.729,2.5-42.651-29.2-59.839-69-17.188-39.7-13.262-64,4.88-69.3C548.07,128.5,556.982,152.2,571.517,193.1Z" transform="translate(-510.32 -131.363)" fill="#3251b4"/>
                <path id="Path_271" data-name="Path 271" d="M575.317,190.6c14.429,40.6,15.6,77.5,9.655,80.1-5.729,2.5-42.651-29.2-59.839-69-17.188-39.7-13.262-64,4.88-69.3C551.87,126,560.782,149.7,575.317,190.6Z" transform="translate(-510.088 -131.363)" fill="#b3cbf9"/>
                <g id="Group_361" data-name="Group 361" transform="translate(8.77 11.272)">
                  <path id="Path_272" data-name="Path 272" d="M579.423,267.8s-2.122-4.1-5.623-10.9C575.71,261,577.62,264.7,579.423,267.8Z" transform="translate(-515.219 -142.635)" fill="#dfeafe"/>
                  <path id="Path_273" data-name="Path 273" d="M555.629,175.6c3.4-5,8.7-7,7.533-7.7s-7.108,1.6-10.4,6.6a27.52,27.52,0,0,0-4.138,8.4q-2.387-6.6-4.456-12.6c1.061-.7,3.077-4.5,5.729-8.4,3.077-4.6,7.533-6.8,6.684-7.3s-5.729,2-8.806,6.6a28.737,28.737,0,0,0-4.032,7.7c-2.016-5.5-3.819-10.5-5.411-14.5.955-1.2,2.228-3.5,3.819-5.9,2.44-3.6,6.26-5.1,5.411-5.6s-4.987,1.3-7.427,4.9a36.379,36.379,0,0,0-2.652,4.7c-3.926-9.8-6.154-13.4-5.623-5.7a41.906,41.906,0,0,0,1.167,7.1,48.157,48.157,0,0,0-5.2-1.8c-4.35-1.1-8.7.3-8.912,1.1-.212.9,3.607-.4,7.957.7,2.653.7,5.093,1.5,6.578,1.8a136.9,136.9,0,0,0,4.668,14.7,39.741,39.741,0,0,0-8.276-2.9c-5.517-1.4-10.928-.2-11.246.8s4.562-.3,10.185,1.1c4.35,1.1,8.276,2.5,9.867,2.6q2.069,5.55,4.456,11.7a36.193,36.193,0,0,0-8.169-2.9c-6.048-1.5-12.1.5-12.413,1.8s5.093-.6,11.034.9c4.562,1.1,8.594,2.7,10.5,2.8,1.485,3.7,3.077,7.4,4.775,11.2a29.377,29.377,0,0,0-7.745-3c-5.835-1.5-11.883,1.3-12.413,2.8s4.987-1,10.928.4c4.774,1.2,8.912,2.9,10.5,2.7,1.91,4.3,3.926,8.7,5.835,13a26.83,26.83,0,0,0-8.912-3.8c-6.048-1.5-12.307,1.4-12.838,3-.424,1.7,5.2-1.1,11.246.4,5.729,1.4,10.61,3.7,11.565,2.5,1.91,4,3.713,8,5.623,11.9a28.891,28.891,0,0,0-8.276-3.3c-6.048-1.5-12.307,1.4-12.838,3-.424,1.7,5.2-1.1,11.246.4,5.2,1.3,9.761,3.3,11.246,2.8,1.7,3.5,3.289,6.9,4.88,10.1-1.379-1-4.987-2.4-9.23-3.4-5.729-1.4-11.246-.2-11.565.7-.318,1,4.668-.2,10.4,1.2,5.3,1.3,10.079,3.1,10.928,2.5,1.91,3.9,3.713,7.5,5.3,10.7a22.127,22.127,0,0,0-6.79-3.2c-4.244-1.3-7.957-1.3-8.169-.9s3.5.7,7.745,2c3.926,1.2,6.9,2.8,7.427,2.7.743,1.5,1.485,3,2.122,4.3-.637-1.4-1.379-2.9-2.016-4.4.424-.6,1.379-3.6,3.077-6.8,2.016-3.7,4.35-6.4,3.926-6.6s-2.971,2.4-4.987,6.1a19.284,19.284,0,0,0-2.228,6.7q-2.228-4.95-4.456-10.5c1.167-1,3.183-4.7,5.729-8.5,3.183-4.7,7.745-7,6.79-7.6-.849-.5-5.835,2.1-9.018,6.8a31.684,31.684,0,0,0-4.138,7.7c-1.273-3.2-2.652-6.5-3.926-9.9,1.485.3,3.5-4.5,6.684-9.2,3.4-5,9.549-6.5,7.957-7.5-1.485-.9-8.276,1-11.565,5.9-2.334,3.4-3.713,6.6-3.926,8.7-1.7-4.3-3.289-8.8-4.987-13.3,1.485,0,3.5-4.7,6.578-9.2,3.4-5,9.549-6.5,7.957-7.5s-8.276,1-11.565,5.9c-2.122,3.2-3.5,6.2-3.82,8.3-1.591-4.3-3.183-8.7-4.668-13,1.379-.8,3.183-4.8,5.835-8.8,3.289-4.8,9.124-6.4,7.745-7.3s-7.851,1-11.14,5.8a24.76,24.76,0,0,0-3.607,7.2c-1.379-3.8-2.758-7.6-4.032-11.3C550.536,184.3,552.658,180,555.629,175.6Z" transform="translate(-518.586 -142.636)" fill="#dfeafe"/>
                </g>
              </g>
              <g id="Group_364" data-name="Group 364" transform="translate(104.579 5.518)">
                <path id="Path_274" data-name="Path 274" d="M587.866,187.7c-15.915,23.4-36.073,38.7-40.423,36.7-4.244-1.8-4.244-32.9,9.867-57.4,14-24.4,29.6-32.1,41.378-25.2C612.9,150.2,603.886,164.1,587.866,187.7Z" transform="translate(-544.969 -136.881)" fill="#3251b4"/>
                <path id="Path_275" data-name="Path 275" d="M588.866,185.2c-15.915,23.4-36.073,38.7-40.423,36.7-4.244-1.8-4.244-32.9,9.867-57.4,14-24.4,29.6-32.1,41.378-25.2C613.8,147.7,604.78,161.6,588.866,185.2Z" transform="translate(-544.908 -136.881)" fill="#b3cbf9"/>
                <g id="Group_363" data-name="Group 363" transform="translate(4.024 5.002)">
                  <path id="Path_276" data-name="Path 276" d="M548.9,219.8s1.273-2.7,3.4-7.1C550.916,215.2,549.855,217.6,548.9,219.8Z" transform="translate(-548.753 -141.883)" fill="#dfeafe"/>
                  <path id="Path_277" data-name="Path 277" d="M587.74,169.5c4.456-.3,8.17,1.6,7.957.7s-4.35-2.9-8.806-2.6a25.12,25.12,0,0,0-6.684,1.2c1.7-2.5,3.4-5,4.88-7.3.955.3,4.032-.3,7.533-.5,4.032-.3,7.427,1.1,7.321.4s-3.926-2.1-7.957-1.8a28.962,28.962,0,0,0-6.26,1c2.122-3.2,4.032-6.1,5.623-8.5,1.061,0,3.077-.3,5.2-.5,3.183-.2,5.941,1.1,5.729.5-.106-.6-3.077-2-6.366-1.8a20.018,20.018,0,0,0-3.926.6c3.607-5.9,4.562-8.4.424-5.1a37.478,37.478,0,0,0-3.5,3.4,25.972,25.972,0,0,0-1.485-3.3c-1.485-2.6-4.35-4.2-4.987-4s2.016,1.7,3.5,4.3c.955,1.6,1.591,3.1,2.122,4a94.934,94.934,0,0,0-6.048,8.2,29.184,29.184,0,0,0-2.334-5.3c-1.91-3.3-5.2-5.5-5.835-5.3s2.334,2.2,4.244,5.5c1.485,2.6,2.652,5.1,3.4,6-1.485,2.2-2.865,4.5-4.35,6.9A21.925,21.925,0,0,0,574.8,161c-2.122-3.6-6.154-5.8-7-5.5s2.759,2.3,4.88,5.9c1.591,2.7,2.652,5.4,3.5,6.4-1.379,2.2-2.652,4.5-4.032,6.8a16.4,16.4,0,0,0-2.122-5.1c-2.016-3.5-6.472-5.5-7.639-5-1.061.4,2.971,2.1,5.093,5.6,1.592,2.8,2.652,5.6,3.607,6.4l-4.456,8.1c0-1.4-.849-3.6-2.228-6-2.122-3.6-6.79-5.6-7.957-5.2s3.183,2.2,5.2,5.8c1.91,3.4,3.077,6.7,4.138,6.8-1.379,2.5-2.652,5.1-4.032,7.5a16.663,16.663,0,0,0-2.122-5.4c-2.122-3.6-6.79-5.6-7.957-5.2s3.183,2.2,5.2,5.8c1.8,3.1,2.865,6.2,3.926,6.7-1.167,2.2-2.228,4.4-3.289,6.5a19.841,19.841,0,0,0-2.546-6c-2.016-3.4-5.3-5.7-5.941-5.5s2.44,2.3,4.35,5.7c1.8,3.2,3.183,6.2,3.82,6.4q-1.91,3.75-3.5,6.9a12.458,12.458,0,0,0-1.485-4.7c-1.379-2.6-3.077-4.5-3.4-4.4s1.273,2,2.653,4.7c1.273,2.4,1.8,4.6,2.122,4.8-.531,1-.955,1.9-1.379,2.8.424-.9.955-1.8,1.485-2.8.531,0,2.652-.8,5.3-1.2,3.077-.5,5.729-.4,5.623-.7s-2.758-.6-5.835-.1a19.135,19.135,0,0,0-4.88,1.5c1.167-2.1,2.44-4.2,3.713-6.4,1.167.2,4.138-.3,7.533-.5,4.244-.3,7.639,1.1,7.533.4s-4.032-2.1-8.169-1.8a31.515,31.515,0,0,0-6.366,1c1.167-1.9,2.44-3.9,3.713-5.9.53.9,4.244,0,8.382-.3,4.456-.3,8.276,2.2,8.063,1-.212-1.1-4.562-3.7-8.912-3.4a18.508,18.508,0,0,0-6.79,1.5q2.387-3.9,5.093-7.8c.743.7,4.244-.1,8.382-.4,4.456-.3,8.276,2.2,8.063,1-.212-1.1-4.562-3.7-8.912-3.4a18.618,18.618,0,0,0-6.578,1.4c1.7-2.5,3.4-5,4.987-7.5,1.061.4,4.244-.3,7.851-.6,4.244-.3,8.063,2,7.851,1-.212-1.1-4.35-3.5-8.7-3.3a22.66,22.66,0,0,0-5.729,1.1c1.485-2.2,2.971-4.4,4.456-6.5C580.313,170.4,583.815,169.7,587.74,169.5Z" transform="translate(-548.761 -141.883)" fill="#dfeafe"/>
                </g>
              </g>
              <path id="Path_278" data-name="Path 278" d="M573.046,411.5a23.534,23.534,0,0,0-1.91-12c2.122,2.4,4.562,4.8-.637-3.5a117.76,117.76,0,0,0-16.657-18.8c.743-2,.955-6.1-1.591-12.1-3.607-8.4-5.941-10.3-7.109-9.4-1.485,1,1.379,5,3.713,11.5a59.172,59.172,0,0,1,2.228,7.6,111.689,111.689,0,0,0-15.278-11.3c1.379-2,1.8-8.3-3.82-16.5-6.26-9.2-9.655-10.6-10.928-9.1-1.591,1.9,2.759,5.7,7.109,13.1a87.979,87.979,0,0,1,5.411,11.1,87.163,87.163,0,0,0-17.4-7.8c.212-2.7-1.061-8.1-6.578-14.6-7.215-8.6-10.5-9.9-11.352-8.4-1.167,1.9,3.5,5.5,8.594,12.4a104.193,104.193,0,0,1,6.26,9.7,76.565,76.565,0,0,0-18.885-2.7s-6.048.8-2.759,2.5c1.91,1,5.093-.5,14.96,1.1a61.3,61.3,0,0,1,7.957,1.9c-.318,1.5.424,5.8-.424,13.6-.849,7.9-3.183,12.6-1.061,14,1.7,1.1,3.926-1.1,5.835-11.3,1.485-8-.424-13.4-2.122-15.7a97.934,97.934,0,0,1,16.445,7.4c-1.273.5.53,5.9-.637,17-.955,9.5-3.926,15.1-1.061,16.9,2.228,1.4,5.3-1.1,7.533-13.3,1.8-9.9-1.061-16.6-3.607-19.3a115.709,115.709,0,0,1,16.551,11.9h0c-1.273,0,.318,4.2-.849,12.1-1.061,6.7-4.032,12.4-1.273,12,4.456-.8,6.366-1.4,7.321-8.1.849-5.9-.531-10.5-2.228-13.2a92.939,92.939,0,0,1,14,16.6c-.743.4,1.061,6.5-.637,13.8-1.591,6.6-5.2,8.2-2.334,10.4C568.165,422.6,572.3,420.5,573.046,411.5Z" transform="translate(-443.712 -131.363)" fill="#fea815"/>
              <g id="Group_366" data-name="Group 366" transform="translate(172.258 30.241)">
                <path id="Path_279" data-name="Path 279" d="M637.527,199.5c-19.946,26.3-29.5,52.7-25.782,55.8,3.5,3,37.665-12.2,59.415-37.3S695.775,174.5,684,166.9C669.675,157.7,657.686,173,637.527,199.5Z" transform="translate(-608.623 -161.604)" fill="#3251b4"/>
                <path id="Path_280" data-name="Path 280" d="M635.327,196.9c-19.946,26.3-29.5,52.7-25.782,55.8,3.5,3,37.665-12.2,59.415-37.3s24.615-43.5,12.838-51.1C667.475,155.1,655.485,170.3,635.327,196.9Z" transform="translate(-608.757 -161.604)" fill="#b3cbf9"/>
                <g id="Group_365" data-name="Group 365" transform="translate(2.91 6.183)">
                  <path id="Path_281" data-name="Path 281" d="M611.5,251s2.546-2.5,6.578-6.7C615.744,246.9,613.516,249.1,611.5,251Z" transform="translate(-611.5 -167.787)" fill="#dfeafe"/>
                  <path id="Path_282" data-name="Path 282" d="M652.406,190c-1.273-4.3-4.668-6.9-3.607-7.1,1.061-.3,4.668,2.7,5.941,6.9a21.4,21.4,0,0,1,1.061,6.9c2.122-2.9,4.244-5.6,6.154-8.2-.637-.7-1.167-3.9-2.122-7.3-1.167-3.9-3.819-6.5-3.077-6.7s3.713,2.6,4.88,6.6a28.621,28.621,0,0,1,1.167,6.4c2.759-3.6,5.2-6.8,7.321-9.4-.424-1-.743-3-1.379-5.1-.955-3.1-3.289-5-2.546-5.2s3.289,2,4.244,5.1a16.121,16.121,0,0,1,.743,3.9c5.093-6.3,7.639-8.4,5.411-2.9a26.581,26.581,0,0,1-2.546,4.9,25.2,25.2,0,0,1,4.138-.2c3.4.1,6.26,2,6.154,2.7s-2.546-1-5.941-1.2c-2.016-.1-4.032,0-5.2,0-1.8,2.9-4.138,6.1-6.79,9.6a29.9,29.9,0,0,1,6.684-.4c4.35.2,7.957,2.2,7.957,2.9s-3.289-1.1-7.639-1.3c-3.4-.1-6.578.1-7.745-.2-1.8,2.4-3.82,4.9-5.941,7.5a30.878,30.878,0,0,1,6.578-.4c4.668.2,8.594,2.9,8.488,3.9,0,1-3.5-1.5-8.17-1.7-3.5-.1-6.9.1-8.276-.2-1.91,2.3-4.032,4.7-6.048,7.1a22.723,22.723,0,0,1,6.26-.5c4.562.2,8.276,3.4,8.276,4.6s-3.4-1.8-7.957-2c-3.713-.1-7.109.3-8.276-.2-2.44,2.7-4.88,5.5-7.321,8.2a20.1,20.1,0,0,1,7.321-.9c4.774.2,8.594,3.6,8.488,4.9,0,1.3-3.5-1.9-8.276-2.1-4.456-.2-8.488.4-8.912-.6-2.334,2.5-4.562,5-6.79,7.4a21.92,21.92,0,0,1,6.79-.6c4.774.2,8.594,3.6,8.488,4.9s-3.5-1.9-8.276-2.1c-4.032-.1-7.851.3-8.7-.3-2.016,2.2-4.032,4.3-5.942,6.3a24.758,24.758,0,0,1,7.533-.5c4.456.2,8.169,2.2,8.169,2.9s-3.4-1.1-7.851-1.3c-4.138-.2-7.957.1-8.488-.4q-3.5,3.6-6.366,6.6a15.7,15.7,0,0,1,5.623-.9c3.4,0,6.048.7,6.048,1.1,0,.3-2.759-.2-6.048-.2-3.077,0-5.623.6-6.048.4-.955.9-1.8,1.8-2.546,2.6.849-.9,1.591-1.8,2.44-2.8-.212-.5-.106-2.9-.637-5.6-.53-3.1-1.591-5.5-1.273-5.6s1.591,2.3,2.122,5.5a14.907,14.907,0,0,1,.106,5.3c1.8-2.1,3.713-4.3,5.729-6.7-.53-1-1.167-4.1-2.122-7.4-1.167-4.1-3.926-6.7-3.183-6.9s3.714,2.7,4.881,6.8a26.847,26.847,0,0,1,1.167,6.4c1.7-2,3.4-4.2,5.2-6.3-1.167-.1-1.485-4-2.652-8-1.273-4.3-5.3-6.7-4.032-7.1s5.729,2.4,7,6.7a16.513,16.513,0,0,1,.743,7.1c2.228-2.8,4.456-5.6,6.684-8.5-1.061-.3-1.379-4.1-2.546-8-1.273-4.3-5.3-6.7-4.032-7.1,1.273-.3,5.729,2.4,7,6.7a16.952,16.952,0,0,1,.849,6.8c2.122-2.8,4.35-5.6,6.472-8.4-.849-.9-1.167-4.1-2.228-7.6-1.273-4.2-5.093-6.5-3.819-6.8s5.411,2.4,6.684,6.5a18.935,18.935,0,0,1,.849,5.9c1.91-2.5,3.713-4.9,5.517-7.3C654,197.4,653.467,193.8,652.406,190Z" transform="translate(-611.134 -167.787)" fill="#dfeafe"/>
                </g>
              </g>
              <g id="Group_368" data-name="Group 368" transform="translate(176.64 29.796)">
                <path id="Path_283" data-name="Path 283" d="M618.306,198.9c5.941,20.2,16.976,35.4,20.583,35,3.5-.5,10.822-22.9,6.366-43.5-4.35-20.5-13.793-29.4-23.978-26.8C609.075,166.6,612.364,178.5,618.306,198.9Z" transform="translate(-612.881 -161.159)" fill="#3251b4"/>
                <path id="Path_284" data-name="Path 284" d="M618.206,196.9c5.941,20.2,16.976,35.4,20.583,35,3.5-.5,10.822-22.9,6.366-43.5-4.35-20.5-13.793-29.4-23.978-26.8C608.975,164.6,612.264,176.5,618.206,196.9Z" transform="translate(-612.887 -161.159)" fill="#b3cbf9"/>
                <g id="Group_367" data-name="Group 367" transform="translate(2.655 4.993)">
                  <path id="Path_285" data-name="Path 285" d="M637.349,230.1s-.318-2.2-.849-5.9A48.376,48.376,0,0,1,637.349,230.1Z" transform="translate(-614.102 -166.152)" fill="#dfeafe"/>
                  <path id="Path_286" data-name="Path 286" d="M622.4,185.7c-3.077-1.1-6.26-.6-5.941-1.2s3.82-1.2,6.9,0a17.538,17.538,0,0,1,4.562,2.3c-.637-2.2-1.273-4.3-1.8-6.3-.743,0-2.865-1-5.3-1.9-2.865-1-5.623-.8-5.411-1.2s3.289-.7,6.154.4a18.181,18.181,0,0,1,4.35,2.1c-.849-2.8-1.485-5.2-2.016-7.3-.743-.2-2.122-.9-3.607-1.4-2.228-.8-4.562-.5-4.244-.9.212-.4,2.759-.8,4.987,0a16.022,16.022,0,0,1,2.652,1.2c-1.273-5-1.273-7,.849-3.8a23.237,23.237,0,0,1,1.7,3.2,14.814,14.814,0,0,1,1.91-2.1c1.7-1.6,4.138-2.2,4.562-1.9s-1.8.8-3.5,2.4c-1.061,1-1.91,1.9-2.546,2.5a63.516,63.516,0,0,1,2.44,7.1,21.67,21.67,0,0,1,2.971-3.3c2.122-2,5.093-2.9,5.517-2.6s-2.228,1.1-4.35,3.1a40.126,40.126,0,0,1-3.819,3.6c.53,1.9,1.061,3.8,1.591,5.9a17.29,17.29,0,0,1,2.865-3.3c2.334-2.2,5.835-2.9,6.366-2.5s-2.546,1.1-4.88,3.2c-1.8,1.6-3.183,3.3-4.032,3.9.424,1.9.849,3.8,1.273,5.8a15.8,15.8,0,0,1,2.652-3.2c2.334-2.1,5.942-2.6,6.684-2.1s-2.653.9-4.987,3c-1.8,1.7-3.183,3.5-4.032,3.8.424,2.3.955,4.5,1.379,6.8a12.57,12.57,0,0,1,2.971-3.9c2.334-2.2,6.154-2.6,6.9-2.1s-2.758.9-5.093,3.1c-2.228,2.1-3.82,4.2-4.562,4,.424,2.1.743,4.2,1.061,6.3a12.29,12.29,0,0,1,2.865-3.5c2.334-2.2,6.154-2.6,6.9-2.1s-2.759.9-5.093,3.1c-2.016,1.9-3.5,3.9-4.35,4,.318,1.9.637,3.6.849,5.3a13.862,13.862,0,0,1,3.289-3.8c2.228-2.1,5.2-3,5.623-2.7s-2.228,1.1-4.456,3.2c-2.122,1.9-3.713,3.9-4.244,3.9.318,2.1.636,4,.849,5.7a11.467,11.467,0,0,1,2.122-3.1c1.591-1.6,3.289-2.6,3.5-2.5s-1.379,1.2-2.971,2.8c-1.485,1.5-2.334,2.9-2.652,3,.106.8.212,1.6.318,2.3-.106-.7-.318-1.5-.424-2.3-.424-.1-1.7-1.1-3.607-2-2.122-1-4.032-1.5-3.926-1.7s2.122.2,4.244,1.2a9.821,9.821,0,0,1,3.183,2.1c-.318-1.7-.743-3.5-1.167-5.4a45.426,45.426,0,0,1-5.3-2c-2.971-1.1-5.835-.8-5.517-1.3.212-.4,3.4-.7,6.366.4a28.48,28.48,0,0,1,4.35,2c-.424-1.6-.849-3.3-1.273-5-.637.5-3.077-.9-6.048-2-3.183-1.1-6.472-.2-6.048-.9.424-.8,4.138-1.8,7.321-.6a13.329,13.329,0,0,1,4.562,2.5c-.53-2.2-1.167-4.4-1.8-6.7-.743.4-3.077-1-5.942-2-3.183-1.1-6.472-.2-6.048-.9s4.138-1.8,7.321-.6a11.545,11.545,0,0,1,4.35,2.4c-.637-2.2-1.273-4.3-1.8-6.5-.849,0-2.971-1.1-5.517-2-3.077-1.1-6.26-.2-5.835-.9s4.032-1.6,7-.5a13.532,13.532,0,0,1,3.926,2c-.531-1.9-1.167-3.8-1.7-5.6C627.6,188,625.268,186.7,622.4,185.7Z" transform="translate(-615.389 -166.152)" fill="#dfeafe"/>
                </g>
              </g>
            </g>
            <g id="Group_370" data-name="Group 370" transform="translate(542.16 175.2)">
              <path id="Path_287" data-name="Path 287" d="M529.4,185.7V402.3H905.941V185.7a10.457,10.457,0,0,0-10.4-10.5H539.8A10.587,10.587,0,0,0,529.4,185.7Z" transform="translate(-509.878 -175.2)" fill="#23399b"/>
              <path id="Path_288" data-name="Path 288" d="M892.926,402.4H541V195.9c0-5.9,5.093-10.7,11.353-10.7H881.574c6.26,0,11.352,4.8,11.352,10.7Z" transform="translate(-509.171 -175.2)" fill="#fff"/>
              <rect id="Rectangle_14" data-name="Rectangle 14" width="412.084" height="10.9" transform="translate(0 227.2)" fill="#608fdf"/>
              <path id="Path_289" data-name="Path 289" d="M515.987,424.9A2.178,2.178,0,0,0,518,426.2H915.975a2.294,2.294,0,0,0,2.016-1.3l5.093-11.6H511Z" transform="translate(-511 -175.2)" fill="#23399b"/>
              <path id="Path_290" data-name="Path 290" d="M665.926,410.1h83.817c2.122,0,3.819-1.3,3.819-2.9v-4.8H662v4.8C662,408.8,663.8,410.1,665.926,410.1Z" transform="translate(-501.792 -175.2)" fill="#101e41"/>
              <path id="Path_291" data-name="Path 291" d="M686.31,408.1h40.317c1.061,0,1.8-.6,1.8-1.4v-2.3H684.4v2.3C684.4,407.5,685.249,408.1,686.31,408.1Z" transform="translate(-500.426 -175.2)" fill="#608fdf"/>
            </g>
            <g id="Group_374" data-name="Group 374" transform="translate(513.727 124.7)">
              <g id="Group_371" data-name="Group 371" transform="translate(32.782 41.3)">
                <path id="Path_292" data-name="Path 292" d="M530.909,167.2l-14.535,95.1L515.1,262l14.642-95.6.212-.4h6.9l16.657,95.8-1.273.3-16.445-94.9Z" transform="translate(-515.1 -166)" fill="#101e41"/>
              </g>
              <g id="Group_372" data-name="Group 372">
                <path id="Path_293" data-name="Path 293" d="M537.679,158a.888.888,0,0,1,.849.8v5a1.93,1.93,0,0,0,2.122,1.9h5.835a7.8,7.8,0,0,0,6.154-3.2.882.882,0,0,1,1.167-.3.78.78,0,0,1,.318,1.1,9.35,9.35,0,0,1-7.533,4H511.049a.8.8,0,1,1,0-1.6h13.474a2.057,2.057,0,0,0,2.122-1.9v-5a.85.85,0,0,1,1.7,0v5a1.96,1.96,0,0,0,2.016,1.9h4.456a1.958,1.958,0,0,0,2.016-1.9v-5A.759.759,0,0,1,537.679,158Z" transform="translate(-482.617 -124.7)" fill="#101e41"/>
                <path id="Path_294" data-name="Path 294" d="M532.584,138v-5.9a3.22,3.22,0,0,0-1.061-2.5h0a3.971,3.971,0,0,0-2.758-1.1h-19.2a1.035,1.035,0,0,1-1.061-1h0a1.033,1.033,0,0,1,1.061-1h19.2a4.233,4.233,0,0,0,2.865-1.1,3.157,3.157,0,0,1,1.91-.7,3.81,3.81,0,0,1,2.122.7,4.15,4.15,0,0,0,2.865,1l19.2-.1a1.035,1.035,0,0,1,1.061,1h0a1.033,1.033,0,0,1-1.061,1l-19.1.1a3.971,3.971,0,0,0-2.759,1.1h0a3.368,3.368,0,0,0-1.061,2.5v5.9h-2.228Z" transform="translate(-482.72 -124.7)" fill="#101e41"/>
                <path id="Path_295" data-name="Path 295" d="M488.126,138.2l2.971,3.9a1.13,1.13,0,0,0,.955.5l20.689.1a4.511,4.511,0,0,0,3.819-2.1c3.077-4.6,10.4-6.9,18.567-6.9,10.716,0,19.946,9.5,19.946,17.1s-1.273,8.6-20.583,8.6c-11.883,0-16.763-.3-18.461-5.5a4.4,4.4,0,0,0-4.244-3l-18.567-.1a1.288,1.288,0,0,0-.955.5l-1.7,2.3a1.131,1.131,0,0,1-.955.5h-1.8a1.08,1.08,0,0,1-.955-1.7l3.077-4.2a.871.871,0,0,0,0-1.2l-5.517-7.4a1.08,1.08,0,0,1,.955-1.7h1.8A.718.718,0,0,1,488.126,138.2Z" transform="translate(-484.202 -124.7)" fill="#23399b"/>
                <path id="Path_296" data-name="Path 296" d="M534.827,137h8.594c5.3,3.5,8.912,8.9,8.912,13.7a12.605,12.605,0,0,1-.636,4.9H540.344a4.036,4.036,0,0,1-3.607-2.1l-5.517-11.1A3.83,3.83,0,0,1,534.827,137Z" transform="translate(-481.356 -124.7)" fill="#101e41"/>
                <path id="Path_297" data-name="Path 297" d="M537.264,139.7h6.154c3.82,2.4,6.366,6.3,6.366,9.6a10.6,10.6,0,0,1-.424,3.5h-8.17a2.855,2.855,0,0,1-2.546-1.5l-3.926-7.9C533.763,141.7,535.142,139.7,537.264,139.7Z" transform="translate(-481.14 -124.7)" fill="#23399b"/>
                <path id="Path_298" data-name="Path 298" d="M524.368,138.9l7.321,14.7a1.472,1.472,0,0,1-1.379,2.1h0a1.369,1.369,0,0,1-1.379-.9l-7.321-14.7a1.472,1.472,0,0,1,1.379-2.1h0A1.788,1.788,0,0,1,524.368,138.9Z" transform="translate(-481.931 -124.7)" fill="#101e41"/>
                <path id="Path_299" data-name="Path 299" d="M524.61,140.8l5.517,11a1.217,1.217,0,0,1-.849,1.7h0a1.023,1.023,0,0,1-.955-.6l-5.517-11a1.217,1.217,0,0,1,.849-1.7h0A.929.929,0,0,1,524.61,140.8Z" transform="translate(-481.854 -124.7)" fill="#23399b"/>
                <ellipse id="Ellipse_1" data-name="Ellipse 1" cx="2.122" cy="2" rx="2.122" ry="2" transform="translate(48.803 0.8)" fill="#23399b"/>
                <ellipse id="Ellipse_2" data-name="Ellipse 2" cx="2.122" cy="2" rx="2.122" ry="2" transform="translate(10.396 20.2)" fill="#101e41"/>
                <ellipse id="Ellipse_3" data-name="Ellipse 3" cx="1.485" cy="1.4" rx="1.485" ry="1.4" transform="translate(11.032 20.8)" fill="#23399b"/>
                <ellipse id="Ellipse_4" data-name="Ellipse 4" cx="2.122" cy="2" rx="2.122" ry="2" transform="translate(17.08 20.2)" fill="#101e41"/>
                <ellipse id="Ellipse_5" data-name="Ellipse 5" cx="2.122" cy="2" rx="2.122" ry="2" transform="translate(23.764 20.2)" fill="#101e41"/>
                <ellipse id="Ellipse_6" data-name="Ellipse 6" cx="1.485" cy="1.4" rx="1.485" ry="1.4" transform="translate(17.716 20.8)" fill="#23399b"/>
                <ellipse id="Ellipse_7" data-name="Ellipse 7" cx="1.485" cy="1.4" rx="1.485" ry="1.4" transform="translate(24.401 20.8)" fill="#23399b"/>
              </g>
              <ellipse id="Ellipse_8" data-name="Ellipse 8" cx="22.068" cy="20.8" rx="22.068" ry="20.8" transform="translate(29.918 123.5)" fill="#fb660a"/>
              <g id="Group_373" data-name="Group 373" transform="translate(31.403 125.3)">
                <path id="Path_300" data-name="Path 300" d="M533.534,266a3.106,3.106,0,0,1,.955-.1,3.5,3.5,0,1,1,0,7,3.59,3.59,0,0,1-3.713-3.5,2.617,2.617,0,0,1,.106-.9L520.7,258.9l-1.7.2-5.2-4.9,3.926-.5.531-3.7,5.2,4.9-.212,1.6Z" transform="translate(-513.8 -250)" fill="#23399b"/>
                <path id="Path_301" data-name="Path 301" d="M533.482,262.7l-2.971-2.8a11.024,11.024,0,0,1,10.928,2.4,9.56,9.56,0,0,1,0,14.1,11.026,11.026,0,0,1-14.96,0,9.551,9.551,0,0,1-2.546-10.3l2.971,2.8a6.462,6.462,0,0,0,2.016,5.1,7.351,7.351,0,0,0,9.973,0,6.373,6.373,0,0,0,0-9.4A7.337,7.337,0,0,0,533.482,262.7Z" transform="translate(-513.217 -250)" fill="#fff"/>
                <path id="Path_302" data-name="Path 302" d="M521.695,263.6a12.639,12.639,0,0,0,2.758,15,14.567,14.567,0,0,0,19.84,0,12.633,12.633,0,0,0,0-18.7,14.641,14.641,0,0,0-15.915-2.6l-2.865-2.7a18.717,18.717,0,0,1,21.538,2.7,16.108,16.108,0,0,1,0,23.8,18.577,18.577,0,0,1-25.251,0,16.141,16.141,0,0,1-2.865-20.3Z" transform="translate(-513.631 -250)" fill="#fff"/>
              </g>
            </g>
            <g id="Group_376" data-name="Group 376" transform="translate(611.548 195.2)">
              <rect id="Rectangle_15" data-name="Rectangle 15" width="164.239" height="6.6" transform="translate(0.743 0.6)" fill="#101e41"/>
              <rect id="Rectangle_16" data-name="Rectangle 16" width="8.806" height="6.6" transform="translate(0.743 15.8)" fill="#608fdf"/>
              <rect id="Rectangle_17" data-name="Rectangle 17" width="31.405" height="6.6" transform="translate(0.743 61.5)" fill="#608fdf"/>
              <rect id="Rectangle_18" data-name="Rectangle 18" width="31.405" height="6.6" transform="translate(39.681 61.5)" fill="#608fdf"/>
              <rect id="Rectangle_19" data-name="Rectangle 19" width="32.89" height="6.6" transform="translate(174.425 92)" fill="#fff"/>
              <rect id="Rectangle_20" data-name="Rectangle 20" width="65.25" height="6.6" transform="translate(215.166 92)" fill="#23399b"/>
              <rect id="Rectangle_21" data-name="Rectangle 21" width="32.89" height="6.6" transform="translate(174.425 137.7)" fill="#608fdf"/>
              <rect id="Rectangle_22" data-name="Rectangle 22" width="65.25" height="6.6" transform="translate(215.166 137.7)" fill="#608fdf"/>
              <rect id="Rectangle_23" data-name="Rectangle 23" width="44.455" height="6.6" transform="translate(174.425 76.8)" fill="#101e41"/>
              <rect id="Rectangle_24" data-name="Rectangle 24" width="20.583" height="6.6" transform="translate(227.474 76.8)" fill="#fff"/>
              <rect id="Rectangle_25" data-name="Rectangle 25" width="23.766" height="6.6" transform="translate(256.65 76.8)" fill="#fff"/>
              <rect id="Rectangle_26" data-name="Rectangle 26" width="7.002" height="6.6" transform="translate(141.322 15.8)" fill="#608fdf"/>
              <rect id="Rectangle_27" data-name="Rectangle 27" width="61.112" height="6.6" transform="translate(18.249 15.8)" fill="#608fdf"/>
              <rect id="Rectangle_28" data-name="Rectangle 28" width="61.112" height="6.6" transform="translate(0.743 31.1)" fill="#23399b"/>
              <rect id="Rectangle_29" data-name="Rectangle 29" width="123.922" height="6.6" transform="translate(0.743 46.3)" fill="#608fdf"/>
              <rect id="Rectangle_30" data-name="Rectangle 30" width="106.098" height="6.6" transform="translate(174.425 61.5)" fill="#23399b"/>
              <rect id="Rectangle_31" data-name="Rectangle 31" width="47.638" height="6.6" transform="translate(100.581 31.1)" fill="#23399b"/>
              <rect id="Rectangle_32" data-name="Rectangle 32" width="20.583" height="6.6" transform="translate(73.526 31.1)" fill="#23399b"/>
              <rect id="Rectangle_33" data-name="Rectangle 33" width="19.628" height="6.6" transform="translate(128.697 46.3)" fill="#fff"/>
              <rect id="Rectangle_34" data-name="Rectangle 34" width="79.573" height="6.6" transform="translate(200.949 107.2)" fill="#608fdf"/>
              <rect id="Rectangle_35" data-name="Rectangle 35" width="16.445" height="6.6" transform="translate(174.425 107.2)" fill="#23399b"/>
              <rect id="Rectangle_36" data-name="Rectangle 36" width="48.699" height="6.6" transform="translate(86.788 15.8)" fill="#608fdf"/>
              <rect id="Rectangle_37" data-name="Rectangle 37" width="148.219" height="6.6" transform="translate(0 158.7)" fill="#101e41"/>
              <rect id="Rectangle_38" data-name="Rectangle 38" width="7.002" height="6.6" transform="translate(141.322 173.9)" fill="#608fdf"/>
              <rect id="Rectangle_39" data-name="Rectangle 39" width="70.767" height="6.6" transform="translate(0 173.9)" fill="#608fdf"/>
              <rect id="Rectangle_40" data-name="Rectangle 40" width="55.171" height="6.6" transform="translate(0 189.2)" fill="#23399b"/>
              <rect id="Rectangle_41" data-name="Rectangle 41" width="74.799" height="6.6" transform="translate(73.526 189.2)" fill="#23399b"/>
              <rect id="Rectangle_42" data-name="Rectangle 42" width="48.699" height="6.6" transform="translate(86.788 173.9)" fill="#608fdf"/>
              <rect id="Rectangle_43" data-name="Rectangle 43" width="9.124" height="6.6" transform="translate(245.935 122.4)" fill="#608fdf"/>
              <rect id="Rectangle_44" data-name="Rectangle 44" width="17.082" height="6.6" transform="translate(263.335 122.4)" fill="#fff"/>
              <rect id="Rectangle_45" data-name="Rectangle 45" width="63.871" height="6.6" transform="translate(174.425 122.4)" fill="#23399b"/>
              <rect id="Rectangle_46" data-name="Rectangle 46" width="106.098" height="41.9" transform="translate(174.425 155.6)" fill="#608fdf"/>
              <ellipse id="Ellipse_9" data-name="Ellipse 9" cx="9.231" cy="8.7" rx="9.231" ry="8.7" transform="translate(181.639 161.3)" fill="#dfeafe"/>
              <g id="Group_375" data-name="Group 375" transform="translate(181.148 160.4)">
                <path id="Path_303" data-name="Path 303" d="M748.689,387.9a2.238,2.238,0,0,1-1.167-.3.865.865,0,0,1,.106-1.5l25.145-15.5,21.432,10.9,26.1-25.9,17.931,18.2c.424.5.318,1.1-.424,1.4a2.049,2.049,0,0,1-2.122-.3L820.2,359.2l-25.357,25.1L772.88,373.2l-23.341,14.4C749.432,387.8,749.008,387.9,748.689,387.9Z" transform="translate(-747.137 -355.6)" fill="#dfeafe"/>
              </g>
              <path id="Path_304" data-name="Path 304" d="M740.2,196.8V247c0,.9.955,1.6,2.228,1.6H844.706c1.273,0,2.228-.7,2.228-1.6V196.8c0-.9-.955-1.6-2.228-1.6H742.428C741.155,195.2,740.2,195.9,740.2,196.8Zm105.037,3.4v43.6c0,1.3-2.016,2-3.5,1.3L797.6,223.3a1.362,1.362,0,0,1,0-2.6l44.137-21.8C843.221,198.1,845.237,198.9,845.237,200.2Zm-52.943,20.4-43.076-21.3c-1.8-.9-.955-2.9,1.273-2.9h86.151c2.228,0,3.077,2,1.273,2.9l-43.076,21.3A2.849,2.849,0,0,1,792.294,220.6Zm-2.865,2.7-44.137,21.8c-1.485.7-3.5,0-3.5-1.3V200.2c0-1.3,2.016-2,3.5-1.3l44.137,21.8C790.7,221.3,790.7,222.6,789.429,223.3Zm5.3,0,43.076,21.3c1.8.9.955,2.9-1.273,2.9H750.385c-2.122,0-3.077-2-1.273-2.9l43.076-21.3A2.849,2.849,0,0,1,794.734,223.3Z" transform="translate(-566.412 -195.2)" fill="#608fdf"/>
              <path id="Path_305" data-name="Path 305" d="M576.4,276.7v64.7a1.542,1.542,0,0,0,1.7,1.4H722.921a1.542,1.542,0,0,0,1.7-1.4V276.7a1.542,1.542,0,0,0-1.7-1.4H578.1A1.538,1.538,0,0,0,576.4,276.7ZM722.391,280v58a1.754,1.754,0,0,1-2.546,1.3l-64.508-29a1.33,1.33,0,0,1,0-2.5l64.508-29C721.011,278.3,722.391,279,722.391,280Zm-72.677,27.7-63.022-28.3c-1.591-.7-.955-2.7.849-2.7H713.584c1.8,0,2.44,2,.849,2.7l-63.022,28.3A1.713,1.713,0,0,1,649.714,307.7Zm-4.032,2.6-64.507,29a1.755,1.755,0,0,1-2.546-1.3V280a1.754,1.754,0,0,1,2.546-1.3l64.507,29A1.362,1.362,0,0,1,645.682,310.3Zm5.729,0,63.022,28.3c1.591.7.955,2.7-.849,2.7H587.54c-1.8,0-2.44-2-.849-2.7l63.022-28.3A1.713,1.713,0,0,1,651.411,310.3Z" transform="translate(-576.4 -195.2)" fill="#608fdf"/>
            </g>
            <g id="Group_380" data-name="Group 380" transform="translate(594.146 260.673)">
              <g id="Group_377" data-name="Group 377" transform="translate(0 40.057)">
                <path id="Path_306" data-name="Path 306" d="M584.084,335.3c-6.048,4.1-19.734,12.2-23.66,3.2-2.44-5.5,6.154-6.2,11.777-7.5,4.138-.9,8.7-3.1,16.763-7.6,1.273-.7,17.824-10.9,20.477-13s1.379-6.5,3.713-7.2,1.8.5,2.334,2c.424,1.5,4.456-1,4.88-2.3.531-1.3,6.048-4.1,5.729-.1s-4.774,8.2-10.292,10.1-17.506,12.5-21.75,15.3C589.071,331.5,586.419,333.7,584.084,335.3Z" transform="translate(-559.999 -300.73)" fill="#d7aa99"/>
              </g>
              <path id="Path_307" data-name="Path 307" d="M576.152,318.2s4.032,10-3.077,13c-7,3,16.445,2.3,16.445,2.3s-3.713-7.3-3.607-11.1C585.913,318.7,582.518,315,576.152,318.2Z" transform="translate(-559.281 -260.673)" fill="#ffc8b7"/>
              <path id="Path_308" data-name="Path 308" d="M567.147,468.4v9.1a6.53,6.53,0,0,0-.637,4.6c.531,2.5.424,6.3,2.547,9.4s7.427,1.2,7.427-1.4-.531-6.7-.743-9.3.212-12.4.212-12.4h-8.806Z" transform="translate(-559.612 -260.673)" fill="#ffc8b7"/>
              <path id="Path_309" data-name="Path 309" d="M602.6,469.6s3.4,6,2.44,8.9c-.955,2.8-1.485,3.5-1.167,5.6.424,2,4.88,7.8,8.382,9.7s6.154,2.7,7.745,2.6c1.7-.1-.743-2.3-.743-2.3l-7-18.6-.637-6.9Z" transform="translate(-557.401 -260.673)" fill="#ffc8b7"/>
              <path id="Path_310" data-name="Path 310" d="M566.034,374.5s-4.562,9.3-4.032,13.1.106,14.4,2.652,25.3,1.591,24.3,1.379,30.2.318,26.7.318,26.7,4.562,4.1,10.928,0c0,0,2.865-19.5,2.865-25.2s2.971-32.7,2.971-37.3c0,0,8.594,23.4,9.018,25.1.424,1.8,10.185,32.7,11.352,36.9l.743,1.7s7.427,1.7,10.4-.2L607.2,427.1s-3.82-25.4-4.669-31.3A78.17,78.17,0,0,0,597.97,377C595.211,370.1,566.034,374.5,566.034,374.5Z" transform="translate(-559.879 -260.673)" fill="#101e41"/>
              <path id="Path_311" data-name="Path 311" d="M562.818,344s3.289,13.9,1.8,23.4-2.334,9.8.318,11,18.567,3.7,28.753,0c10.291-3.7,1.591-14,3.289-28.8.955-9.1,1.485-13.9-5.517-17.9-1.061-.6-6.366-.3-8.17.4s-6.472,1.1-9.337-.4c-2.865-1.6-10.822-.1-11.14,1.5C562.394,334.7,562.394,342,562.818,344Z" transform="translate(-559.846 -260.673)" fill="#dfeafe"/>
              <path id="Path_312" data-name="Path 312" d="M567.174,499.7h10.5s2.546-1.8,1.591-3.4-2.758-3.9-2.865-6.1-1.8-6.4-5.093-6.7-4.138,4.9-4.244,6.2S564.415,496,567.174,499.7Z" transform="translate(-559.639 -260.673)" fill="#23399b"/>
              <path id="Path_313" data-name="Path 313" d="M567.8,499.7l.849-8.6,1.273,8.6Z" transform="translate(-559.523 -260.673)" fill="#101e41"/>
              <path id="Path_314" data-name="Path 314" d="M571.7,499.7l.955-10.3,1.7,10.3Z" transform="translate(-559.285 -260.673)" fill="#101e41"/>
              <path id="Path_315" data-name="Path 315" d="M604.365,482s-2.971,1.6-2.865,3.3,1.379,14.4,1.379,14.4h2.44v-9.4l7.215,9.4h12.1a4.369,4.369,0,0,0-4.032-5.3c-4.987-.6-5.411,1-8.276-2.4s-6.79-9.2-6.79-9.2S604.9,482,604.365,482Z" transform="translate(-557.468 -260.673)" fill="#23399b"/>
              <ellipse id="Ellipse_10" data-name="Ellipse 10" cx="10.291" cy="11.8" rx="10.291" ry="11.8" transform="translate(16.022 39.227)" fill="#ffc8b7"/>
              <path id="Path_316" data-name="Path 316" d="M560.1,300c.424,3.9,3.713,6.7,7.215,6.2a6.911,6.911,0,0,0,5.623-8c-.424-3.9-3.713-6.7-7.215-6.2S559.678,296.1,560.1,300Z" transform="translate(-559.995 -260.673)" fill="#101e41"/>
              <g id="Group_379" data-name="Group 379" transform="translate(30.635)">
                <path id="Path_317" data-name="Path 317" d="M673.568,325.7,594.525,303a7.44,7.44,0,0,1-5.3-9.4l8.912-27.6a8.057,8.057,0,0,1,9.973-5l78.937,22.7a7.44,7.44,0,0,1,5.3,9.4l-8.912,27.6A8.073,8.073,0,0,1,673.568,325.7Z" transform="translate(-588.873 -260.673)" fill="#dfeafe"/>
              </g>
              <path id="Path_322" data-name="Path 322" d="M611.946,343.7c-8.382.3-25.676,2.5-25.145-6.2.318-5.3,8.7-4.5,13.793-3.3,3.819.9,10.822-.6,18.355.9,1.379.3,14.535-16.9,14.96-18.6s-1.061-7.1.318-7.9a1.712,1.712,0,0,1,2.759,1.3c.212,1.3,3.926-1.5,3.82-3.6s4.35-5,5.623-2.4-2.016,10-5.729,12.9-13.156,22.2-15.49,24.3C622.768,343.3,615.447,343.5,611.946,343.7Z" transform="translate(-558.365 -260.673)" fill="#ffc8b7"/>
              <path id="Path_323" data-name="Path 323" d="M582.183,294.6c8.488-.9,15.384-1.2,16.445,6.5.637,4.7-2.971,10.8-7.851,15a4.8,4.8,0,0,0-.636-2.4c-1.485-1.6-2.865-2.7-4.775-2.1a3.581,3.581,0,0,0-2.228,4.4,9.046,9.046,0,0,0,2.334,3.7,12.694,12.694,0,0,1-4.35,1.3c-8.488.9-11.353-3.9-12.414-11.6C567.541,301.8,573.695,295.6,582.183,294.6Z" transform="translate(-559.476 -260.673)" fill="#101e41"/>
              <path id="Path_324" data-name="Path 324" d="M569.487,301.6c-1.273,2.4-2.334,4.3-.637,5s2.652-1.2,3.926-3.6,2.334-4.3.637-5S570.76,299.2,569.487,301.6Z" transform="translate(-559.512 -260.673)" fill="#fff"/>
            </g>
            <g id="Group_384" data-name="Group 384" transform="translate(789.636 190.401)">
              <path id="Path_325" data-name="Path 325" d="M859.575,400.3s4.88,6,9.973,4.2,7.533-1.9,7.109-4.9c-.637-4.8-3.4-3.5-4.881-6.6a77.836,77.836,0,0,0-4.456-7.2l-9.973,2.7a1.006,1.006,0,0,0-.743,1.3Z" transform="translate(-737.407 -190.401)" fill="#23399b"/>
              <path id="Path_326" data-name="Path 326" d="M859.265,399.3s4.35,4.6,9.337,2.9,7.109-1.9,7-4.4-2.44-2.6-3.82-5.1c-1.379-2.6-3.607-6.1-3.607-6.1L856.4,389.5Z" transform="translate(-737.415 -190.401)" fill="#dfeafe"/>
              <path id="Path_327" data-name="Path 327" d="M819.088,400.3s-4.35,6.3-9.655,4.9c-5.2-1.4-7.639-1.4-7.533-4.4.318-4.8,3.077-3.7,4.35-7a50.07,50.07,0,0,1,3.926-7.4l10.079,2a1,1,0,0,1,.849,1.3Z" transform="translate(-740.739 -190.401)" fill="#23399b"/>
              <path id="Path_328" data-name="Path 328" d="M819.245,399.2s-4.032,4.9-9.125,3.6-7.215-1.3-7.321-3.9,2.228-2.7,3.4-5.4,3.077-6.3,3.077-6.3l11.989,2.1Z" transform="translate(-740.684 -190.401)" fill="#dfeafe"/>
              <path id="Path_329" data-name="Path 329" d="M828.553,296.1,808.5,387.7a9.918,9.918,0,0,0,7,4.6c4.774.6,4.987-.2,4.987-.2l22.6-68.7,15.49,65.9s10.716,7.6,13.9-.2l-7.321-94.3Z" transform="translate(-740.336 -190.401)" fill="#3251b4"/>
              <path id="Path_330" data-name="Path 330" d="M841.1,323.4s0-2,.106-4.2c.106-1.2,2.546-4.2,2.546-5.1a56.624,56.624,0,0,0,1.91,12.7,148.975,148.975,0,0,0,5.517,15.9c6.047,15.5,12.52,33,17.4,48.9-.318.2-1.273,2.3-7,.3a23.144,23.144,0,0,1-4.987-2.6Z" transform="translate(-738.348 -190.401)" fill="#23399b"/>
              <path id="Path_331" data-name="Path 331" d="M808.5,387.7l20.052-91.6,6.154-.2a17.037,17.037,0,0,0-.637,1.7c-1.7,5.2-1.91,10.7-2.652,16.1a199.267,199.267,0,0,1-4.88,22c-4.881,18.5-9.655,36.9-14.535,55.4A10.813,10.813,0,0,1,808.5,387.7Z" transform="translate(-740.336 -190.401)" fill="#23399b"/>
              <path id="Path_332" data-name="Path 332" d="M823.686,285.5a3.4,3.4,0,0,1-2.334.9l-3.183.2c-8.7-1.1-2.653-5-2.334-8l8.276-26.8a14.568,14.568,0,0,1,3.183-5.5,16.942,16.942,0,0,1,4.987-3.5H837.9c3.5.3,2.44,4.7,2.122,7.7l-8.488,25.8C831.113,279,827.081,282.5,823.686,285.5Z" transform="translate(-740.031 -190.401)" fill="#3251b4"/>
              <path id="Path_400" data-name="Path 400" d="M12.7-.273C19.748-.4,25.34,6.035,25.192,14.094S19.209,28.786,12.161,28.91-.48,22.6-.331,14.543,5.652-.149,12.7-.273Z" transform="translate(99.177 11.655) rotate(18.772)" fill="#ffc8b7"/>
              <g id="Group_382" data-name="Group 382" transform="translate(0 41.092)">
                <path id="Path_401" data-name="Path 401" d="M0,0,73.8-1.2l-.821,48.252-73.8,1.2Z" transform="matrix(0.956, 0.293, -0.293, 0.956, 15.209, 0)" fill="#608fdf"/>
                <ellipse id="Ellipse_12" data-name="Ellipse 12" cx="8.488" cy="8" rx="8.488" ry="8" transform="translate(17.025 8.806)" fill="#dfeafe"/>
                <g id="Group_381" data-name="Group 381" transform="translate(8.456 26.906)">
                  <path id="Path_333" data-name="Path 333" d="M752.941,273.3a1.071,1.071,0,0,1-.637-.5,1,1,0,0,1,.53-1.3l20.689-8.9,10.716,13.6,24.19-17.8,6.366,19.3a.92.92,0,0,1-.637,1.2,1,1,0,0,1-1.273-.6l-5.517-16.6-23.554,17.2L772.782,265l-19.2,8.3A.7.7,0,0,1,752.941,273.3Z" transform="translate(-752.224 -258.4)" fill="#dfeafe"/>
                </g>
              </g>
              <rect id="Rectangle_48" data-name="Rectangle 48" width="7.957" height="9.5" transform="translate(106.359 38.599)" fill="#ffc8b7"/>
              <path id="Path_334" data-name="Path 334" d="M862.306,285.2V261.3c0-9.1-.424-16-2.759-19.3a3.968,3.968,0,0,0-2.44-2.2c-3.4-1.3-3.4-3.8-3.4-3.8-2.865,1.5-7.957-.5-7.957-.5-.849,4.3-7.957,5.1-7.957,5.1v.1a14.62,14.62,0,0,0-2.865.6c-11.777,3.3-7.321,12.1-7,20.3l-1.485,20.2c0,9.1-7.109,24,2.546,24l11.034-.2c9.443,0,17.93,1.6,24.509-3.3C866.974,300.5,862.73,292.5,862.306,285.2Z" transform="translate(-739.395 -190.401)" fill="#fff"/>
              <path id="Path_335" data-name="Path 335" d="M860.541,261.3v-2c-7.639,14.7-9.231,30.5-6.26,46.2,3.077-.4,6.366-1,8.912-2.9,2.334-1.7-2.228-10.1-2.652-17.4Z" transform="translate(-737.63 -190.401)" fill="#b3cbf9"/>
              <path id="Path_336" data-name="Path 336" d="M852.233,246.3c.955-2.5,2.228-4.9,3.289-7.3a4.32,4.32,0,0,1-1.8-3c-2.971,1.4-7.957-.5-7.957-.5-.849,4.3-8.063,5.1-8.063,5.1v.1a14.62,14.62,0,0,0-2.865.6c-11.777,3.3-7.321,12.1-7,20.3l-1.485,20.2c0,9.1-7.108,24,2.546,24l11.034-.2h2.016c1.7-6.5,1.485-13.3,1.8-20A119.943,119.943,0,0,1,852.233,246.3Z" transform="translate(-739.402 -190.401)" fill="#fff"/>
              <g id="Group_383" data-name="Group 383" transform="translate(45.008 51.895)">
                <path id="Path_337" data-name="Path 337" d="M824.637,286.4l-1.167-2c-2.652-2.1-.424-6.1,1.8-8.6l25.251-23.4c2.228-2.5,7.109-11.9,9.761-9.8l3.926,3.1c2.652,2.1-.849,9.3-3.077,11.8l-22.811,22.3C836.1,282.4,827.4,288.5,824.637,286.4Z" transform="translate(-784.504 -242.297)" fill="#b3cbf9"/>
                <path id="Path_338" data-name="Path 338" d="M801.555,277.8c-.318-1.1-2.016-1.6-4.138-2.7-2.122-1.2-1.8-3.5-3.289-4.5-1.485-.9-3.607-3-5.623-1.8-1.91,1.2-3.4,5.7,1.273,7.1,4.562,1.4,3.819,3.3,5.2,4s5.411,0,5.411,0Z" transform="translate(-786.674 -242.297)" fill="#ffc8b7"/>
                <path id="Path_339" data-name="Path 339" d="M800.517,276.6s-2.865,1.7-1.8,3.6,24.933,7.6,28.116,7.1c7.109-1.3,10.4-4.1,7.109-7.4-4.668-4.6-11.459-1.4-14.748-1C815.8,279.3,801.366,277.4,800.517,276.6Z" transform="translate(-785.955 -242.297)" fill="#b3cbf9"/>
              </g>
              <path id="Path_340" data-name="Path 340" d="M848.828,227s-5.093,3.3-10.61,2.7c-3.82-.5-5.517-5.3-5.517-5.3l-4.88,10.7a3.954,3.954,0,0,0,2.334,5.4c2.865,1.1,6.684,2.1,9.443,1.3a14.2,14.2,0,0,0,7-4.1S851.905,230.5,848.828,227Z" transform="translate(-739.18 -190.401)" fill="#23399b"/>
              <path id="Path_341" data-name="Path 341" d="M852.026,224.4s2.228-1.3,1.91-2.4-1.167-3.8.849-4.4c2.016-.7,3.5,1.3,2.652,3.5,0,0,0,1.7,1.8.2,1.8-1.6,8.382-7.2,5.3-13.3s-10.079-3.2-14.111-4.6-9.018-2.4-9.018-7.4-8.806-6.5-11.034-5.1-5.2,6.1-4.88,10.4c.743,10.2,5.729,12.1,11.671,14,5.941,2,10.185.8,12.1,2.8C851.177,220,852.026,224.4,852.026,224.4Z" transform="translate(-739.301 -190.401)" fill="#23399b"/>
            </g>
            <g id="Group_385" data-name="Group 385" transform="translate(526.882 424.8)">
              <path id="Path_342" data-name="Path 342" d="M526.038,440l1.485-1.4a13.758,13.758,0,0,1,9.443-3.7h1.273a13.317,13.317,0,0,0,12.519-8.2l.743-1.9v6a24.891,24.891,0,0,1-7.851,17.9l-.424.4a27.854,27.854,0,0,1-18.992,7.4H521.9V449a13.851,13.851,0,0,1,4.138-9Z" transform="translate(-495.057 -424.8)" fill="#608fdf"/>
              <path id="Path_343" data-name="Path 343" d="M522.1,450h1.379c13.368,0,24.084-7.6,24.084-17.1a7.135,7.135,0,0,0-.106-1.5,13.719,13.719,0,0,1-9.23,3.4h-1.273a13.383,13.383,0,0,0-9.443,3.7l-1.485,1.4a12.214,12.214,0,0,0-3.926,8.9V450Z" transform="translate(-495.045 -424.8)" fill="#fff"/>
              <path id="Path_344" data-name="Path 344" d="M537.36,441.2a1.184,1.184,0,0,0-.955.4l-3.077,2.9v-3.3h-2.652V447L513.7,463l1.91,1.8L538,443.7h6.154v-2.5h-6.79Z" transform="translate(-495.557 -424.8)" fill="#101e41"/>
              <path id="Path_345" data-name="Path 345" d="M499.4,462.7h34.8v5.1H499.4Z" transform="translate(-496.429 -424.8)" fill="#23399b"/>
              <path id="Path_346" data-name="Path 346" d="M537.342,483.7c0-3.9-2.122-7.5-5.623-10.2v-5.8h-29.5v5.8c-3.5,2.6-5.623,6.2-5.623,10.2s2.122,7.6,5.729,10.2h-.106v5.8h29.5V494h-.106C535.114,491.3,537.342,487.7,537.342,483.7Z" transform="translate(-496.6 -424.8)" fill="#608fdf"/>
            </g>
            <g id="Group_386" data-name="Group 386" transform="translate(704.171 466.7)">
              <path id="Path_347" data-name="Path 347" d="M693.728,491.2l-14.96,6.4-13.368-9,1.591-15.5,15.066-6.4,13.368,9.1Z" transform="translate(-663.596 -466.7)" fill="#608fdf"/>
              <path id="Path_348" data-name="Path 348" d="M667.732,474,663.7,485l8.7,8.9,7.533-9.9Z" transform="translate(-663.7 -466.7)" fill="#fff"/>
              <path id="Path_349" data-name="Path 349" d="M680.3,469.2h11.883V479H682.74l.424-3.6-2.865-2.2Z" transform="translate(-662.688 -466.7)" fill="#fff"/>
              <path id="Path_350" data-name="Path 350" d="M676.1,475.9l11.989,1.8,1.485,14.3Z" transform="translate(-662.944 -466.7)" fill="#23399b"/>
              <path id="Path_351" data-name="Path 351" d="M674.2,494.9l6.047-3.3.955,5.6Z" transform="translate(-663.06 -466.7)" fill="#dfeafe"/>
              <path id="Path_352" data-name="Path 352" d="M683.74,490.2l1.7-3.1,2.334,1.5,3.077,2.9-3.077,3.1H681.3v-3.1Z" transform="translate(-662.627 -466.7)" fill="#fff"/>
              <path id="Path_353" data-name="Path 353" d="M691.25,483.7h3.5v3.9l-4.987,1.4-1.061-4.1-1.8-2.9,3.926-.8Z" transform="translate(-662.285 -466.7)" fill="#c0d1ff"/>
              <path id="Path_354" data-name="Path 354" d="M674.667,472.3V468l2.971.8.637,3.5-4.774,2.5Z" transform="translate(-663.103 -466.7)" fill="#c0d1ff"/>
              <path id="Path_355" data-name="Path 355" d="M671.3,484h12.413l-4.35,9.9Z" transform="translate(-663.236 -466.7)" fill="#23399b"/>
              <path id="Path_356" data-name="Path 356" d="M669.8,478.1l2.228-8,4.987,5.1-.955,1.6-4.032-1.1Z" transform="translate(-663.328 -466.7)" fill="#23399b"/>
            </g>
            <g id="Group_387" data-name="Group 387" transform="translate(731.226 445.7)">
              <path id="Path_357" data-name="Path 357" d="M711.48,497.4,689.2,482l2.971-25.8,25.251-10.5L739.6,461.1l-2.971,25.8Z" transform="translate(-689.2 -445.7)" fill="#608fdf"/>
              <path id="Path_358" data-name="Path 358" d="M716.555,447.4l-20.265,3.4-6.79,19.3,21.644,2.2Z" transform="translate(-689.182 -445.7)" fill="#c0d1ff"/>
              <path id="Path_359" data-name="Path 359" d="M733.144,462l9.761,16.2-14.96,8.1L720.2,473.4l5.729-2.4,1.167-5.8Z" transform="translate(-687.31 -445.7)" fill="#fff"/>
              <path id="Path_360" data-name="Path 360" d="M720.1,461.5l7,17.8-20.9,13.8Z" transform="translate(-688.164 -445.7)" fill="#23399b"/>
              <path id="Path_361" data-name="Path 361" d="M690.1,474.3l10.079,5.5-7.957,6Z" transform="translate(-689.145 -445.7)" fill="#fff"/>
              <path id="Path_362" data-name="Path 362" d="M705.106,484l6.26-.2-.53,4.5-1.8,6.6-7.321-1.7-5.411-8.8,4.88-2.6Z" transform="translate(-688.767 -445.7)" fill="#c0d1ff"/>
              <path id="Path_363" data-name="Path 363" d="M720.737,489.6l2.865,4.7-6.048,3.2-6.154-5.6,5.411-5,2.971-4.7,4.456,4.7Z" transform="translate(-687.846 -445.7)" fill="#c0d1ff"/>
              <path id="Path_364" data-name="Path 364" d="M723.475,456.1l6.684-3.5,1.379,4.8-4.987,3.8-7.851-4.5Z" transform="translate(-687.401 -445.7)" fill="#c0d1ff"/>
              <path id="Path_365" data-name="Path 365" d="M704,461l10.291,17L695.3,480.3Z" transform="translate(-688.828 -445.7)" fill="#23399b"/>
              <path id="Path_366" data-name="Path 366" d="M710.9,454l14.111-3.5-3.82,11h-3.183l-1.592-6.4Z" transform="translate(-687.877 -445.7)" fill="#23399b"/>
            </g>
            <g id="Group_392" data-name="Group 392" transform="translate(849.1 389.3)">
              <g id="Group_388" data-name="Group 388" transform="translate(0.424)">
                <path id="Path_367" data-name="Path 367" d="M847.012,427.1l-23.129,9.8L803.3,423l2.546-23.8,23.129-9.9,20.583,14Z" transform="translate(-800.541 -389.3)" fill="#fff"/>
                <path id="Path_368" data-name="Path 368" d="M806.96,400.6l-6.26,16.8,13.368,13.8,11.671-15.3Z" transform="translate(-800.7 -389.3)" fill="#dfeafe"/>
                <path id="Path_369" data-name="Path 369" d="M826.3,393.2h18.249v15H830.12l.531-5.5-4.35-3.4Z" transform="translate(-799.139 -389.3)" fill="#dfeafe"/>
                <path id="Path_370" data-name="Path 370" d="M819.9,403.5l18.355,2.8,2.228,22Z" transform="translate(-799.529 -389.3)" fill="#c0d1ff"/>
                <path id="Path_371" data-name="Path 371" d="M816.9,432.7l9.23-5.1,1.485,8.7Z" transform="translate(-799.712 -389.3)" fill="#dfeafe"/>
                <path id="Path_372" data-name="Path 372" d="M831.513,425.5l2.653-4.9,3.607,2.5,4.774,4.3-4.774,4.8H827.8v-4.8Z" transform="translate(-799.047 -389.3)" fill="#dfeafe"/>
                <path id="Path_373" data-name="Path 373" d="M843.184,415.5h5.3v6l-7.533,2.1-1.8-6.3-2.653-4.5,6.048-1.2Z" transform="translate(-798.517 -389.3)" fill="#dfeafe"/>
                <path id="Path_374" data-name="Path 374" d="M817.5,397.9v-6.7l4.774,1.2.955,5.5-7.427,3.9Z" transform="translate(-799.779 -389.3)" fill="#dfeafe"/>
                <path id="Path_375" data-name="Path 375" d="M812.4,415.9h19.1l-6.684,15.3Z" transform="translate(-799.987 -389.3)" fill="#c0d1ff"/>
                <path id="Path_376" data-name="Path 376" d="M810.1,406.8l3.4-12.2,7.745,7.8-1.591,2.5-6.154-1.8Z" transform="translate(-800.127 -389.3)" fill="#c0d1ff"/>
              </g>
              <g id="Group_389" data-name="Group 389" transform="translate(34.588 26.6)">
                <path id="Path_377" data-name="Path 377" d="M885.348,458.7l-26.206,11.1L835.8,454l2.865-27,26.206-11.1,23.342,15.8Z" transform="translate(-832.723 -415.9)" fill="#fff"/>
                <path id="Path_378" data-name="Path 378" d="M840.009,428.6,832.9,447.7l15.066,15.7L861.228,446Z" transform="translate(-832.9 -415.9)" fill="#dfeafe"/>
                <path id="Path_379" data-name="Path 379" d="M861.8,420.3h20.689v16.9H866.15l.743-6.1-5.093-3.9Z" transform="translate(-831.138 -415.9)" fill="#dfeafe"/>
                <path id="Path_380" data-name="Path 380" d="M854.6,432l20.8,3.1,2.546,24.9Z" transform="translate(-831.577 -415.9)" fill="#c0d1ff"/>
                <path id="Path_381" data-name="Path 381" d="M851.3,465l10.4-5.8,1.7,9.9Z" transform="translate(-831.778 -415.9)" fill="#dfeafe"/>
                <path id="Path_382" data-name="Path 382" d="M867.738,456.9l2.971-5.5,4.138,2.7,5.411,5-5.411,5.4H863.6v-5.4Z" transform="translate(-831.028 -415.9)" fill="#dfeafe"/>
                <path id="Path_383" data-name="Path 383" d="M881.039,445.5h6.048v6.8l-8.594,2.4-2.016-7.2-3.077-5,6.9-1.4Z" transform="translate(-830.431 -415.9)" fill="#dfeafe"/>
                <path id="Path_384" data-name="Path 384" d="M851.916,425.6v-7.5l5.411,1.3,1.061,6.2L849.9,430Z" transform="translate(-831.863 -415.9)" fill="#dfeafe"/>
                <path id="Path_385" data-name="Path 385" d="M846.1,446h21.644l-7.533,17.4Z" transform="translate(-832.095 -415.9)" fill="#c0d1ff"/>
                <path id="Path_386" data-name="Path 386" d="M843.5,435.7l3.926-13.9,8.7,8.9-1.7,2.8-7-2Z" transform="translate(-832.254 -415.9)" fill="#c0d1ff"/>
              </g>
              <g id="Group_390" data-name="Group 390" transform="translate(2.971 45.6)">
                <path id="Path_387" data-name="Path 387" d="M837.042,462.6l-16.976,7.2L805,459.6l1.8-17.5,16.976-7.2,15.066,10.3Z" transform="translate(-802.984 -434.9)" fill="#fff"/>
                <path id="Path_388" data-name="Path 388" d="M807.662,443.2,803.1,455.5l9.761,10.1,8.594-11.2Z" transform="translate(-803.1 -434.9)" fill="#dfeafe"/>
                <path id="Path_389" data-name="Path 389" d="M821.8,437.7h13.368v11h-10.61l.424-3.9-3.183-2.6Z" transform="translate(-801.96 -434.9)" fill="#dfeafe"/>
                <path id="Path_390" data-name="Path 390" d="M817.1,445.3l13.474,2.1,1.591,16.1Z" transform="translate(-802.246 -434.9)" fill="#c0d1ff"/>
                <path id="Path_391" data-name="Path 391" d="M815,466.7l6.684-3.7,1.167,6.3Z" transform="translate(-802.375 -434.9)" fill="#dfeafe"/>
                <path id="Path_392" data-name="Path 392" d="M825.659,461.5l1.91-3.6,2.652,1.8,3.5,3.2-3.5,3.5H822.9v-3.5Z" transform="translate(-801.893 -434.9)" fill="#dfeafe"/>
                <path id="Path_393" data-name="Path 393" d="M834.181,454.1h3.925v4.4l-5.517,1.5-1.379-4.6-1.91-3.2,4.456-.9Z" transform="translate(-801.502 -434.9)" fill="#dfeafe"/>
                <path id="Path_394" data-name="Path 394" d="M815.373,441.2v-4.9l3.5.9.637,4-5.411,2.9Z" transform="translate(-802.429 -434.9)" fill="#dfeafe"/>
                <path id="Path_395" data-name="Path 395" d="M811.6,454.4h14.005l-4.881,11.2Z" transform="translate(-802.582 -434.9)" fill="#c0d1ff"/>
                <path id="Path_396" data-name="Path 396" d="M809.9,447.7l2.546-8.9,5.623,5.7-1.061,1.8-4.562-1.3Z" transform="translate(-802.685 -434.9)" fill="#c0d1ff"/>
              </g>
              <g id="Group_391" data-name="Group 391" transform="translate(0 5.6)">
                <ellipse id="Ellipse_13" data-name="Ellipse 13" cx="7.639" cy="7.2" rx="7.639" ry="7.2" transform="translate(66.842 88.4)" fill="#fb660a"/>
                <ellipse id="Ellipse_14" data-name="Ellipse 14" cx="7.639" cy="7.2" rx="7.639" ry="7.2" transform="translate(21.007 88.4)" fill="#fb660a"/>
                <path id="Path_397" data-name="Path 397" d="M800.3,468.8V414.7h91.775v-18a1.85,1.85,0,0,1,1.91-1.8h9.549a1.8,1.8,0,1,1,0,3.6h-7.639v82.9a1.85,1.85,0,0,1-1.91,1.8H811.759a1.8,1.8,0,1,1,0-3.6h80.316V468.8H800.3Zm91.669-50.4H880.51v46.8h11.459Zm-57.293,46.8h11.459V418.4H834.676Zm-3.82-46.8H819.4v46.8h11.459Zm19.1,46.8h11.458V418.4H849.954Zm15.278,0H876.69V418.4H865.232Zm-61.112,0h11.458V418.4H804.12Z" transform="translate(-800.3 -394.9)" fill="#101e41"/>
                <path id="Path_398" data-name="Path 398" d="M827.532,492.9h0a2.464,2.464,0,0,0,2.44-1.9l1.7-7.8H823.5l1.7,7.8A2.267,2.267,0,0,0,827.532,492.9Z" transform="translate(-798.885 -394.9)" fill="#101e41"/>
                <path id="Path_399" data-name="Path 399" d="M870.732,492.9h0a2.464,2.464,0,0,0,2.44-1.9l1.7-7.8H866.7l1.7,7.8A2.267,2.267,0,0,0,870.732,492.9Z" transform="translate(-796.251 -394.9)" fill="#101e41"/>
              </g>
            </g>
          </g>
        </g>
      </g>
    </g>
  </g>
</svg>
