<svg id="Group_505" data-name="Group 505" xmlns="http://www.w3.org/2000/svg" width="100.9" height="52.9" viewBox="0 0 100.9 52.9">
  <g id="Group_501" data-name="Group 501" transform="translate(87.4 6.9)">
    <path id="Path_1177" data-name="Path 1177" d="M930.9,467h0c-1,0-1.7.2-1.7.5l2.9,45c0,.3.8.5,1.7.5s1.7-.2,1.7-.5l-2.9-45C932.6,467.2,931.8,467,930.9,467Z" transform="translate(-929.2 -467)" fill="#fb660a"/>
  </g>
  <g id="Group_502" data-name="Group 502" transform="translate(5.9 6.9)">
    <path id="Path_1178" data-name="Path 1178" d="M852.3,467h0c1,0,1.7.2,1.7.5l-2.9,45c0,.3-.8.5-1.7.5s-1.7-.2-1.7-.5l2.9-45C850.6,467.2,851.4,467,852.3,467Z" transform="translate(-847.7 -467)" fill="#fb660a"/>
  </g>
  <g id="Group_503" data-name="Group 503" transform="translate(15.7 3)">
    <path id="Path_1179" data-name="Path 1179" d="M862.1,463.1h0c1,0,1.7.2,1.7.5l-2.9,37.5c0,.2-.8.4-1.7.4s-1.7-.2-1.7-.5l2.9-37.5C860.4,463.3,861.2,463.1,862.1,463.1Z" transform="translate(-857.5 -463.1)" fill="#fb660a"/>
  </g>
  <g id="Group_504" data-name="Group 504" transform="translate(77.2 3)">
    <path id="Path_1180" data-name="Path 1180" d="M920.7,463.1h0c-1,0-1.7.2-1.7.5l2.9,37.5c0,.2.8.4,1.7.4s1.7-.2,1.7-.5l-2.9-37.5C922.4,463.3,921.6,463.1,920.7,463.1Z" transform="translate(-919 -463.1)" fill="#fb660a"/>
  </g>
  <path id="Path_1181" data-name="Path 1181" d="M935.8,460.1H848.7a6.914,6.914,0,0,0-6.9,6.9v.5a6.914,6.914,0,0,0,6.9,6.9h87.1a6.914,6.914,0,0,0,6.9-6.9V467A7.046,7.046,0,0,0,935.8,460.1Z" transform="translate(-841.8 -460.1)" fill="#101e41"/>
</svg>
