<svg id="Group_529" data-name="Group 529" xmlns="http://www.w3.org/2000/svg" width="117.429" height="246.15" viewBox="0 0 117.429 246.15">
  <path id="Path_1227" data-name="Path 1227" d="M909.3,249.2s-4.5,11.9,3.4,15.4-18.3,2.8-18.3,2.8,4.2-8.6,4.1-13.1S902.2,245.3,909.3,249.2Z" transform="translate(-821.62 -218.15)" fill="#ffc8b7"/>
  <path id="Path_1228" data-name="Path 1228" d="M919.7,427.2V438a8.363,8.363,0,0,1,.7,5.5c-.6,2.9-.4,7.4-2.8,11.1s-8.3,1.4-8.3-1.7.6-8,.8-11.1-.2-14.6-.2-14.6h9.8Z" transform="translate(-821.62 -218.15)" fill="#ffc8b7"/>
  <path id="Path_1229" data-name="Path 1229" d="M877.7,428.5s-3.8,7.1-2.7,10.5c1,3.4,1.7,4.2,1.3,6.6s-5.5,9.2-9.4,11.4-6.8,3.1-8.7,3,.8-2.7.8-2.7l7.9-22,.7-8.2Z" transform="translate(-821.62 -218.15)" fill="#ffc8b7"/>
  <path id="Path_1230" data-name="Path 1230" d="M936.7,291.1c-2.6-8.9-6.4-28.1-16-24.3-5.8,2.3-2,10.9,1.2,15.9,2.3,3.7,3.2,11.7,7.6,19,.8,1.4-13.7,21.8-15.5,22.9-1.8,1.2-8.4,1.6-8.7,3.3a1.909,1.909,0,0,0,2.4,2.4c1.6-.3-.2,4.8-2.7,5.4-2.5.7-4,6.5-.6,6.9s10.5-5.9,12.4-11,20.2-22.3,21.7-25.7C940.1,302.6,937.8,294.8,936.7,291.1Z" transform="translate(-821.62 -218.15)" fill="#ffc8b7"/>
  <path id="Path_1231" data-name="Path 1231" d="M921.3,315.8s5.1,11,4.5,15.5-.1,17.1-3,30-1.8,28.8-1.5,35.8-.4,31.6-.4,31.6-5.1,4.8-12.3,0c0,0-3.1-23.1-3.1-29.9s-3.4-38.7-3.4-44.2c0,0-9.7,27.7-10.1,29.8s-11.3,38.7-12.7,43.8l-.8,2s-8.3,2-11.6-.2l8.3-51.7s4.3-30.1,5.2-37.1a92.3,92.3,0,0,1,5.1-22.2C888.6,310.7,921.3,315.8,921.3,315.8Z" transform="translate(-821.62 -218.15)" fill="#101e41"/>
  <path id="Path_1232" data-name="Path 1232" d="M924.9,279.8s-3.6,16.5-2,27.7c1.6,11.3,2.6,11.7-.4,13.1s-20.7,4.4-32.2,0-1.8-16.6-3.6-34.2c-1.1-10.8-1.7-16.4,6.1-21.2,1.2-.7,7.1-.3,9.1.5s7.2,1.4,10.5-.5c3.2-1.9,12.1-.1,12.5,1.7A69.4,69.4,0,0,1,924.9,279.8Z" transform="translate(-821.62 -218.15)" fill="#fff"/>
  <path id="Path_1233" data-name="Path 1233" d="M919.7,464.2H907.9s-2.8-2.2-1.8-4.1,3-4.6,3.1-7.2,2.1-7.6,5.6-8,4.6,5.8,4.7,7.3C919.8,453.8,922.8,459.9,919.7,464.2Z" transform="translate(-821.62 -218.15)" fill="#23399b"/>
  <path id="Path_1234" data-name="Path 1234" d="M918.9,464.2l-1-10.1-1.3,10.1Z" transform="translate(-821.62 -218.15)" fill="#101e41"/>
  <path id="Path_1235" data-name="Path 1235" d="M914.3,464.2l-1.1-12.1-1.9,12.1Z" transform="translate(-821.62 -218.15)" fill="#101e41"/>
  <path id="Path_1236" data-name="Path 1236" d="M875.7,443.3s3.3,1.9,3.2,3.9-1.6,17.1-1.6,17.1h-2.7V453.2l-8.1,11.1H853s-1.1-5.5,4.5-6.2,6,1.2,9.2-2.8,7.6-10.9,7.6-10.9S875.1,443.3,875.7,443.3Z" transform="translate(-821.62 -218.15)" fill="#23399b"/>
  <ellipse id="Ellipse_47" data-name="Ellipse 47" cx="11.4" cy="14" rx="11.4" ry="14" transform="translate(65.78 9.25)" fill="#ffc8b7"/>
  <path id="Path_1237" data-name="Path 1237" d="M928,227.6c-.5,4.6-4.1,7.9-8.1,7.4-4-.6-6.8-4.8-6.3-9.4s4.1-7.9,8.1-7.4C925.7,218.8,928.5,223,928,227.6Z" transform="translate(-821.62 -218.15)" fill="#fb660a"/>
  <path id="Path_1238" data-name="Path 1238" d="M902.8,221.3c-9.5-1.1-17.2-1.4-18.4,7.7-.7,5.6,3.3,12.8,8.7,17.8.2-.9.1-2,.8-2.8,1.7-1.9,3.2-3.2,5.4-2.5s3,3.1,2.5,5.2a13.342,13.342,0,0,1-2.5,4.4,15.624,15.624,0,0,0,4.9,1.6c9.5,1.1,12.7-4.6,13.8-13.7S912.3,222.4,902.8,221.3Z" transform="translate(-821.62 -218.15)" fill="#fb660a"/>
  <path id="Path_1239" data-name="Path 1239" d="M917,229.5c1.4,2.8,2.6,5.1.7,6s-3-1.4-4.4-4.2-2.6-5.1-.7-6S915.6,226.6,917,229.5Z" transform="translate(-821.62 -218.15)" fill="#3251b4"/>
  <path id="Path_1240" data-name="Path 1240" d="M882.7,297.5c5.9-7.2,19.5-21.2,11-26.9-5.2-3.5-10.1,4.5-12.4,10-1.7,4-7.8,9.3-11.4,17-.7,1.5-25.7,1-27.7.1-2-.8-6.1-6-7.7-5.3a1.856,1.856,0,0,0-.6,3.3c1.2,1.1-4.1,2.5-6,.8s-7.6.4-6,3.4,10.8,5.3,16.1,4c5.2-1.3,29.8,4,33.5,3.4C875.1,306.8,880.2,300.5,882.7,297.5Z" transform="translate(-821.62 -218.15)" fill="#ffc8b7"/>
</svg>
