<svg id="Group_530" data-name="Group 530" xmlns="http://www.w3.org/2000/svg" width="90.16" height="141.132" viewBox="0 0 90.16 141.132">
  <path id="Path_1241" data-name="Path 1241" d="M562.1,416.8c5.9,4,16.6,4.4,19.6,1.3s0-8.3-2.2-8.2-3.6-2.6-2.7-4,6.1-3.6,6.1-7-4.9-4.4-4.9-6.6c0-2.3,4.9-3.5,4.9-7.3,0-3.9-4.1-9.3-11.3-8.8,0,0,3.5-6.7.9-10.7s-8-4.5-9.6-2.7c0,0-5.7-7.4-14.6-6.8s-20.2,4-20.4,10,7,12.5,6.5,16.5c-.5,4.1-6.5,8.3-13.6,8s-13.7,3.7-13.7,7.4,2.8,7.6,5.7,8.3c0,0-7.5,2.1-7.4,6.9s3.6,9.7,12.7,8.8,25.1-8.7,30.9-8.7C554.7,413.2,562.1,416.8,562.1,416.8Z" transform="translate(-504.248 -355.965)" fill="#fb660a"/>
  <path id="Path_1242" data-name="Path 1242" d="M546.1,481.2h6.4a24.925,24.925,0,0,0,24.8-24.8V435.3c0-13.6.4-24.8-24.8-24.8h-6.4c-24.2-.9-24.8,11.2-24.8,24.8v21.1A24.8,24.8,0,0,0,546.1,481.2Z" transform="translate(-504.248 -355.965)" fill="#fff"/>
  <path id="Path_1243" data-name="Path 1243" d="M573.2,482.5c2.8-.1,7,1.7,8.2,2,.6.1,8.5,2.8,7.4,7.8-1.2,5.2-2.2,4.4-5.8,4.7s-4.2-.1-8.3-1.1a52.227,52.227,0,0,1-5.4-1.5c-.1,0-.1-.1-.1-.2l1.2-11.8c0-.1.1-.1.2-.1Z" transform="translate(-504.248 -355.965)" fill="#101e41"/>
  <path id="Path_1244" data-name="Path 1244" d="M568.4,480.9s4.1,1.5,5.2,1.7c.6.1,8.5,2.8,7.4,7.8-1.2,5.2-2.2,4.4-5.8,4.7-3.7.2-4.2-.1-8.3-1.1a52.227,52.227,0,0,1-5.4-1.5c-.1,0-.1-.1-.1-.2l1.2-11.8c0-.1.1-.1.2-.1Z" transform="translate(-504.248 -355.965)" fill="#fff"/>
  <path id="Path_1245" data-name="Path 1245" d="M528.1,481c-2.8-.2-7,1.5-8.3,1.7-.6.1-8.6,2.5-7.6,7.5,1,5.2,2,4.5,5.7,4.8,3.7.4,4.2.1,8.3-.8,3.7-.8,4.6-1.1,5.5-1.3.1,0,.1-.1.1-.2L531,481c0-.1-.1-.1-.2-.1Z" transform="translate(-504.248 -355.965)" fill="#101e41"/>
  <path id="Path_1246" data-name="Path 1246" d="M532.9,479.5a42.773,42.773,0,0,1-5.3,1.5c-.6.1-8.6,2.5-7.6,7.5,1,5.2,2,4.5,5.7,4.8,3.7.4,4.2.1,8.3-.8,3.7-.8,4.6-1.1,5.5-1.3.1,0,.1-.1.1-.2l-.8-11.8c0-.1-.1-.1-.2-.1Z" transform="translate(-504.248 -355.965)" fill="#fff"/>
  <path id="Path_1247" data-name="Path 1247" d="M526.5,482.6a2.745,2.745,0,0,1,1.7-2.4,25.588,25.588,0,0,1,5.7-1.5c4.2-.5,8.5,9.8,8.1,10.8s-3.8,1.8-8.1,2c-4.4.2-8-1.5-7.7-4C526.3,486.1,526.5,484,526.5,482.6Z" transform="translate(-504.248 -355.965)" fill="#23399b"/>
  <path id="Path_1248" data-name="Path 1248" d="M594,465.4c2.7,10.1-11.9,14.1-30,19.1-18,5-32.8,9.1-35.4-1-2.6-10.2,11.9-14.1,30-19.1C576.6,459.4,591.3,455.4,594,465.4Z" transform="translate(-504.248 -355.965)" fill="#3251b4"/>
  <path id="Path_1249" data-name="Path 1249" d="M576,470.2c-2.5.7-5.1,1.5-7.6,2.2-7.9,2.4-15.6,5.1-23.3,8.1-3.8,1.5-7.7,3-11.4,4.7a11.27,11.27,0,0,0-3.1,1.9c4.8,5.8,18.1,1.7,33.5-2.6,17.3-4.8,31.7-8.8,30.2-18a11.483,11.483,0,0,0-1.9.1A111.265,111.265,0,0,0,576,470.2Z" transform="translate(-504.248 -355.965)" fill="#23399b"/>
  <path id="Path_1250" data-name="Path 1250" d="M572.1,484.9a2.622,2.622,0,0,0-1.6-2.3,24.148,24.148,0,0,0-5.7-1.5c-4.2-.6-8.8,9.1-8.4,10.1s3.7,1.8,8.1,2.1,8.1-1.2,7.9-3.6C572.2,488.3,572.2,486.3,572.1,484.9Z" transform="translate(-504.248 -355.965)" fill="#23399b"/>
  <path id="Path_1251" data-name="Path 1251" d="M504.7,467.1c-3,9.5,11.6,13.6,29.6,18.8s32.7,9.4,35.6-.1c2.9-9.6-11.6-13.6-29.6-18.8S507.7,457.6,504.7,467.1Z" transform="translate(-504.248 -355.965)" fill="#3251b4"/>
  <path id="Path_1252" data-name="Path 1252" d="M522.7,472c2.5.7,5,1.5,7.5,2.3,7.8,2.5,15.6,5.2,23.2,8.2,3.8,1.5,7.7,3,11.4,4.7a16.543,16.543,0,0,1,3.1,1.8c-5,5.4-18.2,1.2-33.6-3.2-17.3-5-31.7-9.1-29.9-17.7a11.075,11.075,0,0,1,1.9.2A108.647,108.647,0,0,1,522.7,472Z" transform="translate(-504.248 -355.965)" fill="#23399b"/>
  <path id="Path_1253" data-name="Path 1253" d="M521.1,427h55.7a6.019,6.019,0,0,1,6,6.7L580,459.4a5.983,5.983,0,0,1-6,5.4H524a5.983,5.983,0,0,1-6-5.4l-2.9-25.7A6.019,6.019,0,0,1,521.1,427Z" transform="translate(-504.248 -355.965)" fill="#101e41"/>
  <path id="Path_1254" data-name="Path 1254" d="M539.6,385.9c0-2.5,1.4-4.5,3.1-4.5,1.4,0,2.5,1.4,2.9,3.3a37.53,37.53,0,0,1,10.7-6.5c5.8-2.4,8.8,6.5,7.9,15.2-.8,7.8-3.9,12.7-10.2,12.7-6.2,0-12.7-8.4-11.7-16C540.7,389.9,539.6,388.1,539.6,385.9Z" transform="translate(-504.248 -355.965)" fill="#ffc8b7"/>
  <path id="Path_1255" data-name="Path 1255" d="M555.7,396.5a19.077,19.077,0,0,0-1.2,10.6c.9,6.1,1.6,8.8-1.6,9.2s-9.3,3-9.9-1.2c-.6-4.3,3.4-14.9,4.5-18.5C548.5,392.9,555.7,396.5,555.7,396.5Z" transform="translate(-504.248 -355.965)" fill="#ffc8b7"/>
  <path id="Path_1256" data-name="Path 1256" d="M524.2,446.4c0,3.2-2.1,4.4-4.8,4.4-4.9,0-4.9-2.6-4.9-5.7,0-3.2.8-5.7,4.9-5.7C522.1,439.3,524.2,443.2,524.2,446.4Z" transform="translate(-504.248 -355.965)" fill="#ffc8b7"/>
  <path id="Path_1257" data-name="Path 1257" d="M575.1,434.3c3.2,0,4.4-2.1,4.4-4.8,0-4.9-2.6-4.9-5.7-4.9-3.2,0-5.7.8-5.7,4.9C568,432.2,571.9,434.3,575.1,434.3Z" transform="translate(-504.248 -355.965)" fill="#ffc8b7"/>
</svg>
