<svg xmlns="http://www.w3.org/2000/svg" viewBox="0 0 24 30" x="0px" y="0px"><title>Business plan, coins, dollar, investment, money</title><g data-name="Layer 2"><path d="M5,19a1,1,0,0,1-1-1,1,1,0,0,0-2,0,3,3,0,0,0,2,2.82V21a1,1,0,0,0,2,0v-.18A3,3,0,0,0,5,15a1,1,0,1,1,1-1,1,1,0,0,0,2,0,3,3,0,0,0-2-2.82V11a1,1,0,0,0-2,0v.18A3,3,0,0,0,5,17a1,1,0,0,1,0,2Z"/><path d="M16,2c-2.79,0-5.78.88-6,2.79A1.49,1.49,0,0,0,10,5V17a1.49,1.49,0,0,0,0,.21h0c.22,1.9,3.2,2.78,6,2.78s5.76-.87,6-2.78h0A1.49,1.49,0,0,0,22,17V5a1.49,1.49,0,0,0,0-.21C21.78,2.88,18.79,2,16,2Zm4,15c-.16.31-1.55,1-4,1s-3.82-.73-4-1V15.3a10.83,10.83,0,0,0,4,.7,10.83,10.83,0,0,0,4-.7Zm0-8c-.19.31-1.57,1-4,1s-3.82-.73-4-1V7.3A10.83,10.83,0,0,0,16,8a10.83,10.83,0,0,0,4-.7Z"/></g><text x="0" y="39" fill="#000000" font-size="5px" font-weight="bold" font-family="'Helvetica Neue', Helvetica, Arial-Unicode, Arial, Sans-serif">Created by Fauzan Adiima</text><text x="0" y="44" fill="#000000" font-size="5px" font-weight="bold" font-family="'Helvetica Neue', Helvetica, Arial-Unicode, Arial, Sans-serif">from the Noun Project</text></svg>