<svg xmlns="http://www.w3.org/2000/svg" viewBox="0 0 24 30" x="0px" y="0px"><title>Cog, configuration, folder options, folder preferences, folder setting icon </title><g data-name="Layer 2"><circle cx="10" cy="10" r="1"/><path d="M3,18H17a1,1,0,0,0,1-1V3a1,1,0,0,0-1-1H3A1,1,0,0,0,2,3V17A1,1,0,0,0,3,18ZM6,9H7.18a3,3,0,0,1,.12-.29l-.84-.84A1,1,0,0,1,7.88,6.46l.84.84L9,7.18V6a1,1,0,0,1,2,0V7.18l.29.12.84-.84a1,1,0,0,1,1.41,1.41l-.84.84a3,3,0,0,1,.12.29H14a1,1,0,0,1,0,2H12.82a3,3,0,0,1-.12.29l.84.84a1,1,0,1,1-1.41,1.41l-.84-.84-.29.12V14a1,1,0,0,1-2,0V12.82l-.29-.12-.84.84a1,1,0,0,1-1.41-1.41l.84-.84A3,3,0,0,1,7.18,11H6A1,1,0,0,1,6,9Z"/><path d="M21,6H19V17a2,2,0,0,1-2,2H6v2a1,1,0,0,0,1,1H21a1,1,0,0,0,1-1V7A1,1,0,0,0,21,6Z"/></g><text x="0" y="39" fill="#000000" font-size="5px" font-weight="bold" font-family="'Helvetica Neue', Helvetica, Arial-Unicode, Arial, Sans-serif">Created by Fauzan Adiima</text><text x="0" y="44" fill="#000000" font-size="5px" font-weight="bold" font-family="'Helvetica Neue', Helvetica, Arial-Unicode, Arial, Sans-serif">from the Noun Project</text></svg>