<svg xmlns="http://www.w3.org/2000/svg" viewBox="0 0 24 30" x="0px" y="0px"><title>Account holder, accountant, bank holder, businessman, investor</title><g data-name="Layer 2"><path d="M18,5a1,1,0,0,1,1,1,1,1,0,0,0,2,0,3,3,0,0,0-2-2.82V3a1,1,0,0,0-2,0v.18A3,3,0,0,0,18,9a1,1,0,1,1-1,1,1,1,0,0,0-2,0,3,3,0,0,0,2,2.82V13a1,1,0,0,0,2,0v-.18A3,3,0,0,0,18,7a1,1,0,0,1,0-2Z"/><path d="M9,10A6,6,0,0,0,5.29,20.71a1.32,1.32,0,0,0,.19.14,6,6,0,0,0,7,0,1.32,1.32,0,0,0,.19-.14A6,6,0,0,0,9,10Zm3.46,8a4,4,0,0,0-2-1.7A1.94,1.94,0,0,0,11,15a2,2,0,0,0-4,0,1.94,1.94,0,0,0,.49,1.3A4,4,0,0,0,5.54,18a4,4,0,1,1,6.92,0Z"/></g><text x="0" y="39" fill="#000000" font-size="5px" font-weight="bold" font-family="'Helvetica Neue', Helvetica, Arial-Unicode, Arial, Sans-serif">Created by Fauzan Adiima</text></svg>