<svg xmlns="http://www.w3.org/2000/svg" viewBox="0 0 24 30" x="0px" y="0px"><title>Leader, management, manager, organization structure, team_1</title><g data-name="Layer 2"><path d="M21,16H20V14a1,1,0,0,0-1-1H13V12h2a1,1,0,0,0,1-1V10a4,4,0,0,0-1.62-3.2A3,3,0,0,0,15,5,3,3,0,0,0,9,5a3,3,0,0,0,.62,1.8A4,4,0,0,0,8,10v1a1,1,0,0,0,1,1h2v1H5a1,1,0,0,0-1,1v2H3a1,1,0,0,0-1,1v4a1,1,0,0,0,1,1H7a1,1,0,0,0,1-1V17a1,1,0,0,0-1-1H6V15h5v1H10a1,1,0,0,0-1,1v4a1,1,0,0,0,1,1h4a1,1,0,0,0,1-1V17a1,1,0,0,0-1-1H13V15h5v1H17a1,1,0,0,0-1,1v4a1,1,0,0,0,1,1h4a1,1,0,0,0,1-1V17A1,1,0,0,0,21,16Z"/></g><text x="0" y="39" fill="#000000" font-size="5px" font-weight="bold" font-family="'Helvetica Neue', Helvetica, Arial-Unicode, Arial, Sans-serif">Created by Fauzan Adiima</text><text x="0" y="44" fill="#000000" font-size="5px" font-weight="bold" font-family="'Helvetica Neue', Helvetica, Arial-Unicode, Arial, Sans-serif">from the Noun Project</text></svg>