<svg xmlns="http://www.w3.org/2000/svg" viewBox="0 0 24 30" x="0px" y="0px"><title>Collaboration, group, management, organization structure, team</title><g data-name="Layer 2"><path d="M19,2a3,3,0,0,0-3,3,2.77,2.77,0,0,0,.3,1.28l-.83.83a6,6,0,0,0-8.36,8.36l-.83.83A2.77,2.77,0,0,0,5,16a3,3,0,1,0,3,3,2.77,2.77,0,0,0-.3-1.28l.83-.83A6,6,0,0,0,12,18a5.89,5.89,0,0,0,3.52-1.15,1.32,1.32,0,0,0,.19-.14,6,6,0,0,0,1.18-8.18l.83-.83A2.77,2.77,0,0,0,19,8a3,3,0,0,0,0-6ZM15.46,14a4,4,0,0,0-2-1.7A1.94,1.94,0,0,0,14,11a2,2,0,0,0-4,0,1.94,1.94,0,0,0,.49,1.3A4,4,0,0,0,8.54,14a4,4,0,1,1,6.92,0Z"/></g><text x="0" y="39" fill="#000000" font-size="5px" font-weight="bold" font-family="'Helvetica Neue', Helvetica, Arial-Unicode, Arial, Sans-serif">Created by Fauzan Adiima</text><text x="0" y="44" fill="#000000" font-size="5px" font-weight="bold" font-family="'Helvetica Neue', Helvetica, Arial-Unicode, Arial, Sans-serif">from the Noun Project</text></svg>