<?xml version="1.0" encoding="UTF-8" standalone="no"?>
<svg
   version="1.1"
   width="64"
   height="64"
   id="svg25"
   sodipodi:docname="Testing.svg"
   viewBox="0 0 128 128"
   inkscape:version="1.3.2 (091e20ef0f, 2023-11-25, custom)"
   xmlns:inkscape="http://www.inkscape.org/namespaces/inkscape"
   xmlns:sodipodi="http://sodipodi.sourceforge.net/DTD/sodipodi-0.dtd"
   xmlns="http://www.w3.org/2000/svg"
   xmlns:svg="http://www.w3.org/2000/svg">
  <defs
     id="defs25" />
  <sodipodi:namedview
     id="namedview25"
     pagecolor="#ffffff"
     bordercolor="#000000"
     borderopacity="0.25"
     inkscape:showpageshadow="2"
     inkscape:pageopacity="0.0"
     inkscape:pagecheckerboard="0"
     inkscape:deskcolor="#d1d1d1"
     inkscape:zoom="6.25"
     inkscape:cx="64.08"
     inkscape:cy="64.08"
     inkscape:window-width="1351"
     inkscape:window-height="943"
     inkscape:window-x="0"
     inkscape:window-y="0"
     inkscape:window-maximized="0"
     inkscape:current-layer="svg25" />
  <path
     d="m 26.624756,1.8388672 c 1.339202,-0.00745 1.339202,-0.00745 2.70546,-0.015045 2.96155,-0.014638 5.923047,-0.021426 8.884628,-0.026947 2.052617,-0.00575 4.105235,-0.011507 6.157852,-0.017273 4.306679,-0.010514 8.613339,-0.016354 12.920029,-0.019837 5.526299,-0.00549 11.052352,-0.029528 16.578574,-0.057972 4.240408,-0.018595 8.480756,-0.02383 12.721202,-0.025364 2.037818,-0.00303 4.075636,-0.011085 6.113415,-0.024185 2.846836,-0.016997 5.693067,-0.015196 8.539934,-0.00869 0.84634,-0.00922 1.69268,-0.01843 2.56467,-0.027924 5.75863,0.041364 5.75863,0.041364 7.86698,1.7198372 2.73542,3.4428635 2.44681,6.8774776 2.44848,11.0920216 0.002,0.647502 0.004,1.295004 0.006,1.962128 0.004,1.404475 0.006,2.808957 0.007,4.213438 0.003,2.986231 0.0248,5.972245 0.0452,8.9584 0.038,5.558727 0.0693,11.11722 0.0672,16.676093 -7.9e-4,3.868189 0.0226,7.735581 0.0619,11.603563 0.0105,1.473142 0.012,2.946377 0.004,4.419537 -0.01,2.061701 0.0115,4.120983 0.0397,6.182466 0.005,1.758475 0.005,1.758475 0.011,3.552475 0.82251,3.906919 2.39772,4.814025 5.6325,7.00441 1.54688,2.253906 1.54688,2.253906 2.75,4.5625 0.40735,0.764414 0.81469,1.528828 1.23438,2.316406 3.1508,6.58033 3.12265,14.787865 1.33203,21.796875 -3.20307,7.69535 -7.88011,13.14799 -15.48437,16.59766 -7.09962,2.81563 -14.922701,2.95134 -22.210942,0.66797 C 81.000202,121.88368 76.488937,118.43917 73.000034,112 72.663589,111.38383 72.327144,110.76766 71.980503,110.13282 69.304406,104.24296 69.78299,98.366614 70.000034,92 c -3.96,0 -7.92,0 -12,0 0.0825,1.77375 0.165,3.5475 0.25,5.375 -0.0092,7.76715 -2.061885,15.41956 -7.535156,21.24219 -7.453813,6.01059 -14.938273,8.29682 -24.449219,7.83594 C 18.607696,125.39054 12.114438,121.83175 7.000034,116 c -4.985187,-7.98539 -6.019758,-15.65863 -5,-25 1.80426,-5.346178 3.800656,-10.504415 8.573319,-13.749893 2.687178,-2.056516 2.687178,-2.056516 3.052459,-5.241059 6.3e-4,-1.166284 0.0013,-2.332568 0.0019,-3.534195 0.0073,-0.646042 0.01454,-1.292083 0.02203,-1.957702 0.01856,-2.129976 0.0025,-4.258269 -0.013,-6.388245 0.008,-1.484477 0.01856,-2.968942 0.03145,-4.453384 0.02855,-3.905948 0.02912,-7.811365 0.02214,-11.717392 -0.0073,-6.247872 0.02408,-12.495571 0.06245,-18.743304 0.0088,-2.178702 0.0036,-4.357032 -0.0036,-6.535734 0.0034,-1.341518 0.0071,-2.683035 0.01131,-4.024551 -0.0018,-1.16708 -0.0035,-2.33416 -0.0053,-3.536606 C 14.00187,7.9764286 14.55696,5.790605 16.000019,2.9999999 19.30509,1.3474551 22.990932,1.8436554 26.624756,1.8388672 Z"
     fill="#deecfc"
     id="path1" />
  <path
     d="m 115,75 c 5.85807,3.514843 8.88588,9.657635 11,16 0.83584,10.66044 -0.18879,18.3152 -6.75,26.8125 -4.41607,4.84307 -10.68202,7.81217 -17.18359,8.49609 C 93.039659,126.64068 86.423544,125.3106 79,120 c -2.537679,-2.4422 -4.325685,-4.90986 -6,-8 -0.336445,-0.61617 -0.672891,-1.23234 -1.019531,-1.86719 C 69.019576,103.61614 68.705245,96.045389 70.878906,89.253906 74.351003,81.725301 79.820805,75.114823 87.507813,71.660156 96.871799,69.179727 106.58813,70.31222 115,75 Z"
     fill="#66caa4"
     id="path2" />
  <path
     d="M 44.042969,73.683594 C 50.802179,78.230208 55.487582,84.207056 58,92 c 1.445995,9.60191 -1.007247,17.13678 -6,25.25 -4.868925,5.17971 -11.627063,8.26394 -18.578125,9.26563 C 23.410612,126.819 15.918763,124.47595 8.503907,117.71484 2.694655,111.09079 1.53286,103.32957 1.585938,94.792969 2.345407,87.835941 5.205722,81.524734 10.429688,76.804688 20.138441,69.987903 33.275188,67.9501 44.042969,73.683594 Z"
     fill="#eb6374"
     id="path3" />
  <path
     d="m 26.624756,1.8388672 c 1.339202,-0.00745 1.339202,-0.00745 2.70546,-0.015045 2.96155,-0.014638 5.923047,-0.021426 8.884628,-0.026947 2.052617,-0.00575 4.105235,-0.011507 6.157852,-0.017273 4.306679,-0.010514 8.613339,-0.016354 12.920029,-0.019837 5.526299,-0.00549 11.052352,-0.029528 16.578574,-0.057972 4.240408,-0.018595 8.480756,-0.02383 12.721202,-0.025364 2.037818,-0.00303 4.075636,-0.011085 6.113415,-0.024185 2.846836,-0.016997 5.693067,-0.015196 8.539934,-0.00869 0.84634,-0.00922 1.69268,-0.01843 2.56467,-0.027924 5.75863,0.041364 5.75863,0.041364 7.86698,1.7198372 C 115.48545,8.1282459 114,12.506424 114,19 81,19 48,19 14,19 14,7.9999999 14,7.9999999 16,2.9999999 19.30509,1.3474551 22.990932,1.8436554 26.624756,1.8388672 Z"
     fill="#49508e"
     id="path4" />
  <path
     d="m 18,85 c 3.185599,1.396331 5.239438,3.045575 7.625,5.5625 C 28.04522,93.140154 28.04522,93.140154 31,95 31.226875,94.443125 31.45375,93.88625 31.6875,93.3125 33.398482,90.297912 35.372373,88.252252 38,86 c 1.32,0 2.64,0 4,0 -0.275178,4.678021 -2.331939,6.746387 -5.527344,9.863281 C 35,97 35,97 33,97 c 1.102811,1.27201 2.207308,2.542559 3.3125,3.8125 0.922324,1.06154 0.922324,1.06154 1.863281,2.14453 1.557562,1.74434 3.150808,3.41075 4.824219,5.04297 -0.33,0.99 -0.66,1.98 -1,3 -3.626132,-0.56959 -5.255177,-1.92374 -7.75,-4.5625 -0.920391,-0.961 -0.920391,-0.961 -1.859375,-1.94141 C 31.931719,104.00238 31.472813,103.50867 31,103 c -3.746369,1.65519 -5.801949,3.79737 -8.4375,6.85547 C 21,111 21,111 18.8125,110.67578 17.915312,110.34127 17.915312,110.34127 17,110 18.47329,104.99081 21.275152,102.48192 25,99 23.550893,95.232322 21.13243,93.137551 18.144531,90.5625 17,89 17,89 17.324219,86.8125 17.547227,86.214375 17.770234,85.61625 18,85 Z"
     fill="#fdf0f2"
     id="path5" />
  <path
     d="m 32,26 c 1.32,0 2.64,0 4,0 0,14.85 0,29.7 0,45 -3.63,0 -7.26,0 -11,0 0,-0.33 0,-0.66 0,-1 2.31,0 4.62,0 7,0 0,-14.52 0,-29.04 0,-44 z"
     fill="#b3c9db"
     id="path6" />
  <path
     d="m 108,85 c 0.99,0.33 1.98,0.66 3,1 -0.6103,3.062521 -1.5829,5.158821 -3.36328,7.714844 -0.47502,0.686425 -0.95004,1.372851 -1.43945,2.080078 -0.74734,1.060576 -0.74734,1.060576 -1.50977,2.142578 -0.72993,1.054775 -0.72993,1.054775 -1.47461,2.13086 -2.6138,3.7536 -5.302461,7.39903 -8.21289,10.93164 -3.829647,-1.56023 -6.321905,-3.87556 -9,-7 0,-1.32 0,-2.64 0,-4 3.378101,0.60323 5.322558,1.90192 8,4 0.353042,-0.50451 0.706084,-1.00901 1.069824,-1.52881 1.599669,-2.28351 3.202383,-4.564869 4.805176,-6.84619 0.55559,-0.794062 1.11117,-1.588125 1.68359,-2.40625 0.53496,-0.760547 1.06993,-1.521094 1.6211,-2.304688 0.73839,-1.0526 0.73839,-1.0526 1.4917,-2.126464 C 106,87 106,87 108,85 Z"
     fill="#f4fbf8"
     id="path7" />
  <path
     d="m 47,43 c 11.88,0 23.76,0 36,0 -0.33,1.32 -0.66,2.64 -1,4 -11.22,0 -22.44,0 -34,0 -0.33,-1.32 -0.66,-2.64 -1,-4 z"
     fill="#68caa6"
     id="path8" />
  <path
     d="m 54.500244,67.886475 c 1.084021,0.0052 2.168042,0.01047 3.284912,0.01587 1.754736,0.0048 1.754736,0.0048 3.544922,0.0098 1.847549,0.01257 1.847549,0.01257 3.732422,0.02539 1.853349,0.0068 1.853349,0.0068 3.74414,0.01367 3.064501,0.01183 6.128907,0.02832 9.19336,0.04883 0.5625,1.9375 0.5625,1.9375 1,4 -1,1 -1,1 -3.500244,1.113526 -1.084021,-0.0052 -2.168042,-0.01047 -3.284912,-0.01587 -1.169825,-0.0032 -2.339649,-0.0065 -3.544922,-0.0098 -1.231699,-0.0084 -2.463399,-0.01676 -3.732422,-0.02539 -1.85335,-0.0068 -1.85335,-0.0068 -3.744141,-0.01367 -3.0645,-0.01183 -6.128906,-0.02832 -9.193359,-0.04883 -0.5625,-1.9375 -0.5625,-1.9375 -1,-4 1,-1 1,-1 3.500244,-1.113526 z"
     fill="#79cfb2"
     id="path9" />
  <path
     d="m 45,60 c 8.25,0 16.5,0 25,0 0,1.32 0,2.64 0,4 -7.92,0 -15.84,0 -24,0 -0.33,-1.32 -0.66,-2.64 -1,-4 z"
     fill="#67caa5"
     id="path10" />
  <path
     d="m 41,51 c 7.92,0 15.84,0 24,0 0.33,1.32 0.66,2.64 1,4 -8.25,0 -16.5,0 -25,0 0,-1.32 0,-2.64 0,-4 z"
     fill="#6dcca9"
     id="path11" />
  <path
     d="m 46,34 c 7.92,0 15.84,0 24,0 0,1.32 0,2.64 0,4 -8.25,0 -16.5,0 -25,0 0.33,-1.32 0.66,-2.64 1,-4 z"
     fill="#6bcba7"
     id="path12" />
  <path
     d="m 41,26 c 8.25,0 16.5,0 25,0 -0.33,1.32 -0.66,2.64 -1,4 -7.92,0 -15.84,0 -24,0 0,-1.32 0,-2.64 0,-4 z"
     fill="#6bcba7"
     id="path13" />
  <path
     d="m 75,60 c 5.28,0 10.56,0 16,0 0,1.32 0,2.64 0,4 -5.28,0 -10.56,0 -16,0 0,-1.32 0,-2.64 0,-4 z"
     fill="#f8c952"
     id="path14" />
  <path
     d="m 76,34 c 4.95,0 9.9,0 15,0 0.33,1.32 0.66,2.64 1,4 -5.61,0 -11.22,0 -17,0 0.33,-1.32 0.66,-2.64 1,-4 z"
     fill="#f7ca58"
     id="path15" />
  <path
     d="m 90,9 c 5.28,0 10.56,0 16,0 0,1.32 0,2.64 0,4 -5.28,0 -10.56,0 -16,0 0,-1.32 0,-2.64 0,-4 z"
     fill="#303563"
     id="path16" />
  <path
     d="m 97,34 c 2.31,0 4.62,0 7,0 0,1.32 0,2.64 0,4 -2.64,0 -5.28,0 -8,0 0.33,-1.32 0.66,-2.64 1,-4 z"
     fill="#ea6c7d"
     id="path17" />
  <path
     d="m 22,9 c 1.98,0 3.96,0 6,0 -0.33,1.32 -0.66,2.64 -1,4 -1.65,0 -3.3,0 -5,0 0,-1.32 0,-2.64 0,-4 z"
     fill="#e2e3ed"
     id="path18" />
  <path
     d="m 22,60 c 1.65,0 3.3,0 5,0 0,1.32 0,2.64 0,4 -1.65,0 -3.3,0 -5,0 0,-1.32 0,-2.64 0,-4 z"
     fill="#b5cee0"
     id="path19" />
  <path
     d="m 22,43 c 1.65,0 3.3,0 5,0 0,1.32 0,2.64 0,4 -1.65,0 -3.3,0 -5,0 0,-1.32 0,-2.64 0,-4 z"
     fill="#b6cee0"
     id="path20" />
  <path
     d="m 22,34 c 1.65,0 3.3,0 5,0 0,1.32 0,2.64 0,4 -1.65,0 -3.3,0 -5,0 0,-1.32 0,-2.64 0,-4 z"
     fill="#b6cfe1"
     id="path21" />
  <path
     d="m 22,26 c 1.65,0 3.3,0 5,0 0,1.32 0,2.64 0,4 -1.65,0 -3.3,0 -5,0 0,-1.32 0,-2.64 0,-4 z"
     fill="#b6cfe1"
     id="path22" />
  <path
     d="m 22,51 c 1.65,0 3.3,0 5,0 0.33,1.32 0.66,2.64 1,4 -1.98,0 -3.96,0 -6,0 0,-1.32 0,-2.64 0,-4 z"
     fill="#b7cfe1"
     id="path23" />
  <path
     d="m 43,9 c 1.98,0 3.96,0 6,0 -0.33,1.32 -0.66,2.64 -1,4 -1.65,-0.33 -3.3,-0.66 -5,-1 0,-0.99 0,-1.98 0,-3 z"
     fill="#f2f2f6"
     id="path24" />
  <path
     d="m 32,9 c 1.98,0 3.96,0 6,0 -0.33,1.32 -0.66,2.64 -1,4 -1.65,-0.33 -3.3,-0.66 -5,-1 0,-0.99 0,-1.98 0,-3 z"
     fill="#f1f1f6"
     id="path25" />
</svg>
