<svg xmlns="http://www.w3.org/2000/svg" viewBox="0 0 24 30" x="0px" y="0px"><title>Leader, management, manager, organization structure, team</title><g data-name="Layer 2"><path d="M4,15v6a1,1,0,0,0,1,1H9a1,1,0,0,0,1-1V15h1a1,1,0,0,0,1-1V11A5,5,0,0,0,9.48,6.68a3,3,0,1,0-5,0A5,5,0,0,0,2,11v3a1,1,0,0,0,1,1Z"/><path d="M16.18,6a3,3,0,1,0,0-2H14a1,1,0,0,0-1,1V19a1,1,0,0,0,1,1h2.18a3,3,0,1,0,0-2H15V13h1.18a3,3,0,1,0,0-2H15V6ZM19,4a1,1,0,1,1-1,1A1,1,0,0,1,19,4Zm0,14a1,1,0,1,1-1,1A1,1,0,0,1,19,18Zm0-7a1,1,0,1,1-1,1A1,1,0,0,1,19,11Z"/></g><text x="0" y="39" fill="#000000" font-size="5px" font-weight="bold" font-family="'Helvetica Neue', Helvetica, Arial-Unicode, Arial, Sans-serif">Created by Fauzan Adiima</text><text x="0" y="44" fill="#000000" font-size="5px" font-weight="bold" font-family="'Helvetica Neue', Helvetica, Arial-Unicode, Arial, Sans-serif">from the Noun Project</text></svg>