<svg xmlns="http://www.w3.org/2000/svg" viewBox="0 0 24 30" x="0px" y="0px"><title>Cog, lcd, monitor configuration, monitor settings, web development</title><g data-name="Layer 2"><path d="M21,5h-.18a3,3,0,0,0-.12-.29l.13-.13a1,1,0,0,0-1.41-1.41l-.13.13L19,3.18V3a1,1,0,0,0-2,0v.18l-.29.12-.13-.13a1,1,0,0,0-1.41,1.41l.13.13a3,3,0,0,0-.12.29H15a1,1,0,0,0,0,2h.18a3,3,0,0,0,.12.29l-.13.13a1,1,0,1,0,1.41,1.41l.13-.13.29.12V9a1,1,0,0,0,2,0V8.82l.29-.12.13.13a1,1,0,0,0,1.41-1.41l-.13-.13A3,3,0,0,0,20.82,7H21a1,1,0,0,0,0-2ZM18,7a1,1,0,1,1,1-1A1,1,0,0,1,18,7Z"/><path d="M20.12,10.12a1.54,1.54,0,0,1-.43,0,2,2,0,0,1-3.38,0,1.54,1.54,0,0,1-.43,0,2,2,0,0,1-2-2,1.54,1.54,0,0,1,0-.43,2,2,0,0,1,0-3.38,1.06,1.06,0,0,1,0-.31H3A1,1,0,0,0,2,5V17a1,1,0,0,0,1,1h8v2H9a1,1,0,0,0,0,2h6a1,1,0,0,0,0-2H13V18h8a1,1,0,0,0,1-1V8.8a2,2,0,0,1-.46.74A2,2,0,0,1,20.12,10.12Z"/></g><text x="0" y="39" fill="#000000" font-size="5px" font-weight="bold" font-family="'Helvetica Neue', Helvetica, Arial-Unicode, Arial, Sans-serif">Created by Fauzan Adiima</text><text x="0" y="44" fill="#000000" font-size="5px" font-weight="bold" font-family="'Helvetica Neue', Helvetica, Arial-Unicode, Arial, Sans-serif">from the Noun Project</text></svg>