<?xml version="1.0" encoding="UTF-8" standalone="no"?>
<svg
   version="1.1"
   width="64"
   height="64"
   id="svg18"
   sodipodi:docname="Writing.svg"
   viewBox="0 0 128 128"
   inkscape:version="1.3.2 (091e20ef0f, 2023-11-25, custom)"
   xmlns:inkscape="http://www.inkscape.org/namespaces/inkscape"
   xmlns:sodipodi="http://sodipodi.sourceforge.net/DTD/sodipodi-0.dtd"
   xmlns="http://www.w3.org/2000/svg"
   xmlns:svg="http://www.w3.org/2000/svg">
  <defs
     id="defs18" />
  <sodipodi:namedview
     id="namedview18"
     pagecolor="#ffffff"
     bordercolor="#000000"
     borderopacity="0.25"
     inkscape:showpageshadow="2"
     inkscape:pageopacity="0.0"
     inkscape:pagecheckerboard="0"
     inkscape:deskcolor="#d1d1d1"
     inkscape:zoom="6.25"
     inkscape:cx="60.16"
     inkscape:cy="61.92"
     inkscape:window-width="1920"
     inkscape:window-height="1004"
     inkscape:window-x="0"
     inkscape:window-y="0"
     inkscape:window-maximized="1"
     inkscape:current-layer="svg18" />
  <path
     d="M 12.398926,3.519043 C 13.384938,3.480054 13.384938,3.480054 14.390869,3.440277 21.317442,3.1851592 28.248979,3.07298 35.179199,2.9702149 38.454144,2.9170701 41.723122,2.8202134 44.995606,2.6831055 74.755823,1.4690696 74.755823,1.4690696 84.097992,8.5074768 91.174928,15.303606 93.265488,22.655535 93.78125,32.28125 93.83325,36.696905 93.676409,41.088496 93.5,45.5 93.46789,47.787669 93.4431,50.075453 93.42578,52.363281 93.36809,57.913 93.220553,63.454487 92.999999,69 93.467848,68.48502 93.935697,67.970039 94.417724,67.439453 96.566682,65.102537 98.750982,62.80179 100.9375,60.5 c 0.73541,-0.81082 1.47082,-1.621641 2.22852,-2.457031 6.32822,-6.576928 6.32822,-6.576928 11.70898,-6.695313 3.24499,0.245049 4.30456,0.76594 7.1875,2.589844 2.58769,4.090207 2.92334,7.326219 1.9375,12.0625 -1.82837,2.770071 -4.19086,4.690494 -6.74609,6.78125 -1.41319,1.251927 -2.82299,2.507683 -4.22974,3.766846 -0.73248,0.645226 -1.46496,1.290452 -2.21964,1.95523 -14.432846,12.274369 -14.432846,12.274369 -20.244228,29.500574 0.155729,4.05075 0.48038,7.98685 1.266602,11.96607 0.05712,0.66991 0.114243,1.33982 0.173095,2.03003 -2.528089,2.52809 -4.108699,2.24353 -7.557373,2.27105 -0.775129,-0.004 -1.550259,-0.008 -2.348877,-0.0123 -0.816379,0.004 -1.632759,0.007 -2.473877,0.0106 -2.70671,0.009 -5.41316,0.003 -8.119873,-0.004 -1.875651,0.001 -3.751303,0.003 -5.626953,0.006 -3.934278,0.003 -7.868466,-0.001 -11.802734,-0.0107 -5.051058,-0.0114 -10.101904,-0.005 -15.152954,0.007 -3.874081,0.007 -7.748111,0.005 -11.622193,-2.5e-4 -1.862793,-10e-4 -3.725591,3.1e-4 -5.588379,0.005 -2.600303,0.005 -5.200259,-0.003 -7.800537,-0.0138 -0.775129,0.004 -1.550259,0.008 -2.348877,0.0123 -5.3288443,-0.0425 -5.3288443,-0.0425 -7.5573728,-2.27105 -0.2516823,-2.05213 -0.2516823,-2.05213 -0.2539673,-4.63086 -0.00564,-0.9759 -0.011279,-1.9518 -0.01709,-2.95728 0.00405,-1.07435 0.0081,-2.1487 0.012268,-3.25561 -0.0035,-1.1285 -0.00701,-2.25699 -0.01062,-3.41968 -0.00883,-3.74559 -0.00296,-7.49098 0.00378,-11.23657 -0.00135,-2.593099 -0.00329,-5.186198 -0.0058,-7.779297 -0.00295,-5.440782 0.00116,-10.881493 0.010681,-16.322265 0.010885,-6.295035 0.00736,-12.58994 -0.00365,-18.884972 -0.01016,-6.04951 -0.0091,-12.098957 -0.00324,-18.148476 0.00134,-2.577311 -3.165e-4,-5.154626 -0.00496,-7.731933 -0.00506,-3.596526 0.00263,-7.1928 0.013802,-10.789307 -0.00405,-1.074353 -0.0081,-2.148706 -0.012268,-3.255615 0.00564,-0.975901 0.011279,-1.951802 0.01709,-2.957276 0.00113,-1.2764736 0.00113,-1.2764736 0.00229,-2.578735 C 4.3614277,3.0530546 8.2741803,3.6708166 12.398926,3.519043 Z"
     fill="#dae8ec"
     id="path1" />
  <path
     d="m 114.9375,50.9375 c 3.03592,0.485747 4.44144,1.302238 7.125,3 2.2266,3.51946 2.66276,5.464124 2.55615,9.556122 -1.31125,5.31233 -5.73942,8.705365 -9.5874,12.354034 -0.91004,0.897304 -1.82008,1.794607 -2.75769,2.719101 -2.41119,2.369445 -4.83988,4.71745 -7.2796,7.057266 -2.48955,2.397093 -4.95347,4.820217 -7.419741,7.241211 C 92.739302,97.60106 87.879604,102.31025 83,107 76.919907,104.17205 73.18763,99.06151 69,94 c 0.629788,-0.624551 1.259575,-1.249102 1.908447,-1.892578 2.370909,-2.353705 4.739427,-4.709768 7.106446,-7.067383 1.01828,-1.013301 2.037462,-2.025696 3.057617,-3.037109 C 86.940389,76.184021 92.637176,70.294031 98,64 109.09344,51.239947 109.09344,51.239947 114.9375,50.9375 Z"
     fill="#febb42"
     id="path2" />
  <path
     d="m 111,65 c 3.6624,1.5696 4.93904,2.939036 8,6 -11.88,11.88 -23.76,23.76 -36,36 -3.234754,-1.61738 -4.70572,-2.47629 -7,-5 1.36113,-3.045815 2.893301,-5.13839 5.256348,-7.483398 0.660533,-0.660383 1.321067,-1.320766 2.001617,-2.00116 0.711512,-0.70119 1.423024,-1.402379 2.156098,-2.124817 1.094459,-1.090215 1.094459,-1.090215 2.211029,-2.202454 C 89.953739,85.870708 92.289248,83.5603 94.625,81.25 96.206187,79.678846 97.786921,78.107236 99.367187,76.535156 103.23957,72.684814 107.1176,68.840239 111,65 Z"
     fill="#e8ab3d"
     id="path3" />
  <path
     d="m 17,68 c 20.46,0 40.92,0 62,0 0,1.32 0,2.64 0,4 -20.46,0 -40.92,0 -62,0 0,-1.32 0,-2.64 0,-4 z"
     fill="#33658a"
     id="path4" />
  <path
     d="m 17,44 c 20.46,0 40.92,0 62,0 0,1.32 0,2.64 0,4 -20.46,0 -40.92,0 -62,0 0,-1.32 0,-2.64 0,-4 z"
     fill="#33658a"
     id="path5" />
  <path
     d="m 119,52 c 3.0625,1.9375 3.0625,1.9375 5,5 0.89084,4.470109 0.80313,7.795299 -1.75,11.625 C 120,70 120,70 118,70 c -2.55743,-1.278713 -4.15619,-2.826941 -6,-5 0,-0.66 0,-1.32 0,-2 -0.99,-0.33 -1.98,-0.66 -3,-1 0,-0.66 0,-1.32 0,-2 -0.66,0 -1.32,0 -2,0 -0.75,-1.75 -0.75,-1.75 -1,-4 3.0521,-4.994342 7.69594,-5.057036 13,-4 z"
     fill="#fe6c68"
     id="path6" />
  <path
     d="m 33,56 c 15.18,0 30.36,0 46,0 0,1.32 0,2.64 0,4 -15.18,0 -30.36,0 -46,0 0,-1.32 0,-2.64 0,-4 z"
     fill="#33658a"
     id="path7" />
  <path
     d="m 17,32 c 15.18,0 30.36,0 46,0 0,1.32 0,2.64 0,4 -15.18,0 -30.36,0 -46,0 0,-1.32 0,-2.64 0,-4 z"
     fill="#33658a"
     id="path8" />
  <path
     d="m 17,92 c 13.86,0 27.72,0 42,0 0,1.32 0,2.64 0,4 -13.86,0 -27.72,0 -42,0 0,-1.32 0,-2.64 0,-4 z"
     fill="#33658a"
     id="path9" />
  <path
     d="m 68,95 c 2.842232,1.362392 4.960276,2.552332 7,5 0,0.66 0,1.32 0,2 0.598125,0.2475 1.19625,0.495 1.8125,0.75 2.482321,1.41847 3.55078,2.94265 5.1875,5.25 -2.246237,0.6997 -4.497164,1.38435 -6.75,2.0625 -1.252969,0.38285 -2.505938,0.7657 -3.796875,1.16016 C 68.326199,111.92657 66.905339,112.16654 64,111 c 0.727246,-5.52707 2.33446,-10.6996 4,-16 z"
     fill="#fad3a4"
     id="path10" />
  <path
     d="m 17,80 c 12.54,0 25.08,0 38,0 0,1.32 0,2.64 0,4 -12.54,0 -25.08,0 -38,0 0,-1.32 0,-2.64 0,-4 z"
     fill="#33658a"
     id="path11" />
  <path
     d="m 31,20 c 10.56,0 21.12,0 32,0 0,1.32 0,2.64 0,4 -10.56,0 -21.12,0 -32,0 0,-1.32 0,-2.64 0,-4 z"
     fill="#34658a"
     id="path12" />
  <path
     d="m 33,104 c 7.26,0 14.52,0 22,0 0,1.32 0,2.64 0,4 -7.26,0 -14.52,0 -22,0 0,-1.32 0,-2.64 0,-4 z"
     fill="#34658a"
     id="path13" />
  <path
     d="m 17,104 c 3.3,0 6.6,0 10,0 0,1.32 0,2.64 0,4 -3.3,0 -6.6,0 -10,0 0,-1.32 0,-2.64 0,-4 z"
     fill="#35668b"
     id="path14" />
  <path
     d="m 61,80 c 3.3,0 6.6,0 10,0 0,1.32 0,2.64 0,4 -3.3,0 -6.6,0 -10,0 0,-1.32 0,-2.64 0,-4 z"
     fill="#36678b"
     id="path15" />
  <path
     d="m 17,56 c 3.3,0 6.6,0 10,0 0,1.32 0,2.64 0,4 -3.3,0 -6.6,0 -10,0 0,-1.32 0,-2.64 0,-4 z"
     fill="#35678b"
     id="path16" />
  <path
     d="m 69,32 c 3.3,0 6.6,0 10,0 0,1.32 0,2.64 0,4 -3.3,0 -6.6,0 -10,0 0,-1.32 0,-2.64 0,-4 z"
     fill="#35668b"
     id="path17" />
  <path
     d="m 65,106 c 1.9375,0.8125 1.9375,0.8125 4,2 0.33,0.99 0.66,1.98 1,3 -1.65,0.33 -3.3,0.66 -5,1 -0.382188,-1.65615 -0.713951,-3.32457 -1,-5 0.33,-0.33 0.66,-0.66 1,-1 z"
     fill="#4e758f"
     id="path18" />
</svg>
