<svg id="_16" data-name="16" xmlns="http://www.w3.org/2000/svg" xmlns:xlink="http://www.w3.org/1999/xlink" width="1091" height="600" viewBox="0 0 1091 600">
  <defs>
    <clipPath id="clip-path">
      <rect id="Rectangle_170" data-name="Rectangle 170" width="575" height="430" transform="translate(425 93)"/>
    </clipPath>
    <clipPath id="clip-path-2">
      <rect id="Rectangle_172" data-name="Rectangle 172" width="744" height="600" transform="translate(347)"/>
    </clipPath>
    <clipPath id="clip-path-3">
      <rect id="Rectangle_171" data-name="Rectangle 171" width="711" height="444" transform="translate(406 92)"/>
    </clipPath>
    <clipPath id="clip-path-4">
      <rect id="Rectangle_173" data-name="Rectangle 173" width="1000" height="600"/>
    </clipPath>
  </defs>
  <g id="Group_532" data-name="Group 532" clip-path="url(#clip-path)">
    <rect id="Rectangle_169" data-name="Rectangle 169" width="1152" height="600" fill="#fff"/>
  </g>
  <g id="Group_534" data-name="Group 534" clip-path="url(#clip-path-2)">
    <g id="Group_533" data-name="Group 533" transform="translate(-59)" clip-path="url(#clip-path-3)">
      <path id="Path_1258" data-name="Path 1258" d="M1020.929,488.4H479.919c-28.027,0-46.775-23.5-41.847-52.6l44.649-262.1c4.929-29,31.7-52.6,59.726-52.6h541.106c28.027,0,46.775,23.5,41.847,52.6l-44.746,262.1C1075.726,464.8,1048.956,488.4,1020.929,488.4Z" transform="translate(-14.678)" fill="#dfeafe"/>
    </g>
  </g>
  <g id="Group_604" data-name="Group 604" clip-path="url(#clip-path-4)">
    <g id="Group_553" data-name="Group 553">
      <g id="Group_550" data-name="Group 550">
        <path id="Path_1472" data-name="Path 1472" d="M511.5,305.8c0,3.3-2.6,6.2,5.3,5.9,8.6-.3,5.3-2.6,5.3-5.9s.6-5.9-5.3-5.9C510.6,299.9,511.5,302.6,511.5,305.8Z" fill="#ffc8b7"/>
        <path id="Path_1473" data-name="Path 1473" d="M532,199.2s6.1,3.8,9,4.1,4.7-.3,5-1.5a5.721,5.721,0,0,0-2.4-6.8,28.911,28.911,0,0,1-5.3-4.3Z" fill="#ffc8b7"/>
        <path id="Path_1474" data-name="Path 1474" d="M566.6,206.1c-.4,0-4.8-.6-5.1-.6-3.2-.7-17.5-1.7-19.3-1.6-1.9.1-4.8-2.5-4.8-2.5l-1.3-3.5c0-.8.6-2.2,1.4-2.1,2.9.1,9.3-.1,15.9,2.3,8.8,3.2,10.5,4.2,12.8,3.8s2.6-1,4.6-1.7c2-.6,6.5,1,6.6,2.8.1,2.1-1,1.9-2.1,2a4.623,4.623,0,0,1-1.7,0c-1.4-.4-2.1-.4-2.1.1a1.937,1.937,0,0,0,1.1,1.5c.7.4,1.2,1.7,0,1.5s-.5-.8-2.2-1.3A22.234,22.234,0,0,0,566.6,206.1Z" fill="#ffc8b7"/>
        <path id="Path_1475" data-name="Path 1475" d="M539.3,190.6c-.1.3-2.9,9.7-6.4,9.8,0,0-15.3-9.3-10.3-15.6S539.3,190.6,539.3,190.6Z" fill="#b3cbf9"/>
        <g id="Group_549" data-name="Group 549">
          <path id="Path_1476" data-name="Path 1476" d="M570.9,189.9a2.634,2.634,0,0,1,3.6-.9l4,2.4a2.634,2.634,0,0,1,.9,3.6l-1.7,2.8a23.222,23.222,0,0,1,2.2,3l3.1-.8a2.646,2.646,0,0,1,3.2,2l1.1,4.5a2.646,2.646,0,0,1-2,3.2l-3.1.8a22.541,22.541,0,0,1-.6,3.6l2.8,1.7a2.731,2.731,0,0,1,.9,3.7l-2.4,4a2.634,2.634,0,0,1-3.6.9l-2.8-1.7a16.555,16.555,0,0,1-3,2.2l.8,3.1a2.646,2.646,0,0,1-2,3.2l-4.5,1.1a2.646,2.646,0,0,1-3.2-2l-.8-3.1a22.541,22.541,0,0,1-3.6-.6l-1.7,2.8a2.634,2.634,0,0,1-3.6.9l-4-2.4a2.634,2.634,0,0,1-.9-3.6l1.7-2.8a23.222,23.222,0,0,1-2.2-3l-3.1.8a2.646,2.646,0,0,1-3.2-2l-1.1-4.5a2.646,2.646,0,0,1,2-3.2l3.1-.8a22.541,22.541,0,0,1,.6-3.6l-2.8-1.7a2.634,2.634,0,0,1-.9-3.6l2.4-4a2.634,2.634,0,0,1,3.6-.9l2.8,1.7a16.555,16.555,0,0,1,3-2.2l-.8-3.1a2.646,2.646,0,0,1,2-3.2l4.5-1.1a2.646,2.646,0,0,1,3.2,2l.8,3.1a22.541,22.541,0,0,1,3.6.6Zm-18.1,11.3a14.624,14.624,0,1,0,20.4-3.4A14.68,14.68,0,0,0,552.8,201.2Z" fill="#608fdf"/>
          <circle id="Ellipse_48" data-name="Ellipse 48" cx="10.9" cy="10.9" r="10.9" transform="translate(579.691 205.862) rotate(120.856)" fill="#fea815"/>
        </g>
        <path id="Path_1477" data-name="Path 1477" d="M480.9,298.8c-2.1,2.1-5.7,2.5-.5,6.5,5.6,4.2,5.1,1.1,7.2-1s4.3-3.4.5-6.5C484.3,294.6,483.1,296.7,480.9,298.8Z" fill="#ffc8b7"/>
        <path id="Path_1478" data-name="Path 1478" d="M476.5,300.6c-1,.8-2.6,1.8-2.6,2.7,0,2.3,4.7,4.9,9,8.5,5.6,4.6,10.1,3.1,13.8,3.1,1.5,0,1.7-3.4.1-3.7-2.5-.4-5.7.1-8.8-2.1C485.2,307,478.4,299.1,476.5,300.6Z" fill="#101e41"/>
        <path id="Path_1479" data-name="Path 1479" d="M476.8,299.9c-1,.8-2.6,2.1-2.6,2.9,0,2.3,4.4,4.5,8.7,8,5.6,4.6,10.1,3.1,13.8,3.1,1.5,0,1.8-3.1.2-3.4-2.5-.4-5.8-.2-8.9-2.4C485.2,306.2,478.7,298.5,476.8,299.9Z" fill="#608fdf"/>
        <path id="Path_1480" data-name="Path 1480" d="M530.6,227.8s.7,10.3-4.7,15.1-7.2,18.4-10.9,25.4c-3.4,6.4-8.7,16.4-15.2,23.6-2.1,2.3-11.1,12.5-11.1,12.5l-10-5.5s10.8-12.8,12.1-14.6,3.3-6.5,6-9.8,6.8-19,8.2-21.9c1.4-3,2.7-12.5,3.6-15s-2.6-3.5-1.9-5.7,2.4-3.6,4.4-5S530.6,227.8,530.6,227.8Z" fill="#101e41"/>
        <path id="Path_1481" data-name="Path 1481" d="M532.6,230.1a20.02,20.02,0,0,1,0,11.4c-1.8,6.6-3.7,19.4-5,26.4-1.2,7-4.7,27.5-4.4,30.4a73.211,73.211,0,0,1,0,8.4H510s3-15.9,3-18.1-1.1-7.1-.7-11.1,1.7-13.4,1.1-16.6.3-12.8-.4-15.4-5.5-4.4-6.2-6.6-.8-6.7,0-8.8C507.6,228.1,532.6,230.1,532.6,230.1Z" fill="#23399b"/>
        <path id="Path_1482" data-name="Path 1482" d="M509,311.2c0,1.4-.5,3.8.3,4.3,2.5,1.6,8,.7,14.9.7,9,0,14.3.9,15-3,.2-1-.7-2.5-2.5-3.3-2.9-1.3-5.1.8-10.7.8C517,310.8,509,308.5,509,311.2Z" fill="#101e41"/>
        <path id="Path_1483" data-name="Path 1483" d="M508.9,310c.1,1.4-.3,3.6.4,4.3,2.1,2,7.8.7,14.6.7,8.8,0,14,.9,14.7-3,.2-1,0-1.6-1.7-2.4-2.9-1.3-5.8-.5-11.4-.1C516.7,310.2,508.8,307.6,508.9,310Z" fill="#608fdf"/>
        <path id="Path_1484" data-name="Path 1484" d="M519.1,180.6c.9-1.8.7-3,.8-5.4a13.491,13.491,0,0,0-1.1-5.1l1.1-3.2c.1-7.2,4.5-13,9.9-13,5.5,0,9.9,6,9.9,13.4,0,7.3-3.9,10-9.4,10.1-.2.3-.7,3.9-.9,4.2-.3,1.9.8,3.6-.5,5.9-.4,1.5-5.7,2.4-7.7,0S518.2,182.4,519.1,180.6Z" fill="#ffc8b7"/>
        <path id="Path_1485" data-name="Path 1485" d="M529.7,182.3l-9.8-5.9a40.471,40.471,0,0,0-7.6,7.6c-2.8,4-4.1,12.5-3.2,15.6.9,3,1.7,11.4.7,17.8s-4.2,13.5-3.4,13.9,6.5,2.6,16.7,1.6,10.6,1.1,10.6,1.1-1.2-19.7-1.4-23.4c0,0,1.3-9.7.6-13.7S529.9,183.7,529.7,182.3Z" fill="#fff"/>
        <path id="Path_1486" data-name="Path 1486" d="M529,196.1s3,6.6,2.9,9.4c-.1,2.9-1,4.6-2.2,4.8a5.719,5.719,0,0,1-6.4-3.3,26.934,26.934,0,0,0-3.5-5.8Z" fill="#ffc8b7"/>
        <path id="Path_1487" data-name="Path 1487" d="M509.7,217.5c1-6.4-.2-14.2-.8-17.3a21.051,21.051,0,0,1,3.1-15.9,45.108,45.108,0,0,1,7.8-7.9l2.5,1.5a12.1,12.1,0,0,1-2,1.9,19.954,19.954,0,0,0-7.3,15.5,39.338,39.338,0,0,0,.6,4.8,213.127,213.127,0,0,1,2.7,23.9,48.193,48.193,0,0,1-.2,9.3c-5.9-.2-9.3-1.5-9.8-1.8C505.6,231,508.7,223.9,509.7,217.5Z" fill="#b3cbf9"/>
        <path id="Path_1488" data-name="Path 1488" d="M519.5,202.2c.3,0,10-1.6,10.5-5,0,0-7.2-16.4-14.1-12.3C509.1,188.9,519.5,202.2,519.5,202.2Z" fill="#b3cbf9"/>
        <path id="Path_1489" data-name="Path 1489" d="M520.5,201.5c.3,0,9-1.4,9.5-4.8,0,0-7.3-16.3-13.9-12C510.1,188.7,520.5,201.5,520.5,201.5Z" fill="#fff"/>
        <path id="Path_1490" data-name="Path 1490" d="M559.4,211.9c.3-.2.1-.6-.3-.6-1.3.1-4.2.8-4.4.7-3.1-.8-18.7-6.7-20.2-7.6-1.7-1-6.9-.8-6.9-.8l-3.2,3.5a2.474,2.474,0,0,0,.3,2.5c2.4,1.8,10.6,3.8,17.7,4.6,9.3,1,8.9,1.2,10.8,2.6s3.3,2.4,5.3,2.8c7.6,1.5,5.2-2.6,3.7-4.6a1.731,1.731,0,0,0-1.6-.7C557.5,214.5,555.5,215.3,559.4,211.9Z" fill="#ffc8b7"/>
        <path id="Path_1491" data-name="Path 1491" d="M515.5,161.8c0-5.2,3.2-11.3,9.9-11.9,3.5-.3,8.6,1.5,9.4,2.5.4-1.2.3-1.9,4.9-1.9,12,0,4.1,8.9,4.7,10.2s-4-2.3-6.4-1.1c-1.9.9-5.5,1.1-5.5,2.2,0,5.2-3.8,9.5-8.5,9.5a8.808,8.808,0,0,1-1.7-.2c-.1,2-1.2,3.5-2.5,3.5-1.4,0-2.5-1.7-2.5-3.8a4.751,4.751,0,0,1,.6-2.4A10.417,10.417,0,0,1,515.5,161.8Z" fill="#101e41"/>
      </g>
      <g id="Group_552" data-name="Group 552">
        <path id="Path_1492" data-name="Path 1492" d="M529.7,366.9c.2-.2.3-.4.5-.6h0a3.2,3.2,0,0,0-.3-4.2l-16.4-14.8a4.973,4.973,0,0,1,0-7.4l16.4-14.8a3.081,3.081,0,0,0,.3-4.2,2.652,2.652,0,0,0-3.9-.4l-18,16.1a5.038,5.038,0,0,1-6.7,0l-18-16.1a2.652,2.652,0,0,0-3.9.4,3.2,3.2,0,0,0,.3,4.2l16.4,14.8a4.973,4.973,0,0,1,0,7.4L480,362.1c-.2.2-.3.4-.5.6h0a3.2,3.2,0,0,0,.3,4.2l16.4,14.8a4.973,4.973,0,0,1,0,7.4L480,403.8a3.081,3.081,0,0,0-.3,4.2,2.652,2.652,0,0,0,3.9.4l18-16.1a5.038,5.038,0,0,1,6.7,0l18,16.1a2.652,2.652,0,0,0,3.9-.4,3.2,3.2,0,0,0-.3-4.2L513.5,389a4.973,4.973,0,0,1,0-7.4Zm-21.5,11.6a5.038,5.038,0,0,1-6.7,0l-11.4-10.2a4.973,4.973,0,0,1,0-7.4l11.5-10.3a5.038,5.038,0,0,1,6.7,0l11.4,10.2a4.973,4.973,0,0,1,0,7.4Z" fill="#101e41"/>
        <path id="Path_1493" data-name="Path 1493" d="M545.8,416.2H466.2v-5.1a5.911,5.911,0,0,1,5.9-5.9H540a5.911,5.911,0,0,1,5.9,5.9v5.1Z" fill="#101e41"/>
        <path id="Path_1494" data-name="Path 1494" d="M535.8,412.2H474.2a1.538,1.538,0,0,1-1.5-1.5h0a1.538,1.538,0,0,1,1.5-1.5h61.6a1.538,1.538,0,0,1,1.5,1.5h0A1.538,1.538,0,0,1,535.8,412.2Z" fill="#3251b4"/>
        <g id="Group_551" data-name="Group 551">
          <rect id="Rectangle_174" data-name="Rectangle 174" width="2.1" height="44.8" transform="translate(470.5 274.8)" fill="#fea815"/>
          <rect id="Rectangle_175" data-name="Rectangle 175" width="2.1" height="44.8" transform="translate(484.1 274.8)" fill="#fea815"/>
          <rect id="Rectangle_176" data-name="Rectangle 176" width="2.1" height="44.8" transform="translate(497.8 274.8)" fill="#fea815"/>
          <rect id="Rectangle_177" data-name="Rectangle 177" width="2.1" height="44.8" transform="translate(511.4 274.8)" fill="#fea815"/>
          <rect id="Rectangle_178" data-name="Rectangle 178" width="2.1" height="44.8" transform="translate(525 274.8)" fill="#fea815"/>
          <rect id="Rectangle_179" data-name="Rectangle 179" width="2.1" height="44.8" transform="translate(538.6 274.8)" fill="#fea815"/>
        </g>
        <path id="Path_1495" data-name="Path 1495" d="M542.5,322.8H466.7a2.051,2.051,0,0,1-2.1-2.1v-2.2a2.051,2.051,0,0,1,2.1-2.1h75.8a3.159,3.159,0,0,1,3.2,3.2h0A3.222,3.222,0,0,1,542.5,322.8Z" fill="#fb660a"/>
        <path id="Path_1496" data-name="Path 1496" d="M542.5,276.8H466.7a2.051,2.051,0,0,1-2.1-2.1v-2.2a2.051,2.051,0,0,1,2.1-2.1h75.8a3.159,3.159,0,0,1,3.2,3.2h0A3.159,3.159,0,0,1,542.5,276.8Z" fill="#fb660a"/>
        <ellipse id="Ellipse_49" data-name="Ellipse 49" cx="1.5" cy="1.6" rx="1.5" ry="1.6" transform="translate(503.6 342.2)" fill="#fb660a"/>
        <ellipse id="Ellipse_50" data-name="Ellipse 50" cx="1.5" cy="1.6" rx="1.5" ry="1.6" transform="translate(480.2 321.2)" fill="#608fdf"/>
        <ellipse id="Ellipse_51" data-name="Ellipse 51" cx="1.5" cy="1.6" rx="1.5" ry="1.6" transform="translate(526.7 321.2)" fill="#608fdf"/>
        <ellipse id="Ellipse_52" data-name="Ellipse 52" cx="1.5" cy="1.6" rx="1.5" ry="1.6" transform="translate(503.5 383.9)" fill="#fb660a"/>
        <ellipse id="Ellipse_53" data-name="Ellipse 53" cx="1.5" cy="1.6" rx="1.5" ry="1.6" transform="translate(480.1 362.9)" fill="#fb660a"/>
        <ellipse id="Ellipse_54" data-name="Ellipse 54" cx="1.5" cy="1.6" rx="1.5" ry="1.6" transform="translate(526.6 362.9)" fill="#fb660a"/>
        <ellipse id="Ellipse_55" data-name="Ellipse 55" cx="1.5" cy="1.6" rx="1.5" ry="1.6" transform="translate(480.7 404.1)" fill="#fb660a"/>
        <ellipse id="Ellipse_56" data-name="Ellipse 56" cx="1.5" cy="1.6" rx="1.5" ry="1.6" transform="translate(526 404.1)" fill="#fb660a"/>
      </g>
    </g>
    <g id="Group_560" data-name="Group 560">
      <g id="Group_555" data-name="Group 555">
        <path id="Path_1497" data-name="Path 1497" d="M615.5,335.4c37.9,16.4,73.6,20.2,76.8,14.8,3.1-5.1-23.8-41.7-60.5-60.6-36.7-18.8-60.8-17-67.9-.6C555.3,308.9,577.4,318.9,615.5,335.4Z" fill="#3251b4"/>
        <path id="Path_1498" data-name="Path 1498" d="M612.7,338.9c37.9,16.4,73.6,20.2,76.8,14.8,3.1-5.1-23.8-41.7-60.5-60.6-36.7-18.8-60.8-17-67.9-.6C552.5,312.4,574.5,322.4,612.7,338.9Z" fill="#b3cbf9"/>
        <g id="Group_554" data-name="Group 554">
          <path id="Path_1499" data-name="Path 1499" d="M686.9,351.7s-3.8-2.3-10-6C680.7,347.8,684.1,349.8,686.9,351.7Z" fill="#dfeafe"/>
          <path id="Path_1500" data-name="Path 1500" d="M600.2,319.8c-5.2,2.8-7.7,7.6-8.3,6.4s2.4-6.4,7.5-9.2a30.932,30.932,0,0,1,8.6-3.3c-4.1-1.8-8.1-3.5-11.7-5.1-.8.9-4.7,2.5-8.8,4.7-4.8,2.5-7.4,6.5-7.8,5.6s2.6-5.2,7.3-7.7a32.182,32.182,0,0,1,7.9-3.2c-5.2-2.3-9.8-4.3-13.5-6.1-1.2.8-3.7,1.8-6.2,3.1-3.8,2-5.7,5.4-6,4.6-.4-.8,1.8-4.5,5.5-6.5a26,26,0,0,1,4.8-2.1c-9.1-4.4-12.3-6.7-4.9-5.7a43.59,43.59,0,0,1,6.8,1.6,19.624,19.624,0,0,1-1.1-5c-.6-4.1,1.2-8.1,2.1-8.2.9-.2-.8,3.4-.2,7.5.4,2.5.9,4.8,1.1,6.3,4.1,1.3,8.7,3.2,13.8,5.4a35,35,0,0,1-1.9-7.9c-.7-5.3,1-10.2,2-10.4s-.7,4.2,0,9.5c.6,4.1,1.5,7.9,1.4,9.4,3.5,1.5,7.1,3.2,10.8,5a33.5,33.5,0,0,1-2-7.8c-.8-5.7,1.8-11.2,3.1-11.4s-1.2,4.7-.4,10.4c.6,4.3,1.6,8.2,1.6,10,3.4,1.7,6.9,3.4,10.4,5.2a26.475,26.475,0,0,1-2.1-7.4c-.8-5.5,2.5-11,4.1-11.3s-1.6,4.6-.8,10.1c.6,4.5,1.9,8.5,1.5,10,4,2.1,8,4.2,12,6.4a22.259,22.259,0,0,1-2.7-8.6c-.8-5.7,2.7-11.4,4.4-11.7s-1.7,4.8-.8,10.5c.8,5.4,2.4,10.1,1.2,10.9,3.7,2,7.4,4.1,10.9,6.1a24.913,24.913,0,0,1-2.3-7.9c-.8-5.7,2.7-11.4,4.4-11.7s-1.7,4.8-.8,10.5c.7,4.9,2.1,9.3,1.5,10.6,3.2,1.8,6.3,3.6,9.3,5.3a28.1,28.1,0,0,1-2.3-8.9c-.8-5.4,1-10.5,2-10.7s-.7,4.4,0,9.8c.7,5.1,1.9,9.6,1.3,10.3,3.6,2.1,6.9,4,9.8,5.7a17.9,17.9,0,0,1-2.4-6.6c-.8-4-.4-7.5,0-7.6s.3,3.3,1.1,7.3c.7,3.7,2,6.6,1.8,7.1,1.4.8,2.7,1.6,3.9,2.3-1.3-.7-2.7-1.4-4.1-2.2-.6.4-3.6,1-7,2.3-3.9,1.6-6.7,3.5-6.9,3.1s2.6-2.6,6.5-4.2a19.731,19.731,0,0,1,6.7-1.6c-3.1-1.6-6.3-3.3-9.7-4.9-1.1,1-4.9,2.6-8.9,4.7-4.9,2.6-7.7,6.6-8.1,5.8-.4-.9,2.7-5.2,7.6-7.9a36.239,36.239,0,0,1,7.9-3.3c-3-1.4-6-2.9-9.2-4.4.2,1.4-4.7,2.9-9.7,5.6-5.2,2.8-7.4,8.4-8.1,6.9s1.8-7.6,7-10.4c3.5-1.9,6.9-3,8.9-3-4-1.9-8.2-3.7-12.3-5.6-.2,1.4-4.9,2.9-9.7,5.4-5.2,2.8-7.4,8.4-8.1,6.9s1.8-7.6,7-10.4a24.161,24.161,0,0,1,8.5-3c-4-1.8-8.1-3.6-12.1-5.3-.9,1.2-5,2.6-9.2,4.8-5,2.7-7.2,8-7.9,6.6s1.8-7.2,6.8-9.9a27.8,27.8,0,0,1,7.4-2.8c-3.6-1.6-7.1-3.1-10.5-4.6C609.3,315.7,604.8,317.3,600.2,319.8Z" fill="#dfeafe"/>
        </g>
      </g>
      <g id="Group_556" data-name="Group 556">
        <path id="Path_1501" data-name="Path 1501" d="M594.1,383.5c41.1-2.4,74-16.2,74.2-23,.2-6.6-41.2-29.4-82.4-30s-61.3,13-59.4,32.7C528.6,386.9,552.7,385.9,594.1,383.5Z" fill="#3251b4"/>
        <path id="Path_1502" data-name="Path 1502" d="M590.1,382.9c41.1-2.4,74-16.2,74.2-23,.2-6.6-41.2-29.4-82.4-30s-61.3,13-59.4,32.7C524.7,386.3,548.8,385.3,590.1,382.9Z" fill="#608fdf"/>
        <path id="Path_1503" data-name="Path 1503" d="M569.8,370.2c-3.2,5.3-3,11.3-4.1,10.4s-1.1-7.5,2.1-12.8a28.034,28.034,0,0,1,5.9-7.4c-4.5.3-8.7.5-12.7.7-.2,1.3-2.9,4.8-5.4,9-2.9,4.9-3.3,10-4,9.4-.8-.6-.3-6.3,2.6-11.2a36.585,36.585,0,0,1,5.3-7.1c-5.6.3-10.6.5-14.8.7-.7,1.4-2.3,3.5-3.9,6.1-2.3,3.8-2.3,8.1-3,7.5s-.7-5.3,1.6-9.1a25.155,25.155,0,0,1,3.2-4.4c-10.1.2-14-.5-7.1-3.2a39.867,39.867,0,0,1,6.7-1.8,29.275,29.275,0,0,1-3.4-4.3c-2.5-3.8-2.9-8.5-2.2-9.1s1,3.7,3.5,7.5c1.5,2.3,3.1,4.3,4,5.6a134.822,134.822,0,0,1,14.6-1.5,34.265,34.265,0,0,1-5.5-6.8c-3.2-4.8-4.1-10.5-3.3-11.2s1.4,4.5,4.7,9.4c2.5,3.8,5.2,7,5.8,8.5,3.8-.2,7.8-.3,11.9-.4a34.459,34.459,0,0,1-5.5-6.7c-3.5-5.2-3.9-11.9-2.9-12.7s1.3,5.1,4.8,10.4c2.6,3.9,5.5,7.3,6.2,9,3.8,0,7.7,0,11.6.1a27.635,27.635,0,0,1-5.4-6.3c-3.4-5.1-3.2-12-2-13.1s.9,5.3,4.3,10.4c2.7,4.1,5.8,7.4,6.2,9.1,4.5.1,9.1.2,13.6.4a25.7,25.7,0,0,1-6.6-7.1c-3.5-5.2-3.2-12.5-1.9-13.6s.9,5.5,4.4,10.7c3.3,4.9,7,8.7,6.4,10.1,4.2.2,8.4.4,12.5.6a29.292,29.292,0,0,1-5.9-6.7c-3.5-5.2-3.2-12.5-1.9-13.6s.9,5.5,4.4,10.7c3,4.5,6.4,8.1,6.5,9.7,3.7.2,7.3.4,10.6.7-1.4-.9-3.9-3.9-6.4-7.6-3.3-5-4.3-10.8-3.5-11.5.7-.6,1.5,4.6,4.8,9.6,3.1,4.6,6.3,8.5,6.2,9.5,4.1.3,8,.6,11.4.8a22.926,22.926,0,0,1-5.3-5.3c-2.7-3.6-4-7.2-3.7-7.5s1.9,3.1,4.6,6.7c2.5,3.3,5,5.6,5.1,6.1,1.6.1,3.1.2,4.6.4-1.5-.1-3-.1-4.6-.2-.3.7-2.7,2.7-4.9,5.7-2.6,3.4-4.1,6.8-4.4,6.5s1-3.9,3.6-7.3a19.78,19.78,0,0,1,5.1-4.9c-3.5-.1-7.1-.1-10.9-.1-.5,1.5-3,4.9-5.5,9-3,5-3.4,10.3-4.2,9.7s-.2-6.5,2.8-11.5a32.192,32.192,0,0,1,5.3-7.1c-3.3,0-6.7.1-10.1.2.9,1.3-2.7,5.2-5.7,10.2-3.2,5.3-2.3,11.9-3.7,10.8s-2.1-8.4,1-13.6c2.1-3.6,4.5-6.3,6.3-7.3-4.4.1-9,.3-13.5.5.5,1.4-2.9,5.2-5.8,10.1-3.2,5.3-2.3,11.9-3.7,10.8s-2.1-8.4,1-13.6a23.834,23.834,0,0,1,5.9-7.1c-4.4.2-8.8.4-13.1.7-.2,1.6-3.1,5-5.6,9.3-3.1,5.1-2.3,11.5-3.6,10.4s-2-8,1.1-13.1a25.47,25.47,0,0,1,5-6.3c-3.9.2-7.7.5-11.4.7C575.8,361.7,572.6,365.5,569.8,370.2Z" fill="#b3cbf9"/>
      </g>
      <g id="Group_558" data-name="Group 558">
        <path id="Path_1504" data-name="Path 1504" d="M639.1,395.8c28.3-16.2,47.7-39.2,46-45-1.7-5.6-37-10.8-66.2,2.9s-39.6,32.1-33,48.2C593.9,421.2,610.6,412.1,639.1,395.8Z" fill="#3251b4"/>
        <path id="Path_1505" data-name="Path 1505" d="M639.9,400.2c28.3-16.2,47.7-39.2,46-45-1.7-5.6-37-10.8-66.2,2.9s-39.6,32.1-33,48.2C594.7,425.6,611.4,416.5,639.9,400.2Z" fill="#b3cbf9"/>
        <g id="Group_557" data-name="Group 557">
          <path id="Path_1506" data-name="Path 1506" d="M683.4,355.7s-3.2,1.2-8.5,3.1C678,357.5,680.9,356.5,683.4,355.7Z" fill="#dfeafe"/>
          <path id="Path_1507" data-name="Path 1507" d="M622.1,396.4c-.8,5.5.9,10.6-.1,10.2s-2.8-6-2-11.5a28.631,28.631,0,0,1,2.1-8.3c-3.1,1.8-6,3.4-8.8,5,.2,1.2-.7,5.1-1.4,9.4-.7,5.1.4,9.6-.3,9.4-.7-.3-1.9-5.3-1.2-10.4a36.265,36.265,0,0,1,1.8-7.8c-3.9,2.2-7.3,4.1-10.2,5.6-.1,1.4-.7,3.8-1.1,6.5-.6,4,.6,7.7-.1,7.4s-1.9-4.3-1.3-8.3a31.574,31.574,0,0,1,1.1-4.8c-7.1,3.6-10,4.4-5.8-.3a28.15,28.15,0,0,1,4.3-3.8,19.763,19.763,0,0,1-3.6-2.5c-2.8-2.3-4.4-6.2-4-7,.3-.8,1.7,2.8,4.5,5.1,1.7,1.4,3.4,2.6,4.4,3.4q4.2-3,9.9-6.3a27.546,27.546,0,0,1-5.7-3.9c-3.6-3-5.7-7.5-5.4-8.3s2.2,3.4,5.8,6.3c2.8,2.3,5.5,4.2,6.4,5.2,2.6-1.5,5.4-2.9,8.3-4.4a25.279,25.279,0,0,1-5.7-3.8c-3.9-3.2-6-8.7-5.5-9.8s2.3,3.9,6.2,7.2c2.9,2.4,5.8,4.3,6.9,5.5,2.7-1.3,5.4-2.6,8.2-3.9a16.98,16.98,0,0,1-5.5-3.5c-3.8-3.1-5.5-9.1-4.9-10.5.6-1.3,2.1,4.2,5.8,7.3,3,2.5,6.1,4.3,6.8,5.6,3.2-1.5,6.5-2.9,9.7-4.3-1.6-.3-4-1.7-6.6-3.8-3.9-3.2-5.7-9.5-5.1-10.9s2.1,4.4,6,7.6c3.7,3,7.3,5,7.3,6.4,3-1.3,6.1-2.6,9-3.8a22.857,22.857,0,0,1-6-3.6c-3.9-3.2-5.7-9.5-5.1-10.9s2.1,4.4,6,7.6c3.4,2.8,6.7,4.7,7.2,6,2.7-1.1,5.2-2.1,7.7-3.1-1.2-.3-3.8-1.9-6.6-4.2-3.7-3.1-5.9-7.7-5.6-8.5s2.3,3.4,6,6.5c3.4,2.9,6.8,5,6.9,5.9,3-1.2,5.8-2.3,8.2-3.2a14.15,14.15,0,0,1-5.2-2.6c-2.8-2.1-4.8-4.7-4.7-5.1s2.2,2,5,4.1c2.6,2,5,3,5.2,3.5,1.2-.5,2.3-.9,3.3-1.3-1.1.5-2.2.9-3.3,1.4-.1.7-1.1,3.2-1.9,6.5-.9,3.8-1.1,7.2-1.4,7s-.3-3.6.5-7.4a22.215,22.215,0,0,1,2.2-5.9c-2.5,1.1-5,2.3-7.7,3.7.1,1.5-.8,5.2-1.4,9.5-.8,5.3.4,9.9-.3,9.6s-1.9-5.4-1.2-10.7a42.966,42.966,0,0,1,1.8-7.9c-2.3,1.2-4.7,2.4-7.1,3.7,1,.8-.5,5.3-1.2,10.6-.8,5.6,1.6,10.9.3,10.4s-3.8-6.4-3-11.9a23.03,23.03,0,0,1,2.4-8.3c-3.1,1.6-6.2,3.3-9.4,5.1.8,1-.6,5.4-1.3,10.5-.8,5.6,1.6,10.9.3,10.4s-3.8-6.4-3-11.9a25.715,25.715,0,0,1,2.3-8.1c-3,1.7-6.1,3.4-9.1,5.1.3,1.5-.8,5.3-1.5,9.8-.8,5.4,1.5,10.5.3,10.1s-3.6-6.1-2.8-11.5a27.807,27.807,0,0,1,1.8-7.1c-2.7,1.5-5.3,3-7.9,4.5C624,387.2,622.8,391.5,622.1,396.4Z" fill="#dfeafe"/>
        </g>
      </g>
      <path id="Path_1508" data-name="Path 1508" d="M627.1,326.5c-.2-2-2-5.2-7.4-8.8-7.2-4.7-10.5-5.3-11.4-4.4-1.2,1.2,3.4,3.1,8.7,7.1a63.885,63.885,0,0,1,5.9,5.1,174.114,174.114,0,0,0-22.9-3.1c1-2.2-.5-7.1-9.9-11.2-10.1-4.4-14.8-4.4-16.3-3-1.9,1.9,4.9,3.2,12.3,7.2a68.312,68.312,0,0,1,10.4,6.8,192.742,192.742,0,0,0-27,.6c-.1-2.5-2.9-6.4-12.2-9.6-12-4.2-17.5-4.1-19.1-2.6-2.1,1.9,5.9,3.1,14.8,6.9a81.288,81.288,0,0,1,11.3,5.9,274.988,274.988,0,0,0-35.4,6.7s-13.7,4.5-6.3,4.4c4.2-.1,11.2-3.6,30.4-7.2,4.3-.8,9-1.5,13.9-2-.3,1.5,1.6,5.4,1.5,14.2-.1,10.3-3.8,18.6.8,18.8,3.6.2,7.4-4.8,8.1-18.6.5-9.2-3.7-13.4-6.9-14.7a220.9,220.9,0,0,1,26-.7c-1.5.9,2.7,5.1,5.5,16.7,2.8,11.9.7,21.7,6.4,21.8,4.4.1,7.5-5.9,4.3-21.8-2.2-10.7-8.6-15.3-12.8-16.6a165.773,165.773,0,0,1,25,3.1h0c-1.5.6,2.6,3.5,5.5,11.5,2.8,7.6,2.8,16.4,6,13.8,4.7-3.9,6.5-5.8,3.1-13.4-2.7-6-6.7-9.4-10-11a136.66,136.66,0,0,1,24.1,8.1c0,.1,5.3,1.8,5.9,2h0c2.8.8,4.2.8-4.8-3.4A191.083,191.083,0,0,0,627.1,326.5Z" fill="#fea815"/>
      <g id="Group_559" data-name="Group 559">
        <path id="Path_1509" data-name="Path 1509" d="M608.1,298.4c21.5,35,49.2,57.6,55.3,54.5,5.9-2.9,6.5-50.2-12.5-86.8s-40.4-47.8-56.9-36.9C574.1,242.3,586.4,263.1,608.1,298.4Z" fill="#3251b4"/>
        <path id="Path_1510" data-name="Path 1510" d="M606.7,294.6c21.5,35,49.2,57.6,55.3,54.5,5.9-2.9,6.5-50.2-12.5-86.8s-40.4-47.8-56.9-36.9C572.8,238.6,585,259.3,606.7,294.6Z" fill="#608fdf"/>
        <path id="Path_1511" data-name="Path 1511" d="M608.4,270.8c-6.1-.3-11.4,2.7-11.1,1.3s6.1-4.5,12.2-4.2a29.013,29.013,0,0,1,9.3,1.7c-2.3-3.8-4.6-7.4-6.7-10.9-1.3.4-5.6-.3-10.4-.5-5.7-.3-10.4,1.9-10.2.9s5.5-3.3,11.1-3c3.8.2,7.1.7,8.7,1.4-2.9-4.8-5.5-9.1-7.6-12.7-1.5,0-4.2-.4-7.2-.5-4.4-.2-8.2,1.8-8,.9s4.4-3.1,8.8-2.9a34.044,34.044,0,0,1,5.4.7c-4.9-8.8-6.2-12.6-.5-7.7a34.133,34.133,0,0,1,4.7,5.1,28.953,28.953,0,0,1,2.2-5.1c2.1-4,6.1-6.6,7-6.3s-2.8,2.6-4.9,6.6c-1.3,2.4-2.3,4.8-3.1,6.2,2.6,3.4,5.3,7.5,8.2,12.2a35.375,35.375,0,0,1,3.4-8.1c2.7-5.1,7.4-8.6,8.3-8.2s-3.3,3.4-6,8.5c-2.1,4-3.7,7.9-4.8,9.2,1.9,3.2,3.9,6.7,5.9,10.3a35.728,35.728,0,0,1,3.3-8c3-5.6,8.6-9,9.9-8.6,1.3.5-3.9,3.5-6.9,9.1-2.2,4.2-3.8,8.2-5,9.8,1.8,3.3,3.6,6.8,5.4,10.3a30.28,30.28,0,0,1,3-7.8c2.9-5.4,9.1-8.5,10.6-7.9s-4.2,3.3-7.1,8.7c-2.3,4.4-3.8,8.6-5.1,9.8,2.1,4,4.1,8.1,6.1,12.2.1-2.1,1.2-5.5,3.2-9.2,3-5.6,9.5-8.7,11.1-8.1s-4.4,3.4-7.4,9c-2.8,5.2-4.4,10.3-5.9,10.4,1.8,3.8,3.6,7.6,5.4,11.3a27.951,27.951,0,0,1,3.1-8.3c3-5.6,9.5-8.7,11.1-8.1s-4.4,3.4-7.4,9c-2.6,4.8-4.1,9.5-5.5,10.3,1.6,3.4,3,6.6,4.4,9.7.2-1.7,1.6-5.2,3.7-9.2,2.8-5.3,7.5-8.9,8.4-8.5s-3.4,3.5-6.2,8.8c-2.6,4.9-4.5,9.6-5.5,9.9,1.7,3.8,3.3,7.3,4.7,10.4a22.8,22.8,0,0,1,2.1-7.2c1.9-4,4.4-7,4.9-6.8.4.1-1.9,3.2-3.8,7.2-1.8,3.7-2.6,7-3,7.4q1.05,2.25,1.8,4.2c-.6-1.3-1.3-2.7-2-4.1-.8,0-3.7-1.1-7.4-1.6-4.2-.7-7.9-.4-7.8-.9s3.9-.9,8.1-.3a21.852,21.852,0,0,1,6.7,2.1q-2.4-4.65-5.1-9.6c-1.6.3-5.8-.4-10.5-.6-5.8-.3-10.7,1.9-10.5.9s5.6-3.3,11.4-3a37.472,37.472,0,0,1,8.8,1.3c-1.6-2.9-3.3-5.8-5-8.8-.8,1.4-5.8.1-11.7-.2-6.1-.3-11.6,3.6-11.2,1.8s6.4-5.8,12.5-5.5c4.2.2,7.7,1,9.4,2.1-2.2-3.8-4.5-7.7-6.8-11.6-1,1.1-6-.1-11.6-.3-6.1-.3-11.6,3.6-11.2,1.8.3-1.7,6.4-5.8,12.5-5.5,3.9.2,7.2.9,9,1.9-2.3-3.8-4.5-7.5-6.8-11.2-1.6.6-5.9-.4-10.8-.6-5.9-.3-11.2,3.4-10.9,1.7s6.1-5.5,12.1-5.2a29.677,29.677,0,0,1,8,1.4c-2-3.3-4-6.6-6-9.7C618.6,272,613.8,271,608.4,270.8Z" fill="#b3cbf9"/>
      </g>
    </g>
    <g id="Group_567" data-name="Group 567">
      <g id="Group_561" data-name="Group 561">
        <path id="Path_1512" data-name="Path 1512" d="M770.3,311.7c-18.9,28.6-42.8,47.1-48,44.7-5-2.3-5-40.5,11.7-70.3s35.2-39.1,49.2-30.5C800.1,266,789.3,282.9,770.3,311.7Z" fill="#3251b4"/>
        <path id="Path_1513" data-name="Path 1513" d="M771.5,308.6c-18.9,28.6-42.8,47.1-48,44.7-5-2.3-5-40.5,11.7-70.3s35.2-39.1,49.2-30.5C801.2,262.9,790.5,279.9,771.5,308.6Z" fill="#608fdf"/>
        <path id="Path_1514" data-name="Path 1514" d="M770.4,289.4c5.2-.3,9.7,2,9.5.9s-5.2-3.6-10.4-3.3a25.7,25.7,0,0,0-8,1.5c2-3.1,4-6.1,5.8-8.9,1.1.3,4.8-.3,8.9-.5,4.8-.3,8.9,1.4,8.7.6s-4.6-2.6-9.5-2.3a31.311,31.311,0,0,0-7.5,1.2c2.6-3.9,4.8-7.4,6.6-10.4,1.3,0,3.6-.4,6.2-.5,3.8-.2,7,1.4,6.9.6s-3.7-2.5-7.5-2.2a18.582,18.582,0,0,0-4.6.7c4.3-7.2,5.4-10.3.6-6.3a32.969,32.969,0,0,0-4.1,4.2,40.046,40.046,0,0,0-1.8-4.1c-1.8-3.2-5.2-5.3-5.9-5s2.4,2.1,4.2,5.3c1.1,1.9,1.9,3.8,2.6,5a116.842,116.842,0,0,0-7.2,9.9,28.467,28.467,0,0,0-2.8-6.5c-2.3-4.1-6.2-6.8-7-6.5s2.8,2.7,5.1,6.8c1.8,3.2,3.1,6.3,4,7.4-1.7,2.6-3.4,5.5-5.2,8.4a28.191,28.191,0,0,0-2.7-6.5c-2.5-4.5-7.3-7.2-8.3-6.8s3.3,2.8,5.8,7.3c1.9,3.4,3.2,6.6,4.2,7.8q-2.4,4.05-4.8,8.4a19.509,19.509,0,0,0-2.5-6.2c-2.4-4.3-7.7-6.8-9-6.3s3.6,2.6,6,6.9c1.9,3.5,3.2,6.9,4.2,7.8-1.8,3.3-3.6,6.6-5.3,9.9a20.463,20.463,0,0,0-2.6-7.4c-2.5-4.5-8-7-9.4-6.4-1.4.5,3.7,2.7,6.2,7.2,2.3,4.2,3.6,8.3,4.9,8.4-1.6,3.1-3.2,6.2-4.7,9.2a19.234,19.234,0,0,0-2.6-6.7c-2.5-4.5-8-7-9.4-6.4-1.4.5,3.7,2.7,6.2,7.2,2.1,3.9,3.4,7.6,4.6,8.3-1.4,2.7-2.7,5.4-3.9,7.9-.1-1.4-1.3-4.2-3-7.4-2.3-4.2-6.3-7.1-7.1-6.8s2.9,2.8,5.2,7c2.2,4,3.7,7.7,4.6,8-1.5,3.1-2.9,5.9-4.1,8.5a16.566,16.566,0,0,0-1.7-5.8c-1.6-3.2-3.7-5.6-4.1-5.5s1.6,2.5,3.1,5.8c1.5,3,2.1,5.6,2.5,5.9-.6,1.2-1.1,2.4-1.6,3.4.6-1.1,1.2-2.2,1.8-3.4.7,0,3.2-.9,6.3-1.4,3.6-.6,6.8-.4,6.7-.8s-3.3-.7-7-.1a18.821,18.821,0,0,0-5.8,1.8q2.1-3.75,4.5-7.8c1.3.2,5-.4,9-.6,5-.3,9.1,1.4,9,.6s-4.8-2.6-9.8-2.3a34.421,34.421,0,0,0-7.5,1.1c1.4-2.4,2.9-4.8,4.4-7.2.6,1.1,5,0,10-.3,5.3-.3,9.9,2.7,9.6,1.3s-5.4-4.6-10.6-4.3c-3.6.2-6.6.9-8.1,1.8,1.9-3.1,4-6.3,6-9.5.9.9,5.1-.1,9.9-.4,5.3-.3,9.9,2.7,9.6,1.3s-5.4-4.6-10.6-4.3a22.439,22.439,0,0,0-7.8,1.6c2-3.1,4-6.1,6-9.2,1.3.5,5.1-.4,9.3-.6,5.1-.3,9.5,2.6,9.3,1.3-.3-1.3-5.2-4.4-10.3-4.1a21.517,21.517,0,0,0-6.8,1.3c1.8-2.7,3.5-5.4,5.2-7.9C761.6,290.5,765.7,289.6,770.4,289.4Z" fill="#b3cbf9"/>
      </g>
      <g id="Group_563" data-name="Group 563">
        <path id="Path_1515" data-name="Path 1515" d="M797.7,348c-44.9,37.7-91.8,57.3-98.3,51.3-6.3-5.7,15.3-66.3,57.6-106.9,42.2-40.5,75.7-47.8,92-28.3C868.7,287.5,842.8,310,797.7,348Z" fill="#3251b4"/>
        <path id="Path_1516" data-name="Path 1516" d="M803,351.6c-44.9,37.7-91.8,57.3-98.3,51.3-6.3-5.7,15.3-66.3,57.6-106.9,42.2-40.5,75.7-47.8,92-28.3C874,291.2,848.1,313.7,803,351.6Z" fill="#b3cbf9"/>
        <g id="Group_562" data-name="Group 562">
          <path id="Path_1517" data-name="Path 1517" d="M707.4,399.1s4.2-4.7,11.1-12.2C714.2,391.3,710.4,395.4,707.4,399.1Z" fill="#dfeafe"/>
          <path id="Path_1518" data-name="Path 1518" d="M812.2,320.5c8.2,1.6,13.6,7.2,13.9,5.4s-5.8-7.8-14-9.4c-5.4-1.1-10.2-1.4-13-.9,4.9-4.1,9.5-8,13.9-11.7,1.5,1,7.4,1.5,13.9,2.8,7.5,1.5,12.7,5.8,12.9,4.5s-5.6-6-13.1-7.5a51.289,51.289,0,0,0-12.1-1.2c6.1-5.2,11.5-9.8,15.9-13.7,2,.5,5.7.9,9.7,1.7,5.9,1.2,9.9,5.1,10.1,3.8s-4.3-5.4-10.2-6.6a36.931,36.931,0,0,0-7.4-.9c10.6-9.6,14.1-14.1,4.4-9.7a74.6,74.6,0,0,0-8.6,4.9,38.953,38.953,0,0,0-.5-7.2c-.9-5.9-4.9-10.5-6.2-10.3s2.4,4.2,3.3,10.1c.5,3.5.7,6.9,1.1,9a206.437,206.437,0,0,0-16.5,12.9,49.3,49.3,0,0,0-.6-11.5c-1.1-7.5-5.5-13.4-6.9-13.3s2.7,5.4,3.9,12.9c.9,5.9,1.2,11.3,1.9,13.3-4.1,3.5-8.3,7.3-12.7,11.2a46.655,46.655,0,0,0-.5-11.4c-1.2-8.1-7-14.4-8.8-14.2s3.5,5.8,4.7,13.9c.9,6.1,1.1,11.8,1.9,14.2-4,3.7-8,7.5-12,11.3a36.754,36.754,0,0,0-.2-10.9c-1.2-7.9-7.9-13.9-10.2-13.6-2.3.2,4,5.6,5.2,13.5,1,6.3.9,12.2,2,14.2-4.6,4.5-9.2,9-13.7,13.6.9-2.7,1-7.5.2-12.8-1.2-8.1-8.3-14.3-10.7-14.1-2.4.3,4.2,5.8,5.4,13.9,1.2,7.6.8,14.7,2.8,15.3-4.2,4.3-8.4,8.5-12.4,12.7a35.264,35.264,0,0,0-.1-11.7c-1.2-8.1-8.3-14.3-10.7-14.1-2.4.3,4.2,5.8,5.4,13.9,1.1,7,.9,13.5,2.3,15-3.6,3.8-7.1,7.4-10.4,10.9.6-2.2.4-7.2-.4-13-1.2-7.7-5.6-13.8-7-13.7s2.8,5.6,3.9,13.3c1.1,7.2,1.3,13.8,2.4,14.5-4,4.3-7.7,8.2-11,11.8a26.672,26.672,0,0,0,.6-9.9c-.6-5.8-2.5-10.4-3.1-10.3-.6,0,.9,4.7,1.5,10.4.5,5.3,0,9.8.4,10.4-1.6,1.7-3,3.3-4.4,4.8l4.6-4.6c1,.3,5.3-.1,10.4.4,5.9.6,10.6,2.1,10.6,1.5s-4.6-2.5-10.5-3.1a30.148,30.148,0,0,0-9.8.5c3.5-3.4,7.3-7,11.2-10.6,1.9.9,7.8,1.5,14,2.7,7.8,1.6,13.1,5.9,13.3,4.6s-5.8-6-13.5-7.6a57.717,57.717,0,0,0-12.1-1.3c3.5-3.2,7-6.4,10.7-9.7.3,2,7.6,2.1,15.4,3.6,8.2,1.7,13.5,8.4,13.8,6.1.4-2.3-5.6-9.6-13.7-11.2-5.5-1.1-10.5-1.2-13.3-.5,4.7-4.2,9.6-8.4,14.5-12.6.8,1.8,7.8,1.9,15.3,3.4,8.2,1.7,13.5,8.4,13.8,6.1.4-2.3-5.6-9.6-13.7-11.2-5.2-1.1-9.9-1.2-12.7-.6,4.8-4.1,9.5-8.1,14.3-12.1,1.8,1.3,7.9,1.5,14.4,2.8,7.9,1.6,13,8,13.4,5.8s-5.4-9.1-13.3-10.7a38.067,38.067,0,0,0-11.1-.8c4.2-3.6,8.4-7.1,12.5-10.5C798.2,318.7,804.9,319.1,812.2,320.5Z" fill="#dfeafe"/>
        </g>
      </g>
      <g id="Group_564" data-name="Group 564">
        <path id="Path_1519" data-name="Path 1519" d="M786.4,387.7c-36.4-3.1-66-14.9-66.3-20.3-.4-5.2,35.6-21.8,72.1-21s54.6,12,53.6,27.4C844.4,392.3,823.1,390.8,786.4,387.7Z" fill="#3251b4"/>
        <path id="Path_1520" data-name="Path 1520" d="M789.8,387.3c-36.4-3.1-66-14.9-66.3-20.3-.4-5.2,35.6-21.8,72.1-21s54.6,12,53.6,27.4C847.9,391.9,826.5,390.5,789.8,387.3Z" fill="#608fdf"/>
        <path id="Path_1521" data-name="Path 1521" d="M807.4,377.9c3,4.2,3,8.9,3.9,8.3s.8-5.8-2.2-10.1a28.05,28.05,0,0,0-5.4-6c4,.3,7.7.7,11.3,1,.2,1,2.7,3.8,5,7.2,2.7,3.9,3.2,8,3.9,7.5s.1-5-2.6-8.9a31.322,31.322,0,0,0-4.9-5.7c5,.4,9.4.7,13.1,1,.7,1.1,2.2,2.9,3.6,4.9,2.1,3,2.2,6.4,2.9,6s.4-4.2-1.7-7.2a18.554,18.554,0,0,0-3-3.5c8.9.4,12.4,0,6.2-2.3a46.169,46.169,0,0,0-6-1.6,19.948,19.948,0,0,0,2.9-3.3c2.1-2.9,2.3-6.6,1.7-7.1s-.7,2.9-2.9,5.8c-1.3,1.7-2.6,3.3-3.4,4.3a128.216,128.216,0,0,0-13-1.6,25.3,25.3,0,0,0,4.7-5.2c2.7-3.7,3.3-8.1,2.6-8.7-.7-.5-1.1,3.5-3.8,7.2-2.1,2.9-4.4,5.3-4.9,6.5-3.3-.3-6.9-.5-10.5-.6a30.509,30.509,0,0,0,4.7-5.1c2.9-4,3.1-9.2,2.2-9.9s-1,4-3.9,8c-2.2,3-4.6,5.5-5.3,6.9-3.4-.1-6.8-.2-10.3-.3a19.363,19.363,0,0,0,4.6-4.8c2.9-3.9,2.5-9.3,1.3-10.2-1.1-.9-.6,4.1-3.5,8-2.3,3.1-4.9,5.6-5.2,6.9-4-.1-8-.1-12-.1a18.392,18.392,0,0,0,5.6-5.4c3-4,2.5-9.7,1.3-10.6s-.6,4.3-3.6,8.3c-2.8,3.8-6,6.6-5.4,7.7-3.8,0-7.5,0-11,.1a18.613,18.613,0,0,0,5-5.1c3-4,2.5-9.7,1.3-10.6s-.6,4.3-3.6,8.3c-2.5,3.5-5.4,6.2-5.4,7.4-3.3.1-6.4.1-9.4.2,1.2-.7,3.3-2.9,5.4-5.8,2.8-3.8,3.5-8.3,2.8-8.9-.7-.5-1.2,3.6-4,7.4-2.6,3.5-5.4,6.5-5.2,7.3-3.6.1-7,.2-10,.3a15.743,15.743,0,0,0,4.5-4c2.2-2.7,3.4-5.5,3.1-5.8s-1.6,2.4-3.8,5.1c-2.1,2.5-4.2,4.2-4.3,4.6-1.4,0-2.8.1-4,.1h4.1c.3.6,2.4,2.2,4.5,4.6,2.4,2.8,3.8,5.4,4.1,5.2s-1-3.1-3.4-5.8a22.034,22.034,0,0,0-4.6-4q4.65,0,9.6.3c.5,1.2,2.8,4,5.1,7.2,2.8,4,3.3,8.2,4,7.7s0-5.1-2.8-9.1a27.829,27.829,0,0,0-4.9-5.7c2.9.1,5.9.3,9,.5-.7,1,2.5,4.2,5.3,8.2,3,4.2,2.4,9.4,3.6,8.6s1.6-6.5-1.3-10.7a20.161,20.161,0,0,0-5.8-5.9c3.9.2,7.9.5,12,.8-.4,1.1,2.7,4.2,5.4,8.1,3,4.2,2.4,9.4,3.6,8.6s1.6-6.5-1.3-10.7a20.019,20.019,0,0,0-5.5-5.7c3.9.3,7.8.6,11.6.9.2,1.3,2.9,4,5.3,7.4,2.9,4.1,2.4,9,3.5,8.3,1.1-.8,1.5-6.2-1.4-10.3a24,24,0,0,0-4.6-5.1c3.5.3,6.8.6,10.1.9C801.9,371.1,804.8,374.2,807.4,377.9Z" fill="#b3cbf9"/>
      </g>
      <g id="Group_566" data-name="Group 566">
        <path id="Path_1522" data-name="Path 1522" d="M755.7,413.1c-23.4-3.5-42.4-14.3-42.8-19-.3-4.5,22.4-18.3,45.8-16.9,23.3,1.4,35.1,11.6,34.7,25C792.9,418.3,779.2,416.6,755.7,413.1Z" fill="#3251b4"/>
        <path id="Path_1523" data-name="Path 1523" d="M756.3,416.4c-23.4-3.5-42.4-14.3-42.8-19-.3-4.5,22.4-18.3,45.8-16.9,23.3,1.4,35.1,11.6,34.7,25C793.5,421.7,779.8,420,756.3,416.4Z" fill="#b3cbf9"/>
        <g id="Group_565" data-name="Group 565">
          <path id="Path_1524" data-name="Path 1524" d="M715.4,397.1s2.5-.1,6.6-.2A45.548,45.548,0,0,0,715.4,397.1Z" fill="#dfeafe"/>
          <path id="Path_1525" data-name="Path 1525" d="M767.4,408.7c2,3.7,2.1,7.8,2.6,7.3.6-.5.4-5.1-1.6-8.8a20.512,20.512,0,0,0-3.6-5.3c2.5.4,5,.7,7.2,1.1.2.9,1.8,3.4,3.3,6.4,1.8,3.4,2.2,7,2.6,6.6s0-4.3-1.8-7.8a28.994,28.994,0,0,0-3.2-5.1c3.2.5,6,.8,8.4,1.1.4,1,1.4,2.5,2.4,4.3,1.4,2.7,1.5,5.6,1.9,5.3.4-.4.2-3.6-1.2-6.3-.7-1.3-1.4-2.4-1.9-3.2,5.7.6,7.9.3,3.9-1.9a17.632,17.632,0,0,0-3.9-1.5,19.637,19.637,0,0,0,1.8-2.8c1.3-2.5,1.4-5.7,1-6.1s-.4,2.5-1.8,5c-.8,1.5-1.6,2.8-2.1,3.7a55.671,55.671,0,0,0-8.3-1.6,18.389,18.389,0,0,0,2.9-4.4c1.7-3.2,2-7,1.5-7.5-.4-.5-.7,3-2.4,6.2-1.3,2.5-2.7,4.6-3,5.6-2.1-.3-4.4-.5-6.8-.8a22.452,22.452,0,0,0,2.9-4.3c1.8-3.4,1.8-7.9,1.2-8.6-.6-.6-.6,3.5-2.4,6.9-1.4,2.6-2.9,4.7-3.3,5.9-2.1-.2-4.4-.3-6.6-.5a14.984,14.984,0,0,0,2.9-4.1c1.8-3.3,1.4-8.1.7-8.9s-.3,3.6-2.1,6.9c-1.4,2.7-3,4.8-3.2,5.9-2.6-.1-5.1-.2-7.7-.3a13.466,13.466,0,0,0,3.5-4.6c1.8-3.4,1.4-8.4.7-9.2-.8-.8-.3,3.7-2.2,7.2-1.7,3.2-3.7,5.7-3.3,6.6-2.4-.1-4.8-.1-7.1-.1a14.891,14.891,0,0,0,3.1-4.3c1.8-3.4,1.4-8.4.7-9.2-.8-.8-.3,3.7-2.2,7.2-1.6,3-3.4,5.3-3.4,6.4h-6a18.449,18.449,0,0,0,3.4-4.9c1.7-3.3,2.1-7.2,1.6-7.7-.4-.5-.7,3.1-2.4,6.4-1.6,3-3.3,5.5-3.2,6.2-2.3,0-4.5,0-6.4.1a10.672,10.672,0,0,0,2.9-3.4c1.4-2.3,2.1-4.7,1.9-5-.2-.2-1,2.1-2.4,4.4-1.3,2.2-2.6,3.6-2.7,4h-2.6a23.482,23.482,0,0,1,2.6.1c.2.5,1.6,2,3,4.1,1.6,2.5,2.5,4.8,2.7,4.6s-.7-2.7-2.3-5.2a18.827,18.827,0,0,0-3-3.6c2,.1,4,.2,6.2.4.3,1.1,1.9,3.5,3.4,6.4,1.9,3.6,2.3,7.2,2.7,6.8s-.1-4.4-1.9-8a28.994,28.994,0,0,0-3.2-5.1c1.9.2,3.8.4,5.8.6-.4.9,1.7,3.7,3.5,7.2,2,3.7,1.7,8.2,2.4,7.5s1-5.6-1-9.4a18.525,18.525,0,0,0-3.8-5.3c2.5.3,5.1.6,7.7,1-.3,1,1.8,3.7,3.6,7.1,2,3.7,1.7,8.2,2.4,7.5s1-5.6-1-9.4a18.172,18.172,0,0,0-3.6-5.1c2.5.3,5,.7,7.5,1,.2,1.1,1.9,3.6,3.5,6.6,1.9,3.6,1.7,7.9,2.4,7.3s.9-5.4-1-9a18.23,18.23,0,0,0-3.1-4.6c2.2.3,4.4.6,6.5,1C763.8,402.6,765.7,405.3,767.4,408.7Z" fill="#dfeafe"/>
        </g>
      </g>
      <path id="Path_1526" data-name="Path 1526" d="M742.2,363.7c-.6-1.5-.6-4.6,1.6-9.4,2.9-6.4,4.8-8.1,5.8-7.8,1.2.4-1.1,3.6-3,8.7a39.081,39.081,0,0,0-1.9,6.1,138.447,138.447,0,0,1,13.6-11.5c-1.4-1.2-2.2-5.4,2.3-12.2,4.9-7.3,7.9-9.2,9.4-8.8,1.9.6-2,4.3-5.3,10.2a62.859,62.859,0,0,0-4.2,9.1,141.084,141.084,0,0,1,17.6-10.5c-.8-1.8-.4-5.8,4.4-11.9,6.2-7.9,9.8-10.1,11.3-9.6,2,.6-2.7,4.7-7,11a65.716,65.716,0,0,0-5.1,8.8,173.055,173.055,0,0,1,25.2-9.4s10.4-2.3,5.7.6c-2.7,1.6-8.5,1.9-22.2,7.1-3,1.2-6.3,2.6-9.7,4.2.7,1,.9,4.6,4.2,10.9,3.8,7.4,9.2,12,6.3,14-2.2,1.6-6.5-.5-12-10.3-3.7-6.5-2.5-11.3-.9-13.5a153.18,153.18,0,0,0-17,10c1.3.1.1,4.8,2.5,14.4,2.5,9.7,7.4,16.1,3.8,18.4-2.8,1.8-7-1.2-10.7-14.1-2.5-8.6,0-14.6,2.2-17.2a132.254,132.254,0,0,0-15,12.3h0c1.1-.2-.4,3.6.6,10.6,1,6.7,4.1,13.1,1.1,12.5-4.4-.9-6.3-1.6-6.9-8.5a19.782,19.782,0,0,1,2.4-12,104.605,104.605,0,0,0-12.6,15.6c.1,0-2.8,3.5-3.1,3.8-.2.1-.4.3-.6.4.2-.1.4-.3.6-.4-1.5,1.7-2.4,2.3,1.8-4.4C727.5,381.1,733,373,742.2,363.7Z" fill="#fea815"/>
    </g>
    <g id="Group_585" data-name="Group 585">
      <g id="Group_576" data-name="Group 576">
        <path id="Path_1527" data-name="Path 1527" d="M729.1,341.6l.1,10.3a16.283,16.283,0,0,1-13.8,16.2l-2.5,9.4a11.646,11.646,0,0,1-11.2,8.7l-25.2.1a11.673,11.673,0,0,1-11.3-8.6l-2.5-9.3a16.38,16.38,0,0,1-14-16.2l-.1-10.3a9.944,9.944,0,0,1,9.9-10l60.5-.3A10.182,10.182,0,0,1,729.1,341.6Z" fill="#23399b"/>
        <path id="Path_1528" data-name="Path 1528" d="M775.4,184.9a87.82,87.82,0,0,1-24.6,60.7c-11.4,11.9-17.9,47.9-20.3,64.1-1,7-7,23.1-14.1,23.2l-53.9.3c-7,0-13.1-16-14.2-23-2.6-16.2-11-52.3-22.5-64-14.9-15.3-23.6-36.4-23.9-59.4-.8-48.3,37.7-55.4,85.9-56.1C736,130.1,775.2,136.7,775.4,184.9Z" fill="#fea815"/>
        <g id="Group_568" data-name="Group 568">
          <rect id="Rectangle_180" data-name="Rectangle 180" width="1.4" height="51.7" transform="translate(686.275 199.106) rotate(-0.674)" fill="#101e41"/>
        </g>
        <g id="Group_569" data-name="Group 569">
          <rect id="Rectangle_181" data-name="Rectangle 181" width="1.4" height="52.7" transform="translate(689.238 199.236) rotate(-1.506)" fill="#101e41"/>
        </g>
        <g id="Group_570" data-name="Group 570">
          <rect id="Rectangle_182" data-name="Rectangle 182" width="80.4" height="1.4" transform="translate(648.712 342.107) rotate(0.282)" fill="#fff"/>
        </g>
        <g id="Group_571" data-name="Group 571">
          <path id="Path_1529" data-name="Path 1529" d="M729.1,348.5l-80.4-.4v-1.4l80.4.5Z" fill="#fff"/>
        </g>
        <g id="Group_572" data-name="Group 572">
          <path id="Path_1530" data-name="Path 1530" d="M729,353.5l-80.2-.4-.1-.5v-.9l80.4.5v.7Z" fill="#fff"/>
        </g>
        <g id="Group_573" data-name="Group 573">
          <rect id="Rectangle_183" data-name="Rectangle 183" width="70" height="1.4" transform="translate(662.719 186.985) rotate(74.151)" fill="#101e41"/>
        </g>
        <g id="Group_574" data-name="Group 574">
          <rect id="Rectangle_184" data-name="Rectangle 184" width="70" height="1.4" transform="translate(712.182 186.616) rotate(102.011)" fill="#101e41"/>
        </g>
        <path id="Path_1531" data-name="Path 1531" d="M703.3,277.5h0a5.421,5.421,0,0,1-5.4-5.3l-.1-16.5a1.923,1.923,0,0,0-2-1.9h0a1.988,1.988,0,0,1-2-1.9v-.2a1.923,1.923,0,0,0-2-1.9h-5.9a1.923,1.923,0,0,0-1.9,2v.2a1.988,1.988,0,0,1-1.9,2h0a1.923,1.923,0,0,0-1.9,2l.1,16.5a5.421,5.421,0,0,1-5.3,5.4h0a3.543,3.543,0,0,0-3.5,3.5l.4,51.9,35.2-.3-.4-51.9A3.309,3.309,0,0,0,703.3,277.5Z" fill="#101e41"/>
        <g id="Group_575" data-name="Group 575">
          <path id="Path_1532" data-name="Path 1532" d="M710.5,188.2a4.737,4.737,0,0,0-3.9-2.4,11.944,11.944,0,0,0-3.3.3,2.626,2.626,0,0,1-.9,2.5,1.845,1.845,0,0,1-1.9.1,1.28,1.28,0,0,1-.7-1.3c.1-1.1,1.3-1.5,1.7-1.6a6.891,6.891,0,0,1,.8-.3,5.792,5.792,0,0,0-4.2-3.8,12.105,12.105,0,0,0-6.7.4c-.2.1-.5.2-.7.3a3.185,3.185,0,0,1,.2,2.7,1.666,1.666,0,0,1-2,1.1,2.168,2.168,0,0,1-1-1.1,2.617,2.617,0,0,1,1.4-3,8.347,8.347,0,0,0-1.6-1.2,8.53,8.53,0,0,0-7.9.7,4.194,4.194,0,0,1,.9,1.4,2.678,2.678,0,0,1-.2,2.3,1.785,1.785,0,0,1-1.2.9,2.026,2.026,0,0,1-1.5-.4,2.732,2.732,0,0,1-.8-1.9,4.291,4.291,0,0,1,1.2-2.3,5.268,5.268,0,0,0-3.7-.4h0a10.969,10.969,0,0,0-4,2.4,2.7,2.7,0,0,1,.7.8,2.635,2.635,0,0,1,.3,2.1l-.1.2-2.1.7-1.1-2.9.2-.2.4-.4h-.1a7.284,7.284,0,0,0-3.7,1.5c-1.3.9-2.7,1.9-2.9,3.3l-1-.2c.3-1.8,1.8-2.9,3.3-4,1.4-.9,2.7-1.8,4.3-1.7a2.921,2.921,0,0,1,.9.2,11.638,11.638,0,0,1,4.6-2.9h0a6.21,6.21,0,0,1,4.8.7,9.534,9.534,0,0,1,9.1-.9,5.6,5.6,0,0,1,2.1,1.6,4.179,4.179,0,0,1,1-.4,12.08,12.08,0,0,1,7.2-.4,6.972,6.972,0,0,1,4.9,4.5,10.489,10.489,0,0,1,3.6-.4,5.591,5.591,0,0,1,4.6,2.9Zm-8.1-1.8c-.2.1-.4.1-.6.2-.7.2-1,.5-1,.8a.519.519,0,0,0,.2.4.6.6,0,0,0,.8,0A1.537,1.537,0,0,0,702.4,186.4Zm-12.7-3.7a1.884,1.884,0,0,0-1,1.9c.1.2.2.4.3.4.3.1.7-.2.8-.6A1.736,1.736,0,0,0,689.7,182.7Zm-10.8-.7a2.333,2.333,0,0,0-1,1.7,2.1,2.1,0,0,0,.4,1.1.748.748,0,0,0,.7.2.664.664,0,0,0,.5-.4,1.93,1.93,0,0,0,.1-1.5A4.13,4.13,0,0,0,678.9,182Zm-9.8,2.6.5,1.4.8-.3a1.644,1.644,0,0,0-.2-1c-.2-.2-.4-.5-.6-.6C669.5,184.3,669.3,184.4,669.1,184.6Z" fill="#fff"/>
        </g>
        <path id="Path_1533" data-name="Path 1533" d="M690.3,201.3H687a2.263,2.263,0,0,1-2.3-2.3h0a2.263,2.263,0,0,1,2.3-2.3h3.3a2.263,2.263,0,0,1,2.3,2.3h0A2.263,2.263,0,0,1,690.3,201.3Z" fill="#101e41"/>
      </g>
      <g id="Group_580" data-name="Group 580">
        <path id="Path_1534" data-name="Path 1534" d="M729,370.1l.1,10.3a16.283,16.283,0,0,1-13.8,16.2l-2.5,9.4a11.646,11.646,0,0,1-11.2,8.7l-25.2.1a11.673,11.673,0,0,1-11.3-8.6l-2.5-9.3a16.38,16.38,0,0,1-14-16.2l-.1-10.3a9.944,9.944,0,0,1,9.9-10l60.5-.3A10.051,10.051,0,0,1,729,370.1Z" fill="#23399b"/>
        <g id="Group_577" data-name="Group 577">
          <rect id="Rectangle_185" data-name="Rectangle 185" width="80.4" height="1.4" transform="translate(648.612 370.507) rotate(0.282)" fill="#fff"/>
        </g>
        <g id="Group_578" data-name="Group 578">
          <path id="Path_1535" data-name="Path 1535" d="M729.1,377l-80.4-.4v-1.4l80.4.4Z" fill="#fff"/>
        </g>
        <g id="Group_579" data-name="Group 579">
          <path id="Path_1536" data-name="Path 1536" d="M729,382l-80.3-.4v-1.4l80.4.4v.8Z" fill="#fff"/>
        </g>
      </g>
      <g id="Group_584" data-name="Group 584">
        <path id="Path_1537" data-name="Path 1537" d="M729.1,396.3l.1,10.3a16.371,16.371,0,0,1-9,14.7,12.8,12.8,0,0,0-6.5,8.2l-.7,2.7a11.646,11.646,0,0,1-11.2,8.7l-25.2.1a11.673,11.673,0,0,1-11.3-8.6l-.7-2.7a12.94,12.94,0,0,0-6.6-8.2,16.618,16.618,0,0,1-9.2-14.7l-.1-10.3a9.944,9.944,0,0,1,9.9-10l60.5-.3A10.318,10.318,0,0,1,729.1,396.3Z" fill="#23399b"/>
        <g id="Group_581" data-name="Group 581">
          <rect id="Rectangle_186" data-name="Rectangle 186" width="80.4" height="1.4" transform="translate(648.712 396.707) rotate(0.282)" fill="#fff"/>
        </g>
        <g id="Group_582" data-name="Group 582">
          <path id="Path_1538" data-name="Path 1538" d="M729.1,403.2l-80.4-.4v-1.4l80.4.4Z" fill="#fff"/>
        </g>
        <g id="Group_583" data-name="Group 583">
          <path id="Path_1539" data-name="Path 1539" d="M729,408.2l-80.3-.4v-1.4l80.4.4v.7Z" fill="#fff"/>
        </g>
      </g>
    </g>
    <g id="Group_593" data-name="Group 593">
      <path id="Path_1540" data-name="Path 1540" d="M600.1,506.2s-4,5.2-8.2,3.7c-4.2-1.6-6.1-1.7-5.8-4.3.5-4.1,2.8-3,4-5.8a58.814,58.814,0,0,1,3.7-6.2l8.1,2.4a.9.9,0,0,1,.6,1.2Z" fill="#23399b"/>
      <path id="Path_1541" data-name="Path 1541" d="M600.4,505.3s-3.6,4-7.7,2.6-5.8-1.6-5.7-3.8,2-2.2,3.1-4.5c1.1-2.2,2.9-5.3,2.9-5.3l9.6,2.5Z" fill="#fff"/>
      <path id="Path_1542" data-name="Path 1542" d="M636,506.2s3.6,5.5,7.9,4.3,6.3-1.2,6.1-3.8c-.2-4.2-2.5-3.2-3.6-6a63.341,63.341,0,0,0-3.2-6.5l-8.3,1.8a.921.921,0,0,0-.7,1.1Z" fill="#23399b"/>
      <path id="Path_1543" data-name="Path 1543" d="M635.8,505.2s3.3,4.3,7.5,3.1c4.2-1.1,5.9-1.2,6-3.4s-1.9-2.4-2.8-4.7-2.5-5.5-2.5-5.5l-9.8,1.8Z" fill="#fff"/>
      <path id="Path_1544" data-name="Path 1544" d="M664.9,376.4c-.1-.9,1.1-1.5,2.5-2.8,1.4-1.2.4-3,1.4-4s2-2.9,3.8-2.3,4,3.8.9,5.6c-3.2,1.8-2.1,3.1-3,3.9-.9.7-4.1.9-4.1.9Z" fill="#ffc8b7"/>
      <path id="Path_1545" data-name="Path 1545" d="M654.7,393.3s2.7.8,2.3,2.4c-.3,1.6-17.3,9.9-19.8,10-5.8.2-9.1-1.4-7.4-4.5,2.4-4.3,8.5-2.9,11.1-3.2S654.2,394,654.7,393.3Z" fill="#3251b4"/>
      <path id="Path_1546" data-name="Path 1546" d="M627.9,415.7l16.4,79.5a8.324,8.324,0,0,1-5.7,4c-3.8.5-4.1-.2-4.1-.2L616,439.4l-12.7,57.2s-8.7,6.6-11.3-.2l6-81.8Z" fill="#3251b4"/>
      <path id="Path_1547" data-name="Path 1547" d="M616,439.4s0-1.8-.1-3.6c-.1-1-2.4-3.7-2.1-4.4a81.428,81.428,0,0,0-3.6,10.9c-1.2,4.7-2.9,9.2-4.5,13.8-4.9,13.5-8.2,28.8-12.2,42.5.3.2,1,2,5.8.2a18.6,18.6,0,0,0,4.1-2.2Z" fill="#23399b"/>
      <path id="Path_1548" data-name="Path 1548" d="M644.3,495.2l-16.4-79.5-5.1-.2c.2.5.7,1,.6,1.5-1.6,4.6-1.2,9.8-.6,14.4a154.2,154.2,0,0,0,4,19.1c4,16,10.7,31.6,14.6,47.6A7.558,7.558,0,0,0,644.3,495.2Z" fill="#23399b"/>
      <path id="Path_1549" data-name="Path 1549" d="M631.6,406.5a2.732,2.732,0,0,0,1.9.8l2.6.2c2.9-.3,2.2-4.4,1.9-7l-6.7-23.2a12.476,12.476,0,0,0-2.6-4.8,12.119,12.119,0,0,0-4.1-3H620c-2.9.3-2,4.1-1.7,6.7l6.9,22.4C625.5,400.9,628.9,403.9,631.6,406.5Z" fill="#3251b4"/>
      <ellipse id="Ellipse_57" data-name="Ellipse 57" cx="10.5" cy="12.6" rx="10.5" ry="12.6" transform="matrix(-0.947, 0.322, -0.322, -0.947, 627.087, 357.823)" fill="#ffc8b7"/>
      <rect id="Rectangle_187" data-name="Rectangle 187" width="6.5" height="8.3" transform="translate(606.5 357.4)" fill="#ffc8b7"/>
      <path id="Path_1550" data-name="Path 1550" d="M599.5,406.3V385.6c0-7.9.3-13.9,2.3-16.8a3.146,3.146,0,0,1,2-1.9c2.8-1.1,2.8-3.3,2.8-3.3,2.4,1.3,6.5-.4,6.5-.4.7,3.7,6.5,4.4,6.5,4.4v.1a15.536,15.536,0,0,1,2.3.5c9.6,2.9,6,10.5,5.7,17.6l1.2,17.5c0,7.9,5.8,20.9-2.1,20.9l-9.1-.2c-7.8,0-14.7,1.4-20.1-2.9C595.7,419.5,599.2,412.6,599.5,406.3Z" fill="#fff"/>
      <path id="Path_1551" data-name="Path 1551" d="M599.5,385.5v-1.8c6.2,12.8,7.6,26.4,5.1,40.1-2.5-.4-5.2-.9-7.3-2.5-1.9-1.5,1.8-8.8,2.2-15.1Z" fill="#dfeafe"/>
      <path id="Path_1552" data-name="Path 1552" d="M607.7,372.5c-.8-2.1-1.8-4.3-2.7-6.3a3.8,3.8,0,0,0,1.5-2.6c2.4,1.2,6.5-.4,6.5-.4.7,3.7,6.6,4.4,6.6,4.4v.1a15.536,15.536,0,0,1,2.3.5c9.6,2.9,6,10.5,5.7,17.6l1.2,17.5c0,7.9,5.8,20.9-2.1,20.9l-9.1-.2h-1.7c-1.4-5.6-1.2-11.5-1.4-17.3A105.1,105.1,0,0,0,607.7,372.5Z" fill="#fff"/>
      <path id="Path_1553" data-name="Path 1553" d="M610.4,355.7s4.2,2.9,8.7,2.3c3.1-.4,4.5-4.6,4.5-4.6l4,9.3a3.516,3.516,0,0,1-1.9,4.7c-2.4.9-5.5,1.8-7.7,1.2a11.118,11.118,0,0,1-5.7-3.6S607.8,358.7,610.4,355.7Z" fill="#23399b"/>
      <path id="Path_1554" data-name="Path 1554" d="M607.9,353.4s-1.8-1.2-1.6-2.1,1-3.3-.7-3.9-2.9,1.2-2.2,3c0,0,0,1.5-1.5.1s-6.8-6.3-4.4-11.5c2.5-5.3,8.2-2.8,11.6-4,3.3-1.3,7.4-2.1,7.4-6.4s7.2-5.6,9-4.4,4.3,5.3,4,9c-.6,8.9-4.7,10.5-9.5,12.2s-8.3.7-9.9,2.5C608.6,349.6,607.9,353.4,607.9,353.4Z" fill="#23399b"/>
      <g id="Group_591" data-name="Group 591">
        <g id="Group_590" data-name="Group 590">
          <g id="Group_586" data-name="Group 586">
            <path id="Path_1555" data-name="Path 1555" d="M628.9,366.4c8.7-9.5,22.3-9,30.5.9s7.8,25.7-.9,35.2-22.3,9-30.5-.9S620.2,375.9,628.9,366.4Z" fill="#fb660a"/>
          </g>
          <g id="Group_587" data-name="Group 587">
            <path id="Path_1556" data-name="Path 1556" d="M630.3,368.2c7.8-8.5,20.2-8.2,27.5.8,7.4,9,7,23.2-.8,31.8-7.8,8.5-20.2,8.2-27.5-.8C622.1,391,622.5,376.7,630.3,368.2Z" fill="#fea815"/>
          </g>
          <g id="Group_588" data-name="Group 588">
            <path id="Path_1557" data-name="Path 1557" d="M631.1,369.1c7.4-8.1,19-7.7,26,.8s6.6,21.9-.8,30-19,7.7-26-.8S623.7,377.2,631.1,369.1Z" fill="#fb660a"/>
          </g>
          <g id="Group_589" data-name="Group 589">
            <path id="Path_1558" data-name="Path 1558" d="M646.3,388.7a1.9,1.9,0,0,0-.8-1.5,7.841,7.841,0,0,0-2.9-1c-1.4-.3-2.5-.7-3.5-1a9.922,9.922,0,0,1-2.3-1.3,4.629,4.629,0,0,1-1.3-1.8,6.25,6.25,0,0,1-.4-2.5,5.307,5.307,0,0,1,2-4.2,9.037,9.037,0,0,1,5.1-2v-3.9H645v3.9a9.872,9.872,0,0,1,5.2,2.1,5.513,5.513,0,0,1,1.8,4.3h-6a2.465,2.465,0,0,0-.8-1.7,2.724,2.724,0,0,0-2-.7,3.2,3.2,0,0,0-1.8.5,1.574,1.574,0,0,0-.7,1.3,1.457,1.457,0,0,0,.7,1.3,9.63,9.63,0,0,0,2.5.9,14.06,14.06,0,0,1,6.2,2.5,5.584,5.584,0,0,1,1.8,4.4,5.447,5.447,0,0,1-1.8,4.2,8.445,8.445,0,0,1-5.1,1.9v4h-2.8v-4a9.771,9.771,0,0,1-5.7-2.1,6,6,0,0,1-2.1-4.8h6a2.653,2.653,0,0,0,.8,2.2,5.063,5.063,0,0,0,2.8.6,2.86,2.86,0,0,0,1.7-.5A1.149,1.149,0,0,0,646.3,388.7Z" fill="#fea815"/>
          </g>
        </g>
      </g>
      <g id="Group_592" data-name="Group 592">
        <path id="Path_1559" data-name="Path 1559" d="M630.4,407.3l1-1.8c2.2-1.8.4-5.3-1.5-7.5l-20.6-20.3c-1.8-2.2-5.8-10.3-8-8.5l-3.2,2.7c-2.2,1.8.7,8,2.5,10.3l18.7,19.4C621,403.8,628.2,409.1,630.4,407.3Z" fill="#dfeafe"/>
        <path id="Path_1560" data-name="Path 1560" d="M651.1,399.8c.2-1,1.6-1.4,3.4-2.4s1.4-3.1,2.7-3.9c1.2-.8,3-2.6,4.6-1.5,1.6,1,2.7,5-1,6.1-3.7,1.2-3.1,2.9-4.2,3.4-1.2.6-4.4,0-4.4,0Z" fill="#dfeafe"/>
        <path id="Path_1561" data-name="Path 1561" d="M651.3,398.8s2.4,1.5,1.5,3.1-20.4,6.6-23,6.1c-5.8-1.1-8.5-3.6-5.8-6.4,3.8-4,9.4-1.2,12.1-.8S650.6,399.5,651.3,398.8Z" fill="#dfeafe"/>
      </g>
    </g>
    <g id="Group_597" data-name="Group 597">
      <g id="Group_594" data-name="Group 594">
        <path id="Path_1562" data-name="Path 1562" d="M930.1,250.9h0a1.473,1.473,0,0,1-1.5-1.5l2.5-127.3a1.5,1.5,0,1,1,3,0l-2.5,127.3A1.473,1.473,0,0,1,930.1,250.9Z" fill="#fb660a"/>
      </g>
      <g id="Group_595" data-name="Group 595">
        <path id="Path_1563" data-name="Path 1563" d="M861.3,250.9h0a1.473,1.473,0,0,0,1.5-1.5l-2.5-127.3a1.5,1.5,0,1,0-3,0l2.5,127.3A1.473,1.473,0,0,0,861.3,250.9Z" fill="#fb660a"/>
      </g>
      <path id="Path_1564" data-name="Path 1564" d="M934.4,257H858.1a6.018,6.018,0,0,1-6-6v-.4a6.018,6.018,0,0,1,6-6h76.3a6.018,6.018,0,0,1,6,6v.4A6.018,6.018,0,0,1,934.4,257Z" fill="#23399b"/>
      <g id="Group_596" data-name="Group 596">
        <path id="Path_1565" data-name="Path 1565" d="M871,288.8a2.777,2.777,0,0,0-1.1,1.8c-.2,1.9-.6,4.9.3,7.4,1,2.5,2.7,6.2,5.3-.6s-.1-8.8-1-9A13.96,13.96,0,0,0,871,288.8Z" fill="#101e41"/>
        <path id="Path_1566" data-name="Path 1566" d="M884.7,291.1a2.966,2.966,0,0,0-.7,2c.2,1.9.4,4.9,1.9,7.2,1.5,2.2,3.9,5.5,5.1-1.7s-2-8.5-2.8-8.6S884.7,291.1,884.7,291.1Z" fill="#101e41"/>
        <path id="Path_1567" data-name="Path 1567" d="M868.1,256s1.5,23.6,1.9,27.7c.4,4,1,7.7,1,7.7s-.3,5.6,1.3,5.6c1.6.1,2.6-4.8,2.5-5.6s.3-4.6,0-5.7.9-12.1,1.5-15.1.8-10.3,0-13.4S868.1,256,868.1,256Z" fill="#ffc8b7"/>
        <path id="Path_1568" data-name="Path 1568" d="M877.4,258.8s5.2,23.1,6.2,27,2.1,7.4,2.1,7.4.6,5.5,2.2,5.4,1.8-5.1,1.6-5.9c-.2-.7-.4-4.6-.9-5.6s-1-12.1-.9-15.2-.8-10.3-2.1-13.2C884.4,255.8,877.4,258.8,877.4,258.8Z" fill="#ffc8b7"/>
        <path id="Path_1569" data-name="Path 1569" d="M891,238.4l-16.7,4.7s-6.2,1.9-6.9,8.5c-.7,6.5-.3,7.1.5,7.2.7.1,6-.2,7.5,0a21.388,21.388,0,0,1,4.3.7,7.183,7.183,0,0,0,7.7-2.6c2-2.6,1.2-1.7,9.9-2.5s14.2-1.4,18-5.5c3.7-4,2.7-10.4,2.7-10.4H891Z" fill="#608fdf"/>
        <path id="Path_1570" data-name="Path 1570" d="M892.2,180.4a4.223,4.223,0,0,0-1.4-2.9,4.351,4.351,0,0,0-1.3-.5c-1.5,0-2.8,1.7-2.8,3.8a4.457,4.457,0,0,0,.8,2.6c-2.4.1-4.3,1.6-4.3,3.4a3.289,3.289,0,0,0,1.8,2.7,3.47,3.47,0,0,0-1.3,3.3,3.547,3.547,0,0,0,4.1,2.9,3.047,3.047,0,0,0,1.6-.8,4.344,4.344,0,0,0,4,2.5,4.439,4.439,0,0,0,4.4-4.4,6.75,6.75,0,0,0-.2-1.4Z" fill="#fea815"/>
        <path id="Path_1571" data-name="Path 1571" d="M908.5,192.2l-.6-.6a12.22,12.22,0,0,0,3.2-8.5c0-6.3-4.3-11.5-9.6-11.5s-9.6,5.1-9.6,11.5c0,5.2,2.9,9.7,6.9,11l-1.9,8.1,5.2,4.4,7-3.4,5.6-5.9A22.313,22.313,0,0,1,908.5,192.2Z" fill="#ffc8b7"/>
        <path id="Path_1572" data-name="Path 1572" d="M889.1,200s1.2-5.9,5.3-5.9c4.1-.1,4.4.5,4.4.5s-.8,9.2,2.7,9.9,10-9.3,10-9.3,4.6-.6,6.8,1.1,4,1.9,6.9,13.6c2.9,11.8,3.3,15-.9,20.7a108.01,108.01,0,0,1-8.6,10.2l-3.5-4.4s7.9-9.5,8.3-10,1.7-1.5,1-4.8c-.8-3.3-3.7-8.2-3.7-8.2s-1.6,6.9-2.6,8.4a4.1,4.1,0,0,0-.4,4.5c.7,1.7,4.4,6.1,4.1,12.6l-28.9.2s3.7-7.8,4.4-11.2a23.8,23.8,0,0,0,.5-5.3c.1-.7.1-5.7-1.4-6.1a1.777,1.777,0,0,0-2.1,1s-1.5,2-1.3,7c.2,5.1-7.5,2.2-7.5,2.2S888.3,205.2,889.1,200Z" fill="#608fdf"/>
        <path id="Path_1573" data-name="Path 1573" d="M892.7,213.2s7.3,4.3,14.5,2,7.6-9.8,7.6-9.8a61.68,61.68,0,0,0,2.7,7.5c1.6,2.7-3.5,10.8-3.1,12.2,1,2.9,1.3,2.4,2.6,5.4,2.2,2.2,1.8,8.4,1.8,8.4L905,239s7.3-4,7.1-8.1c-.3-5.1-3.2-9.7-7.2-10.2S894.3,218.9,892.7,213.2Z" fill="#23399b"/>
        <path id="Path_1574" data-name="Path 1574" d="M915,236.3c-.7.8-4.2,3.5-4.2,3.5s-7.4.8-8.7,3.4,8.5,1.3,8.5,1.3l6.2-5.7Z" fill="#ffc8b7"/>
        <path id="Path_1575" data-name="Path 1575" d="M901.4,243.9l-5.1-19H866.6l5.1,19v1.8h43.7v-1.8Z" fill="#101e41"/>
        <path id="Path_1576" data-name="Path 1576" d="M923.1,186.1a11.944,11.944,0,0,0,.4-3.3,12.772,12.772,0,0,0-1.2-5.5,2.452,2.452,0,0,0,.6-1.6c0-1.4-1.2-2.5-2.8-2.9a5.2,5.2,0,0,0,.7-2.5c0-2.6-2.2-4.8-5.2-5.4v-.2c0-1.4-1.9-2.6-4.3-2.6a7.72,7.72,0,0,0-1.5.2,6.375,6.375,0,0,0-5.7-3.8,6.167,6.167,0,0,0-6.2,6.2v.3h-.1a5.047,5.047,0,0,0-3.4-1.2,5.335,5.335,0,0,0-5.3,5.3,5.456,5.456,0,0,0,1.1,3.3,10.986,10.986,0,0,0-1.1,5.8c.6,7.7,14.6,4.4,14.6,4.4V178l2.2,5.3s-.6-4.2,1.3-3.8c2,.5,1.4,3.1,1,3.8a3.37,3.37,0,0,0,0,3.4,7.693,7.693,0,0,1,.5,3.2h-.1a2.038,2.038,0,0,0-1.7,2.2c0,1.2.7,2.2,1.7,2.2h.2c.4,1.9,2.7,3.4,5.4,3.4,2.8,0,5.1-1.5,5.4-3.5a3.083,3.083,0,0,0,1,.1,4.439,4.439,0,0,0,4.4-4.4A4.132,4.132,0,0,0,923.1,186.1Z" fill="#fea815"/>
        <path id="Path_1577" data-name="Path 1577" d="M921.9,234s-5.5,7-6.2,6.9-3.7-4.6-3.7-4.6l6-6.8Z" fill="#608fdf"/>
      </g>
    </g>
    <g id="Group_598" data-name="Group 598">
      <path id="Path_1578" data-name="Path 1578" d="M687.2,454.7l4-19.5c0-.2.1-.3.1-.5l4.7-22.9v-.2a2.3,2.3,0,0,1,.4-1.4l4.6-22.5v-.1a2.768,2.768,0,0,1,.3-1.3l4.8-23.3h0l13.7-66.5a3.034,3.034,0,0,1,4.2-2.2,3.168,3.168,0,0,1,1.8,3.6l-2.7,13.3h41.2l3-14.5a3.1,3.1,0,1,1,6.1,1.1L770,314.3h0a2.375,2.375,0,0,1-.3,1.2l-4.5,22c0,.2.1.3.1.5a3.371,3.371,0,0,1-.5,1.7l-5.1,24.5h0L740.8,456a3.085,3.085,0,0,1-3,2.5,2.822,2.822,0,0,1-1.5-.4,3.231,3.231,0,0,1-1.5-3.5l2.1-10a5,5,0,0,0-4.9-6H700.9a5.03,5.03,0,0,0-4.9,4L693.2,456a3.085,3.085,0,0,1-3,2.5,2.822,2.822,0,0,1-1.5-.4A3.237,3.237,0,0,1,687.2,454.7ZM713,360.5h41.2L757,347a5,5,0,0,0-4.9-6H721a5.03,5.03,0,0,0-4.9,4Zm-2.1,10.1L708,384.5h41.2l2.4-11.9a5,5,0,0,0-4.9-6H715.6A5.092,5.092,0,0,0,710.9,370.6Zm31,20.1H710.8a5.03,5.03,0,0,0-4.9,4L703,408.6h41.2l2.4-11.9A4.821,4.821,0,0,0,741.9,390.7Zm-20.8-69.4-2.8,13.6h41.2l2.4-11.6a5,5,0,0,0-4.9-6H725.9A4.9,4.9,0,0,0,721.1,321.3Zm18.3,111.2,3.7-17.8H705.9a5.03,5.03,0,0,0-4.9,4l-2.9,13.9h41.3Z" fill="#101e41"/>
      <path id="Path_1579" data-name="Path 1579" d="M806.1,454.6l-4-19.4c0-.2-.1-.3-.1-.5l-4.7-22.9v-.2a2.3,2.3,0,0,0-.4-1.4h0l-4.6-22.5v-.1a2.768,2.768,0,0,0-.3-1.3L787.2,363h0l-13.7-66.5a3.034,3.034,0,0,0-4.2-2.2,3.168,3.168,0,0,0-1.8,3.6l3,14.4H729.3L726,296.5a3.034,3.034,0,0,0-4.2-2.2,3.168,3.168,0,0,0-1.8,3.6l13.7,66.4h0l18.9,91.8a3.085,3.085,0,0,0,3,2.5,3.226,3.226,0,0,0,1.8-.6,3.147,3.147,0,0,0,1.2-3.3L756,441.9c1.1-1.3,1.5-1.9,2.6-3.2h35.8c1,.8,1.6,1.3,2.6,2.1l3.1,15.2a3.085,3.085,0,0,0,3,2.5,4.252,4.252,0,0,0,1.1-.2A3.134,3.134,0,0,0,806.1,454.6Zm-34-134.1,3.2,15.7H734.1l-3-14.7a2.693,2.693,0,0,1,2.6-3.2h35.8A2.783,2.783,0,0,1,772.1,320.5Zm-32.9,40-3.1-14.9a2.693,2.693,0,0,1,2.6-3.2h35.8a2.677,2.677,0,0,1,2.6,2.1l3.3,15.9h0l-41.2.1Zm4.9,24-3-14.6c1.1-1.3,1.5-1.9,2.6-3.2h35.8c1,.8,1.6,1.3,2.6,2.1l3.2,15.7H744.1Zm5,24-3-14.6c1.1-1.3,1.5-1.9,2.6-3.2h35.8c1,.8,1.6,1.3,2.6,2.1l3.2,15.7H749.1Zm46.1,24H754.1l-3-14.6c1.1-1.3,1.5-1.9,2.6-3.2h35.8c1,.8,1.6,1.3,2.6,2.1l3.1,15.7Z" fill="#3251b4"/>
    </g>
    <g id="Group_599" data-name="Group 599">
      <path id="Path_1580" data-name="Path 1580" d="M778.7,240.2s-3,8,2.3,10.3c5.3,2.4-12.3,1.9-12.3,1.9s2.8-5.8,2.7-8.8C771.4,240.6,773.9,237.6,778.7,240.2Z" fill="#ffc8b7"/>
      <path id="Path_1581" data-name="Path 1581" d="M788.7,270.1c1.5-6.1,5.8-18.4-1-19.5-4.1-.6-4.8,5.6-4.7,9.6.1,2.9-2.1,7.9-2,13.6,0,1.1-14.8-.9-16.2-.9s-4.6-2.1-5.4-1.3c-.8.9-.5,1.8.6,2.2,1,.4-2.6,1.1-4.2.7-1.7-.4-4.5,2.4-2.7,3.8s8.1,1.9,10.9-.4,18.7,2.8,20.7,1.4S788,272.6,788.7,270.1Z" fill="#ffc8b7"/>
      <path id="Path_1582" data-name="Path 1582" d="M785.7,359.6v7.2a6.113,6.113,0,0,1,.5,3.7c-.4,2-.3,5-1.9,7.5s-5.6.9-5.6-1.1.4-5.3.6-7.4-.1-9.8-.1-9.8h6.5Z" fill="#ffc8b7"/>
      <path id="Path_1583" data-name="Path 1583" d="M757.5,360.5s-2.5,4.8-1.8,7,1.1,2.8.9,4.4c-.3,1.6-3.7,6.2-6.3,7.7s-4.6,2.1-5.8,2,.6-1.8.6-1.8l5.3-14.8.5-5.5Z" fill="#ffc8b7"/>
      <path id="Path_1584" data-name="Path 1584" d="M786.8,284.9s3.4,7.4,3,10.4-.1,11.4-2,20.1-1.2,19.3-1,24-.3,21.2-.3,21.2-3.4,3.2-8.2,0c0,0-2.1-15.5-2.1-20.1s-2.3-26-2.3-29.6c0,0-6.5,18.6-6.8,20s-7.6,26-8.5,29.3l-.6,1.3s-5.6,1.3-7.8-.1l5.6-34.7s2.9-20.2,3.5-24.9a65.629,65.629,0,0,1,3.4-14.9C764.7,281.4,786.8,284.9,786.8,284.9Z" fill="#23399b"/>
      <path id="Path_1585" data-name="Path 1585" d="M789.1,260.7s-2.4,11.1-1.3,18.6,1.7,7.8-.3,8.8c-2,.9-13.9,3-21.6,0s-1.2-11.1-2.4-22.9c-.7-7.2-1.1-11,4.1-14.2.8-.5,4.8-.2,6.1.3s4.9.9,7-.4c2.2-1.3,8.1,0,8.4,1.2A35.3,35.3,0,0,1,789.1,260.7Z" fill="#fff"/>
      <path id="Path_1586" data-name="Path 1586" d="M785.7,384.4h-7.9s-1.9-1.5-1.2-2.7c.7-1.3,2-3.1,2.1-4.9s1.4-5.1,3.8-5.3c2.4-.3,3.1,3.9,3.2,4.9S787.8,381.5,785.7,384.4Z" fill="#23399b"/>
      <path id="Path_1587" data-name="Path 1587" d="M785.2,384.4l-.7-6.8-.9,6.8Z" fill="#101e41"/>
      <path id="Path_1588" data-name="Path 1588" d="M782,384.4l-.7-8.1-1.3,8.1Z" fill="#101e41"/>
      <path id="Path_1589" data-name="Path 1589" d="M756.2,370.4s2.2,1.3,2.1,2.6-1.1,11.5-1.1,11.5h-1.8V377l-5.4,7.5h-9s-.7-3.7,3-4.2,4,.8,6.2-1.9c2.1-2.7,5.1-7.3,5.1-7.3S755.8,370.4,756.2,370.4Z" fill="#23399b"/>
      <ellipse id="Ellipse_58" data-name="Ellipse 58" cx="7.7" cy="9.4" rx="7.7" ry="9.4" transform="translate(763.9 225.6)" fill="#ffc8b7"/>
      <path id="Path_1590" data-name="Path 1590" d="M791.2,225.8c-.3,3.1-2.8,5.3-5.4,4.9-2.7-.4-4.6-3.2-4.2-6.3s2.8-5.3,5.4-4.9C789.7,219.8,791.6,222.6,791.2,225.8Z" fill="#101e41"/>
      <path id="Path_1591" data-name="Path 1591" d="M774.3,221.5c-6.3-.7-11.5-.9-12.3,5.1-.5,3.7,2.2,8.6,5.9,11.9a4.136,4.136,0,0,1,.5-1.9c1.1-1.3,2.1-2.2,3.6-1.7a2.985,2.985,0,0,1,1.7,3.5,6.4,6.4,0,0,1-1.7,2.9,14.22,14.22,0,0,0,3.3,1.1c6.3.7,8.5-3.1,9.3-9.2C785.3,227.2,780.7,222.2,774.3,221.5Z" fill="#101e41"/>
      <path id="Path_1592" data-name="Path 1592" d="M783.9,227c1,1.9,1.7,3.4.5,4s-2-1-3-2.8-1.7-3.4-.5-4S782.9,225.1,783.9,227Z" fill="#fff"/>
      <path id="Path_1593" data-name="Path 1593" d="M757.2,268.1c5.4-3.1,17.3-8.6,13.3-14.2-2.4-3.4-7.4.4-10.2,3.3-2,2.1-7.1,4-11.2,8-.8.8-16.4-5.5-17.4-6.5s-2.4-5.2-3.5-5.2a1.29,1.29,0,0,0-1.2,1.9c.4.9-3.1.6-4-.9-.8-1.5-4.9-1.6-4.6.7s5.5,5.9,9.1,6.3,17.7,9.6,20.2,10.1S755,269.3,757.2,268.1Z" fill="#ffc8b7"/>
    </g>
    <g id="Group_603" data-name="Group 603">
      <g id="Group_600" data-name="Group 600">
        <path id="Path_1594" data-name="Path 1594" d="M866.9,336.2c-.4,7.1,1.4,10.6,5.6,11.3,5.2.9,10.1-1.5,11.8-8.1s-1.1-13.1-6.3-14.4C872.9,323.6,867.2,329.3,866.9,336.2Z" fill="#ffc8b7"/>
        <path id="Path_1595" data-name="Path 1595" d="M881.2,341.7s-.9,8,0,11.9-3,6-5.4,5.8-6.5-1.6-5.1-4.3c1.5-2.7,2.9-5.7,2.5-9.2S881.2,341.7,881.2,341.7Z" fill="#ffc8b7"/>
      </g>
      <g id="Group_601" data-name="Group 601">
        <path id="Path_1596" data-name="Path 1596" d="M887.6,455.6c.4.7,7.9,16.5,9.7,20.1s4.7,8.2,4.7,8.2,2.7,1.5,1.7,3.3-4.1,4.3-6,5.3-5.2,2-5.1.7c.1-1.2,3-4.4,4.3-5.4,1.3-.9-10.7-20.8-15-24.8C877.6,459.2,887.6,455.6,887.6,455.6Z" fill="#ffc8b7"/>
        <path id="Path_1597" data-name="Path 1597" d="M902.5,487.4a3.01,3.01,0,0,0-.2-2.9l-.4-.5s1.6.2,2.1.9c.4.6,2.4,2.9.4,4.2-2,1.2-8,5.6-9.7,6.9-1.7,1.2-4.7,1.3-4.3-.7s3.1-4,3.7-4.3c0,0-1.7,2.5-.6,2.9s7.3-4.2,8.1-5C901.8,488.5,902.3,487.7,902.5,487.4Z" fill="#101e41"/>
      </g>
      <g id="Group_602" data-name="Group 602">
        <path id="Path_1598" data-name="Path 1598" d="M868.8,458.1c-.1.9-4.3,18.5-5.3,22.6a90.543,90.543,0,0,0-1.6,9.7s1.2,3-.8,3.8-6.2.8-8.3.4-5.5-1.7-4.6-2.8c.9-.9,5.3-1.6,7-1.5s4.9-23.8,4-29.9C858.4,454.5,868.8,458.1,868.8,458.1Z" fill="#ffc8b7"/>
        <path id="Path_1599" data-name="Path 1599" d="M860.3,493.6a3.02,3.02,0,0,0,1.7-2.5v-.6s1.2,1.3,1.1,2.1,0,3.9-2.4,3.7c-2.4-.3-10.2-.7-12.4-.8s-4.7-2.1-3-3.4c1.6-1.3,5.1-1.2,5.8-1.1,0,0-3,1-2.4,2s8.6,1.3,9.9,1.2C858.9,494.1,859.9,493.7,860.3,493.6Z" fill="#101e41"/>
      </g>
      <path id="Path_1600" data-name="Path 1600" d="M856.8,372.3c.5-1,3.6-5.1,4.2-8s7.1-14.2,12.7-10.9c5.7,3.3-4,15.2-7.5,20.6a5.8,5.8,0,0,1-1.3,1.5c-1.9,2-6,5.9-8.2,4.3a7.043,7.043,0,0,1-2.1-3.4c-.1-.6,1.1-2.5,2.2-4.1Z" fill="#ffc8b7"/>
      <path id="Path_1601" data-name="Path 1601" d="M880.5,352.9a21.5,21.5,0,0,1,5.8.5c2.1.5,5.1,5.9,5.2,7.1.2,1.5-1.8,10.9-2.3,19.5s-.8,10.9,2.4,19.5,3.7,19.8,2.9,27-.6,40.6,8.3,48.4-8.8,8.9-12.1,7.5-10-4.8-12.7-4-5.1,3.6-10,4.5-14.9,2.1-17.4,0-5.1-3.7-2.5-7.1c2.6-3.3,16.6-63,16.5-67,0-4,2.4-11.7,2.4-14.8a32.308,32.308,0,0,0-2.4-11.9c-1.7-3.8-4.3-5.4-3.9-10.1.5-4.7,1.7-7.4,4.4-10.2s3.2-7.7,6.2-9.5C873.1,351.7,880.5,352.9,880.5,352.9Z" fill="#608fdf"/>
      <path id="Path_1602" data-name="Path 1602" d="M885.6,381.7c-.2-1.1-.2-6.3-1.5-8.9-1.3-2.7-3-15.6,3.5-16.4s6.1,14.5,6.6,20.9v2c-.3,2.7-1.2,8.4-3.9,8.4a7.369,7.369,0,0,1-3.7-1.4c-.6-.4-.9-2.7-1-4.6Z" fill="#ffc8b7"/>
      <path id="Path_1603" data-name="Path 1603" d="M829.2,376.3c1.3,1,4.7-.3,4-1a1.348,1.348,0,0,1,.4-2.3c1-.6,3.8,2.6,5.2,3,1,.3,11.3-1.5,15.9-2.8a5.291,5.291,0,0,1,2.8.1,6.539,6.539,0,0,1,3.7,3.1,2.251,2.251,0,0,1-1.3,3.4l-1.7.5c-2.4.7-18.7-1.1-22.2.2-3.4,1.3-9.6.4-10.7-1.5C824.1,377.1,827.8,375.3,829.2,376.3Z" fill="#ffc8b7"/>
      <path id="Path_1604" data-name="Path 1604" d="M851.2,385.3,845,362.2H808.8l6.2,23.1v2.3h53.2v-2.3Z" fill="#101e41"/>
      <path id="Path_1605" data-name="Path 1605" d="M859.9,385.4c1.4.9,4.7-.5,3.9-1.2a1.3,1.3,0,0,1,.3-2.3c1.1-.6,3.9,2.4,5.3,2.8,1,.3,11.2-2,15.8-3.4a5.317,5.317,0,0,1,2.8,0,6.828,6.828,0,0,1,3.9,2.9,2.317,2.317,0,0,1-1.1,3.5l-1.7.6c-2.4.8-18.8-.3-22.1,1.1-3.4,1.4-9.5.8-10.7-1C854.9,386.4,858.5,384.5,859.9,385.4Z" fill="#ffc8b7"/>
      <path id="Path_1606" data-name="Path 1606" d="M879.4,335.6s-9.6.6-12-1.9-4.2-6-1.9-8.5,8.4-9.3,17.3-4.6c9,4.7,9,10,8.4,16s-1.5,10.6-5.6,12.5c-4,1.9-6.7-.7-6.3-2.2C879.8,345.3,883.4,339.1,879.4,335.6Z" fill="#23399b"/>
      <path id="Path_1607" data-name="Path 1607" d="M871.1,369.8a3.178,3.178,0,0,1-.2-1.4,3.875,3.875,0,0,1,1-2.7,3.258,3.258,0,0,1-.4-1.3,2.645,2.645,0,0,1,1.3-2.3,3.6,3.6,0,0,1-.9-2.2,3.329,3.329,0,0,1,3.3-3.3h0a4.012,4.012,0,0,1-.3-1.5,3.186,3.186,0,0,1,2.3-3.2,2.016,2.016,0,0,1-.3-1.1,3.031,3.031,0,0,1,6,0,2.761,2.761,0,0,1-2.8,2.6,3.425,3.425,0,0,1,.4,1.8,3.2,3.2,0,0,1-2.4,3.3,2.935,2.935,0,0,1,.4,1.6,3.4,3.4,0,0,1-2.1,3.1,2.3,2.3,0,0,1,.4,1.4,2.8,2.8,0,0,1-1.9,2.6,3.339,3.339,0,0,1,.3,1.5,3.478,3.478,0,0,1-1.4,3,3.425,3.425,0,0,1,.4,1.8c0,1.9-1.2,3.4-2.7,3.4s-2.7-1.5-2.7-3.4C868.8,371.4,869.8,370,871.1,369.8Z" fill="#23399b"/>
      <path id="Path_1608" data-name="Path 1608" d="M870.2,370.2c-.3.7.7,1,1.9,1.4s2.1.8,2.4.1c.3-.9-.7-1-1.9-1.4C871.3,369.9,870.6,369.1,870.2,370.2Z" fill="#fea815"/>
    </g>
  </g>
</svg>
