<svg xmlns="http://www.w3.org/2000/svg" xmlns:xlink="http://www.w3.org/1999/xlink" width="808" height="600" viewBox="0 0 808 600">
  <defs>
    <clipPath id="clip-path">
      <rect x="105" width="808" height="600" fill="none"/>
    </clipPath>
    <clipPath id="clip-path-2">
      <rect id="Rectangle_192" data-name="Rectangle 192" width="777" height="600"/>
    </clipPath>
    <clipPath id="clip-path-3">
      <rect id="Rectangle_191" data-name="Rectangle 191" width="1150" height="600"/>
    </clipPath>
    <clipPath id="clip-path-4">
      <rect id="Rectangle_199" data-name="Rectangle 199" width="1000" height="600"/>
    </clipPath>
  </defs>
  <g id="Scroll_Group_6" data-name="Scroll Group 6" transform="translate(-105)" clip-path="url(#clip-path)" style="isolation: isolate">
    <g id="_17" data-name="17">
      <g id="Group_607" data-name="Group 607" transform="translate(137)" clip-path="url(#clip-path-2)">
        <g id="Group_606" data-name="Group 606" clip-path="url(#clip-path-3)">
          <path id="Path_1609" data-name="Path 1609" d="M546.2,488.4H1106c29,0,48.4-23.5,43.3-52.6l-46.2-262.1c-5.1-29-32.8-52.6-61.8-52.6H481.4c-29,0-48.4,23.5-43.3,52.6l46.3,262.1C489.5,464.8,517.2,488.4,546.2,488.4Z" transform="translate(-437.4)" fill="#dfeafe"/>
        </g>
      </g>
      <g id="Group_668" data-name="Group 668" transform="translate(130)" clip-path="url(#clip-path-4)">
        <g id="Group_630" data-name="Group 630" transform="translate(81.294 132.198)">
          <g id="Group_622" data-name="Group 622" transform="translate(0 106.928)">
            <path id="Path_1825" data-name="Path 1825" d="M924.984,278.7c29.8,28.2,47,58.4,43.2,62.8-3.6,4.3-48-8-79.7-34.4-31.6-26.4-39.1-48.1-26.5-59.5C877.184,234,894.884,250.3,924.984,278.7Z" transform="translate(-856.178 -239.126)" fill="#3251b4"/>
            <path id="Path_1826" data-name="Path 1826" d="M922.784,275.1c29.8,28.2,47,58.4,43.2,62.8-3.6,4.3-48-8-79.7-34.4-31.6-26.4-39.1-48.1-26.5-59.5C874.984,230.4,892.684,246.7,922.784,275.1Z" transform="translate(-851.778 -239.126)" fill="#608fdf"/>
            <path id="Path_1827" data-name="Path 1827" d="M907.31,270.1c.6-5.4,4.1-9.2,2.8-9.3s-5.1,4.1-5.7,9.5a25,25,0,0,0,.2,8.5c-3.2-3.1-6.3-6-9.2-8.7.6-1,.6-4.9,1-9.2.5-5,3.2-8.5,2.3-8.6s-3.8,3.8-4.4,8.8a29.747,29.747,0,0,0,0,8c-4.1-3.8-7.8-7.2-10.8-10,.2-1.3.2-3.8.5-6.4.4-3.9,2.9-6.6,2-6.7s-3.5,3-4,6.9a27.641,27.641,0,0,0-.1,4.9c-7.6-6.7-11-8.8-7.2-2.6a48.441,48.441,0,0,0,4.1,5.5,36.209,36.209,0,0,0-5.1.5c-4.1.8-7.1,3.5-6.9,4.4.2.8,2.8-1.7,6.9-2.5,2.5-.5,4.8-.7,6.3-1a142.159,142.159,0,0,0,10.3,10.4,38.086,38.086,0,0,0-8.1.7c-5.2,1-9.1,4.1-8.9,5s3.7-2,8.9-2.9c4.1-.8,7.9-1.1,9.3-1.7,2.8,2.6,5.7,5.2,8.8,8a35.439,35.439,0,0,0-8,.7c-5.6,1.1-9.7,5-9.4,6.2s3.9-2.5,9.5-3.5c4.3-.8,8.3-1.1,9.9-1.7,2.9,2.5,5.8,5,8.9,7.5a27.1,27.1,0,0,0-7.7.5c-5.5,1-9.3,5.6-9,7.1s3.7-2.8,9.2-3.8c4.4-.8,8.6-1,9.9-1.8,3.5,2.9,7,5.8,10.6,8.6-2-.5-5.3-.4-9.1.3-5.7,1.1-9.6,5.9-9.2,7.4.3,1.6,3.8-2.9,9.5-4,5.3-1,10.3-1,10.6-2.3,3.3,2.6,6.6,5.2,9.8,7.7a27.277,27.277,0,0,0-8.3.4c-5.7,1.1-9.6,5.9-9.2,7.4.3,1.6,3.8-2.9,9.5-4,4.9-.9,9.5-1,10.5-2,2.9,2.3,5.8,4.4,8.5,6.5-1.6-.3-5.1-.1-9.2.7-5.4,1-9.4,4.1-9.2,5s3.8-2,9.1-3c5-.9,9.6-1.3,10.1-2.1,3.3,2.5,6.4,4.8,9.1,6.9a21.556,21.556,0,0,0-7-.1c-4,.6-7.2,2-7.1,2.4s3.2-.8,7.3-1.3c3.7-.5,6.9-.3,7.3-.6,1.3,1,2.5,1.9,3.7,2.7-1.2-.9-2.4-1.9-3.6-2.9.1-.7-.5-3.5-.5-6.8,0-3.9.7-7,.3-7s-1.4,3.1-1.4,7a17.113,17.113,0,0,0,1.1,6.4c-2.7-2.2-5.5-4.5-8.3-7,.5-1.3.5-5.1,1-9.3.6-5.1,3.3-8.8,2.3-8.9s-3.9,4-4.4,9.1a26.222,26.222,0,0,0,0,8c-2.5-2.2-5-4.4-7.6-6.7,1.4-.3.9-5.1,1.5-10.2.6-5.4,5-9.1,3.3-9.3s-6.4,3.9-7,9.4a20.378,20.378,0,0,0,.6,8.7c-3.3-3-6.6-6-9.9-9.1,1.2-.6.8-5.2,1.3-10.2.6-5.4,5-9.1,3.3-9.3s-6.4,3.9-7,9.4a19.787,19.787,0,0,0,.5,8.4l-9.6-9c.8-1.2.5-5.2,1-9.6.6-5.2,4.8-8.8,3.2-9s-6.1,3.8-6.6,9.1a24.2,24.2,0,0,0,.2,7.3c-2.8-2.7-5.6-5.3-8.3-7.8C907.01,279.3,906.81,274.9,907.31,270.1Z" transform="translate(-859.004 -239.126)" fill="#b3cbf9"/>
          </g>
          <g id="Group_623" data-name="Group 623" transform="translate(18.416 202.994)">
            <path id="Path_1828" data-name="Path 1828" d="M847.6,370.1s-2.7-6.1-7.3-16C843.2,359.9,845.7,365.3,847.6,370.1Z" transform="translate(-737.61 -335.192)" fill="#dfeafe"/>
            <path id="Path_1829" data-name="Path 1829" d="M874.348,390.8c38.1,3.7,70.9-4.7,72.4-11.3,1.4-6.3-32.3-34.4-70-41.1-37.7-6.6-58.7,3.6-60.6,22.8C813.648,384.4,835.948,387,874.348,390.8Z" transform="translate(-812.458 -335.192)" fill="#3251b4"/>
            <path id="Path_1830" data-name="Path 1830" d="M877.848,389.6c38.1,3.7,70.9-4.7,72.4-11.3,1.4-6.3-32.3-34.4-70-41.1-37.7-6.6-58.7,3.6-60.6,22.8C817.148,383.2,839.448,385.9,877.848,389.6Z" transform="translate(-819.458 -335.192)" fill="#608fdf"/>
            <path id="Path_1831" data-name="Path 1831" d="M844.2,376.7s-4-1.1-10.5-2.7Q839.7,375.35,844.2,376.7Z" transform="translate(-727.61 -335.192)" fill="#dfeafe"/>
            <path id="Path_1832" data-name="Path 1832" d="M865.723,374.3c-3.9,4.6-4.9,10.4-5.7,9.4s.4-7.4,4.3-12c2.6-3.1,5.1-5.4,6.8-6.3-4.1-.4-8.1-.8-11.8-1.2-.5,1.2-3.5,4.2-6.6,7.8-3.6,4.2-4.9,9.2-5.5,8.5s.9-6.2,4.5-10.4a32.475,32.475,0,0,1,6.2-6c-5.2-.5-9.8-1-13.7-1.5-.9,1.2-2.8,3.1-4.7,5.3-2.8,3.3-3.6,7.5-4.2,6.8s.4-5.2,3.2-8.6a27.081,27.081,0,0,1,3.8-3.8c-9.3-1.3-12.8-2.6-5.9-4.1a38.022,38.022,0,0,1,6.5-.7,29.48,29.48,0,0,1-2.3-4.7c-1.6-4-1.1-8.6-.3-9.1s.2,3.7,1.8,7.7c1,2.4,2.1,4.6,2.6,6,4,0,8.6.2,13.7.7a32.7,32.7,0,0,1-3.8-7.4c-2.1-5.1-1.8-10.8-1-11.3s.5,4.6,2.5,9.7c1.6,4,3.4,7.5,3.8,9.1,3.5.4,7.2.9,11,1.4a32.252,32.252,0,0,1-3.8-7.3c-2.2-5.6-1.4-12-.3-12.7s.2,5.2,2.4,10.7c1.7,4.2,3.7,7.8,4,9.6,3.5.5,7,1.1,10.7,1.8a28.276,28.276,0,0,1-3.8-6.9c-2.2-5.4-.7-12.1.7-12.9,1.3-.8-.2,5.2,2,10.6,1.8,4.4,3.9,8,4,9.7,4.1.8,8.3,1.6,12.4,2.4-1.4-1.3-3.2-4.2-4.7-7.9-2.2-5.6-.6-12.5.8-13.4s-.2,5.4,2,11c2.1,5.2,4.8,9.5,4,10.7q5.85,1.2,11.4,2.4a25.166,25.166,0,0,1-4.1-7.3c-2.2-5.6-.6-12.5.8-13.4s-.2,5.4,2,11c1.9,4.8,4.4,8.8,4.1,10.3,3.4.7,6.6,1.5,9.6,2.2-1.1-1.1-2.8-4.3-4.4-8.3-2.1-5.3-1.9-11.1-1.1-11.6s.5,4.7,2.6,10c2,4.9,4.2,9.1,3.9,10.1,3.7.9,7.2,1.7,10.3,2.5a20.643,20.643,0,0,1-3.9-5.9c-1.8-3.8-2.4-7.5-2-7.8s1.2,3.3,2.9,7.1c1.6,3.6,3.5,6.1,3.5,6.6,1.5.4,2.8.7,4.1,1-1.4-.3-2.8-.6-4.2-.8-.4.6-3,2.3-5.6,4.8-3,2.9-5,5.9-5.3,5.6-.2-.4,1.6-3.6,4.7-6.5a20.477,20.477,0,0,1,5.6-4c-3.2-.6-6.5-1.2-10-1.7-.7,1.4-3.7,4.3-6.7,7.8-3.7,4.4-5.1,9.4-5.7,8.7s1-6.3,4.7-10.7a37.77,37.77,0,0,1,6.2-6.1c-3-.5-6.2-.9-9.3-1.3.5,1.4-3.4,4.6-7.1,9-3.9,4.6-4.4,11.1-5.4,9.8s-.4-8.4,3.5-13c2.6-3.1,5.3-5.4,7.1-6.1-4.1-.5-8.3-1-12.5-1.5.2,1.5-3.6,4.6-7.2,8.9-3.9,4.6-4.4,11.1-5.4,9.8s-.4-8.4,3.5-13a26.033,26.033,0,0,1,6.8-6c-4.1-.4-8.2-.9-12.2-1.3-.5,1.6-3.8,4.4-6.9,8.1-3.8,4.5-4.3,10.7-5.3,9.5s-.3-8,3.5-12.5a27.318,27.318,0,0,1,5.8-5.4c-3.6-.4-7.2-.7-10.6-1C872.723,367,869.123,370.2,865.723,374.3Z" transform="translate(-823.533 -335.192)" fill="#b3cbf9"/>
          </g>
          <g id="Group_625" data-name="Group 625" transform="translate(20.267 7.508)">
            <path id="Path_1833" data-name="Path 1833" d="M929.994,179.2c14.7,27.3,19.2,54.2,15.1,57.2-4,2.9-34.3-14.1-50.9-40.3s-16.2-44.7-3.3-51.8C906.294,135.8,915.194,151.6,929.994,179.2Z" transform="translate(-879.555 -139.706)" fill="#3251b4"/>
            <path id="Path_1834" data-name="Path 1834" d="M931.894,176.9c14.7,27.3,19.2,54.2,15.1,57.2-4,2.9-34.3-14.1-50.9-40.3s-16.2-44.7-3.3-51.8C908.194,133.5,917.094,149.4,931.894,176.9Z" transform="translate(-883.355 -139.706)" fill="#b3cbf9"/>
            <g id="Group_624" data-name="Group 624" transform="translate(3.537 6.865)">
              <path id="Path_1835" data-name="Path 1835" d="M891.8,232.3s-2-2.7-5.2-7C888.5,227.9,890.2,230.3,891.8,232.3Z" transform="translate(-833.497 -146.572)" fill="#dfeafe"/>
              <path id="Path_1836" data-name="Path 1836" d="M918.862,169.2c2-4.2,5.7-6.7,4.8-7-1-.3-5,2.4-7,6.7a22.867,22.867,0,0,0-2.2,6.9c-1.6-3-3.1-5.8-4.6-8.5.7-.7,1.8-3.9,3.4-7.2,1.8-3.9,4.9-6.3,4.2-6.5s-4,2.5-5.8,6.4a22.969,22.969,0,0,0-2.2,6.4c-2-3.7-3.9-7-5.4-9.7.6-1,1.3-3,2.2-5,1.4-3.1,4.1-4.8,3.4-5.1s-3.5,1.8-5,4.9a16.96,16.96,0,0,0-1.4,3.9c-3.9-6.6-5.9-8.8-4.7-3.2a23.854,23.854,0,0,0,1.6,5,20.63,20.63,0,0,0-4-.4c-3.3,0-6.4,1.7-6.5,2.4s2.6-.9,6-.9c2,0,3.9.2,5,.2a100.369,100.369,0,0,0,4.9,10,24.617,24.617,0,0,0-6.4-.7c-4.2-.1-8.1,1.8-8.2,2.5s3.3-1,7.6-.9c3.3,0,6.3.4,7.5.2q2.1,3.75,4.5,7.8a25.508,25.508,0,0,0-6.3-.7c-4.6-.1-8.8,2.5-9,3.5s3.7-1.3,8.3-1.3c3.5,0,6.6.5,8,.2,1.5,2.4,3,4.9,4.6,7.4a19.32,19.32,0,0,0-6-.8c-4.5-.1-8.7,3-8.8,4.2s3.6-1.6,8.1-1.6c3.6,0,6.8.6,8,.2,1.8,2.9,3.7,5.7,5.6,8.5a17.282,17.282,0,0,0-7-1.2c-4.6-.1-8.9,3.2-9.1,4.5s3.7-1.7,8.3-1.7c4.3.1,8.1.9,8.7-.1,1.8,2.6,3.6,5.2,5.3,7.8a20.91,20.91,0,0,0-6.4-1c-4.6-.1-8.9,3.2-9.1,4.5s3.7-1.7,8.3-1.7c4,0,7.5.7,8.5.1,1.6,2.3,3.1,4.5,4.6,6.6a21.883,21.883,0,0,0-7.2-.9c-4.4-.1-8.3,1.8-8.4,2.5s3.4-1,7.8-.9c4.1,0,7.7.5,8.3,0,1.8,2.5,3.5,4.9,5,7a16.517,16.517,0,0,0-5.3-1.2c-3.2-.2-6,.4-6.1.8-.1.3,2.7-.1,5.9.1,3,.2,5.4.9,5.8.7.7,1,1.4,1.9,2,2.8-.6-.9-1.3-1.9-1.9-2.9.3-.5.6-2.9,1.6-5.5,1.1-3.1,2.5-5.5,2.2-5.5s-2,2.3-3.1,5.4a14.6,14.6,0,0,0-1,5.3c-1.4-2.2-2.9-4.5-4.3-6.9.7-1,1.8-4,3.4-7.3,1.9-4,5-6.5,4.3-6.7s-4.1,2.6-6,6.6a28.155,28.155,0,0,0-2.3,6.4q-1.95-3.15-3.9-6.6c1.1,0,2.1-3.9,4-7.9,2-4.2,6.4-6.5,5.2-6.9s-6,2.1-8,6.4c-1.3,2.9-2.1,5.5-2,7.1-1.7-2.9-3.3-5.9-5-8.9,1.1-.3,2.1-4,3.9-7.9,2-4.2,6.4-6.5,5.2-6.9s-6,2.1-8,6.4a17.656,17.656,0,0,0-2,6.8l-4.8-8.7c.9-.8,1.9-4.1,3.5-7.5,1.9-4.1,6.1-6.3,5-6.7-1.2-.4-5.7,2.1-7.6,6.2a20.734,20.734,0,0,0-1.9,5.9c-1.4-2.6-2.8-5.1-4.1-7.6C915.962,176.5,917.062,173,918.862,169.2Z" transform="translate(-889.659 -146.572)" fill="#dfeafe"/>
            </g>
          </g>
          <g id="Group_627" data-name="Group 627" transform="translate(30.468 79.421)">
            <path id="Path_1837" data-name="Path 1837" d="M908.272,243.3c21.4,23.2,32.7,48.9,29.4,53.2-3.2,4.1-37.3-3.9-60.3-25.4s-27.3-40.3-16.5-51.2C873.872,206.6,886.672,220,908.272,243.3Z" transform="translate(-855.234 -211.619)" fill="#3251b4"/>
            <path id="Path_1838" data-name="Path 1838" d="M905.472,240.3c21.4,23.2,32.7,48.9,29.4,53.2-3.2,4.1-37.3-3.9-60.3-25.4s-27.3-40.3-16.5-51.2C871.072,203.6,883.872,216.9,905.472,240.3Z" transform="translate(-849.634 -211.619)" fill="#b3cbf9"/>
            <g id="Group_626" data-name="Group 626" transform="translate(6.838 5.481)">
              <path id="Path_1839" data-name="Path 1839" d="M862.1,292.1s-2.6-2.1-6.9-5.5A86.8,86.8,0,0,0,862.1,292.1Z" transform="translate(-785.9 -217.1)" fill="#dfeafe"/>
              <path id="Path_1840" data-name="Path 1840" d="M893.6,237.2c.9-4.9,3.9-8.4,2.9-8.5s-4.3,4-5.2,8.8a23.238,23.238,0,0,0-.4,7.6q-3.45-3.75-6.6-7.2c.5-.9.8-4.4,1.5-8.3.8-4.5,3.2-7.8,2.4-7.8s-3.3,3.7-4.1,8.2a35.534,35.534,0,0,0-.6,7.1c-2.9-3.1-5.6-5.9-7.8-8.2.3-1.2.5-3.4.9-5.7.6-3.5,2.8-6.1,2.1-6.1s-3,2.9-3.7,6.4a25.513,25.513,0,0,0-.4,4.4c-5.5-5.5-8-7.1-5.5-1.8a35.523,35.523,0,0,0,2.8,4.6,25.576,25.576,0,0,0-4,.8c-3.3,1-5.8,3.6-5.8,4.4.1.7,2.4-1.7,5.6-2.7,2-.6,3.9-.9,5-1.3,2,2.6,4.5,5.5,7.3,8.6a24.535,24.535,0,0,0-6.4,1.2c-4.2,1.2-7.5,4.2-7.4,5s3-2,7.2-3.2c3.3-1,6.3-1.5,7.5-2.1,2,2.1,4.1,4.3,6.4,6.5a26.668,26.668,0,0,0-6.4,1.1c-4.5,1.3-8,5.1-7.9,6.2s3.3-2.4,7.8-3.8c3.4-1,6.6-1.5,7.9-2.2,2.1,2,4.2,4.1,6.4,6.1a19.039,19.039,0,0,0-6.1.9c-4.4,1.3-7.7,5.6-7.6,6.9s3.1-2.7,7.5-4c3.5-1,6.9-1.4,7.9-2.2,2.5,2.3,5.1,4.7,7.7,6.9a17.168,17.168,0,0,0-7.2.9c-4.5,1.3-8,5.9-7.8,7.2.2,1.4,3.2-2.9,7.8-4.2,4.3-1.2,8.2-1.6,8.6-2.7,2.4,2.1,4.8,4.2,7.2,6.2a22.672,22.672,0,0,0-6.6.9c-4.5,1.3-8,5.9-7.8,7.2.2,1.4,3.2-2.9,7.8-4.2,3.9-1.1,7.6-1.5,8.4-2.5,2.1,1.8,4.2,3.6,6.2,5.2-1.2-.2-4.1.3-7.3,1.2-4.3,1.3-7.7,4.3-7.6,5.1s3.1-2,7.4-3.3c4-1.2,7.7-1.8,8.1-2.5,2.4,2,4.7,3.9,6.7,5.5a14.313,14.313,0,0,0-5.5.4c-3.2.8-5.8,2.2-5.8,2.6s2.6-.9,5.8-1.7c3-.7,5.5-.7,5.8-1,1,.8,1.9,1.5,2.7,2.2-.9-.7-1.7-1.5-2.6-2.3.2-.6-.1-3.1.1-6.1.3-3.4,1.1-6.3.8-6.3s-1.4,2.9-1.7,6.3a16.526,16.526,0,0,0,.4,5.6c-1.9-1.8-4-3.7-6-5.7.5-1.2.8-4.6,1.4-8.3.8-4.6,3.2-8,2.5-8.1-.8,0-3.3,3.8-4.2,8.4a28.947,28.947,0,0,0-.6,7.1l-5.5-5.5c1.1-.3,1.1-4.6,1.9-9.2.9-4.9,4.6-8.4,3.3-8.5s-5.3,3.9-6.2,8.8a20.29,20.29,0,0,0-.2,7.7q-3.6-3.6-7.2-7.5c1-.6,1-4.7,1.8-9.2.9-4.9,4.6-8.4,3.3-8.5s-5.3,3.9-6.2,8.8a21.444,21.444,0,0,0-.3,7.4c-2.3-2.5-4.6-4.9-6.9-7.4.7-1.1.8-4.7,1.5-8.6.8-4.7,4.4-8.2,3.2-8.2s-5.1,3.8-5.9,8.5a21.989,21.989,0,0,0-.4,6.5c-2-2.2-4-4.4-6-6.4C892.7,245.5,892.8,241.6,893.6,237.2Z" transform="translate(-862.1 -217.1)" fill="#dfeafe"/>
            </g>
          </g>
          <g id="Group_629" data-name="Group 629" transform="translate(124.25 19.663)">
            <path id="Path_1841" data-name="Path 1841" d="M823.918,206.2c-18.1,25.8-40.9,42.3-45.7,40-4.7-2.2-4.1-37.3,12-64.3s33.6-35.2,46.6-27C852.418,164.9,842.118,180.2,823.918,206.2Z" transform="translate(-775.662 -151.861)" fill="#3251b4"/>
            <path id="Path_1842" data-name="Path 1842" d="M820.318,208.3c-18.1,25.9-40.9,42.3-45.7,40-4.7-2.2-4.1-37.3,12-64.3s33.6-35.2,46.6-27C848.818,167,838.518,182.3,820.318,208.3Z" transform="translate(-768.462 -151.861)" fill="#b3cbf9"/>
            <g id="Group_628" data-name="Group 628" transform="translate(6.956 7.624)">
              <path id="Path_1843" data-name="Path 1843" d="M833.5,245.9s1.5-3,4-7.9A73.623,73.623,0,0,0,833.5,245.9Z" transform="translate(-833.5 -159.486)" fill="#dfeafe"/>
              <path id="Path_1844" data-name="Path 1844" d="M820.725,190.6c4.9-.2,9.1,2.1,8.9,1.1s-4.8-3.4-9.7-3.2a23.618,23.618,0,0,0-7.5,1.2c2-2.8,3.9-5.5,5.6-8,1,.3,4.5-.2,8.4-.3,4.5-.2,8.3,1.5,8.2.7-.1-.7-4.3-2.5-8.9-2.3a32.491,32.491,0,0,0-7.1.9c2.5-3.5,4.6-6.7,6.4-9.4,1.2,0,3.4-.3,5.8-.3,3.6-.1,6.6,1.4,6.4.7s-3.4-2.3-7-2.2a23.133,23.133,0,0,0-4.3.5c4.2-6.5,5.2-9.3.6-5.7a32.228,32.228,0,0,0-3.9,3.7,19.561,19.561,0,0,0-1.7-3.8c-1.6-3-4.8-4.9-5.5-4.7s2.2,1.9,3.8,4.9c1,1.8,1.7,3.6,2.3,4.6a95.066,95.066,0,0,0-6.9,9,25.665,25.665,0,0,0-2.5-6c-2.1-3.8-5.7-6.4-6.5-6.2-.7.3,2.6,2.5,4.7,6.4,1.6,3,2.8,5.9,3.6,6.8-1.6,2.4-3.3,4.9-5,7.6a22.62,22.62,0,0,0-2.5-6c-2.2-4.1-6.7-6.8-7.7-6.4-1,.3,3.1,2.7,5.3,6.8,1.7,3.1,2.9,6.1,3.8,7.3-1.5,2.5-3.1,5-4.6,7.6a21.435,21.435,0,0,0-2.2-5.8c-2.2-4-7.1-6.4-8.4-6-1.2.4,3.3,2.5,5.5,6.5,1.8,3.2,2.9,6.4,3.9,7.3-1.7,3-3.5,6-5.1,9,0-1.6-.9-4.1-2.4-6.8-2.3-4.2-7.4-6.6-8.7-6.1-1.3.4,3.5,2.5,5.7,6.7,2.1,3.9,3.3,7.7,4.5,7.8-1.6,2.8-3.1,5.6-4.6,8.3a19.183,19.183,0,0,0-2.3-6.2c-2.3-4.2-7.4-6.6-8.7-6.1-1.3.4,3.5,2.5,5.7,6.7,1.9,3.6,3.1,7.1,4.2,7.7-1.3,2.5-2.6,4.9-3.8,7.2a23.6,23.6,0,0,0-2.7-6.9c-2.1-3.9-5.8-6.6-6.6-6.4-.7.3,2.6,2.6,4.8,6.6,2,3.7,3.4,7.2,4.2,7.4-1.5,2.8-2.8,5.4-4,7.7a13.167,13.167,0,0,0-1.6-5.3c-1.4-3-3.4-5.2-3.7-5.1s1.4,2.4,2.9,5.4c1.3,2.8,1.9,5.2,2.2,5.5-.6,1.1-1.1,2.1-1.6,3.1.5-1,1.1-2,1.7-3.1.6,0,3-.8,6-1.2,3.4-.5,6.4-.2,6.3-.6-.1-.3-3.1-.7-6.5-.3a18.221,18.221,0,0,0-5.4,1.5c1.3-2.3,2.8-4.7,4.3-7.1,1.3.2,4.7-.2,8.4-.4,4.7-.2,8.5,1.5,8.4.7-.1-.7-4.4-2.5-9.1-2.3a33.423,33.423,0,0,0-7.1.9c1.3-2.1,2.7-4.3,4.2-6.5.6,1,4.7.1,9.4-.1,4.9-.2,9.2,2.7,9,1.4s-5-4.4-9.9-4.2c-3.3.1-6.2.7-7.6,1.5,1.9-2.8,3.8-5.7,5.8-8.6.8.9,4.8,0,9.3-.2,4.9-.2,9.2,2.7,9,1.4s-5-4.4-9.9-4.2a20.741,20.741,0,0,0-7.3,1.3c1.9-2.8,3.8-5.6,5.7-8.3,1.2.5,4.8-.2,8.7-.4,4.8-.2,8.9,2.6,8.7,1.4s-4.8-4.1-9.6-4a24.515,24.515,0,0,0-6.4,1c1.7-2.5,3.4-4.9,5-7.2C812.425,191.4,816.325,190.7,820.725,190.6Z" transform="translate(-776.625 -159.486)" fill="#dfeafe"/>
            </g>
          </g>
          <path id="Path_1845" data-name="Path 1845" d="M834.47,246.5a26.31,26.31,0,0,1-10.4-8.8c1.1,3.4,2,6.9-3-2.7a135.421,135.421,0,0,1-8.6-25.9c-2.4-.5-6.3-2.7-10.6-8.5-5.9-8.1-6.5-11.4-5-11.9,1.8-.7,3.9,4.2,8.8,10.1,2.4,2.9,4.5,5,6,6.5a125.844,125.844,0,0,1-2.3-20.3c-2.7,0-8.9-3.2-13.6-13.2-5.2-11-4.7-14.9-2.6-15.2,2.8-.3,3.9,5.9,8.5,14a107.3,107.3,0,0,0,7.6,11.4,88,88,0,0,1,2.2-20.2c-2.7-1.4-7.1-5.7-10.3-14.5-4.2-11.5-3.7-15.2-1.7-15.1,2.5.1,3.3,6.3,7.1,15a91.469,91.469,0,0,0,5.8,11.3,72.286,72.286,0,0,1,7.8-18.5s4.1-4.9,3.9-1c-.1,2.3-3.3,4.3-7.3,14.1a75.124,75.124,0,0,0-2.6,8.3c1.6.6,5.3,3.8,13.2,7.5,8,3.9,13.8,4.6,13.9,7.3.1,2.1-3.2,2.9-13.9-1.4-8.4-3.4-12.5-8.2-13.7-11.1a105.156,105.156,0,0,0-2.1,19.1c1.1-.8,5.4,3.9,16.5,9.4,9.6,4.7,16.5,5.3,16.6,9,.1,2.9-4,4.1-16.8-1.1-10.4-4.2-15.2-10.7-16.4-14.5a113.692,113.692,0,0,0,2.2,21.9h0c.7-1.2,3.9,2.8,12,6.3,6.9,3,14.1,3.7,12.1,5.9-3.2,3.5-4.8,4.9-11.8,1.8-6.1-2.7-9.7-6.6-11.3-9.7a110.707,110.707,0,0,0,8,22.3c.8-.4,5.6,4.8,13.5,7.5,7.1,2.4,10.7.2,11.2,4C847.77,248.6,843.47,251,834.47,246.5Z" transform="translate(-670.364 -132.198)" fill="#fea815"/>
        </g>
        <g id="Group_641" data-name="Group 641" transform="translate(308.578 153.298)">
          <g id="Group_631" data-name="Group 631" transform="translate(0 52.615)">
            <path id="Path_1846" data-name="Path 1846" d="M670.416,245.4c-29.8,28.2-47,58.4-43.2,62.8,3.6,4.3,48-8,79.7-34.4,31.6-26.4,39.1-48.1,26.5-59.5C718.116,200.8,700.416,217,670.416,245.4Z" transform="translate(-624.494 -205.913)" fill="#3251b4"/>
            <path id="Path_1847" data-name="Path 1847" d="M672.616,241.9c-29.8,28.2-47,58.4-43.2,62.8,3.6,4.3,48-8,79.7-34.4,31.6-26.4,39.1-48.1,26.5-59.5C720.316,197.2,702.616,213.4,672.616,241.9Z" transform="translate(-628.894 -205.913)" fill="#608fdf"/>
            <path id="Path_1848" data-name="Path 1848" d="M688.19,236.8c-.6-5.4-4.1-9.2-2.8-9.3s5.1,4.1,5.7,9.5a25,25,0,0,1-.2,8.5c3.2-3.1,6.3-6,9.2-8.7-.6-1-.6-4.9-1-9.2-.5-5-3.2-8.5-2.3-8.6s3.8,3.8,4.4,8.8a29.747,29.747,0,0,1,0,8c4.1-3.8,7.8-7.2,10.8-10-.2-1.3-.2-3.8-.5-6.4-.4-3.9-2.9-6.6-2-6.7s3.5,3,4,6.9a27.641,27.641,0,0,1,.1,4.9c7.6-6.7,11-8.8,7.2-2.6a48.441,48.441,0,0,1-4.1,5.5,36.206,36.206,0,0,1,5.1.5c4.1.8,7.1,3.5,6.9,4.4-.2.8-2.8-1.7-6.9-2.5-2.5-.5-4.8-.7-6.3-1a142.165,142.165,0,0,1-10.3,10.4,38.087,38.087,0,0,1,8.1.7c5.2,1,9.1,4.1,8.9,5s-3.7-2-8.9-2.9c-4.1-.8-7.9-1.1-9.3-1.7-2.8,2.6-5.7,5.2-8.8,8a35.44,35.44,0,0,1,8,.7c5.6,1.1,9.7,5,9.4,6.2s-3.9-2.5-9.5-3.5c-4.3-.8-8.3-1.1-9.9-1.7-2.9,2.5-5.8,5-8.9,7.5a27.1,27.1,0,0,1,7.7.5c5.5,1,9.3,5.6,9,7.1s-3.7-2.8-9.2-3.8c-4.4-.8-8.6-1-9.9-1.8-3.5,2.9-7,5.8-10.6,8.6,2-.5,5.3-.4,9.1.3,5.7,1.1,9.6,5.9,9.2,7.4s-3.8-2.9-9.5-4c-5.3-1-10.3-1-10.6-2.3-3.3,2.6-6.6,5.2-9.8,7.7a27.277,27.277,0,0,1,8.3.4c5.7,1.1,9.6,5.9,9.2,7.4-.3,1.6-3.8-2.9-9.5-4-4.9-.9-9.5-1-10.5-2-2.9,2.3-5.8,4.4-8.5,6.5,1.6-.3,5.1-.1,9.2.7,5.4,1,9.4,4.1,9.2,5s-3.8-2-9.1-3c-5-.9-9.6-1.3-10.1-2.1-3.3,2.5-6.4,4.8-9.1,6.9a21.556,21.556,0,0,1,7-.1c4,.6,7.2,2,7.1,2.4s-3.2-.8-7.3-1.3c-3.7-.5-6.9-.3-7.3-.6-1.3,1-2.5,1.9-3.7,2.7,1.2-.9,2.4-1.9,3.6-2.9-.1-.7.5-3.5.5-6.8,0-3.9-.7-7-.3-7s1.4,3.1,1.4,7a17.113,17.113,0,0,1-1.1,6.4c2.7-2.2,5.5-4.5,8.3-7-.5-1.3-.5-5.1-1-9.3-.6-5.1-3.3-8.8-2.3-8.9s3.9,4,4.4,9.1a26.222,26.222,0,0,1,0,8c2.5-2.2,5-4.4,7.6-6.7-1.4-.3-.9-5.1-1.5-10.2-.6-5.4-5-9.1-3.3-9.3s6.4,3.9,7,9.4a20.378,20.378,0,0,1-.6,8.7c3.3-3,6.6-6,9.9-9.1-1.2-.6-.8-5.2-1.3-10.2-.6-5.4-5-9.1-3.3-9.3s6.4,3.9,7,9.4a19.787,19.787,0,0,1-.5,8.4l9.6-9c-.8-1.2-.5-5.2-1-9.6-.6-5.2-4.8-8.8-3.2-9s6.1,3.8,6.6,9.1a24.2,24.2,0,0,1-.2,7.3c2.8-2.7,5.6-5.3,8.3-7.8C688.59,246,688.79,241.6,688.19,236.8Z" transform="translate(-621.868 -205.913)" fill="#b3cbf9"/>
          </g>
          <g id="Group_632" data-name="Group 632" transform="translate(174.78 132.994)">
            <path id="Path_1849" data-name="Path 1849" d="M535,321.2s2.7-6.1,7.3-16C539.4,311,536.9,316.4,535,321.2Z" transform="translate(-510.658 -286.292)" fill="#dfeafe"/>
            <path id="Path_1850" data-name="Path 1850" d="M508.166,341.9c-38.1,3.7-70.9-4.7-72.4-11.3-1.4-6.3,32.3-34.4,70.1-41.1,37.7-6.6,58.7,3.6,60.6,22.8C568.866,335.5,546.566,338.1,508.166,341.9Z" transform="translate(-435.724 -286.292)" fill="#3251b4"/>
            <path id="Path_1851" data-name="Path 1851" d="M504.752,340.7c-38.1,3.7-70.9-4.7-72.4-11.3-1.4-6.3,32.3-34.4,70-41.1,37.7-6.6,58.7,3.6,60.6,22.8C565.452,334.4,543.152,337,504.752,340.7Z" transform="translate(-428.81 -286.292)" fill="#608fdf"/>
            <path id="Path_1852" data-name="Path 1852" d="M538.4,327.9s4-1.1,10.5-2.7A88.224,88.224,0,0,0,538.4,327.9Z" transform="translate(-520.658 -286.292)" fill="#dfeafe"/>
            <path id="Path_1853" data-name="Path 1853" d="M516.577,325.5c3.9,4.6,4.9,10.4,5.7,9.4s-.4-7.4-4.3-12c-2.6-3.1-5.1-5.4-6.8-6.3,4.1-.4,8.1-.8,11.8-1.2.5,1.2,3.5,4.2,6.6,7.8,3.6,4.2,4.9,9.2,5.5,8.5s-.9-6.2-4.5-10.4a32.475,32.475,0,0,0-6.2-6c5.2-.5,9.8-1,13.7-1.5.9,1.2,2.8,3.1,4.7,5.3,2.8,3.3,3.6,7.5,4.2,6.8s-.4-5.2-3.2-8.6a34,34,0,0,0-3.7-3.8c9.3-1.3,12.8-2.6,5.9-4.1a38.022,38.022,0,0,0-6.5-.7,29.474,29.474,0,0,0,2.3-4.7c1.6-4,1.1-8.6.3-9.1s-.2,3.7-1.8,7.7c-1,2.4-2.1,4.6-2.6,6-4,0-8.6.2-13.7.7a32.7,32.7,0,0,0,3.8-7.4c2.1-5.1,1.8-10.8,1-11.3s-.5,4.6-2.5,9.7c-1.6,4-3.4,7.5-3.7,9.1-3.5.4-7.2.9-11,1.4a32.251,32.251,0,0,0,3.8-7.3c2.2-5.6,1.4-12,.3-12.7s-.2,5.2-2.4,10.7c-1.7,4.2-3.7,7.8-4,9.6-3.5.5-7,1.1-10.7,1.8a28.275,28.275,0,0,0,3.8-6.9c2.2-5.4.7-12.1-.7-12.9-1.3-.8.2,5.2-2,10.6-1.8,4.4-3.9,8-4,9.7-4.1.8-8.3,1.6-12.4,2.4,1.4-1.3,3.2-4.2,4.7-7.9,2.2-5.6.6-12.5-.8-13.4s.2,5.4-2,11c-2.1,5.2-4.8,9.5-4,10.7q-5.85,1.2-11.4,2.4a25.166,25.166,0,0,0,4.1-7.3c2.2-5.6.6-12.5-.8-13.4s.2,5.4-2,11c-1.9,4.8-4.4,8.8-4.1,10.3-3.4.7-6.6,1.5-9.6,2.2,1.1-1.1,2.8-4.3,4.4-8.3,2.1-5.3,1.9-11.1,1.1-11.6s-.5,4.7-2.6,10c-2,4.9-4.2,9.1-3.9,10.1-3.7.9-7.2,1.7-10.3,2.5a20.643,20.643,0,0,0,3.9-5.9c1.8-3.8,2.4-7.5,2-7.8s-1.2,3.3-2.9,7.1c-1.6,3.6-3.5,6.1-3.5,6.6-1.5.4-2.8.7-4.1,1,1.4-.3,2.8-.6,4.2-.8.5.6,3,2.3,5.6,4.8,3,2.9,5,5.9,5.3,5.6s-1.6-3.6-4.7-6.5a18.44,18.44,0,0,0-5.6-4c3.2-.6,6.5-1.2,10-1.7.7,1.4,3.7,4.3,6.7,7.8,3.7,4.4,5.1,9.4,5.7,8.7s-1-6.3-4.7-10.7a37.77,37.77,0,0,0-6.2-6.1c3-.5,6.2-.9,9.3-1.3-.5,1.4,3.4,4.6,7.1,9,3.9,4.6,4.4,11.1,5.4,9.8s.4-8.4-3.5-13c-2.6-3.1-5.3-5.4-7.1-6.1,4.1-.5,8.3-1,12.5-1.5-.2,1.5,3.6,4.6,7.2,8.9,3.9,4.6,4.4,11.1,5.4,9.8s.4-8.4-3.5-13a26.033,26.033,0,0,0-6.8-6c4.1-.4,8.2-.9,12.2-1.3.5,1.6,3.8,4.4,6.9,8.1,3.8,4.5,4.3,10.7,5.3,9.5s.3-8-3.5-12.5a27.319,27.319,0,0,0-5.8-5.4c3.6-.4,7.2-.7,10.6-1C509.577,318.1,513.177,321.4,516.577,325.5Z" transform="translate(-424.435 -286.292)" fill="#b3cbf9"/>
          </g>
          <g id="Group_634" data-name="Group 634" transform="translate(191.877 2.908)">
            <path id="Path_1854" data-name="Path 1854" d="M501.006,195.7c-14.7,27.3-19.2,54.2-15.1,57.2,4,2.9,34.3-14.1,50.9-40.3s16.2-44.7,3.3-51.8C524.706,152.3,515.806,168.2,501.006,195.7Z" transform="translate(-484.461 -156.206)" fill="#3251b4"/>
            <path id="Path_1855" data-name="Path 1855" d="M499.006,193.4c-14.7,27.3-19.2,54.2-15.1,57.2,4,2.9,34.3-14.1,50.9-40.3s16.2-44.7,3.3-51.8C522.706,150,513.806,165.9,499.006,193.4Z" transform="translate(-480.461 -156.206)" fill="#b3cbf9"/>
            <g id="Group_633" data-name="Group 633" transform="translate(5.145 6.88)">
              <path id="Path_1856" data-name="Path 1856" d="M539.2,248.8s2-2.7,5.2-7C542.6,244.5,540.8,246.8,539.2,248.8Z" transform="translate(-539.2 -163.086)" fill="#dfeafe"/>
              <path id="Path_1857" data-name="Path 1857" d="M512.038,185.7c-2-4.2-5.7-6.7-4.8-7,1-.3,5,2.4,7,6.7a22.867,22.867,0,0,1,2.2,6.9c1.6-3,3.1-5.8,4.6-8.5-.7-.7-1.8-3.9-3.4-7.2-1.8-3.9-4.9-6.3-4.2-6.5s4,2.5,5.8,6.4a22.969,22.969,0,0,1,2.2,6.4c2-3.7,3.9-7,5.4-9.7-.6-1-1.3-3-2.2-5-1.4-3.1-4.1-4.8-3.4-5.1.7-.2,3.5,1.8,5,4.9a16.96,16.96,0,0,1,1.4,3.9c3.9-6.6,5.9-8.8,4.7-3.2a23.847,23.847,0,0,1-1.6,5,20.63,20.63,0,0,1,4-.4c3.3,0,6.4,1.7,6.5,2.4s-2.6-.9-6-.9c-2,0-3.9.2-5,.2a100.369,100.369,0,0,1-4.9,10,24.618,24.618,0,0,1,6.4-.7c4.2-.1,8.1,1.8,8.2,2.5s-3.3-1-7.6-.9c-3.3,0-6.3.4-7.5.2q-2.1,3.75-4.5,7.8a25.508,25.508,0,0,1,6.3-.7c4.6-.1,8.8,2.5,9,3.5s-3.7-1.3-8.3-1.3c-3.5,0-6.6.5-8,.2-1.5,2.4-3,4.9-4.6,7.4a19.32,19.32,0,0,1,6-.8c4.5-.1,8.7,3,8.8,4.2.2,1.2-3.6-1.6-8.1-1.6-3.6,0-6.8.6-8,.2-1.8,2.9-3.7,5.7-5.6,8.5a17.282,17.282,0,0,1,7-1.2c4.6-.1,8.9,3.2,9.1,4.5s-3.7-1.7-8.3-1.7c-4.3.1-8.1.9-8.7-.1-1.8,2.6-3.6,5.2-5.3,7.8a20.91,20.91,0,0,1,6.4-1c4.6-.1,8.9,3.2,9.1,4.5s-3.7-1.7-8.3-1.7c-4,0-7.5.7-8.5.1-1.6,2.3-3.1,4.5-4.6,6.5a21.883,21.883,0,0,1,7.2-.9c4.4-.1,8.3,1.8,8.4,2.5s-3.4-1-7.8-.9c-4.1,0-7.7.5-8.3,0-1.8,2.5-3.5,4.9-5,7a16.517,16.517,0,0,1,5.3-1.2c3.2-.2,6,.4,6.1.8.1.3-2.7-.1-5.9.1-3,.2-5.4.9-5.8.7-.7,1-1.4,1.9-2,2.8.6-.9,1.3-1.9,1.9-2.9-.3-.5-.6-2.9-1.6-5.5-1.1-3.1-2.5-5.5-2.2-5.5.3-.1,2,2.3,3.1,5.4a14.6,14.6,0,0,1,1,5.3c1.4-2.2,2.9-4.5,4.3-6.9-.7-1-1.8-4-3.4-7.3-1.9-4-5-6.5-4.3-6.7s4.1,2.6,6,6.6a28.155,28.155,0,0,1,2.3,6.4q1.95-3.15,3.9-6.6c-1.1,0-2.1-3.9-4-7.9-2-4.2-6.4-6.5-5.2-6.9s6,2.1,8,6.4c1.3,2.9,2.1,5.5,2,7.1,1.7-2.9,3.3-5.9,5-8.9-1.1-.3-2.1-4-3.9-7.9-2-4.2-6.4-6.5-5.2-6.9s6,2.1,8,6.4a17.656,17.656,0,0,1,2,6.8l4.8-8.7c-.9-.8-1.9-4.1-3.5-7.5-1.9-4.1-6.1-6.3-5-6.7,1.2-.4,5.7,2.1,7.6,6.2a20.734,20.734,0,0,1,1.9,5.9c1.4-2.6,2.8-5.1,4.1-7.6C514.838,193.1,513.738,189.5,512.038,185.7Z" transform="translate(-482.838 -163.086)" fill="#dfeafe"/>
            </g>
          </g>
          <g id="Group_636" data-name="Group 636" transform="translate(197.277 93.008)">
            <path id="Path_1858" data-name="Path 1858" d="M495.606,285.8c-14.7,27.4-19.2,54.2-15.1,57.2,4,2.9,34.3-14.1,50.9-40.3s16.2-44.7,3.3-51.8C519.306,242.4,510.406,258.3,495.606,285.8Z" transform="translate(-479.061 -246.306)" fill="#3251b4"/>
            <path id="Path_1859" data-name="Path 1859" d="M493.706,283.5c-14.7,27.3-19.2,54.2-15.1,57.2,4,2.9,34.3-14.1,50.9-40.3s16.2-44.7,3.3-51.8C517.406,240.1,508.506,256,493.706,283.5Z" transform="translate(-475.261 -246.306)" fill="#b3cbf9"/>
            <g id="Group_635" data-name="Group 635" transform="translate(5.145 6.88)">
              <path id="Path_1860" data-name="Path 1860" d="M533.8,338.9s2-2.7,5.2-7C537.1,334.6,535.4,336.9,533.8,338.9Z" transform="translate(-533.8 -253.186)" fill="#dfeafe"/>
              <path id="Path_1861" data-name="Path 1861" d="M506.738,275.8c-2-4.2-5.7-6.7-4.8-7,1-.3,5,2.4,7,6.7a22.866,22.866,0,0,1,2.2,6.9c1.6-3,3.1-5.8,4.6-8.5-.7-.7-1.8-3.9-3.4-7.2-1.8-3.9-4.9-6.3-4.2-6.5s4,2.5,5.8,6.4a22.969,22.969,0,0,1,2.2,6.4c2-3.7,3.9-7,5.4-9.7-.6-1-1.3-3-2.2-5-1.4-3.1-4.1-4.8-3.4-5.1.7-.2,3.5,1.8,5,4.9a16.96,16.96,0,0,1,1.4,3.9c3.9-6.6,5.9-8.8,4.7-3.2a26.561,26.561,0,0,1-1.6,5.1,20.629,20.629,0,0,1,4-.4c3.3,0,6.4,1.7,6.5,2.4s-2.6-.9-6-.9c-2,0-3.9.2-5,.2a100.37,100.37,0,0,1-4.9,10,24.618,24.618,0,0,1,6.4-.7c4.2-.1,8.1,1.8,8.2,2.5s-3.3-1-7.6-.9c-3.3,0-6.3.4-7.5.2q-2.1,3.75-4.5,7.8a25.508,25.508,0,0,1,6.3-.7c4.6-.1,8.8,2.5,9,3.5.1,1-3.7-1.3-8.3-1.3-3.5,0-6.6.5-8,.2-1.5,2.4-3,4.9-4.6,7.4a19.32,19.32,0,0,1,6-.8c4.5-.1,8.7,3,8.8,4.2.2,1.2-3.6-1.6-8.1-1.6-3.6,0-6.8.6-8,.2-1.8,2.9-3.7,5.7-5.6,8.5a17.282,17.282,0,0,1,7-1.2c4.6-.1,8.9,3.2,9.1,4.5s-3.7-1.7-8.3-1.7c-4.3.1-8.1.9-8.7-.1-1.8,2.6-3.6,5.2-5.3,7.8a20.91,20.91,0,0,1,6.4-1c4.6-.1,8.9,3.2,9.1,4.5s-3.7-1.7-8.3-1.7c-4,0-7.5.7-8.5.1-1.6,2.3-3.1,4.5-4.6,6.5a21.883,21.883,0,0,1,7.2-.9c4.4-.1,8.3,1.8,8.4,2.5s-3.4-1-7.8-.9c-4.1,0-7.7.5-8.3,0-1.8,2.5-3.5,4.9-5,7a16.517,16.517,0,0,1,5.3-1.2c3.2-.2,6,.4,6.1.8s-2.7-.1-5.9.1c-3,.2-5.4.9-5.8.7-.7,1-1.4,1.9-2,2.8.6-.9,1.3-1.9,1.9-2.9-.3-.5-.6-2.9-1.6-5.5-1.1-3.1-2.5-5.5-2.2-5.5.3-.1,2,2.3,3.1,5.4a14.6,14.6,0,0,1,1,5.3c1.4-2.2,2.9-4.5,4.3-6.9-.7-1-1.8-4-3.4-7.3-1.9-4-5-6.5-4.3-6.7s4.1,2.6,6,6.6a28.155,28.155,0,0,1,2.3,6.4q1.95-3.15,3.9-6.6c-1.1,0-2.1-3.9-4-7.9-2-4.2-6.4-6.5-5.2-6.9s6,2.1,8,6.4c1.3,2.9,2.1,5.5,2,7.1,1.7-2.9,3.3-5.9,5-8.9-1.1-.3-2.1-4-3.9-7.9-2-4.2-6.4-6.5-5.2-6.9s6,2.1,8,6.4a17.656,17.656,0,0,1,2,6.8l4.8-8.7c-.9-.8-1.9-4.1-3.5-7.5-1.9-4.1-6.1-6.3-5-6.7,1.2-.4,5.7,2.1,7.6,6.2a20.732,20.732,0,0,1,1.9,5.9c1.4-2.6,2.8-5.1,4.1-7.6C509.638,283.2,508.538,279.6,506.738,275.8Z" transform="translate(-477.638 -253.186)" fill="#dfeafe"/>
            </g>
          </g>
          <g id="Group_638" data-name="Group 638" transform="translate(33.61 11.588)">
            <path id="Path_1862" data-name="Path 1862" d="M667.9,196.5c-10,21.9-12.1,43.2-8.7,45.5,3.3,2.2,26.1-11.7,37.7-32.8,11.5-21,10.2-35.7-.3-41.1C684.1,161.7,678,174.4,667.9,196.5Z" transform="translate(-654.889 -164.886)" fill="#3251b4"/>
            <path id="Path_1863" data-name="Path 1863" d="M670.7,194.9c-10,21.9-12.1,43.2-8.7,45.5,3.3,2.2,26.1-11.7,37.7-32.8,11.5-21,10.2-35.7-.3-41.1C686.9,160.2,680.8,172.9,670.7,194.9Z" transform="translate(-660.489 -164.886)" fill="#b3cbf9"/>
            <g id="Group_637" data-name="Group 637" transform="translate(2.812 5.497)">
              <path id="Path_1864" data-name="Path 1864" d="M701.3,239s1.4-2.1,3.7-5.7A63.2,63.2,0,0,1,701.3,239Z" transform="translate(-701.3 -170.383)" fill="#dfeafe"/>
              <path id="Path_1865" data-name="Path 1865" d="M680.741,188.6c-1.8-3.3-4.9-5.2-4.1-5.4.7-.3,4.1,1.8,5.9,5.1a16.514,16.514,0,0,1,2.1,5.4c1.1-2.4,2.1-4.7,3.1-6.8-.6-.5-1.6-3-3-5.6-1.7-3.1-4.2-4.9-3.6-5.1.5-.2,3.3,1.9,4.9,4.9a21.555,21.555,0,0,1,2.1,5c1.4-3,2.6-5.6,3.7-7.8-.5-.8-1.2-2.3-2-3.9-1.3-2.4-3.5-3.8-3-4s2.9,1.4,4.2,3.8a20.134,20.134,0,0,1,1.4,3.1c2.7-5.3,4.1-7,3.5-2.6-.2,1.2-.5,2.5-.9,4a21.5,21.5,0,0,1,3.1-.4c2.6-.1,5.1,1.2,5.2,1.8s-2.1-.7-4.7-.6c-1.6.1-3,.2-3.9.3a68.408,68.408,0,0,1-3.3,8,22.571,22.571,0,0,1,4.9-.7c3.3-.1,6.4,1.3,6.6,1.9.1.6-2.7-.7-6-.6-2.6.1-5,.4-5.9.3-.9,2-2,4.1-3.1,6.2a19.013,19.013,0,0,1,4.9-.7c3.6-.1,7,1.8,7.2,2.6s-2.9-1-6.5-.9c-2.7.1-5.2.5-6.3.3-1,2-2.1,4-3.2,6a16.752,16.752,0,0,1,4.7-.8c3.5-.1,6.9,2.2,7.1,3.2s-2.9-1.2-6.4-1.1c-2.8.1-5.3.6-6.3.3l-3.9,6.9a12.916,12.916,0,0,1,5.4-1.1c3.6-.1,7.2,2.3,7.4,3.4.2,1-3-1.3-6.6-1.2-3.4.1-6.3.8-6.9,0-1.3,2.1-2.5,4.2-3.7,6.2a14.908,14.908,0,0,1,5-.9c3.6-.1,7.2,2.3,7.4,3.4.2,1-3-1.3-6.6-1.2-3.1.1-5.8.7-6.7.2-1.1,1.8-2.2,3.6-3.2,5.3a18.183,18.183,0,0,1,5.6-.9c3.4-.1,6.6,1.3,6.7,1.9s-2.8-.7-6.2-.6c-3.2.1-6,.5-6.5.1-1.3,2-2.5,3.9-3.5,5.6a10.781,10.781,0,0,1,4.1-1c2.5-.2,4.7.2,4.8.5s-2.1,0-4.6.2c-2.3.2-4.2.8-4.5.6-.5.8-1,1.5-1.4,2.2.4-.7.9-1.5,1.3-2.3-.3-.4-.7-2.3-1.5-4.4-1-2.4-2.3-4.3-2-4.3.3-.1,1.7,1.8,2.7,4.2a11.684,11.684,0,0,1,1.1,4.2c1-1.7,2-3.6,3-5.6a60.073,60.073,0,0,1-3-5.7c-1.7-3.1-4.3-5.1-3.7-5.3.5-.2,3.3,2,5,5.1a26.306,26.306,0,0,1,2.2,5c.9-1.7,1.8-3.5,2.7-5.3-.9,0-1.9-3-3.6-6.2-1.8-3.3-5.4-5-4.4-5.4.9-.3,4.8,1.6,6.6,4.9a15.84,15.84,0,0,1,2,5.6c1.1-2.3,2.3-4.7,3.4-7.1-.9-.2-1.9-3.1-3.5-6.2-1.8-3.3-5.4-5-4.4-5.4.9-.3,4.8,1.6,6.6,4.9a20.026,20.026,0,0,1,2,5.3c1.1-2.3,2.2-4.7,3.2-7-.8-.6-1.7-3.2-3.1-5.9-1.7-3.2-5.1-4.9-4.3-5.2.9-.3,4.6,1.6,6.3,4.8a15.3,15.3,0,0,1,1.8,4.6c1-2.1,1.9-4.1,2.8-6.1C683.341,194.3,682.341,191.5,680.741,188.6Z" transform="translate(-661.341 -170.383)" fill="#dfeafe"/>
            </g>
          </g>
          <g id="Group_640" data-name="Group 640" transform="translate(99.84 19.563)">
            <path id="Path_1866" data-name="Path 1866" d="M589.749,227.2c18.1,25.9,40.9,42.3,45.7,40,4.7-2.2,4.1-37.3-12-64.3s-33.6-35.2-46.6-27C561.149,185.9,571.449,201.2,589.749,227.2Z" transform="translate(-565.568 -172.862)" fill="#3251b4"/>
            <path id="Path_1867" data-name="Path 1867" d="M593.326,229.3c18.1,25.8,40.9,42.3,45.7,40,4.7-2.2,4.1-37.3-12-64.3s-33.6-35.2-46.6-27C564.726,188,575.126,203.3,593.326,229.3Z" transform="translate(-572.744 -172.862)" fill="#b3cbf9"/>
            <g id="Group_639" data-name="Group 639" transform="translate(4.872 7.624)">
              <path id="Path_1868" data-name="Path 1868" d="M580.1,266.9s-1.5-3-4-7.9C577.7,261.9,579.1,264.6,580.1,266.9Z" transform="translate(-519.49 -180.486)" fill="#dfeafe"/>
              <path id="Path_1869" data-name="Path 1869" d="M592.875,211.6c-4.9-.2-9.1,2.1-8.9,1.1s4.8-3.4,9.7-3.2a23.618,23.618,0,0,1,7.5,1.2c-2-2.8-3.9-5.5-5.6-8-1,.3-4.5-.2-8.4-.3-4.5-.2-8.3,1.5-8.2.7s4.3-2.5,8.9-2.3a32.491,32.491,0,0,1,7.1.9c-2.5-3.5-4.6-6.7-6.4-9.4-1.2,0-3.4-.3-5.8-.3-3.6-.1-6.6,1.4-6.4.7.1-.7,3.4-2.3,7-2.2a23.133,23.133,0,0,1,4.3.5c-4.2-6.5-5.2-9.3-.6-5.7a32.228,32.228,0,0,1,3.9,3.7,19.561,19.561,0,0,1,1.7-3.8c1.6-3,4.8-4.9,5.5-4.7s-2.2,1.9-3.8,4.9c-1,1.8-1.7,3.6-2.3,4.6a95.066,95.066,0,0,1,6.9,9,25.665,25.665,0,0,1,2.5-6c2.1-3.8,5.7-6.4,6.5-6.2.7.3-2.6,2.5-4.7,6.4-1.6,3-2.8,5.9-3.6,6.8,1.6,2.4,3.3,4.9,5,7.6a22.62,22.62,0,0,1,2.5-6c2.2-4.1,6.7-6.8,7.7-6.4s-3.1,2.7-5.3,6.8c-1.7,3.1-2.9,6.1-3.8,7.3,1.5,2.5,3.1,5,4.6,7.6a21.435,21.435,0,0,1,2.2-5.8c2.2-4,7.1-6.4,8.4-6,1.2.4-3.3,2.5-5.5,6.5-1.8,3.2-2.9,6.4-3.9,7.3,1.7,3,3.5,6,5.1,9,0-1.6.9-4.1,2.4-6.8,2.3-4.2,7.4-6.6,8.7-6.1s-3.5,2.5-5.7,6.7c-2.1,3.9-3.3,7.7-4.5,7.8,1.6,2.8,3.1,5.6,4.6,8.3a19.183,19.183,0,0,1,2.3-6.2c2.3-4.2,7.4-6.6,8.7-6.1s-3.5,2.5-5.7,6.7c-1.9,3.6-3.1,7.1-4.2,7.7,1.3,2.5,2.6,4.9,3.8,7.2a23.6,23.6,0,0,1,2.7-6.9c2.1-3.9,5.8-6.6,6.6-6.4.7.3-2.6,2.6-4.8,6.6-2,3.7-3.4,7.2-4.2,7.4,1.5,2.8,2.8,5.4,4,7.7a13.167,13.167,0,0,1,1.6-5.3c1.4-3,3.4-5.2,3.7-5.1s-1.4,2.4-2.9,5.4c-1.3,2.8-1.9,5.2-2.2,5.5.6,1.1,1.1,2.1,1.6,3.1-.5-1-1.1-2-1.7-3.1-.6,0-3-.8-6-1.2-3.4-.5-6.4-.2-6.3-.6s3.1-.7,6.5-.3a18.221,18.221,0,0,1,5.4,1.5c-1.3-2.3-2.8-4.7-4.3-7.1-1.3.2-4.7-.2-8.4-.4-4.7-.2-8.5,1.5-8.4.7s4.4-2.5,9.1-2.3a33.423,33.423,0,0,1,7.1.9c-1.3-2.1-2.7-4.3-4.2-6.5-.6,1-4.7.1-9.4-.1-4.9-.2-9.2,2.7-9,1.4s5-4.4,9.9-4.2c3.3.1,6.2.7,7.6,1.5-1.9-2.8-3.8-5.7-5.8-8.6-.8.9-4.8,0-9.3-.2-4.9-.2-9.2,2.7-9,1.4s5-4.4,9.9-4.2a20.741,20.741,0,0,1,7.3,1.3c-1.9-2.8-3.8-5.6-5.7-8.3-1.2.5-4.8-.2-8.7-.4-4.8-.2-8.9,2.6-8.7,1.4s4.8-4.1,9.6-4a24.515,24.515,0,0,1,6.4,1c-1.7-2.5-3.4-4.9-5-7.2C601.075,212.4,597.175,211.7,592.875,211.6Z" transform="translate(-576.365 -180.486)" fill="#dfeafe"/>
            </g>
          </g>
          <path id="Path_1870" data-name="Path 1870" d="M579.143,267.5a26.31,26.31,0,0,0,10.4-8.8c-1.1,3.4-2,6.9,3-2.7a135.421,135.421,0,0,0,8.6-25.9c2.4-.5,6.3-2.7,10.6-8.5,5.9-8.1,6.5-11.4,5-11.9-1.8-.7-3.9,4.2-8.8,10.1-2.4,2.9-4.5,5-6,6.5a125.844,125.844,0,0,0,2.3-20.3c2.7,0,8.9-3.2,13.6-13.2,5.2-11,4.7-14.9,2.6-15.1-2.8-.3-3.9,5.9-8.5,14a107.3,107.3,0,0,1-7.6,11.4,88,88,0,0,0-2.2-20.2c2.7-1.4,7.1-5.7,10.3-14.5,4.2-11.5,3.7-15.2,1.7-15.1-2.5.1-3.3,6.3-7.1,15a91.469,91.469,0,0,1-5.8,11.3,76.005,76.005,0,0,0-7.8-18.5s-4.1-4.9-3.9-1c.1,2.3,3.3,4.3,7.3,14.1a75.124,75.124,0,0,1,2.6,8.3c-1.6.6-5.3,3.8-13.2,7.5-8,3.9-13.8,4.6-13.9,7.3-.1,2.1,3.2,2.9,13.9-1.4,8.4-3.4,12.5-8.2,13.7-11.1a105.156,105.156,0,0,1,2.1,19.1c-1.1-.8-5.4,3.9-16.5,9.4-9.6,4.7-16.5,5.3-16.6,9-.1,2.9,4,4.1,16.8-1.1,10.4-4.2,15.2-10.7,16.4-14.5a113.692,113.692,0,0,1-2.2,21.9h0c-.7-1.2-3.9,2.8-12,6.3-6.9,3-14.1,3.7-12.1,5.9,3.2,3.5,4.8,4.9,11.8,1.8,6.1-2.7,9.7-6.6,11.3-9.7a110.707,110.707,0,0,1-8,22.3c-.8-.4-5.6,4.8-13.5,7.5-7.1,2.4-10.7.2-11.2,4C565.743,269.6,570.143,272,579.143,267.5Z" transform="translate(-446.72 -153.298)" fill="#fea815"/>
        </g>
        <g id="Group_652" data-name="Group 652" transform="translate(405.5 178.6)">
          <g id="Group_649" data-name="Group 649">
            <path id="Path_1872" data-name="Path 1872" d="M481.5,466l73.3-45.4L628,466l-17.5-.1-53.3-39.3,4,39.4H548.4l3.9-39.4L499,465.9Z" transform="translate(-455 -178.6)" fill="#101e41"/>
            <rect id="Rectangle_194" data-name="Rectangle 194" width="14" height="29.7" transform="translate(92.8 216.5)" fill="#23399b"/>
            <g id="Group_645" data-name="Group 645" transform="translate(0 116.1)">
              <g id="Group_643" data-name="Group 643" transform="translate(160.1)">
                <path id="Path_1873" data-name="Path 1873" d="M468.7,341.7H481a13.4,13.4,0,0,0,13.4-13.4V303.9h-4.2v24.4a9.347,9.347,0,0,1-9.3,9.3H468.6v4.1Z" transform="translate(-468.6 -294.7)" fill="#101e41"/>
                <path id="Path_1874" data-name="Path 1874" d="M459.6,307.8h22.2a4.588,4.588,0,0,0,4.6-4.6v-3.9a4.588,4.588,0,0,0-4.6-4.6H459.6a4.588,4.588,0,0,0-4.6,4.6v3.9A4.588,4.588,0,0,0,459.6,307.8Z" transform="translate(-447 -294.7)" fill="#23399b"/>
              </g>
              <g id="Group_644" data-name="Group 644">
                <path id="Path_1875" data-name="Path 1875" d="M640.7,341.7H628.4A13.4,13.4,0,0,1,615,328.3V303.9h4.2v24.4a9.347,9.347,0,0,0,9.3,9.3h12.3v4.1Z" transform="translate(-601.3 -294.7)" fill="#101e41"/>
                <path id="Path_1876" data-name="Path 1876" d="M649.9,307.8H627.7a4.588,4.588,0,0,1-4.6-4.6v-3.9a4.588,4.588,0,0,1,4.6-4.6h22.2a4.588,4.588,0,0,1,4.6,4.6v3.9A4.467,4.467,0,0,1,649.9,307.8Z" transform="translate(-623.097 -294.7)" fill="#23399b"/>
              </g>
            </g>
            <rect id="Rectangle_195" data-name="Rectangle 195" width="25.8" height="49.4" transform="translate(86.9 175)" fill="#101e41"/>
            <rect id="Rectangle_196" data-name="Rectangle 196" width="14.6" height="46.6" transform="translate(92.5 94.8)" fill="#101e41"/>
            <path id="Path_1877" data-name="Path 1877" d="M522.9,291.1h63.5a9.981,9.981,0,0,0,10.1-10.5l-5.6-92.7a10.064,10.064,0,0,0-10.1-9.3H528.6a9.995,9.995,0,0,0-10.1,9.3l-5.6,92.7A9.9,9.9,0,0,0,522.9,291.1Z" transform="translate(-454.9 -178.6)" fill="#fff"/>
            <path id="Path_1878" data-name="Path 1878" d="M525.714,287.4h57.9a9.2,9.2,0,0,0,9.2-9.8l-5.1-87a9.212,9.212,0,0,0-9.2-8.7h-47.6a9.144,9.144,0,0,0-9.2,8.7l-5.1,87A9.061,9.061,0,0,0,525.714,287.4Z" transform="translate(-454.914 -178.6)" fill="#23399b"/>
            <ellipse id="Ellipse_59" data-name="Ellipse 59" cx="67.9" cy="29.7" rx="67.9" ry="29.7" transform="translate(31.9 131.3)" fill="#fff"/>
            <ellipse id="Ellipse_60" data-name="Ellipse 60" cx="65.7" cy="28.7" rx="65.7" ry="28.7" transform="translate(34.1 129.2)" fill="#23399b"/>
            <g id="Group_646" data-name="Group 646" transform="translate(151 274.4)">
              <circle id="Ellipse_61" data-name="Ellipse 61" cx="13" cy="13" r="13" fill="#23399b"/>
              <circle id="Ellipse_62" data-name="Ellipse 62" cx="9.6" cy="9.6" r="9.6" transform="translate(3.4 3.4)" fill="#101e41"/>
            </g>
            <g id="Group_647" data-name="Group 647" transform="translate(86.8 274.4)">
              <circle id="Ellipse_63" data-name="Ellipse 63" cx="13" cy="13" r="13" fill="#23399b"/>
              <circle id="Ellipse_64" data-name="Ellipse 64" cx="9.6" cy="9.6" r="9.6" transform="translate(3.4 3.4)" fill="#101e41"/>
            </g>
            <g id="Group_648" data-name="Group 648" transform="translate(23.4 274.4)">
              <circle id="Ellipse_65" data-name="Ellipse 65" cx="13" cy="13" r="13" fill="#23399b"/>
              <circle id="Ellipse_66" data-name="Ellipse 66" cx="9.6" cy="9.6" r="9.6" transform="translate(3.4 3.4)" fill="#101e41"/>
            </g>
          </g>
        </g>
        <g id="Group_659" data-name="Group 659" transform="translate(167.29 176.036)">
          <path id="Path_1887" data-name="Path 1887" d="M701.357,487.9l184.2-37.5a9.164,9.164,0,0,0,7.1-10L865.457,212c-.5-4.2-4.5-8.1-8.9-8.8l-178.9-27c-7-1-19,2.7-18.6,8l22.7,295.1C682.257,485.3,694.057,489.4,701.357,487.9Z" transform="translate(-659.047 -176.036)" fill="#23399b"/>
          <path id="Path_1888" data-name="Path 1888" d="M694.467,487.6l182.1-37.1c4.3-.9,7.3-5.3,6.8-10l-26.1-228.4a10.74,10.74,0,0,0-8.6-8.8l-178-26.8c-6.8-1-12,2.5-11.6,7.9l21.8,294.9C681.367,485.3,687.467,489.1,694.467,487.6Z" transform="translate(-649.757 -176.036)" fill="#101e41"/>
          <path id="Path_1889" data-name="Path 1889" d="M700.185,463.8l163.8-29.2a8.067,8.067,0,0,0,6.3-8.8l-23.2-206a9.444,9.444,0,0,0-7.8-7.9l-160.6-22.1c-5.9-.8-10.5,2.4-10.1,7.2l19.8,259.3C688.785,461.5,694.085,464.9,700.185,463.8Z" transform="translate(-646.175 -176.036)" fill="#fff"/>
          <path id="Path_1890" data-name="Path 1890" d="M804.814,191.2a3.944,3.944,0,0,0,3.5,3.2c1.8.3,3.1-.8,3-2.3a3.944,3.944,0,0,0-3.5-3.2C806.014,188.7,804.614,189.7,804.814,191.2Z" transform="translate(-723.404 -176.036)" fill="#fff"/>
          <path id="Path_1891" data-name="Path 1891" d="M820.886,188.9c.1,1.6,1.8,3,3.6,3.3,1.9.3,3.3-.8,3.1-2.3-.1-1.5-1.7-3-3.6-3.3C822.186,186.3,820.786,187.3,820.886,188.9Z" transform="translate(-755.776 -176.036)" fill="#fff"/>
          <g id="Group_658" data-name="Group 658" transform="translate(32.41 25.264)">
            <g id="Group_653" data-name="Group 653" transform="translate(69.6 147.079)">
              <path id="Path_1892" data-name="Path 1892" d="M696.115,373.7a13.159,13.159,0,0,1-14-11.8,11.925,11.925,0,0,1,11.3-13.5,13.211,13.211,0,0,1,13.6,11.8A12.138,12.138,0,0,1,696.115,373.7Zm-2.1-20.9a3.327,3.327,0,0,0-3.1,3.7,3.664,3.664,0,0,0,3.9,3.3,3.364,3.364,0,0,0,3.1-3.8A3.881,3.881,0,0,0,694.015,352.8Zm.7,8.1c-3.8.3-6.6,2.5-6.2,6.3.3,2.4,3.5,2.4,7.3,2.1s6.7-.8,6.4-3C701.815,362.5,698.515,360.6,694.715,360.9Z" transform="translate(-598.415 -348.379)" fill="#dfeafe"/>
              <path id="Path_1893" data-name="Path 1893" d="M695.279,359.8a3.807,3.807,0,0,1-3.9-3.3,3.275,3.275,0,0,1,3.1-3.7,3.709,3.709,0,0,1,3.8,3.3A3.194,3.194,0,0,1,695.279,359.8Z" transform="translate(-598.979 -348.379)" fill="#101e41"/>
              <path id="Path_1894" data-name="Path 1894" d="M694.228,369.2c-3.8.3-7,.3-7.3-2.1-.4-3.7,2.4-6,6.2-6.3s7,1.7,7.5,5.3C700.828,368.5,697.928,368.9,694.228,369.2Z" transform="translate(-596.828 -348.379)" fill="#101e41"/>
              <path id="Path_1895" data-name="Path 1895" d="M723.3,357.8l-2.9-1.3-2.6,1.6.3-3-2.5-2,3.1-.6,1-2.8,1.7,2.6,3.1.3-2,2.2Z" transform="translate(-649.4 -348.379)" fill="#fea815"/>
              <path id="Path_1896" data-name="Path 1896" d="M738.8,353.6l1.1-2.9,1.7,2.7,3.3.3-2.1,2.3.8,3-3-1.2-2.7,1.6.2-3.1-2.5-2.1Z" transform="translate(-689.8 -348.379)" fill="#fea815"/>
              <path id="Path_1897" data-name="Path 1897" d="M733.4,358.4l-2.9-1.3-2.7,1.6.2-3-2.5-2.1,3.1-.6,1.2-2.8,1.6,2.7,3.2.2-2,2.3Z" transform="translate(-669.4 -348.379)" fill="#fea815"/>
              <path id="Path_1898" data-name="Path 1898" d="M715.7,363.2l26.3-1.8.2,1.8-26.3,1.9Z" transform="translate(-667.2 -348.379)" fill="#23399b"/>
              <path id="Path_1899" data-name="Path 1899" d="M715.2,366.6l10-.7.2,1.7-10,.8Z" transform="translate(-649.9 -348.379)" fill="#23399b"/>
              <path id="Path_1900" data-name="Path 1900" d="M728.5,371.5l61.5-4.6.2,1.8-61.5,4.7Z" transform="translate(-728 -348.379)" fill="#23399b"/>
              <path id="Path_1901" data-name="Path 1901" d="M727.6,380.1l47.5-4.2.1,1.9L727.8,382Z" transform="translate(-712.1 -348.379)" fill="#23399b"/>
              <path id="Path_1902" data-name="Path 1902" d="M728,374.5l37.8-3.1.2,1.8-37.8,3.2Z" transform="translate(-703.3 -348.379)" fill="#23399b"/>
              <path id="Path_1903" data-name="Path 1903" d="M769.9,376.4l19.7-1.6.2,1.9-19.7,1.7Z" transform="translate(-769 -348.379)" fill="#23399b"/>
              <path id="Path_1904" data-name="Path 1904" d="M714.8,371.1l10-.8.1,1.8-9.9.8Z" transform="translate(-649 -348.379)" fill="#23399b"/>
              <path id="Path_1905" data-name="Path 1905" d="M724.5,376.6l-10,.9-.2-1.9,10-.8Z" transform="translate(-648.1 -348.379)" fill="#23399b"/>
              <path id="Path_1906" data-name="Path 1906" d="M748.6,366.6l41.9-2.9.2,1.8-41.9,3Z" transform="translate(-748.6 -348.379)" fill="#23399b"/>
            </g>
            <g id="Group_654" data-name="Group 654" transform="translate(72.9 189.917)">
              <path id="Path_1907" data-name="Path 1907" d="M692.315,417.1a12.451,12.451,0,0,1-14.1-11.3,12.946,12.946,0,0,1,11.3-14.5,12.532,12.532,0,0,1,13.7,11.3C703.915,409.5,699.115,416.1,692.315,417.1Zm-2.3-21.3a3.624,3.624,0,0,0,.8,7.2,3.667,3.667,0,0,0,3.1-4A3.453,3.453,0,0,0,690.015,395.8Zm.8,8.2c-3.8.5-6.7,3-6.3,6.8.3,2.5,3.5,2.3,7.3,1.7,3.8-.5,6.7-1.2,6.4-3.5C697.915,405.3,694.615,403.5,690.815,404Z" transform="translate(-594.015 -391.217)" fill="#dfeafe"/>
              <path id="Path_1908" data-name="Path 1908" d="M691.4,403a3.5,3.5,0,0,1-3.9-3.2,3.524,3.524,0,1,1,7-.8A3.729,3.729,0,0,1,691.4,403Z" transform="translate(-594.6 -391.217)" fill="#101e41"/>
              <path id="Path_1909" data-name="Path 1909" d="M690.328,412.5c-3.8.6-7.1.8-7.3-1.7-.4-3.8,2.4-6.3,6.3-6.8,3.8-.5,7.1,1.3,7.5,5C697.028,411.3,694.128,412,690.328,412.5Z" transform="translate(-592.428 -391.217)" fill="#101e41"/>
              <path id="Path_1910" data-name="Path 1910" d="M719.7,402.2l-2.9-1.2-2.6,1.8.2-3.1-2.4-1.9,3-.8,1.1-2.9,1.6,2.6,3.1.1-1.9,2.4Z" transform="translate(-645.4 -391.217)" fill="#fb660a"/>
              <path id="Path_1911" data-name="Path 1911" d="M735.3,399.4l1.2-3,1.7,2.7h3.2l-2.1,2.5.9,3.1-3-1.2-2.8,1.9.3-3.2-2.6-2Z" transform="translate(-686.1 -391.217)" fill="#fb660a"/>
              <path id="Path_1912" data-name="Path 1912" d="M729.8,403.4l-2.9-1.1-2.7,1.8.2-3.2-2.5-1.9,3.1-.8,1.2-3,1.7,2.7H731l-2,2.5Z" transform="translate(-665.5 -391.217)" fill="#fb660a"/>
              <path id="Path_1913" data-name="Path 1913" d="M712,409.3l26.5-3.4.2,1.8-26.5,3.5Z" transform="translate(-663.3 -391.217)" fill="#23399b"/>
              <path id="Path_1914" data-name="Path 1914" d="M711.5,411.7l10-1.3.2,1.8-10.1,1.4Z" transform="translate(-645.8 -391.217)" fill="#23399b"/>
              <path id="Path_1915" data-name="Path 1915" d="M724.9,420.6l62-8.4.1,1.9-61.9,8.6Z" transform="translate(-724.5 -391.217)" fill="#23399b"/>
              <path id="Path_1916" data-name="Path 1916" d="M723.9,428.6l47.7-7.2.2,1.9L724,430.5Z" transform="translate(-708.3 -391.217)" fill="#23399b"/>
              <path id="Path_1917" data-name="Path 1917" d="M724.4,422.2l38-5.4.2,1.9-38,5.5Z" transform="translate(-699.6 -391.217)" fill="#23399b"/>
              <path id="Path_1918" data-name="Path 1918" d="M766.5,425.7l19.8-2.9.2,2-19.9,2.9Z" transform="translate(-765.6 -391.217)" fill="#23399b"/>
              <path id="Path_1919" data-name="Path 1919" d="M711,416.3l10.1-1.4.2,1.8-10.1,1.5Z" transform="translate(-644.9 -391.217)" fill="#23399b"/>
              <path id="Path_1920" data-name="Path 1920" d="M720.8,421.3l-10,1.5-.2-1.8,10-1.5Z" transform="translate(-644 -391.217)" fill="#23399b"/>
              <path id="Path_1921" data-name="Path 1921" d="M745.1,415.6l42.1-5.4.2,1.9-42.2,5.5Z" transform="translate(-745.1 -391.217)" fill="#23399b"/>
            </g>
            <g id="Group_655" data-name="Group 655" transform="translate(56.2 17.8)">
              <path id="Path_1922" data-name="Path 1922" d="M709.7,248.4c-6.9-.6-13.2-6.6-13.9-13.4s4.4-11.6,11.2-10.7a15.913,15.913,0,0,1,13.5,13.3C721.2,244.2,716.4,249,709.7,248.4Zm-2.1-19.8a2.646,2.646,0,0,0-3.1,3,4.351,4.351,0,0,0,3.8,3.7,2.646,2.646,0,0,0,3.1-3A4.351,4.351,0,0,0,707.6,228.6Zm.7,7.6c-3.8-.4-6.6,1.2-6.2,4.8.2,2.3,3.4,2.8,7.2,3.2,3.8.3,6.6.4,6.4-1.8C715.3,239,712.1,236.6,708.3,236.2Z" transform="translate(-612.197 -219.1)" fill="#dfeafe"/>
              <path id="Path_1923" data-name="Path 1923" d="M708.7,235.3a4.457,4.457,0,0,1-3.8-3.7,2.684,2.684,0,0,1,3.1-3,4.457,4.457,0,0,1,3.8,3.7A2.684,2.684,0,0,1,708.7,235.3Z" transform="translate(-612.6 -219.1)" fill="#fea815"/>
              <path id="Path_1924" data-name="Path 1924" d="M707.828,244.2c-3.8-.3-7-.9-7.2-3.2-.4-3.6,2.4-5.2,6.2-4.8s7,2.7,7.4,6.2C714.428,244.6,711.628,244.6,707.828,244.2Z" transform="translate(-610.728 -219.1)" fill="#fea815"/>
              <path id="Path_1925" data-name="Path 1925" d="M736.7,229.6l-2.9-1.7-2.5,1.1.2-2.8-2.4-2.3,3-.1,1.1-2.4,1.6,2.8,3,.7-1.9,1.8Z" transform="translate(-662.8 -219.1)" fill="#fb660a"/>
              <path id="Path_1926" data-name="Path 1926" d="M756.7,227.4l-3-1.7-2.7,1.1.2-2.9-2.5-2.3h3.2l1.1-2.5,1.7,2.8,3.2.8-2.1,1.8Z" transform="translate(-702.5 -219.1)" fill="#fb660a"/>
              <path id="Path_1927" data-name="Path 1927" d="M746.4,228.5l-2.9-1.7-2.6,1.1.2-2.8-2.4-2.3,3.1-.1,1.1-2.4,1.6,2.7,3.2.8-2.1,1.8Z" transform="translate(-682.3 -219.1)" fill="#fb660a"/>
              <path id="Path_1928" data-name="Path 1928" d="M729.8,230.1l26.2,2.7.1,1.7L730,231.9Z" transform="translate(-681.8 -219.1)" fill="#23399b"/>
              <path id="Path_1929" data-name="Path 1929" d="M729.3,236.1l9.9,1,.2,1.7-9.9-1Z" transform="translate(-664.6 -219.1)" fill="#23399b"/>
              <path id="Path_1930" data-name="Path 1930" d="M742.5,229.8l60.9,6,.2,1.7-61-5.9Z" transform="translate(-742 -219.1)" fill="#23399b"/>
              <path id="Path_1931" data-name="Path 1931" d="M741.6,240.3l47,4.1.2,1.7-47.1-4Z" transform="translate(-726.3 -219.1)" fill="#23399b"/>
              <path id="Path_1932" data-name="Path 1932" d="M742.1,236.6l37.5,3.5.1,1.7-37.4-3.4Z" transform="translate(-717.7 -219.1)" fill="#23399b"/>
              <path id="Path_1933" data-name="Path 1933" d="M783.6,234.4l19.4,1.8.2,1.8-19.5-1.7Z" transform="translate(-782.7 -219.1)" fill="#23399b"/>
              <path id="Path_1934" data-name="Path 1934" d="M728.9,240.4l10,.9.1,1.7-9.9-.9Z" transform="translate(-663.8 -219.1)" fill="#23399b"/>
              <path id="Path_1935" data-name="Path 1935" d="M738.5,247.2l-9.9-.8-.2-1.7,9.9.8Z" transform="translate(-662.8 -219.1)" fill="#23399b"/>
              <path id="Path_1936" data-name="Path 1936" d="M762.4,225.1l41.5,4.3.2,1.8L762.6,227Z" transform="translate(-762.4 -219.1)" fill="#23399b"/>
            </g>
            <g id="Group_656" data-name="Group 656" transform="translate(65.5 105.2)">
              <path id="Path_1937" data-name="Path 1937" d="M700.7,331.7a14.038,14.038,0,0,1-14-12.3A11.179,11.179,0,0,1,698,306.8a13.884,13.884,0,0,1,13.5,12.3A11.168,11.168,0,0,1,700.7,331.7Zm-2.2-20.6a3.1,3.1,0,0,0-3.1,3.5,3.989,3.989,0,0,0,3.9,3.5,3.1,3.1,0,0,0,3.1-3.5A4.058,4.058,0,0,0,698.5,311.1Zm.7,7.9c-3.8,0-6.6,2.1-6.2,5.8.3,2.4,3.5,2.6,7.3,2.5s6.6-.4,6.4-2.6C706.3,321.1,703,319,699.2,319Z" transform="translate(-603.397 -306.5)" fill="#dfeafe"/>
              <path id="Path_1938" data-name="Path 1938" d="M699.8,318a4.058,4.058,0,0,1-3.9-3.5A3.1,3.1,0,0,1,699,311a3.883,3.883,0,0,1,3.8,3.5A3.033,3.033,0,0,1,699.8,318Z" transform="translate(-603.899 -306.5)" fill="#3251b4"/>
              <path id="Path_1939" data-name="Path 1939" d="M698.917,327.3c-3.8.1-7-.1-7.3-2.5-.4-3.7,2.4-5.7,6.2-5.8,3.8,0,7,2,7.4,5.6C705.517,326.9,702.617,327.2,698.917,327.3Z" transform="translate(-602.017 -306.5)" fill="#3251b4"/>
              <path id="Path_1940" data-name="Path 1940" d="M727.9,314.7l-2.9-1.4-2.5,1.4.2-2.9-2.5-2.1,3.1-.4,1.1-2.7,1.6,2.7,3,.4-1.9,2.1Z" transform="translate(-654.4 -306.5)" fill="#fb660a"/>
              <path id="Path_1941" data-name="Path 1941" d="M737.7,314.8l-2.9-1.4-2.7,1.4.3-3-2.5-2.1,3.1-.5,1.1-2.7,1.7,2.8,3.1.4-2,2.1Z" transform="translate(-674 -306.5)" fill="#fb660a"/>
              <path id="Path_1942" data-name="Path 1942" d="M729.8,319.2l-9.9.2-.2-1.8,9.9-.1Z" transform="translate(-654.7 -306.5)" fill="#23399b"/>
              <path id="Path_1943" data-name="Path 1943" d="M733.4,318.2l61.2-.6.2,1.8-61.3.7Z" transform="translate(-733.4 -306.5)" fill="#23399b"/>
              <path id="Path_1944" data-name="Path 1944" d="M732.5,327.5l47.2-1,.2,1.8-47.2,1.1Z" transform="translate(-717.6 -306.5)" fill="#23399b"/>
              <path id="Path_1945" data-name="Path 1945" d="M770.6,322.1l.2,1.7-37.7.7-.2-1.9Z" transform="translate(-708.9 -306.5)" fill="#23399b"/>
              <path id="Path_1946" data-name="Path 1946" d="M729.4,323.6l-9.9.2-.2-1.8,10-.2Z" transform="translate(-653.9 -306.5)" fill="#23399b"/>
              <path id="Path_1947" data-name="Path 1947" d="M728.9,328l-9.9.2-.2-1.8,9.9-.2Z" transform="translate(-652.9 -306.5)" fill="#23399b"/>
            </g>
            <g id="Group_657" data-name="Group 657" transform="translate(60.3 60.6)">
              <path id="Path_1948" data-name="Path 1948" d="M705.1,289.9A14.843,14.843,0,0,1,691.2,277a10.23,10.23,0,0,1,11.3-11.6A14.8,14.8,0,0,1,716,278.2,10.318,10.318,0,0,1,705.1,289.9ZM703,269.6a2.825,2.825,0,0,0-3.1,3.2,4.153,4.153,0,0,0,3.8,3.6,2.868,2.868,0,0,0,3.1-3.2A4.251,4.251,0,0,0,703,269.6Zm.7,7.8c-3.8-.2-6.6,1.7-6.2,5.3.3,2.3,3.4,2.7,7.2,2.8s6.6,0,6.4-2.2C710.7,279.8,707.5,277.6,703.7,277.4Z" transform="translate(-607.197 -261.9)" fill="#dfeafe"/>
              <path id="Path_1949" data-name="Path 1949" d="M704.2,276.5a4.153,4.153,0,0,1-3.8-3.6,2.825,2.825,0,0,1,3.1-3.2,4.153,4.153,0,0,1,3.8,3.6A2.868,2.868,0,0,1,704.2,276.5Z" transform="translate(-607.7 -261.9)" fill="#fb660a"/>
              <path id="Path_1950" data-name="Path 1950" d="M703.317,285.6c-3.8-.1-7-.5-7.2-2.8-.4-3.6,2.4-5.5,6.2-5.3s7,2.4,7.4,5.9C710.017,285.6,707.117,285.7,703.317,285.6Z" transform="translate(-605.817 -261.9)" fill="#fb660a"/>
              <path id="Path_1951" data-name="Path 1951" d="M732.2,271.9l-2.8-1.5-2.6,1.2.2-2.8-2.4-2.2,3-.2,1.1-2.6,1.6,2.7,3.1.6-2,1.9Z" transform="translate(-658 -261.9)" fill="#fb660a"/>
              <path id="Path_1952" data-name="Path 1952" d="M747.7,265.2l1.2-2.6,1.7,2.7,3.2.7-2.1,1.9.8,3-2.9-1.6-2.8,1.3.3-3-2.6-2.2Z" transform="translate(-698.3 -261.9)" fill="#fb660a"/>
              <path id="Path_1953" data-name="Path 1953" d="M763,270.3l-3-1.5-2.8,1.2.2-3-2.6-2.2,3.3-.3,1.2-2.6,1.8,2.8,3.3.7-2.2,1.9Z" transform="translate(-719.2 -261.9)" fill="#fb660a"/>
              <path id="Path_1954" data-name="Path 1954" d="M737.5,265.8l1.1-2.6,1.6,2.7,3.2.6-2.1,2,.9,2.9-3-1.5-2.6,1.2.2-2.9-2.4-2.2Z" transform="translate(-677.8 -261.9)" fill="#fb660a"/>
              <path id="Path_1955" data-name="Path 1955" d="M724.9,275l9.9.5.2,1.7-10-.5Z" transform="translate(-659.9 -261.9)" fill="#23399b"/>
              <path id="Path_1956" data-name="Path 1956" d="M738.6,271.9l61.2,2.9.2,1.8-61.2-2.8Z" transform="translate(-738.6 -261.9)" fill="#23399b"/>
              <path id="Path_1957" data-name="Path 1957" d="M762.1,285.3l-24.3-.8-.1-1.8,24.2.9Z" transform="translate(-699.8 -261.9)" fill="#23399b"/>
              <path id="Path_1958" data-name="Path 1958" d="M785.5,281l-47.1-1.9-.2-1.9,47.2,2Z" transform="translate(-723.7 -261.9)" fill="#23399b"/>
              <path id="Path_1959" data-name="Path 1959" d="M734.6,281.5l-9.9-.4-.2-1.8,9.9.5Z" transform="translate(-659.1 -261.9)" fill="#23399b"/>
            </g>
            <path id="Path_1960" data-name="Path 1960" d="M848.7,201.3l5,.6,6.6,82.6-5.1-.1Z" transform="translate(-848.7 -201.3)" fill="#23399b"/>
            <path id="Path_1961" data-name="Path 1961" d="M852.2,442.4l1,12.7-5.1.9L835.2,291.5l5,.1Z" transform="translate(-828.1 -201.3)" fill="#23399b"/>
            <path id="Path_1962" data-name="Path 1962" d="M848.2,284.7l.5,7-5-.1-.5-7.1Z" transform="translate(-831.6 -201.3)" fill="#101e41"/>
            <path id="Path_1963" data-name="Path 1963" d="M853.2,284.2l4.8.2.6,7.1-4.8-.2Z" transform="translate(-851.5 -201.3)" fill="#101e41"/>
            <path id="Path_1964" data-name="Path 1964" d="M853.3,284.5l.5,7.1-5-.1-.6-7.1Z" transform="translate(-841.7 -201.3)" fill="#101e41"/>
          </g>
        </g>
        <g id="Group_663" data-name="Group 663" transform="translate(268.926 281.139)">
          <path id="Path_1965" data-name="Path 1965" d="M651,478s4.3,5.6,8.8,3.9,6.6-1.8,6.3-4.6c-.6-4.5-3-3.3-4.3-6.2a64.632,64.632,0,0,0-4-6.7l-8.8,2.5a.991.991,0,0,0-.7,1.2Z" transform="translate(-523.322 -281.139)" fill="#23399b"/>
          <path id="Path_1966" data-name="Path 1966" d="M651.7,477s3.9,4.3,8.3,2.8c4.4-1.6,6.3-1.7,6.2-4.1s-2.2-2.4-3.4-4.8-3.2-5.7-3.2-5.7l-10.4,2.7Z" transform="translate(-524.322 -281.139)" fill="#fff"/>
          <path id="Path_1967" data-name="Path 1967" d="M715.184,478s-3.9,5.9-8.5,4.6-6.7-1.3-6.6-4.1c.2-4.5,2.7-3.5,3.9-6.5a51.86,51.86,0,0,1,3.5-7l8.9,1.9a.967.967,0,0,1,.8,1.2Z" transform="translate(-626.21 -281.139)" fill="#23399b"/>
          <path id="Path_1968" data-name="Path 1968" d="M714.6,477s-3.5,4.6-8,3.4-6.4-1.3-6.5-3.6c-.1-2.4,2-2.6,3-5,1-2.5,2.7-5.9,2.7-5.9l10.6,2Z" transform="translate(-625.429 -281.139)" fill="#fff"/>
          <path id="Path_1969" data-name="Path 1969" d="M672.4,380.4l-17.7,85.7a8.736,8.736,0,0,0,6.2,4.3c4.2.5,4.4-.2,4.4-.2l19.9-64.3,13.7,61.7s9.4,7.1,12.2-.2l-6.4-88.2Z" transform="translate(-574.726 -281.139)" fill="#3251b4"/>
          <path id="Path_1970" data-name="Path 1970" d="M656.3,405.9s0-1.9.1-3.9c.1-1.1,2.3-3.9,2.2-4.8a53.385,53.385,0,0,0,1.7,11.9,150.806,150.806,0,0,0,4.9,14.8c5.3,14.5,11,30.9,15.4,45.8-.3.2-1.1,2.1-6.2.3a20.042,20.042,0,0,1-4.4-2.4Z" transform="translate(-545.826 -281.139)" fill="#23399b"/>
          <path id="Path_1971" data-name="Path 1971" d="M687.9,466.1l17.7-85.7,5.5-.2c-.2.5-.4,1.1-.6,1.6-1.5,4.9-1.7,10.1-2.3,15.1a179.307,179.307,0,0,1-4.3,20.6q-6.45,25.95-12.8,51.8A9.089,9.089,0,0,1,687.9,466.1Z" transform="translate(-607.926 -281.139)" fill="#23399b"/>
          <path id="Path_1972" data-name="Path 1972" d="M689.772,370.4a4.025,4.025,0,0,1-2,.9l-2.8.2c-3.1-.3-2.4-4.7-2.1-7.5l7.3-25a14.577,14.577,0,0,1,2.8-5.2,13.912,13.912,0,0,1,4.4-3.2h5c3.1.3,2.1,4.4,1.9,7.2l-7.5,24.1C696.372,364.4,692.772,367.6,689.772,370.4Z" transform="translate(-596.098 -281.139)" fill="#23399b"/>
          <ellipse id="Ellipse_67" data-name="Ellipse 67" cx="11.3" cy="13.6" rx="11.3" ry="13.6" transform="translate(107.419 11.101) rotate(18.772)" fill="#ffc8b7"/>
          <rect id="Rectangle_198" data-name="Rectangle 198" width="7" height="8.9" transform="translate(113.774 36.461)" fill="#ffc8b7"/>
          <path id="Path_1973" data-name="Path 1973" d="M694.006,370.2V347.8c0-8.5-.4-15-2.5-18.1a3.588,3.588,0,0,0-2.1-2.1c-3-1.2-3-3.6-3-3.6-2.6,1.4-7-.4-7-.4-.8,4-7,4.8-7,4.8v.1a22.112,22.112,0,0,0-2.5.5c-10.4,3.1-6.4,11.3-6.2,19l-1.3,18.9c0,8.5-6.3,22.5,2.2,22.5l9.8-.2c8.4,0,15.8,1.5,21.6-3.1C698.106,384.5,694.406,377,694.006,370.2Z" transform="translate(-565.732 -281.139)" fill="#608fdf"/>
          <path id="Path_1974" data-name="Path 1974" d="M699.826,351.7s-2.8,1-2.2,3.2,20.9,14.4,23.7,14.8c7.8,1,9.1-1,7.4-5.6s-9.9-4.5-12.9-5C712.926,358.6,700.426,352.7,699.826,351.7Z" transform="translate(-635.852 -281.139)" fill="#23399b"/>
          <path id="Path_1975" data-name="Path 1975" d="M737.068,349.1a3.491,3.491,0,0,1-.9,4.7c-1.5,1-3.1,2.1-4.7-.9-.8-1.6-2.2-3.2.9-4.7C734.068,347.4,736.068,347.6,737.068,349.1Z" transform="translate(-676.994 -281.139)" fill="#ffc8b7"/>
          <g id="Group_661" data-name="Group 661" transform="translate(0 3.584)">
            <path id="Path_1976" data-name="Path 1976" d="M747.4,392h0a3.617,3.617,0,0,1-5-.5l-45.8-56.8a3.617,3.617,0,0,1,.5-5h0a3.617,3.617,0,0,1,5,.5L747.9,387A3.6,3.6,0,0,1,747.4,392Z" transform="translate(-653.426 -284.723)" fill="#101e41"/>
            <path id="Path_1977" data-name="Path 1977" d="M775.7,290.8a22.6,22.6,0,0,0-11-2.4,18.612,18.612,0,0,0-3.4.4,22.768,22.768,0,0,0-9.6,4.4,26.492,26.492,0,0,0-4.1,4.1,28.968,28.968,0,0,0-1.9,2.9,21.264,21.264,0,0,0,9,29.3,22,22,0,0,0,13,2.2,27.251,27.251,0,0,0,5.6-1.5,23.389,23.389,0,0,0,8.6-6.1,29.185,29.185,0,0,0,2.1-2.8,5.388,5.388,0,0,0,.7-1.3A21.2,21.2,0,0,0,775.7,290.8Z" transform="translate(-739.326 -284.723)" fill="#dfeafe" opacity="0.5"/>
            <path id="Path_1978" data-name="Path 1978" d="M754.618,323.1c2.5,2.7,1.8,7.3-1.6,10.2s-8.2,3.1-10.7.4,2.1-3.3,5.5-6.2C751.318,324.5,752.118,320.4,754.618,323.1Z" transform="translate(-706.644 -284.723)" fill="#fb660a"/>
            <path id="Path_1979" data-name="Path 1979" d="M770.1,285.1a26.468,26.468,0,0,0-30.4,20.8,24.947,24.947,0,0,0,20.5,29.5,26.468,26.468,0,0,0,30.4-20.8A25.017,25.017,0,0,0,770.1,285.1ZM786.9,314a22.7,22.7,0,0,1-26,17.8,21.35,21.35,0,0,1-17.5-25.2,22.7,22.7,0,0,1,26-17.8A21.3,21.3,0,0,1,786.9,314Z" transform="translate(-739.23 -284.723)" fill="#101e41"/>
            <g id="Group_660" data-name="Group 660" transform="translate(8.274 3.677)">
              <path id="Path_1980" data-name="Path 1980" d="M757.1,297.4l20.1,34.5a27.251,27.251,0,0,0,5.6-1.5l-21.6-37.1A19.911,19.911,0,0,0,757.1,297.4Z" transform="translate(-757.1 -288.4)" fill="#fff"/>
              <path id="Path_1981" data-name="Path 1981" d="M746.4,288.9,767,324.2a29.185,29.185,0,0,0,2.1-2.8l-19.2-33C748.7,288.5,747.5,288.7,746.4,288.9Z" transform="translate(-732.7 -288.4)" fill="#fff"/>
            </g>
          </g>
          <path id="Path_1982" data-name="Path 1982" d="M666.574,347.8v-1.9c-6.7,13.8-8.2,28.5-5.5,43.3,2.7-.4,5.6-.9,7.9-2.7,2.1-1.6-2-9.4-2.3-16.3V347.8Z" transform="translate(-538.3 -281.139)" fill="#b3cbf9"/>
          <path id="Path_1983" data-name="Path 1983" d="M693.846,333.8c.9-2.3,1.9-4.6,2.9-6.8a4.1,4.1,0,0,1-1.6-2.8c-2.6,1.3-7-.4-7-.4-.8,4-7.2,4.8-7.2,4.8v.1a22.112,22.112,0,0,0-2.5.5c-10.4,3.1-6.4,11.3-6.2,19l-1.3,18.9c0,8.5-6.3,22.5,2.2,22.5l9.8-.2h1.8c1.5-6.1,1.3-12.4,1.5-18.7A118.4,118.4,0,0,1,693.846,333.8Z" transform="translate(-574.372 -281.139)" fill="#608fdf"/>
          <g id="Group_662" data-name="Group 662" transform="translate(59.548 48.792)">
            <path id="Path_1984" data-name="Path 1984" d="M662.624,371.3l-1.1-1.9c-2.4-2-.4-5.7,1.6-8.1l22.2-21.9c2-2.4,6.3-11.1,8.6-9.2l3.5,2.9c2.4,2-.7,8.7-2.7,11.1l-20.1,20.9C672.724,367.6,665.024,373.3,662.624,371.3Z" transform="translate(-627.198 -329.931)" fill="#b3cbf9"/>
            <path id="Path_1985" data-name="Path 1985" d="M731.526,363.2c-.3-1-1.8-1.5-3.7-2.6s-1.6-3.3-2.9-4.2-3.2-2.8-4.9-1.6c-1.7,1.1-3,5.4,1.1,6.6s3.3,3.1,4.6,3.7,4.7,0,4.7,0Z" transform="translate(-718.4 -329.931)" fill="#ffc8b7"/>
            <path id="Path_1986" data-name="Path 1986" d="M689.916,362.2s-2.6,1.6-1.6,3.4c.9,1.8,22,7.1,24.8,6.6,6.2-1.2,9.2-3.9,6.3-6.9-4.1-4.3-10.1-1.3-13-.9S690.716,362.9,689.916,362.2Z" transform="translate(-677.09 -329.931)" fill="#b3cbf9"/>
          </g>
          <path id="Path_1987" data-name="Path 1987" d="M692.472,315.7s-4.5,3.1-9.4,2.5c-3.4-.4-4.8-5-4.8-5l-4.3,10a3.669,3.669,0,0,0,2,5c2.5,1,5.9,2,8.3,1.3a12.41,12.41,0,0,0,6.2-3.9S695.272,319,692.472,315.7Z" transform="translate(-575.898 -281.139)" fill="#fea815"/>
          <path id="Path_1988" data-name="Path 1988" d="M683.518,313.2s2-1.3,1.7-2.3-1.1-3.5.7-4.2c1.8-.6,3.1,1.3,2.4,3.3,0,0,0,1.6,1.6.1s7.4-6.8,4.7-12.5-8.9-3-12.5-4.3c-3.6-1.4-8-2.3-8-6.9,0-4.7-7.8-6.1-9.8-4.8s-4.6,5.7-4.3,9.7c.7,9.5,5.1,11.3,10.3,13.1s8.9.8,10.6,2.7S683.518,313.2,683.518,313.2Z" transform="translate(-564.243 -281.139)" fill="#fea815"/>
        </g>
        <g id="Group_664" data-name="Group 664" transform="translate(439.8 256.1)">
          <path id="Path_1989" data-name="Path 1989" d="M611.357,390.4a3.185,3.185,0,0,0-1.2,1.9c-.2,1.9-.7,5.1.3,7.6,1,2.6,2.8,6.4,5.5-.6s-.1-9-1-9.3S611.357,390.4,611.357,390.4Z" transform="translate(-606.757 -256.1)" fill="#101e41"/>
          <path id="Path_1990" data-name="Path 1990" d="M595.742,392.7a2.934,2.934,0,0,0-.8,2.1c.2,1.9.4,5.1,1.9,7.4s4.1,5.7,5.2-1.8c1.2-7.4-2-8.8-2.9-8.9A30.621,30.621,0,0,0,595.742,392.7Z" transform="translate(-577.042 -256.1)" fill="#101e41"/>
          <path id="Path_1991" data-name="Path 1991" d="M609.532,356.5s1.6,24.4,2,28.5c.4,4.2,1,7.9,1,7.9s-.3,5.7,1.4,5.8,2.6-5,2.6-5.7c-.1-.8.3-4.8,0-5.9s.9-12.5,1.5-15.6.9-10.6,0-13.8C617.132,354.6,609.532,356.5,609.532,356.5Z" transform="translate(-607.932 -256.1)" fill="#ffc8b7"/>
          <path id="Path_1992" data-name="Path 1992" d="M596.379,359.4s5.3,23.8,6.4,27.9c1,4,2.2,7.7,2.2,7.7s.6,5.7,2.3,5.5c1.6-.2,1.8-5.3,1.7-6.1-.2-.8-.4-4.8-.9-5.8-.5-1.1-1-12.5-.9-15.6.1-3.2-.8-10.6-2.1-13.6C603.579,356.3,596.379,359.4,596.379,359.4Z" transform="translate(-585.179 -256.1)" fill="#ffc8b7"/>
          <path id="Path_1993" data-name="Path 1993" d="M591.462,338.4l-17.2,4.9s-6.3,2-7.1,8.7-.3,7.3.5,7.4c.7.1,6.2-.2,7.8,0a25.092,25.092,0,0,1,4.5.7,7.581,7.581,0,0,0,8-2.7c2.1-2.7,1.2-1.8,10.2-2.6s14.7-1.5,18.5-5.6c3.9-4.2,2.8-10.7,2.8-10.7h-28Z" transform="translate(-566.162 -256.1)" fill="#608fdf"/>
          <path id="Path_1994" data-name="Path 1994" d="M597.4,278.6a4.151,4.151,0,0,0-1.5-3,5.889,5.889,0,0,0-1.3-.5c-1.6,0-2.9,1.8-2.9,3.9a4.781,4.781,0,0,0,.8,2.7c-2.5.1-4.5,1.6-4.5,3.5a3.347,3.347,0,0,0,1.9,2.8,3.631,3.631,0,0,0,2.9,6.4,3.365,3.365,0,0,0,1.7-.8,4.574,4.574,0,0,0,8.7-2,5.9,5.9,0,0,0-.2-1.4Z" transform="translate(-571 -256.1)" fill="#101e41"/>
          <path id="Path_1995" data-name="Path 1995" d="M587.792,290.8l-.6-.6a13.058,13.058,0,0,0,3.3-8.8c0-6.5-4.4-11.8-9.9-11.8s-9.9,5.3-9.9,11.8c0,5.4,3,10,7.1,11.4l-2,8.3,5.4,4.6,7.2-3.5,5.7-6.1C594.292,296,590.892,294.3,587.792,290.8Z" transform="translate(-544.592 -256.1)" fill="#ffc8b7"/>
          <path id="Path_1996" data-name="Path 1996" d="M564.309,298.8s1.2-6,5.5-6.1,4.5.5,4.5.5-.8,9.5,2.8,10.2,10.4-9.6,10.4-9.6,4.7-.7,7,1.1c2.2,1.8,4.1,1.9,7.1,14.1s3.4,15.4-.9,21.4a88.592,88.592,0,0,1-8.9,10.5l-3.6-4.5s8.1-9.8,8.5-10.3,1.8-1.6,1-4.9c-.8-3.4-3.8-8.5-3.8-8.5s-1.4,7.4-2.5,9-1.4,2.6-.7,4.3c.7,1.8,4.6,6.3,4.3,12.9l-29.9.2s3.8-8,4.5-11.6a24.864,24.864,0,0,0,.5-5.4c.1-.7.1-5.8-1.5-6.3a1.754,1.754,0,0,0-2.2,1s-1.6,2-1.3,7.3c.2,5.2-7.7,2.3-7.7,2.3S563.509,304.2,564.309,298.8Z" transform="translate(-541.109 -256.1)" fill="#608fdf"/>
          <path id="Path_1997" data-name="Path 1997" d="M566.273,315.7s7.9,4.5,15.3,2.1,6.2-13.4,6.2-13.4a66.6,66.6,0,0,0,2.8,7.7c1.6,2.8-3.6,11.2-3.2,12.6,1,3,1.3,2.5,2.7,5.6,2.3,2.3,1.9,8.6,1.9,8.6l-14.2.1s9.2-3.1,7.4-6.9-5.2-5.5-9.2-6.1S567.973,321.6,566.273,315.7Z" transform="translate(-538.073 -256.1)" fill="#23399b"/>
          <path id="Path_1998" data-name="Path 1998" d="M581.932,336.2c-.7.8-4.4,3.6-4.4,3.6s-7.6.8-9,3.5,8.8,1.4,8.8,1.4l6.4-5.9Z" transform="translate(-531.932 -256.1)" fill="#ffc8b7"/>
          <path id="Path_1999" data-name="Path 1999" d="M605.7,344l-5.2-19.5H569.8l5.3,19.5v1.9h45.1V344Z" transform="translate(-569.8 -256.1)" fill="#101e41"/>
          <path id="Path_2000" data-name="Path 2000" d="M594.713,284.5a12.673,12.673,0,0,0,.4-3.4,13.73,13.73,0,0,0-1.2-5.7,2.452,2.452,0,0,0,.6-1.6,3.37,3.37,0,0,0-2.9-3,4.514,4.514,0,0,0,.7-2.5c0-2.7-2.3-5-5.4-5.6v-.2c0-1.5-2-2.7-4.4-2.7a7.719,7.719,0,0,0-1.5.2,6.478,6.478,0,0,0-5.9-3.9,6.38,6.38,0,0,0-6.4,6.4v.3h-.1a5.2,5.2,0,0,0-3.5-1.3,5.378,5.378,0,0,0-5.4,5.4,5.844,5.844,0,0,0,1.2,3.4,12.635,12.635,0,0,0-1.2,6c.6,7.9,15.1,4.6,15.1,4.6V276l2.3,5.5s-.6-4.4,1.4-3.9,1.5,3.2,1,3.9a3.325,3.325,0,0,0,0,3.5,9.729,9.729,0,0,1,.6,3.3h-.1c-1,0-1.7,1-1.7,2.3,0,1.2.8,2.3,1.7,2.3h.2c.4,2,2.8,3.5,5.6,3.5,2.9,0,5.2-1.6,5.6-3.6a3.083,3.083,0,0,0,1,.1,4.481,4.481,0,0,0,4.5-4.5A4.87,4.87,0,0,0,594.713,284.5Z" transform="translate(-536.413 -256.1)" fill="#101e41"/>
          <path id="Path_2001" data-name="Path 2001" d="M573.4,333.8s-5.7,7.2-6.4,7.1-3.8-4.7-3.8-4.7l6.2-7Z" transform="translate(-516.4 -256.1)" fill="#608fdf"/>
        </g>
        <g id="Group_667" data-name="Group 667" transform="translate(487.393 322.82)">
          <path id="Path_2002" data-name="Path 2002" d="M560.073,379.4c4.5-4.5,16.2-14,11.4-18.3s-13.3,5.2-14.5,7.9-5,6-5.7,6.8-17,1.4-18.2.8-3.5-4.1-4.6-3.7a1.273,1.273,0,0,0-.7,2.1c.7.8-2.9,1.5-4,.4s-5,0-4.2,2,6.6,3.8,10.2,3.1,19.1,3.5,21.6,3.2C553.773,383.5,558.172,381.3,560.073,379.4Z" transform="translate(-519.465 -322.82)" fill="#ffc8b7"/>
          <path id="Path_2003" data-name="Path 2003" d="M531.692,443.6a7.757,7.757,0,0,0-.1,4,65.854,65.854,0,0,1,1.6,11.7,74.757,74.757,0,0,1-1.3,14.5c-.6,3.7-2.8,8-2.4,9.1.8,2.5,1.3,3.1.9,4.8-.3,1.8-4,6.8-6.9,8.4-2.8,1.6-5,2.3-6.4,2.2s.6-2,.6-2l5.8-16.2-1.8-31.5a22.723,22.723,0,0,1,.3-5.2l.8-5.3h10.4Z" transform="translate(-477.184 -322.82)" fill="#ffc8b7"/>
          <path id="Path_2004" data-name="Path 2004" d="M534.36,486.2s2.4,1.4,2.3,2.9-1.2,12.5-1.2,12.5h-2v-8.2l-5.9,8.2h-9.9s-.8-4,3.3-4.6c4.1-.5,4.4.9,6.8-2.1,2.3-3,5.5-8,5.5-8S533.86,486.2,534.36,486.2Z" transform="translate(-481.653 -322.82)" fill="#101e41"/>
          <path id="Path_2005" data-name="Path 2005" d="M499.969,440.4a8.111,8.111,0,0,0,1.2,3.8,68.522,68.522,0,0,1,5.3,10.6,66.773,66.773,0,0,1,3.5,14.2c.6,3.8,0,8.5.7,9.4,1.5,2.1,2.2,2.5,2.5,4.3s-1.6,7.7-3.7,10.2c-2.2,2.5-4,3.8-5.3,4.2s-.1-2.1-.1-2.1l.2-17.2-12-29.2a28.8,28.8,0,0,1-1.5-5l-.9-5.2,9.8-3.4Z" transform="translate(-430.461 -322.82)" fill="#ffc8b7"/>
          <path id="Path_2006" data-name="Path 2006" d="M495.894,481.2s2.7.5,3.2,2c.4,1.4,3,12.2,3,12.2l-1.9.6-2.7-7.7-2.9,9.6-9.3,3.2s-2.1-3.6,1.6-5.4,4.5-.6,5.7-4.2,2.6-9.4,2.6-9.4A2.129,2.129,0,0,1,495.894,481.2Z" transform="translate(-414.186 -322.82)" fill="#101e41"/>
          <path id="Path_2007" data-name="Path 2007" d="M501.905,399.4h21.2a43.538,43.538,0,0,1,7.5,17c1.9,9.9-.7,32.7-.7,32.7a116.8,116.8,0,0,1-18.6,2c-10.5.3-17.9,0-17.9,0s-.6-17.9-.6-29.4C493.005,411.5,501.905,399.4,501.905,399.4Z" transform="translate(-451.498 -322.82)" fill="#101e41"/>
          <path id="Path_2008" data-name="Path 2008" d="M528,369c-.2-3.3-2.2-8.1-4.1-8.9-1.2-.5-7-3.8-8.7-4.2a23.028,23.028,0,0,0-5.4,0,23.029,23.029,0,0,0-5.4,0c-1.7.4-6.4,2.3-7.7,2.5-1.3.1-3.1,2.8-3.3,6-.2,3.3,2.8,15.2,2.8,15.2l2.9,19.8a66.882,66.882,0,0,0,10.6,1.5,66.882,66.882,0,0,0,10.6-1.5l2.9-19.8C523.3,379.7,528.2,372.3,528,369Z" transform="translate(-448.796 -322.82)" fill="#608fdf"/>
          <g id="Group_666" data-name="Group 666" transform="translate(45.668)">
            <g id="Group_665" data-name="Group 665" transform="translate(3.568 5.752)">
              <path id="Path_2009" data-name="Path 2009" d="M505.907,341.2c.7,7,3,10,7.2,10.1,5.2.1,9.6-3,10.2-9.7s-3.1-12.5-8.3-13S505.207,334.5,505.907,341.2Z" transform="translate(-505.836 -328.573)" fill="#ffc8b7"/>
              <path id="Path_2010" data-name="Path 2010" d="M514.586,344.4s.3,8,1.8,11.6-2,6.3-4.3,6.4-6.6-.5-5.6-3.4,2-6,1-9.3C506.586,346.4,514.586,344.4,514.586,344.4Z" transform="translate(-499.716 -328.573)" fill="#ffc8b7"/>
            </g>
            <path id="Path_2011" data-name="Path 2011" d="M515.2,338.7s-9.2,2-11.9,0c-2.7-2.1-5-5.2-3.2-8s6.7-10.3,16.1-7.1,10.2,8.4,10.6,14.3.1,10.5-3.5,13-6.6.4-6.4-1.2S519.7,341.4,515.2,338.7Z" transform="translate(-499.465 -322.82)" fill="#fea815"/>
            <path id="Path_2012" data-name="Path 2012" d="M507.405,373.2a5.781,5.781,0,0,1-.5-1.4,3.688,3.688,0,0,1,.6-2.8,2.465,2.465,0,0,1,.3-3.6,3.219,3.219,0,0,1-1.2-2,3.291,3.291,0,0,1,2.7-3.8h0a2.389,2.389,0,0,1-.5-1.4,3.214,3.214,0,0,1,1.7-3.5,3.128,3.128,0,0,1-.5-1,2.821,2.821,0,0,1,2.5-3,2.739,2.739,0,0,1,3.3,2.1,2.7,2.7,0,0,1-2.3,2.9,3.251,3.251,0,0,1,.7,1.7,2.98,2.98,0,0,1-1.8,3.5,2.529,2.529,0,0,1,.6,1.5,3.172,3.172,0,0,1-1.5,3.3,3.1,3.1,0,0,1,.6,1.3,2.555,2.555,0,0,1-1.5,2.8,5.782,5.782,0,0,1,.5,1.4,3.449,3.449,0,0,1-.9,3.1,4.356,4.356,0,0,1,.7,1.7c.3,1.8-.7,3.5-2.1,3.7a3.118,3.118,0,0,1-3.2-2.9A3.265,3.265,0,0,1,507.405,373.2Z" transform="translate(-494.466 -322.82)" fill="#fea815"/>
            <path id="Path_2013" data-name="Path 2013" d="M510.5,373.3c-.2.7.8.8,2,1s2,.5,2.2-.3c.2-.9-.8-.8-2-1C511.5,372.9,510.7,372.3,510.5,373.3Z" transform="translate(-498.261 -322.82)" fill="#101e41"/>
          </g>
          <path id="Path_2014" data-name="Path 2014" d="M518.965,381.1c-.9-6.3-1.4-21.3-7.7-20.1s-3.9,13.8-2.5,16.3,1.7,7.6,2,8.7c.2,1.1-9.1,14.4-10.3,15s-5.3.3-5.7,1.4c-.3,1.1.3,1.9,1.3,1.8s-.5,3.2-2.1,3.4-3,4-.9,4.6,7-3,8.6-6.2,14.3-13.2,15.6-15.3A19.769,19.769,0,0,0,518.965,381.1Z" transform="translate(-438.458 -322.82)" fill="#ffc8b7"/>
        </g>
      </g>
    </g>
  </g>
</svg>
