<svg xmlns="http://www.w3.org/2000/svg" xmlns:xlink="http://www.w3.org/1999/xlink" viewBox="0 0 24 24" version="1.1" width="34" height="34" style="fill: rgb(0, 0, 0);">
<g id="surface1">
<path style=" " d="M 12 2 C 6.488281 2 2 6.488281 2 12 C 2 17.511719 6.488281 22 12 22 C 17.511719 22 22 17.511719 22 12 C 22 6.488281 17.511719 2 12 2 Z M 12 4 C 16.429688 4 20 7.570313 20 12 C 20 16.429688 16.429688 20 12 20 C 10.445313 20 9.007813 19.542969 7.78125 18.78125 C 8.480469 18.003906 9.222656 17.183594 10.0625 16.34375 C 10.625 15.78125 13.269531 17.605469 15.3125 15.5625 C 16.683594 14.191406 17.308594 11.953125 16.84375 10.09375 L 13.5625 13.40625 C 13.5625 13.40625 12.578125 13.390625 11.59375 12.40625 C 10.609375 11.421875 10.59375 10.4375 10.59375 10.4375 L 13.90625 7.15625 C 12.050781 6.691406 9.808594 7.316406 8.4375 8.6875 C 6.328125 10.796875 8.25 13.3125 7.71875 13.84375 C 6.863281 14.699219 6.027344 15.492188 5.21875 16.21875 C 4.457031 14.992188 4 13.554688 4 12 C 4 7.570313 7.570313 4 12 4 Z "/>
</g>
</svg>