<?xml version="1.0" encoding="UTF-8"?>
<svg width="818px" height="275px" viewBox="0 0 818 275" version="1.1" xmlns="http://www.w3.org/2000/svg" xmlns:xlink="http://www.w3.org/1999/xlink">
    <!-- Generator: Sketch 47.1 (45422) - http://www.bohemiancoding.com/sketch -->
    <title>Style 1</title>
    <desc>Created with Sketch.</desc>
    <defs></defs>
    <g id="Icons" stroke="none" stroke-width="1" fill="none" fill-rule="evenodd">
        <g id="Background-Images" transform="translate(-1803.000000, -398.000000)">
            <g id="Style-1" transform="translate(1805.000000, 400.000000)">
                <path d="M602.9937,70.2916 L493.2167,70.7126 C484.3287,70.7476 480.4527,59.2536 487.7077,54.1196 C487.8087,54.0476 487.9127,53.9756 488.0147,53.9036 C498.3447,46.7446 511.9387,47.3396 511.9387,47.3396 C511.9387,47.3396 513.7327,8.8196 550.3037,8.6796 C568.3847,8.6096 583.1147,39.4606 583.1147,39.4606 C583.1147,39.4606 607.7107,39.3666 611.8547,58.7706 C613.1097,64.6476 609.0047,70.2686 602.9937,70.2916" id="Fill-1" fill="#FFFFFF"></path>
                <path d="M602.9937,70.2916 L493.2167,70.7126 C484.3287,70.7476 480.4527,59.2536 487.7077,54.1196 C487.8087,54.0476 487.9127,53.9756 488.0147,53.9036 C498.3447,46.7446 511.9387,47.3396 511.9387,47.3396 C511.9387,47.3396 513.7327,8.8196 550.3037,8.6796 C568.3847,8.6096 583.1147,39.4606 583.1147,39.4606 C583.1147,39.4606 607.7107,39.3666 611.8547,58.7706 C613.1097,64.6476 609.0047,70.2686 602.9937,70.2916 Z" id="Stroke-3" stroke="#E1E4E5" stroke-width="4" stroke-linecap="round" stroke-linejoin="round"></path>
                <path d="M12.2124,153.7398 L159.7364,154.3058 C171.6814,154.3518 176.8894,138.9068 167.1404,132.0068 C167.0034,131.9098 166.8654,131.8128 166.7264,131.7168 C152.8464,122.0948 134.5764,122.8948 134.5764,122.8948 C134.5764,122.8948 132.1654,71.1308 83.0204,70.9418 C58.7224,70.8488 38.9264,112.3068 38.9264,112.3068 C38.9264,112.3068 5.8734,112.1808 0.3044,138.2568 C-1.3836,146.1558 4.1354,153.7088 12.2124,153.7398" id="Fill-5" fill="#FFFFFF"></path>
                <path d="M12.2124,153.7398 L159.7364,154.3058 C171.6814,154.3518 176.8894,138.9068 167.1404,132.0068 C167.0034,131.9098 166.8654,131.8128 166.7264,131.7168 C152.8464,122.0948 134.5764,122.8948 134.5764,122.8948 C134.5764,122.8948 132.1654,71.1308 83.0204,70.9418 C58.7224,70.8488 38.9264,112.3068 38.9264,112.3068 C38.9264,112.3068 5.8734,112.1808 0.3044,138.2568 C-1.3836,146.1558 4.1354,153.7088 12.2124,153.7398 Z" id="Stroke-7" stroke="#E1E4E5" stroke-width="4" stroke-linecap="round" stroke-linejoin="round"></path>
                <path d="M335.6382,36.2115 L393.7292,35.9885 C398.9212,35.9685 401.1342,29.2365 396.8722,26.2695 C396.8132,26.2275 396.7522,26.1855 396.6922,26.1445 C390.6252,22.0075 382.6852,22.4165 382.6852,22.4165 C382.6852,22.4165 381.4632,-0.0815 360.0962,0.0005 C340.7792,0.0745 333.1482,19.0635 330.4092,29.5195 C329.5202,32.9175 332.1262,36.2255 335.6382,36.2115" id="Fill-9" fill="#FFFFFF"></path>
                <path d="M335.6382,36.2115 L393.7292,35.9885 C398.9212,35.9685 401.1342,29.2365 396.8722,26.2695 C396.8132,26.2275 396.7522,26.1855 396.6922,26.1445 C390.6252,22.0075 382.6852,22.4165 382.6852,22.4165 C382.6852,22.4165 381.4632,-0.0815 360.0962,0.0005 C340.7792,0.0745 333.1482,19.0635 330.4092,29.5195 C329.5202,32.9175 332.1262,36.2255 335.6382,36.2115 Z" id="Stroke-11" stroke="#E1E4E5" stroke-width="4" stroke-linecap="round" stroke-linejoin="round"></path>
                <path d="M538.5034,89.3248 L710.0794,89.9528 C726.1854,90.0118 725.4944,76.7488 720.2504,72.1088 C714.8764,67.3538 704.2154,69.2358 704.2154,69.2358 C704.2154,69.2358 701.0754,60.3038 690.6504,55.9238 C681.4304,52.0488 671.7484,53.8408 671.7484,53.8408 C671.7484,53.8408 671.7714,47.7198 665.8764,42.6278 C659.9824,37.5368 652.0964,38.0008 652.0964,38.0008 C652.0964,38.0008 646.7994,4.2258 610.5814,4.0938 C574.3634,3.9608 570.0594,35.7288 570.0594,35.7288 C570.0594,35.7288 561.9284,35.6998 555.9944,41.0978 C550.0624,46.4968 549.3004,52.6538 549.3004,52.6538 C549.3004,52.6538 529.5344,49.9158 523.6244,66.9538 C520.1014,77.1078 527.2174,89.2838 538.5034,89.3248" id="Fill-13" fill="#FFFFFF"></path>
                <path d="M538.5034,89.3248 L710.0794,89.9528 C726.1854,90.0118 725.4944,76.7488 720.2504,72.1088 C714.8764,67.3538 704.2154,69.2358 704.2154,69.2358 C704.2154,69.2358 701.0754,60.3038 690.6504,55.9238 C681.4304,52.0488 671.7484,53.8408 671.7484,53.8408 C671.7484,53.8408 671.7714,47.7198 665.8764,42.6278 C659.9824,37.5368 652.0964,38.0008 652.0964,38.0008 C652.0964,38.0008 646.7994,4.2258 610.5814,4.0938 C574.3634,3.9608 570.0594,35.7288 570.0594,35.7288 C570.0594,35.7288 561.9284,35.6998 555.9944,41.0978 C550.0624,46.4968 549.3004,52.6538 549.3004,52.6538 C549.3004,52.6538 529.5344,49.9158 523.6244,66.9538 C520.1014,77.1078 527.2174,89.2838 538.5034,89.3248 Z" id="Stroke-15" stroke="#E1E4E5" stroke-width="4" stroke-linecap="round" stroke-linejoin="round"></path>
                <g id="Group-20" transform="translate(235.000000, 84.487000)">
                    <path d="M0.2407,0.9906 L21.7437,0.9906" id="Fill-17" fill="#FFFFFF"></path>
                    <path d="M0.2407,0.9906 L21.7437,0.9906" id="Stroke-19" stroke="#E1E4E5" stroke-width="4" stroke-linecap="round" stroke-linejoin="round"></path>
                </g>
                <g id="Group-24" transform="translate(206.000000, 84.487000)">
                    <path d="M0.0962,0.9906 L16.8612,0.9906" id="Fill-21" fill="#FFFFFF"></path>
                    <path d="M0.0962,0.9906 L16.8612,0.9906" id="Stroke-23" stroke="#E1E4E5" stroke-width="4" stroke-linecap="round" stroke-linejoin="round"></path>
                </g>
                <g id="Group-28" transform="translate(273.000000, 83.487000)">
                    <path d="M0.2427,0.4906 L7.7427,0.4906" id="Fill-25" fill="#FFFFFF"></path>
                    <path d="M0.2427,0.4906 L7.7427,0.4906" id="Stroke-27" stroke="#E1E4E5" stroke-width="4" stroke-linecap="round" stroke-linejoin="round"></path>
                </g>
                <path d="M194.4663,123.6822 C208.3923,123.6282 201.7913,101.5722 184.1693,106.9142 C183.0753,76.2562 133.0113,54.0142 112.5053,95.4482 C106.6453,90.8482 93.5583,99.6302 96.4923,107.2512 C90.0043,107.8282 84.9013,108.5992 80.9323,109.6082 C71.7693,111.9392 73.6303,124.0422 83.0853,123.9212 L194.4663,123.6822 Z" id="Fill-29" fill="#FFFFFF"></path>
                <path d="M194.4663,123.6822 C208.3923,123.6282 201.7913,101.5722 184.1693,106.9142 C183.0753,76.2562 133.0113,54.0142 112.5053,95.4482 C106.6453,90.8482 93.5583,99.6302 96.4923,107.2512 C90.0043,107.8282 84.9013,108.5992 80.9323,109.6082 C71.7693,111.9392 73.6303,124.0422 83.0853,123.9212 L194.4663,123.6822 Z" id="Stroke-31" stroke="#E1E4E5" stroke-width="4" stroke-linecap="round" stroke-linejoin="round"></path>
                <path d="M381.6294,139.5597 L420.5504,139.5597 C421.9694,139.5597 423.1194,138.4097 423.1194,136.9917 L423.1194,135.1267 C423.1194,133.9037 349.0834,98.2617 336.3534,98.2617 L312.4304,98.2617 C311.0114,98.2617 309.8604,99.4117 309.8604,100.8307 C309.8604,100.8307 310.6914,103.1177 311.8624,103.3827 L380.2604,139.4067 C380.7094,139.5087 381.1694,139.5597 381.6294,139.5597" id="Fill-33" fill="#FFFFFF"></path>
                <path d="M381.6294,139.5597 L420.5504,139.5597 C421.9694,139.5597 423.1194,138.4097 423.1194,136.9917 L423.1194,135.1267 C423.1194,133.9037 349.0834,98.2617 336.3534,98.2617 L312.4304,98.2617 C311.0114,98.2617 309.8604,99.4117 309.8604,100.8307 C309.8604,100.8307 310.6914,103.1177 311.8624,103.3827 L380.2604,139.4067 C380.7094,139.5087 381.1694,139.5597 381.6294,139.5597 Z" id="Stroke-35" stroke="#E1E4E5" stroke-width="4" stroke-linecap="round" stroke-linejoin="round"></path>
                <path d="M272.0923,138.0753 C272.0923,132.0673 275.8203,128.0033 290.7303,128.0033 L454.0963,128.0033 C490.1673,128.0033 497.7963,136.6553 508.3663,142.7633 C514.2253,146.1503 516.0223,159.4633 491.2843,159.5283 C444.6243,159.6503 346.7633,159.5283 322.0133,159.5283 C304.6153,159.5283 272.0923,150.0753 272.0923,138.0753" id="Fill-37" fill="#FFFFFF"></path>
                <path d="M272.0923,138.0753 C272.0923,132.0673 275.8203,128.0033 290.7303,128.0033 L454.0963,128.0033 C490.1673,128.0033 497.7963,136.6553 508.3663,142.7633 C514.2253,146.1503 516.0223,159.4633 491.2843,159.5283 C444.6243,159.6503 346.7633,159.5283 322.0133,159.5283 C304.6153,159.5283 272.0923,150.0753 272.0923,138.0753 Z" id="Stroke-39" stroke="#E1E4E5" stroke-width="4" stroke-linecap="round" stroke-linejoin="round"></path>
                <path d="M273.3052,135.5367 L247.3212,112.6207 C247.3212,112.6207 270.0792,109.9217 280.1542,117.0657 L311.0352,135.5367 L273.3052,135.5367 Z" id="Fill-41" fill="#FFFFFF"></path>
                <path d="M273.3052,135.5367 L247.3212,112.6207 C247.3212,112.6207 270.0792,109.9217 280.1542,117.0657 L311.0352,135.5367 L273.3052,135.5367 Z" id="Stroke-43" stroke="#E1E4E5" stroke-width="4" stroke-linecap="round" stroke-linejoin="round"></path>
                <path d="M381.6294,159.5826 L428.7104,159.5826 C428.7104,160.8056 349.0834,200.8806 336.3534,200.8806 L312.4304,200.8806 C311.0114,200.8806 309.8604,199.7306 309.8604,198.3116 C309.8604,198.3116 310.6914,196.0246 311.8624,195.7596 L380.2604,159.7356 C380.7094,159.6336 381.1694,159.5826 381.6294,159.5826" id="Fill-45" fill="#FFFFFF"></path>
                <path d="M381.6294,159.5826 L428.7104,159.5826 C428.7104,160.8056 349.0834,200.8806 336.3534,200.8806 L312.4304,200.8806 C311.0114,200.8806 309.8604,199.7306 309.8604,198.3116 C309.8604,198.3116 310.6914,196.0246 311.8624,195.7596 L380.2604,159.7356 C380.7094,159.6336 381.1694,159.5826 381.6294,159.5826 Z" id="Stroke-47" stroke="#E1E4E5" stroke-width="4" stroke-linecap="round" stroke-linejoin="round"></path>
                <path d="M280.8687,146.4806 C280.1687,146.4806 279.4707,146.5586 278.7877,146.7126 L261.4267,157.2356 C260.7217,157.3956 260.2207,158.0226 260.2207,158.7456 L260.2207,158.7736 C260.2207,159.6286 260.9137,160.3216 261.7677,160.3216 L272.1857,160.3216 C276.1937,160.3216 306.6537,146.4806 304.8377,146.4806 L280.8687,146.4806 Z" id="Fill-49" fill="#FFFFFF"></path>
                <path d="M280.8687,146.4806 C280.1687,146.4806 279.4707,146.5586 278.7877,146.7126 L261.4267,157.2356 C260.7217,157.3956 260.2207,158.0226 260.2207,158.7456 L260.2207,158.7736 C260.2207,159.6286 260.9137,160.3216 261.7677,160.3216 L272.1857,160.3216 C276.1937,160.3216 306.6537,146.4806 304.8377,146.4806 L280.8687,146.4806 Z" id="Stroke-51" stroke="#E1E4E5" stroke-width="4" stroke-linecap="round" stroke-linejoin="round"></path>
                <g id="Group-56" transform="translate(318.000000, 148.487000)">
                    <path d="M0.2681,0.3109 L48.6581,0.3109" id="Fill-53" fill="#FFFFFF"></path>
                    <path d="M0.2681,0.3109 L48.6581,0.3109" id="Stroke-55" stroke="#E1E4E5" stroke-width="4" stroke-linecap="round" stroke-linejoin="round"></path>
                </g>
                <g id="Group-60" transform="translate(380.000000, 148.487000)">
                    <path d="M0.3218,0.3109 L48.7108,0.3109" id="Fill-57" fill="#FFFFFF"></path>
                    <path d="M0.3218,0.3109 L48.7108,0.3109" id="Stroke-59" stroke="#E1E4E5" stroke-width="4" stroke-linecap="round" stroke-linejoin="round"></path>
                </g>
                <g id="Group-64" transform="translate(441.000000, 148.487000)">
                    <path d="M0.7788,0.3109 L49.1678,0.3109" id="Fill-61" fill="#FFFFFF"></path>
                    <path d="M0.7788,0.3109 L49.1678,0.3109" id="Stroke-63" stroke="#E1E4E5" stroke-width="4" stroke-linecap="round" stroke-linejoin="round"></path>
                </g>
                <g id="Group-68" transform="translate(500.000000, 148.487000)">
                    <path d="M0.2524,0.3109 L9.3524,0.3109" id="Fill-65" fill="#FFFFFF"></path>
                    <path d="M0.2524,0.3109 L9.3524,0.3109" id="Stroke-67" stroke="#E1E4E5" stroke-width="4" stroke-linecap="round" stroke-linejoin="round"></path>
                </g>
                <path d="M339.3218,270.1485 C319.7088,270.0735 329.0058,239.0095 353.8228,246.5335 C355.3628,203.3575 425.8698,172.0335 454.7488,230.3865 C463.0028,223.9065 481.4328,236.2755 477.2998,247.0075 C486.4368,247.8215 493.6248,248.9065 499.2138,250.3285 C512.1188,253.6105 509.4968,270.6565 496.1808,270.4855 L339.3218,270.1485 Z" id="Fill-69" fill="#FFFFFF"></path>
                <path d="M339.3218,270.1485 C319.7088,270.0735 329.0058,239.0095 353.8228,246.5335 C355.3628,203.3575 425.8698,172.0335 454.7488,230.3865 C463.0028,223.9065 481.4328,236.2755 477.2998,247.0075 C486.4368,247.8215 493.6248,248.9065 499.2138,250.3285 C512.1188,253.6105 509.4968,270.6565 496.1808,270.4855 L339.3218,270.1485 Z" id="Stroke-71" stroke="#E1E4E5" stroke-width="4" stroke-linecap="round" stroke-linejoin="round"></path>
                <path d="M746.4214,197.7638 L808.0964,198.0008 C813.0894,198.0198 815.2674,191.5628 811.1914,188.6778 C811.1344,188.6378 811.0764,188.5968 811.0184,188.5568 C805.2154,184.5348 797.5774,184.8688 797.5774,184.8688 C797.5774,184.8688 796.5694,163.2278 776.0244,163.1488 C765.8654,163.1098 757.5904,180.4428 757.5904,180.4428 C757.5904,180.4428 743.7724,180.3888 741.4434,191.2908 C740.7374,194.5928 743.0454,197.7508 746.4214,197.7638" id="Fill-73" fill="#FFFFFF"></path>
                <path d="M746.4214,197.7638 L808.0964,198.0008 C813.0894,198.0198 815.2674,191.5628 811.1914,188.6778 C811.1344,188.6378 811.0764,188.5968 811.0184,188.5568 C805.2154,184.5348 797.5774,184.8688 797.5774,184.8688 C797.5774,184.8688 796.5694,163.2278 776.0244,163.1488 C765.8654,163.1098 757.5904,180.4428 757.5904,180.4428 C757.5904,180.4428 743.7724,180.3888 741.4434,191.2908 C740.7374,194.5928 743.0454,197.7508 746.4214,197.7638 Z" id="Stroke-75" stroke="#E1E4E5" stroke-width="4" stroke-linecap="round" stroke-linejoin="round"></path>
                <g id="Group-80" transform="translate(583.000000, 249.487000)">
                    <path d="M0.3628,0.5136 L31.1238,0.5136" id="Fill-77" fill="#FFFFFF"></path>
                    <path d="M0.3628,0.5136 L31.1238,0.5136" id="Stroke-79" stroke="#E1E4E5" stroke-width="4" stroke-linecap="round" stroke-linejoin="round"></path>
                </g>
                <g id="Group-84" transform="translate(541.000000, 249.487000)">
                    <path d="M0.0962,0.5136 L19.8642,0.5136" id="Fill-81" fill="#FFFFFF"></path>
                    <path d="M0.0962,0.5136 L19.8642,0.5136" id="Stroke-83" stroke="#E1E4E5" stroke-width="4" stroke-linecap="round" stroke-linejoin="round"></path>
                </g>
                <g id="Group-88" transform="translate(627.000000, 249.487000)">
                    <path d="M0.0962,0.5136 L16.2212,0.5136" id="Fill-85" fill="#FFFFFF"></path>
                    <path d="M0.0962,0.5136 L16.2212,0.5136" id="Stroke-87" stroke="#E1E4E5" stroke-width="4" stroke-linecap="round" stroke-linejoin="round"></path>
                </g>
                <g id="Group-92" transform="translate(144.000000, 180.487000)">
                    <path d="M0.0962,0.5136 L29.0962,0.5136" id="Fill-89" fill="#FFFFFF"></path>
                    <path d="M0.0962,0.5136 L29.0962,0.5136" id="Stroke-91" stroke="#E1E4E5" stroke-width="4" stroke-linecap="round" stroke-linejoin="round"></path>
                </g>
                <g id="Group-96" transform="translate(267.000000, 202.487000)">
                    <path d="M0.4565,0.5136 L17.0965,0.5136" id="Fill-93" fill="#FFFFFF"></path>
                    <path d="M0.4565,0.5136 L17.0965,0.5136" id="Stroke-95" stroke="#E1E4E5" stroke-width="4" stroke-linecap="round" stroke-linejoin="round"></path>
                </g>
                <g id="Group-100" transform="translate(206.000000, 202.487000)">
                    <path d="M0.0962,0.5136 L26.8832,0.5136" id="Fill-97" fill="#FFFFFF"></path>
                    <path d="M0.0962,0.5136 L26.8832,0.5136" id="Stroke-99" stroke="#E1E4E5" stroke-width="4" stroke-linecap="round" stroke-linejoin="round"></path>
                </g>
                <g id="Group-104" transform="translate(421.000000, 84.487000)">
                    <path d="M0.2876,0.5136 L41.0966,0.5136" id="Fill-101" fill="#FFFFFF"></path>
                    <path d="M0.2876,0.5136 L41.0966,0.5136" id="Stroke-103" stroke="#E1E4E5" stroke-width="4" stroke-linecap="round" stroke-linejoin="round"></path>
                </g>
                <g id="Group-108" transform="translate(372.000000, 84.487000)">
                    <path d="M0.0962,0.5136 L7.0902,0.5136" id="Fill-105" fill="#FFFFFF"></path>
                    <path d="M0.0962,0.5136 L7.0902,0.5136" id="Stroke-107" stroke="#E1E4E5" stroke-width="4" stroke-linecap="round" stroke-linejoin="round"></path>
                </g>
                <g id="Group-112" transform="translate(387.000000, 63.487000)">
                    <path d="M0.4292,0.5136 L29.1652,0.5136" id="Fill-109" fill="#FFFFFF"></path>
                    <path d="M0.4292,0.5136 L29.1652,0.5136" id="Stroke-111" stroke="#E1E4E5" stroke-width="4" stroke-linecap="round" stroke-linejoin="round"></path>
                </g>
                <g id="Group-116" transform="translate(510.000000, 231.487000)">
                    <path d="M0.0962,0.5136 L54.0962,0.5136" id="Fill-113" fill="#FFFFFF"></path>
                    <path d="M0.0962,0.5136 L54.0962,0.5136" id="Stroke-115" stroke="#E1E4E5" stroke-width="4" stroke-linecap="round" stroke-linejoin="round"></path>
                </g>
                <g id="Group-120" transform="translate(649.000000, 104.487000)">
                    <path d="M0.396,0.8466 L43.096,0.8466" id="Fill-117" fill="#FFFFFF"></path>
                    <path d="M0.396,0.8466 L43.096,0.8466" id="Stroke-119" stroke="#E1E4E5" stroke-width="4" stroke-linecap="round" stroke-linejoin="round"></path>
                </g>
                <g id="Group-124" transform="translate(608.000000, 104.487000)">
                    <path d="M0.0962,0.8466 L18.8312,0.8466" id="Fill-121" fill="#FFFFFF"></path>
                    <path d="M0.0962,0.8466 L18.8312,0.8466" id="Stroke-123" stroke="#E1E4E5" stroke-width="4" stroke-linecap="round" stroke-linejoin="round"></path>
                </g>
            </g>
        </g>
    </g>
</svg>