<?xml version="1.0" encoding="UTF-8"?>
<svg width="323px" height="254px" viewBox="0 0 323 254" version="1.1" xmlns="http://www.w3.org/2000/svg" xmlns:xlink="http://www.w3.org/1999/xlink">
    <!-- Generator: Sketch 47.1 (45422) - http://www.bohemiancoding.com/sketch -->
    <title>Teacup</title>
    <desc>Created with Sketch.</desc>
    <defs></defs>
    <g id="Icons" stroke="none" stroke-width="1" fill="none" fill-rule="evenodd">
        <g id="Monochrome-Images" transform="translate(-559.000000, -471.000000)">
            <g id="Teacup" transform="translate(534.000000, 473.000000)">
                <path d="M291.485,135.8834 C291.485,135.8834 324.465,118.5954 340.24,139.5744 C352.268,155.5704 344.531,182.8044 319.643,194.6874 C294.755,206.5704 253.094,206.5354 253.094,206.5354 L267.153,191.7674 C286.754,189.8384 294.486,190.9034 315.352,180.2784 C333.905,170.8294 335.09,144.1234 315.352,144.1234 C295.612,144.1234 283.033,163.1034 283.033,163.1034 L291.485,135.8834 Z" id="Fill-1" fill="#EFEFEF"></path>
                <path d="M291.485,135.8834 C291.485,135.8834 324.465,118.5954 340.24,139.5744 C352.268,155.5704 344.531,182.8044 319.643,194.6874 C294.755,206.5704 253.094,206.5354 253.094,206.5354 L267.153,191.7674 C286.754,189.8384 294.486,190.9034 315.352,180.2784 C333.905,170.8294 335.09,144.1234 315.352,144.1234 C295.612,144.1234 283.033,163.1034 283.033,163.1034 L291.485,135.8834 Z" id="Stroke-3" stroke="#CECECE" stroke-width="4" stroke-linecap="round" stroke-linejoin="round"></path>
                <path d="M210.0553,242.6613 C270.8153,221.2793 302.9093,149.9703 302.9093,97.8473 L27.6833,97.8473 C27.6833,153.9463 58.6373,221.2793 117.0073,242.6613 L210.0553,242.6613 Z" id="Fill-5" fill="#F4F4F4"></path>
                <path d="M29.5294,98.818 C30.8394,107.625 32.8334,116.503 35.5284,125.257 C52.8534,181.519 105.5114,219.428 164.3804,219.428 L165.3104,219.428 C220.4774,219.428 270.4724,186.062 290.7444,134.755 C295.4664,122.806 298.8204,110.617 300.7974,98.818 L29.5294,98.818 Z" id="Fill-7" fill="#FCFCFC"></path>
                <path d="M210.0553,242.6613 C270.8153,221.2793 302.9093,149.9703 302.9093,97.8473 L27.6833,97.8473 C27.6833,153.9463 58.6373,221.2793 117.0073,242.6613 L210.0553,242.6613 Z" id="Stroke-9" stroke="#CECECE" stroke-width="4" stroke-linecap="round" stroke-linejoin="round"></path>
                <path d="M168.1529,-0.0004 C168.1529,-0.0004 152.7089,20.8736 168.1529,46.9666 C183.5969,73.0596 168.1529,87.8746 168.1529,87.8746" id="Stroke-11" stroke="#CECECE" stroke-width="4" stroke-linecap="round" stroke-linejoin="round"></path>
                <path d="M143.088,19.0236 C138.998,43.9376 154.949,49.0656 156.091,63.2876" id="Stroke-13" stroke="#CECECE" stroke-width="4" stroke-linecap="round" stroke-linejoin="round"></path>
                <path d="M188.0987,49.066 C199.7947,68.827 188.0987,80.047 188.0987,80.047" id="Stroke-15" stroke="#CECECE" stroke-width="4" stroke-linecap="round" stroke-linejoin="round"></path>
                <path d="M56.087,239.2599 L56.772,239.4399 C81.46,245.9269 106.879,249.2099 132.405,249.2099 L195.085,249.2099 C220.937,249.2099 246.678,245.8419 271.66,239.1909 L272.336,239.0109 C275.905,238.0599 275.096,232.7809 271.406,232.9489 C248.377,233.9969 212.717,235.1319 166.306,235.1319 C119.204,235.1319 81.525,233.9629 57.038,232.9029 C53.169,232.7349 52.341,238.2759 56.087,239.2599" id="Fill-17" fill="#EFEFEF"></path>
                <path d="M56.087,239.2599 L56.772,239.4399 C81.46,245.9269 106.879,249.2099 132.405,249.2099 L195.085,249.2099 C220.937,249.2099 246.678,245.8419 271.66,239.1909 L272.336,239.0109 C275.905,238.0599 275.096,232.7809 271.406,232.9489 C248.377,233.9969 212.717,235.1319 166.306,235.1319 C119.204,235.1319 81.525,233.9629 57.038,232.9029 C53.169,232.7349 52.341,238.2759 56.087,239.2599 Z" id="Stroke-19" stroke="#CECECE" stroke-width="4" stroke-linecap="round" stroke-linejoin="round"></path>
                <path d="M78.2608,184.0372 L78.2538,147.7302 C78.2538,146.7762 78.5048,145.8402 78.9808,145.0152 L88.8328,127.9512 C89.8028,126.2722 91.5938,125.2372 93.5338,125.2372 L111.5578,125.2372 C113.4968,125.2372 115.2888,126.2722 116.2588,127.9512 L126.1108,145.0152 C126.5868,145.8402 126.8378,146.7762 126.8378,147.7292 L126.8378,184.0362 C126.8378,187.0342 124.4068,189.4642 121.4098,189.4642 L83.6888,189.4642 C80.6918,189.4642 78.2608,187.0352 78.2608,184.0372" id="Fill-21" fill="#EFEFEF"></path>
                <path d="M78.2608,184.0372 L78.2538,147.7302 C78.2538,146.7762 78.5048,145.8402 78.9808,145.0152 L88.8328,127.9512 C89.8028,126.2722 91.5938,125.2372 93.5338,125.2372 L111.5578,125.2372 C113.4968,125.2372 115.2888,126.2722 116.2588,127.9512 L126.1108,145.0152 C126.5868,145.8402 126.8378,146.7762 126.8378,147.7292 L126.8378,184.0362 C126.8378,187.0342 124.4068,189.4642 121.4098,189.4642 L83.6888,189.4642 C80.6918,189.4642 78.2608,187.0352 78.2608,184.0372 Z" id="Stroke-23" stroke="#CECECE" stroke-width="4" stroke-linecap="round" stroke-linejoin="round"></path>
                <path d="M102.5455,133.942 L102.5455,97.847 C102.5455,95.067 104.7995,92.812 107.5805,92.812 L108.7415,92.812 C111.4945,92.812 113.7265,95.044 113.7265,97.797 L113.7265,97.847" id="Stroke-25" stroke="#CECECE" stroke-width="4" stroke-linecap="round" stroke-linejoin="round"></path>
            </g>
        </g>
    </g>
</svg>